<?xml version="1.0" encoding="utf-8"?>
<!-- Generator: Adobe Illustrator 23.0.3, SVG Export Plug-In . SVG Version: 6.00 Build 0)  -->
<svg version="1.1" id="Layer_1" xmlns="http://www.w3.org/2000/svg" xmlns:xlink="http://www.w3.org/1999/xlink" x="0px" y="0px"
	 viewBox="0 0 246 246" style="enable-background:new 0 0 246 246;" xml:space="preserve">
<style type="text/css">
	.st0{fill-rule:evenodd;clip-rule:evenodd;fill:#E70000;}
</style>
<path class="st0" d="M246,123.1c0,17.5-9.2,32.9-22.9,41.6c0.7,3.2,1,6.6,1,10c0,27.2-22.1,49.3-49.3,49.3c-3.3,0-6.4-0.3-9.5-0.9
	c-8.8,13.7-24.1,22.8-41.6,22.8c-17.5,0-32.8-9.1-41.6-22.9c-3.5,0.8-7.2,1.2-10.9,1.2c-27.2,0-49.3-22.1-49.3-49.3
	c0-3.7,0.4-7.4,1.2-10.8c-13.6-8.8-22.6-24-22.6-41.4c0-17.1,8.7-32.2,22-41c-0.8-3.4-1.2-7-1.2-10.7c0-27.2,22.1-49.3,49.3-49.3
	c3.8,0,7.5,0.4,11.1,1.3c8.8-13.6,24.1-22.6,41.4-22.6c17.3,0,32.5,8.9,41.3,22.4c3.3-0.7,6.6-1,10.1-1c27.2,0,49.3,22.1,49.3,49.3
	c0,3.5-0.4,6.9-1,10.1C236.7,90,246,105.5,246,123.1z M194.1,94.2c-0.3,0-0.5,0-0.8,0c5.6-5.3,9.1-12.8,9.1-21.2
	c0-16.1-13-29.1-29.1-29.1c-8.3,0-15.8,3.5-21.2,9.1c0-0.3,0-0.5,0-0.8c0-16.1-13-29.1-29.1-29.1c-16.1,0-29.1,13-29.1,29
	c-5.3-5.4-12.7-8.8-20.9-8.8c-16.1,0-29.1,13-29.1,29.1c0,8.5,3.6,16.1,9.4,21.5c-0.5,0-1.1,0-1.6,0c-16.1,0-29.1,13-29.1,29.1
	s13,29.1,29.1,29.1c0.4,0,0.9,0,1.3,0c-5.6,5.3-9.1,12.8-9.1,21.2c0,16.1,13,29.1,29.1,29.1c8.2,0,15.6-3.4,20.9-8.8
	c0,0.3,0,0.7,0,1c0,16.1,13,29.1,29.1,29.1s29.1-13,29.1-29.1c0-0.4,0-0.7,0-1c5.3,5.6,12.8,9.1,21.2,9.1c16.1,0,29.1-13,29.1-29.1
	c0-8.3-3.5-15.8-9.1-21.2c0.3,0,0.5,0,0.8,0c16.1,0,29.1-13,29.1-29.1S210.2,94.2,194.1,94.2z M153.9,169.3
	c-8.5,0-15.4-6.9-15.4-15.4c0-8.5,6.9-15.4,15.4-15.4c8.5,0,15.4,6.9,15.4,15.4C169.3,162.4,162.4,169.3,153.9,169.3z M100.5,161.4
	c-4.4,4.4-11.5,4.4-15.9,0c-4.4-4.4-4.4-11.5,0-15.9l61.1-60.6c4.4-4.4,11.5-4.4,15.9,0c4.4,4.4,4.4,11.5,0,15.9L100.5,161.4z
	 M92.1,107.8c-8.5,0-15.4-6.9-15.4-15.4s6.9-15.4,15.4-15.4s15.4,6.9,15.4,15.4S100.6,107.8,92.1,107.8z"/>
</svg>
