<?xml version="1.0" encoding="utf-8"?>
<!-- Generator: Adobe Illustrator 23.0.3, SVG Export Plug-In . SVG Version: 6.00 Build 0)  -->
<svg version="1.1" xmlns="http://www.w3.org/2000/svg" xmlns:xlink="http://www.w3.org/1999/xlink" x="0px" y="0px"
	 viewBox="0 0 420 300" style="enable-background:new 0 0 420 300;" xml:space="preserve">
<style type="text/css">
	.st0{opacity:0.4;fill:#E1894E;}
	.st1{fill:url(#SVGID_1_);}
	.st2{opacity:0.3;fill:#DA8065;}
	.st3{fill:url(#SVGID_2_);}
	.st4{fill:url(#SVGID_3_);}
	.st5{fill:#5B3610;}
	.st6{opacity:0.2;fill:#DA8065;}
	.st7{opacity:0.3;fill:#5B3610;}
	.st8{fill:#FFFFFF;}
	.st9{fill:#493426;}
	.st10{fill:#806249;}
	.st11{opacity:0.4;fill:#A0A0A0;}
	.st12{fill:url(#SVGID_4_);}
	.st13{fill:#002440;}
	.st14{opacity:0.5;fill:url(#SVGID_5_);}
	.st15{fill:url(#SVGID_6_);}
	.st16{opacity:0.4;fill:url(#SVGID_7_);}
	.st17{fill:url(#SVGID_8_);}
	.st18{opacity:0.4;fill:url(#SVGID_9_);}
	.st19{fill:#46676C;}
	.st20{opacity:0.3;fill:#46676C;}
	.st21{fill:url(#SVGID_10_);}
	.st22{opacity:0.4;fill:#002440;}
	.st23{fill:url(#SVGID_11_);}
	.st24{opacity:0.8;fill:#002440;}
	.st25{fill:url(#SVGID_12_);}
	.st26{opacity:0.5;fill:#002440;}
	.st27{fill:#11473B;}
	.st28{opacity:0.5;fill:#11473B;}
	.st29{fill:url(#SVGID_13_);}
	.st30{opacity:0.23;fill:#DD8065;}
	.st31{fill:url(#SVGID_14_);}
	.st32{opacity:0.23;fill:url(#SVGID_15_);}
	.st33{opacity:0.23;fill:url(#SVGID_16_);}
	.st34{fill:url(#SVGID_17_);}
	.st35{fill:url(#SVGID_18_);}
	.st36{fill:url(#SVGID_19_);}
	.st37{fill:url(#SVGID_20_);}
	.st38{fill:#DD8065;}
	.st39{fill:url(#SVGID_21_);}
	.st40{opacity:0.26;fill:#4B421A;}
	.st41{opacity:0.4;}
	.st42{fill:#5E3319;}
	.st43{fill:#422F1C;}
	.st44{fill:#755A3B;}
	.st45{opacity:0.3;fill:#7A7876;}
	.st46{fill:#99372C;}
	.st47{fill:#71675F;}
	.st48{fill:#1E232B;}
	.st49{opacity:0.3;}
	.st50{fill:#111919;}
	.st51{opacity:0.3;fill:#111919;}
	.st52{fill:url(#SVGID_22_);}
	.st53{opacity:0.4;fill:url(#SVGID_23_);}
	.st54{fill:url(#SVGID_24_);}
	.st55{opacity:0.4;fill:url(#SVGID_25_);}
	.st56{fill:url(#SVGID_26_);}
	.st57{opacity:0.4;fill:url(#SVGID_27_);}
	.st58{opacity:0.3;fill:#FCA250;}
	.st59{fill:url(#SVGID_28_);}
	.st60{opacity:0.4;fill:#46676C;}
	.st61{fill:#FFD49F;}
	.st62{opacity:0.7;fill:#FFD49F;}
	.st63{fill:#282F39;}
	.st64{fill:#263A3A;}
	.st65{fill:url(#SVGID_29_);}
	.st66{opacity:0.4;fill:#8DA5B0;}
	.st67{opacity:0.3;fill:#8DA5B0;}
	.st68{fill:url(#SVGID_30_);}
	.st69{opacity:0.3;fill:url(#SVGID_31_);}
	.st70{opacity:0.16;fill:#FCA250;}
	.st71{fill:url(#SVGID_32_);}
	.st72{opacity:0.5;fill:#C7AFA5;}
	.st73{fill:url(#SVGID_33_);}
	.st74{opacity:0.3;fill:#A52A07;}
	.st75{opacity:0.5;fill:#A52A07;}
	.st76{opacity:0.4;fill:#263A3A;}
	.st77{opacity:0.6;}
	.st78{fill:#9A4730;}
	.st79{fill:url(#SVGID_34_);}
	.st80{fill:#4E555E;}
	.st81{opacity:0.7;fill:#4E555E;}
	.st82{fill:url(#SVGID_35_);}
	.st83{opacity:0.3;fill:url(#SVGID_36_);}
	.st84{opacity:0.3;fill:#635A53;}
	.st85{fill:#635A53;}
	.st86{fill:url(#SVGID_37_);}
	.st87{fill:#353331;}
	.st88{opacity:0.5;}
	.st89{opacity:2.381000e-02;fill:#969DC5;}
	.st90{opacity:6.710000e-02;fill:#8B92B7;}
	.st91{opacity:0.1104;fill:#8086A9;}
	.st92{opacity:0.1537;fill:#757B9B;}
	.st93{opacity:0.197;fill:#6A708D;}
	.st94{opacity:0.2403;fill:#5F647F;}
	.st95{opacity:0.2835;fill:#555971;}
	.st96{opacity:0.3268;fill:#4A4D63;}
	.st97{opacity:0.3701;fill:#3F4255;}
	.st98{opacity:0.4134;fill:#343747;}
	.st99{opacity:0.4567;fill:#292B39;}
	.st100{opacity:0.5;fill:#1E202B;}
	.st101{fill:#CED3F4;}
	.st102{fill:url(#SVGID_38_);}
	.st103{fill:url(#SVGID_39_);}
	.st104{fill:url(#SVGID_40_);}
	.st105{fill:url(#SVGID_41_);}
	.st106{fill:url(#SVGID_42_);}
	.st107{fill:url(#SVGID_43_);}
	.st108{fill:url(#SVGID_44_);}
	.st109{fill:url(#SVGID_45_);}
	.st110{fill:#AFB6E5;}
	.st111{fill:url(#SVGID_46_);}
	.st112{fill:url(#SVGID_47_);}
	.st113{fill:url(#SVGID_48_);}
	.st114{fill:url(#SVGID_49_);}
	.st115{fill:url(#SVGID_50_);}
	.st116{fill:url(#SVGID_51_);}
	.st117{fill:url(#SVGID_52_);}
	.st118{fill:url(#SVGID_53_);}
	.st119{fill:url(#SVGID_54_);}
	.st120{fill:url(#SVGID_55_);}
	.st121{fill:url(#SVGID_56_);}
	.st122{fill:url(#SVGID_57_);}
	.st123{fill:url(#SVGID_58_);}
	.st124{fill:url(#SVGID_59_);}
	.st125{fill:url(#SVGID_60_);}
	.st126{fill:url(#SVGID_61_);}
	.st127{fill:url(#SVGID_62_);}
	.st128{fill:url(#SVGID_63_);}
	.st129{fill:url(#SVGID_64_);}
	.st130{fill:url(#SVGID_65_);}
	.st131{fill:url(#SVGID_66_);}
	.st132{fill:#D1D3D4;}
	.st133{fill:url(#SVGID_67_);}
	.st134{fill:url(#SVGID_68_);}
	.st135{opacity:0.1;}
	.st136{fill:#10054D;}
	.st137{fill:url(#SVGID_69_);}
	.st138{fill:url(#SVGID_70_);}
	.st139{fill:url(#SVGID_71_);}
	.st140{fill:url(#SVGID_72_);}
	.st141{fill:url(#SVGID_73_);}
	.st142{fill:url(#SVGID_74_);}
	.st143{fill:url(#SVGID_75_);}
	.st144{fill:url(#SVGID_76_);}
	.st145{fill:url(#SVGID_77_);}
	.st146{opacity:0.5;fill:url(#SVGID_78_);}
	.st147{fill:url(#SVGID_79_);}
	.st148{fill:url(#SVGID_80_);}
	.st149{fill:url(#SVGID_81_);}
</style>
<g id="Layer_1">
</g>
<g id="Layer_2">
	<g>
		<path class="st0" d="M36.2,278.2c0,0,67.5,6.5,123.6,8.9c56.1,2.4,160.6-1.2,160.6-1.2l65.1-8.1l-36.6-5.3l-253.3-3.7l-61,5.7
			L36.2,278.2z"/>
		<g>
			<g>
				
					<linearGradient id="SVGID_1_" gradientUnits="userSpaceOnUse" x1="762.0081" y1="153.4126" x2="768.7305" y2="153.4126" gradientTransform="matrix(-0.9632 0.2689 0.2689 0.9632 1042.127 -144.1272)">
					<stop  offset="0" style="stop-color:#E7BD9A"/>
					<stop  offset="1" style="stop-color:#E6A081"/>
				</linearGradient>
				<path class="st1" d="M344.4,215.7c0,0,0.5,0.2,1.9-0.6c1.4-0.8,3.1-1.9,3.3-2.3l0.1,0.3c0-0.2-0.1-0.4-0.2-0.9
					c0-0.1-0.1-0.2-0.1-0.4c-0.3-1.5-0.5-4.1-0.7-5.9c0,0-0.3,0.1-1-0.5c-0.7-0.6-1.2-2-1.2-2s0,0.6,0,1.3c0.1,0.1,0.2,0.2,0.2,0.3
					c0.1,0.8,0,1.6-0.4,2.4c-0.3,0.6-0.8,1.3-1.3,2c0,0.2,0,0.6,0.1,1.1c0,0.9,0.1,1.9,0,2.4C345,213.8,344.4,215.7,344.4,215.7z"/>
				<path class="st2" d="M345.1,210.6c0.6-0.2,1.6-0.4,1.8-0.3c0.2,0.1,1.6,1,2.5,1.5c-0.3-1.5-0.5-4.1-0.7-5.9c0,0-0.3,0.1-1-0.5
					c-0.7-0.6-1.2-2-1.2-2s0,0.6,0,1.3c0.1,0.1,0.2,0.2,0.2,0.3c0.1,0.8,0,1.6-0.4,2.4c-0.3,0.6-0.8,1.3-1.3,2
					C345.1,209.7,345.1,210.1,345.1,210.6z"/>
			</g>
			
				<linearGradient id="SVGID_2_" gradientUnits="userSpaceOnUse" x1="762.0027" y1="151.0553" x2="768.7394" y2="151.0553" gradientTransform="matrix(-0.9632 0.2689 0.2689 0.9632 1042.127 -144.1272)">
				<stop  offset="0" style="stop-color:#E7BD9A"/>
				<stop  offset="1" style="stop-color:#E6A081"/>
			</linearGradient>
			<path class="st3" d="M346.4,206.8c0.1-0.5,0.1-1.3,0.1-2c0.1,0.1,0.2,0.2,0.2,0.3c0.1,0.8,0.1,1.6-0.4,2.4
				c-0.3,0.6-0.8,1.3-1.3,2c0-0.1,0-0.2,0-0.2S346.3,207.7,346.4,206.8z"/>
			
				<linearGradient id="SVGID_3_" gradientUnits="userSpaceOnUse" x1="772.2915" y1="156.4529" x2="769.2516" y2="141.4105" gradientTransform="matrix(-0.9632 0.2689 0.2689 0.9632 1042.127 -144.1272)">
				<stop  offset="0" style="stop-color:#E7BD9A"/>
				<stop  offset="1" style="stop-color:#E6A081"/>
			</linearGradient>
			<path class="st4" d="M331.8,208.6c0,0,0.5,0.5,1.4,0.5c0.9,0.1,1.8-0.7,1.8-0.7c0.1,0.6,0.4,1.3,0.8,1.9c0.3,0.5,0.6,0.9,1,1.3
				c0.6,0.7,1.2,1.2,1.4,1.4c0.3,0.3,0.4,0.6,1,0.7c0.3,0,0.8,0,1.5-0.3c1.3-0.5,3.1-2.2,4.4-3.8c0.6-0.7,1-1.4,1.3-2
				c0.4-0.8,0.4-1.6,0.4-2.4c-0.1-0.1-0.2-0.2-0.2-0.3c-0.4-0.6-0.7-1.3-0.7-1.7c0,0,1-0.8,1.4-2.1c0.4-1.3,0.2-4.1-1.3-4.2
				c-1.4,0-2,1.3-1.6,2.5c0.4,1.2,0.5,2.7,0.5,2.7l-0.4,0.6c0,0-0.5-1.6-1.2-2.5c-0.7-0.9-1.8-2.9-1.8-2.9s-1.7,1-5.7,0.5
				c-2.1-0.3-3.6-0.6-4.6-1c0,0.2,0,0.5,0.1,0.8c0.1,0.6,0.2,1.3,0.5,2.1c0.6,1.8,2.3,3.3,2.3,3.3s0.1,1.5-0.7,3.2
				C332.6,207.9,331.8,208.6,331.8,208.6z"/>
			<path class="st5" d="M328.1,193.5c0.1,0.2,0.1,0.5,0.2,0.7c0.3,0.7,0.7,1.2,1,1.5c0.2,0.2,0.5,0.4,0.9,0.6
				c0.2,0.1,0.4,0.2,0.6,0.3c0.1,0,0.2,0.1,0.3,0.1c1,0.4,2.5,0.7,4.6,1c4,0.5,5.7-0.5,5.7-0.5s1,2,1.8,2.9c0.7,0.9,1.2,2.5,1.2,2.5
				l0.4-0.6c0,0-0.1-1.5-0.5-2.7c-0.4-1.2,0.2-2.6,1.6-2.5c1.4,0,1.7,2.9,1.3,4.2c-0.4,1.3-1.4,2.1-1.4,2.1c0,0.5,0.4,1.4,0.9,2
				c0.2,0.2,0.4,0.4,0.6,0.5c0.7,0.4,1.7,0.8,1.7,0.6c0-0.2,0.3-1.3,0.2-3.7c0-1.2-0.1-2.7-0.3-4.2c0-0.2,0-0.5-0.1-0.7
				c0-0.5-0.1-1.1-0.2-1.6c0-0.3-0.1-0.7-0.1-1c0-0.3-0.1-0.6-0.1-0.8c0-0.4-0.1-0.7-0.2-1.1c-0.1-0.4-0.2-0.8-0.4-1.2c0,0,0,0,0,0
				c-0.1-0.3-0.3-0.7-0.5-1c-0.6-0.9-1.4-1.6-2.5-2.1c-2.8-1.4-4.5-1.9-9.1-1.3c-1.8,0.3-3.2,0.8-4.2,1.3c-1.6,0.8-2.2,1.7-2.2,1.7
				c-0.7,0.5-1.2,1-1.3,1.5c-0.1,0.3-0.1,0.7-0.1,1.1C328.1,193.3,328.1,193.4,328.1,193.5z"/>
			<path class="st6" d="M343.6,201.9c0.8,1.3,1.4,3.2,1.5,4.7c0.1,1.5-0.2,2.1-1.6,3.8c-1.4,1.7-3.3,2.7-4.2,3
				c-0.1,0-0.1,0.1-0.2,0.1c0.3,0,0.8,0,1.5-0.3c1.3-0.5,3.1-2.2,4.4-3.8c0.6-0.7,1-1.4,1.3-2c0.4-0.8,0.4-1.6,0.4-2.4
				c-0.1-0.1-0.2-0.2-0.2-0.3c-0.4-0.6-0.7-1.3-0.7-1.7c0,0,1-0.8,1.4-2.1c0.4-1.3,0.2-4.1-1.3-4.2c-1.4,0-2,1.3-1.6,2.5
				c0.4,1.2,0.5,2.7,0.5,2.7l-0.4,0.6c0,0-0.5-1.6-1.2-2.5c-0.7-0.9-1.8-2.9-1.8-2.9s-1.7,1-5.7,0.5c-2.1-0.3-3.6-0.6-4.6-1
				c0,0.2,0,0.5,0.1,0.8c0.9,0.6,3.3,1.6,4.9,1.6c1.9,0,5-1.1,5-1.1S342.8,200.6,343.6,201.9z"/>
			<path class="st5" d="M338.8,199.4c0.1-0.1-1.4-1.3-3.1-1.2c-1.7,0.1-1.9,1.2-1.4,1.6c0.5,0.4,0.9-0.3,2.1-0.3
				C337.5,199.5,338.7,199.5,338.8,199.4z"/>
			<path class="st6" d="M345.6,197.8c0,0-1.1,2.2,0.2,4c0,0,0.7-0.3,0.8-0.8c0.1-0.5-0.9-0.7-0.9-0.7L345.6,197.8z"/>
			<path class="st6" d="M331.8,208.6c0,0,0.5,0.5,1.4,0.5c0.9,0.1,1.8-0.7,1.8-0.7c-0.1-0.2-0.8,0.2-1.8,0.2
				C332.2,208.6,331.8,208.6,331.8,208.6z"/>
			<path class="st7" d="M329.3,195.7c0.3,0.3,0.9,0.7,1.8,1c1,0.4,2.5,0.7,4.6,1c4,0.5,5.7-0.5,5.7-0.5s1,2,1.8,2.9
				c0.7,0.9,1.2,2.5,1.2,2.5l0.4-0.6c0,0-0.1-1.5-0.5-2.7c-0.4-1.2,0.2-2.6,1.6-2.5c1.4,0,1.7,2.9,1.3,4.2c-0.4,1.3-1.4,2.1-1.4,2.1
				c0,0.5,0.4,1.4,0.9,2c0.2,0.2,0.4,0.4,0.6,0.5c0.7,0.4,1.7,0.8,1.7,0.6c0-0.2,0.3-1.3,0.2-3.7c-0.1-2.4-0.4-5.9-0.7-8.4
				c0-0.4-0.1-0.7-0.2-1.1c-1,0.7-3,2.1-4.3,2.9c-1.8,1.2-2.6,0.9-4.9,0.6c-2.3-0.2-5.2-1.7-7.5-1.2c-2.1,0.4-2.8-0.9-3.7-2.3
				C328.2,194.3,329,195.3,329.3,195.7z"/>
			<path class="st7" d="M328.1,193.5c0.1,0.2,0.1,0.5,0.2,0.7c1.2-1,4.6-2.8,8.7-3.1c4.7-0.3,8.8,1.7,9.2,1.9
				c0.2,0.1,1.6,1.9,2.6,3.1c0-0.3-0.1-0.7-0.1-1c-0.3-0.4-0.7-0.9-1.2-1.4c-1.1-1.3-4.6-2.6-7-2.9c-2.4-0.3-5.9,0.2-8.2,0.8
				C330.8,192,329.1,193,328.1,193.5z"/>
			<path class="st7" d="M328.2,192.2c0.9-0.8,1.7-1.9,4.5-2.6c3.4-0.8,6.2-1.3,9.3-0.6c2.2,0.5,4.8,2.1,6.1,3
				c-0.1-0.3-0.3-0.7-0.5-1c-0.3-0.2-0.7-0.4-1.1-0.6c-1.3-0.7-4.6-2.4-7.6-2.4c-2.4,0-5.2,0.3-7.1,0.9c-1.6,0.8-2.2,1.7-2.2,1.7
				C328.8,191.1,328.3,191.6,328.2,192.2z"/>
			<path class="st7" d="M330.2,196.3c0.2,0.1,0.4,0.2,0.6,0.3c0.5-0.5,1.3-1.1,2.1-1.6c1.4-0.7,2.8-1,6-0.6c3.2,0.5,6.9,1.8,8.2,2.5
				c0.7,0.4,1.5,1,1.9,1.5c0-0.2,0-0.5-0.1-0.7c-0.5-0.4-1.1-0.8-1.5-1.1c-0.9-0.4-4.9-1.8-6.5-2.4c-1.6-0.6-5-1-6.8-0.3
				C332.7,194.4,331.1,195.5,330.2,196.3z"/>
			<path class="st8" d="M335.8,210.3c0.3,0.5,0.6,0.9,1,1.3c0.4-0.2,1.7-0.9,2.2-1.4c0.7-0.6,1.3-1.9,1.3-1.9s-1.1,0.5-2,1
				C337.6,209.7,336.2,210.1,335.8,210.3z"/>
			<g>
				<path class="st8" d="M335.2,201.8c0,0,0.8,1.6,1,1.7c0,0,0.3,0.1,0.8-0.2c0.2-0.1,0.4-0.2,0.6-0.3c0.9-0.6,1.5-1.2,1.5-1.2
					c-0.2-0.2-1.6-1.1-2.7-0.9c-0.1,0-0.2,0-0.2,0.1C335.3,201.2,335.2,201.8,335.2,201.8z"/>
				<path class="st9" d="M335.2,201.8c0,0,0.8,1.6,1,1.7c0,0,0.3,0.1,0.8-0.2c0.1-0.4,0.1-0.9-0.1-1.5c-0.2-0.4-0.5-0.7-0.8-0.9
					C335.3,201.2,335.2,201.8,335.2,201.8z"/>
				<path class="st10" d="M339.1,201.8c0-0.1-1.3-1-2.4-1.2c-1-0.3-1.8,0.6-1.7,1l0.2,0.2c0,0,0-0.5,0.8-0.8
					c0.8-0.2,1.2-0.1,1.9,0.2C338.7,201.7,339.1,201.8,339.1,201.8z"/>
				<path class="st11" d="M339.1,201.8c0,0-0.9-0.3-1.6-0.5c-0.7-0.2-1.4,0-1.8,0.2c-0.4,0.2-0.5,0.6-0.5,0.6l-0.2-0.3l-0.1-0.1
					c0,0,0.1-0.6,0.9-0.9c0.6-0.2,1.6,0.3,2.1,0.5C338.5,201.5,339.1,201.8,339.1,201.8z"/>
			</g>
		</g>
		<linearGradient id="SVGID_4_" gradientUnits="userSpaceOnUse" x1="364.2389" y1="248.546" x2="349.2955" y2="215.457">
			<stop  offset="0" style="stop-color:#007775"/>
			<stop  offset="1" style="stop-color:#008575"/>
		</linearGradient>
		<path class="st12" d="M375.6,247.4c0,0-0.2,0.1-0.6,0.2c-0.3,0.1-0.7,0.2-1.2,0.3l-0.1,0c-0.5,0.1-1,0.2-1.6,0.3
			c-0.2,0-0.4,0.1-0.5,0.1c-0.6,0.1-1.3,0.2-2,0.3c-0.4,0-0.8,0.1-1.2,0.1l-1,0l-0.6,0c-0.2,0-0.4,0-0.6,0c-1.6,0-3.3-0.1-5.2-0.4
			c-1.9-0.3-4-0.9-6-1.8c0,0-4.4-11.4-5.6-13.7c-1.2-2.3-2.3-4.3-2.3-4.3l-3.1,2.9c0,0-0.3-0.9-1-2.1c-0.5-0.8-1.1-1.8-1.9-2.5
			c-1.8-1.7-3.8-3.4-3.8-3.4s3.7-7.3,5.6-9.9c0.3-0.4,0.6-0.7,1-1.1c0.4-0.5,1-0.9,1.6-1.3c2.3-1.7,5.7-2.6,9.7-0.6
			c4.1,2,7.9,5.9,11.3,10.7c0.5,0.7,1,1.4,1.4,2.1c0.7,1.1,1.4,2.2,2,3.4c0,0,0,0,0,0c0.2,0.3,0.3,0.6,0.5,0.9
			C374.5,235.6,375.6,247.4,375.6,247.4z"/>
		<path class="st13" d="M375,247.7l-1.3,0.3l-0.1,0l-1.6,0.3l-0.5,0.1c0,0,0,0,0,0c-0.1-0.2-0.7-1.5-1.8-3.5c-0.5-0.9-1-2-1.7-3.1
			c-0.3-0.6-0.7-1.3-1.1-1.9c-0.8-1.3-1.7-2.8-2.6-4.2c-1.1-1.7-2.4-3.5-3.7-5.3c-5.8-7.6-13.6-15.3-16.6-17.7
			c0.4-0.5,1-0.9,1.6-1.3c3.6,3.4,13.4,12.7,16.6,17.7c1,1.5,2.5,3.7,4,6c0.3,0.4,0.5,0.8,0.8,1.2c0.4,0.6,0.8,1.1,1.2,1.7
			c0.6,0.9,1.2,1.8,1.8,2.6C372.5,244.1,374.7,247.1,375,247.7C375,247.7,375,247.7,375,247.7z"/>
		<path class="st13" d="M370.2,233.5c0,2.1-0.1,4.6-0.2,7c-0.1,1.6-0.1,3.2-0.2,4.5c-0.1,2-0.2,3.5-0.2,3.8c0,0,0,0.1,0,0.1
			l-2.2,0.3c0-0.1,0-0.1,0-0.2c0.3-2.1,0.5-4.5,0.7-7.1c0.1-1.3,0.1-2.6,0.1-3.9c0-1.2,0-2.4,0-3.6c0-4-0.1-7.8-0.3-10.7
			c0.7,1.1,1.4,2.2,2,3.4c0,0,0,0,0,0c0.1,0.8,0.2,1.7,0.2,2.6C370.2,230.5,370.2,231.9,370.2,233.5z"/>
		<linearGradient id="SVGID_5_" gradientUnits="userSpaceOnUse" x1="356.1825" y1="248.0593" x2="346.6257" y2="226.8977">
			<stop  offset="0" style="stop-color:#007775"/>
			<stop  offset="1" style="stop-color:#008575"/>
		</linearGradient>
		<path class="st14" d="M361,248.4c-1.9-0.3-4-0.9-6-1.8c0,0-4.4-11.4-5.6-13.7c-1.2-2.3-2.3-4.3-2.3-4.3l-3.1,2.9
			c0,0-0.3-0.9-1-2.1c0.3-0.4,1.6-1.9,1.9-2.8c0.3-1.1,1.7-3.7,1.7-3.7s5.2,9.3,8.5,15.4C357.3,242.1,359.6,246,361,248.4z"/>
		<g>
			<linearGradient id="SVGID_6_" gradientUnits="userSpaceOnUse" x1="360.1986" y1="262.8086" x2="352.675" y2="284.1581">
				<stop  offset="5.000000e-03" style="stop-color:#135DA4"/>
				<stop  offset="1" style="stop-color:#084D98"/>
			</linearGradient>
			<path class="st15" d="M370.4,275.3l2,3c0,0-4.9,1.1-10.4,1.5c-5.5,0.5-20.7,2.4-22.7,0.9c-2-1.5-2.3-5.8,1.1-9.6
				c3.4-3.8,13-10.8,14.2-12c0,0,4.2,2.3,8.8,2.4c0,0,0,0,0.1,0c4.6,0.2,11.3-2.4,11.3-2.4s-1.7,3.7-4.3,5.6
				c-2.5,1.9-12.4,6.5-13.3,7c6.7-2.8,12.4,2.3,12.4,2.3L370.4,275.3z"/>
			<linearGradient id="SVGID_7_" gradientUnits="userSpaceOnUse" x1="360.0123" y1="264.8643" x2="361.4477" y2="273.7041">
				<stop  offset="5.000000e-03" style="stop-color:#135DA4"/>
				<stop  offset="1" style="stop-color:#084D98"/>
			</linearGradient>
			<path class="st16" d="M374.7,259.1c0,0-1.7,3.7-4.3,5.6c-2.5,1.9-12.4,6.5-13.3,7c6.7-2.8,12.4,2.3,12.4,2.3l0.9,1.3
				c-3.9-1.3-12.4-4-16.3-3.6c-4.7,0.6-7.8,2.6-8.2,2.9c0.9-0.7,15.1-11.1,16.6-12.6l0.8-0.5c0,0,0,0,0.1,0
				C368,261.7,374.7,259.1,374.7,259.1z"/>
		</g>
		<linearGradient id="SVGID_8_" gradientUnits="userSpaceOnUse" x1="352.7225" y1="243.0929" x2="356.5846" y2="266.8762">
			<stop  offset="5.000000e-03" style="stop-color:#135DA4"/>
			<stop  offset="1" style="stop-color:#084D98"/>
		</linearGradient>
		<path class="st17" d="M375.5,257.5c-0.2,0.7-0.4,1.3-0.7,1.7c-1.5,1.8-7.3,6.4-13.9,3.7c-6.6-2.7-14.3-8.7-14.3-8.7
			c3.7,6.7,3.8,21.8,3.8,21.8l-2.3,0.5l-2.6,0.6c0,0-11.7-20.7-14-28.8c-2.3-8.1,0.5-12.2,5.3-11c4.9,1.2,18.3,9.4,18.3,9.4
			s6.7,2.3,11.1,2.3c4.4,0,9.5-1.8,9.5-1.8C376.1,249.3,376.2,254.5,375.5,257.5z"/>
		<linearGradient id="SVGID_9_" gradientUnits="userSpaceOnUse" x1="357.2935" y1="250.2678" x2="360.2021" y2="268.1794">
			<stop  offset="5.000000e-03" style="stop-color:#135DA4"/>
			<stop  offset="1" style="stop-color:#084D98"/>
		</linearGradient>
		<path class="st18" d="M375.5,257.5c-0.2,0.7-0.4,1.3-0.7,1.7c-1.5,1.8-7.3,6.4-13.9,3.7c-6.6-2.7-14.3-8.7-14.3-8.7
			c3.7,6.7,3.8,21.8,3.8,21.8l-2.3,0.5c0.1-3.6-0.8-11.4-2.5-17.1c-1.8-6.1-5.9-13-5.9-13s17.2,10.4,24.5,11.9
			C368.6,259.1,372.8,258.3,375.5,257.5z"/>
		<g>
			<path class="st19" d="M353.2,281.4c0,0-1.3,0.2-3.4,0.4c-3,0.2-7.4,0.3-11.3-0.8c0,0,5.8-3.5,6.9-4l2.8-0.6l2.1-0.5
				C350.8,276.5,352.9,280.1,353.2,281.4z"/>
			<path class="st20" d="M353.2,281.4c0,0-1.3,0.2-3.4,0.4c-0.5-1.8-1.1-3.9-1.6-5.4l2.1-0.5C350.8,276.5,352.9,280.1,353.2,281.4z"
				/>
		</g>
		<g>
			<path class="st19" d="M381.7,279.5c-3.2,0.2-9-1.4-9.3-1.2l-2.3-3.3l-0.6-0.9c-0.9-1.7,0.6-4.7,0.6-4.7c0.8,0.4,2.8,2,4.8,3.9
				C378.2,276.1,381.7,279.5,381.7,279.5z"/>
			<path class="st20" d="M375,273.2c-2.2-0.2-4.1,0.8-4.8,1.8l-0.6-0.9c-0.9-1.7,0.6-4.7,0.6-4.7C371,269.7,372.9,271.4,375,273.2z"
				/>
		</g>
		<g>
			<linearGradient id="SVGID_10_" gradientUnits="userSpaceOnUse" x1="311.8752" y1="231.8577" x2="344.2323" y2="231.8577">
				<stop  offset="0" style="stop-color:#EEC4A0"/>
				<stop  offset="1" style="stop-color:#EDA688"/>
			</linearGradient>
			<path class="st21" d="M344.2,231.4c0,0-1.9,2.3-5.2,6.1c-2.2,2.5-5,3.4-10.9,2c-5.9-1.4-13.8-5.4-13.8-5.4s-1.8,0.2-2.2-0.1
				c-0.2-0.1-0.2-1.6-0.1-3.1c0.1-1.8,0.2-3.7,0.2-3.7l1.4,0.7c0,0-0.8-3-0.1-3c0.6,0,1.7,3.7,1.7,3.7s1.8,0.6,7,1.4
				c5.2,0.8,11,1.1,11,1.1s3.5-6,4.3-7.4c0,0,1.8,1,4,3.4c0.5,0.6,0.9,1.1,1.3,1.6C343.8,230.2,344.2,231.4,344.2,231.4z"/>
			<path class="st2" d="M344.2,231.4c0,0-1.9,2.3-5.2,6.1c-2.2,2.5-5,3.4-10.9,2c-5.9-1.4-13.8-5.4-13.8-5.4s-1.8,0.2-2.2-0.1
				c-0.2-0.1-0.2-1.6-0.1-3.1c2.2,1.3,7.6,4.2,12.9,5.5c7,1.7,10.5,1.1,10.5,1.1c1.3-1,5.4-5.6,7.2-8.9
				C343.8,230.2,344.2,231.4,344.2,231.4z"/>
		</g>
		<path class="st22" d="M375,247.7l-1.3,0.3l-0.1,0l-1.6,0.3l-0.5,0.1c0,0,0,0,0,0c-0.1-0.2-0.7-1.5-1.8-3.5c-0.1,2-0.2,3.5-0.2,3.8
			c0,0,0,0.1,0,0.1l-2.2,0.3c0-0.1,0-0.1,0-0.2c0.3-2.1,0.5-4.5,0.7-7.1c-0.3-0.6-0.7-1.3-1.1-1.9c-0.8-1.3-1.7-2.8-2.6-4.2
			c0.6-0.2,1.2-0.4,1.9-0.7c0.3,0.4,0.5,0.8,0.8,1.2c0.4,0.6,0.8,1.1,1.2,1.7c0-1.2,0-2.4,0-3.6c0.7-0.2,1.3-0.5,2-0.7
			c0,2.1-0.1,4.6-0.2,7C372.5,244.1,374.7,247.1,375,247.7C375,247.7,375,247.7,375,247.7z"/>
		<linearGradient id="SVGID_11_" gradientUnits="userSpaceOnUse" x1="354.4476" y1="247.1507" x2="375.594" y2="247.1507">
			<stop  offset="4.980470e-03" style="stop-color:#034980"/>
			<stop  offset="1" style="stop-color:#084D98"/>
		</linearGradient>
		<path class="st23" d="M354.4,245.1c0,0,5,1.7,11,2c5.9,0.3,10.1-2.1,10.1-2.1l0.1,2.5c0,0-5.9,2.2-10.6,1.9
			c-4.7-0.3-9.9-2.7-9.9-2.7L354.4,245.1z"/>
		<path class="st24" d="M355.1,246.6c0.2,0.9,0.9,5.8,0.9,5.8l-11.9-5.9c0,0,0.8-3.7-0.1-6.3c0,0,3,2,6.6,3.8
			C354,245.8,355.1,246.6,355.1,246.6z"/>
		<linearGradient id="SVGID_12_" gradientUnits="userSpaceOnUse" x1="362.9179" y1="247.7008" x2="356.8197" y2="243.2796">
			<stop  offset="5.000000e-03" style="stop-color:#135DA4"/>
			<stop  offset="1" style="stop-color:#084D98"/>
		</linearGradient>
		<path class="st25" d="M350.5,235.2l8.7,11.1l-4.7-1.2C354.4,245.1,351.7,239.4,350.5,235.2z"/>
		<g>
			<path class="st24" d="M57.5,273.8c0,0-2.2,0.6-7.7,0.6c-5.5,0-9.1-0.6-9.1-0.6c1-0.6,11-6.1,11.4-6.7l2.8,1.3l1.6,0.8L57.5,273.8
				z"/>
			<path class="st26" d="M57.5,273.8c0,0-2.2,0.6-7.7,0.6c-5.5,0-9.1-0.6-9.1-0.6s1.9,0,5.4-0.1c3.5-0.1,8.5-1.3,8.5-1.3
				s0.3-2.8,0.1-3.9l0.2-0.1l1.6,0.8L57.5,273.8z"/>
		</g>
		<g>
			<path class="st27" d="M174.8,269.1c0,1.3-1.6,2.4-3.6,2.4H95.1c-2,0-3.6-1.1-3.6-2.4c0-0.6,0.4-1.2,1-1.7c0,0,0.1,0,0.1-0.1
				c0.7-0.4,1.6-0.7,2.5-0.7h76.2C173.2,266.7,174.8,267.8,174.8,269.1z"/>
			<path class="st28" d="M174.8,269.1c0,1.3-1.6,2.4-3.6,2.4h-5c-3.1-0.8-5.9-1.4-6.1-1.4c-0.4,0.1-25.5,0.9-33.8,0.7
				c-7.8-0.2-26.3-1.4-33.9-3.4c0,0,0.1,0,0.1-0.1c0.7-0.4,1.6-0.7,2.5-0.7h76.2C173.2,266.7,174.8,267.8,174.8,269.1z"/>
		</g>
		<g>
			<g>
				
					<linearGradient id="SVGID_13_" gradientUnits="userSpaceOnUse" x1="315.239" y1="207.4368" x2="312.242" y2="204.6291" gradientTransform="matrix(-0.3345 0.9424 -0.9424 -0.3345 456.3765 32.7445)">
					<stop  offset="0" style="stop-color:#ECBE96"/>
					<stop  offset="1" style="stop-color:#EB9D7E"/>
				</linearGradient>
				<path class="st29" d="M159.3,262c0,0,0,0-1.2-1.4c-0.1-0.1-0.2-0.2-0.3-0.3c-1.3-1.3-3.8-2.6-3.8-2.6c0.8-0.2,2.3-1.2,3.2-1.8
					c0.3-0.2,0.6-0.5,0.7-0.6c0.2,1.6,0.6,3.2,1.1,3.7c0.7,0.7,2.9,1,2.9,1s-0.2,0.4-0.2,1c0,0,0,0.1,0,0.1v0L159.3,262z"/>
				<path class="st30" d="M159.3,262c0,0,0,0-1.2-1.4c-0.1-0.1-0.2-0.2-0.3-0.3l0.2-0.3c0,0-0.3-1.3-0.4-2.1c-0.1-0.6-0.1-1-0.3-2.1
					c0.3-0.2,0.6-0.5,0.7-0.6c0.2,1.6,0.6,3.2,1.1,3.7c0.7,0.7,2.9,1,2.9,1s-0.2,0.4-0.2,1c0,0,0,0.1,0,0.1v0L159.3,262z"/>
			</g>
			
				<linearGradient id="SVGID_14_" gradientUnits="userSpaceOnUse" x1="306.3913" y1="186.3966" x2="316.0437" y2="200.9395" gradientTransform="matrix(-0.3345 0.9424 -0.9424 -0.3345 456.3765 32.7445)">
				<stop  offset="0" style="stop-color:#5E3417"/>
				<stop  offset="1" style="stop-color:#532B12"/>
			</linearGradient>
			<path class="st31" d="M158.9,265.9c-0.1,0-1.7-0.1-2.2-0.9c-0.5-0.8-0.2-0.9-0.2-0.9s1-1.2,1.9-2c0.9-0.8,3.3-1.1,3.3-1.1
				c0,0.4,0.2,0.8,0.6,1.3c1.1,1.2,2.8,1.5,3.1,0.5c0.1-0.4-0.1-0.9-0.5-1.3c0,0-0.4-0.5-0.8-0.8c-0.6-0.4-1.2-0.7-1.3-0.7
				c-0.2-0.1-0.4-1-0.4-1s0.6,0.2,3.1,0.3c2.5,0.1,3.5,0.5,3.5,0.5s0.6-0.1,1.4-0.9c0,0,0,0,0,0c0.1-0.1,0.2-0.2,0.3-0.2
				c0.1-0.1,0.3-0.3,0.4-0.4c0.1-0.1,0.1-0.1,0.2-0.2c0.1-0.1,0.2-0.2,0.3-0.3c1-0.8,2.3-1.3,3.1-1.8c0.8-0.3,1.2-0.5,1.1-0.8
				c-0.1-0.1-0.5-0.4-1-0.7c-0.3-0.2-0.7-0.4-0.7-0.4c0.1-0.1,0.3-0.2,0.5-0.4c0,0,0.1-0.1,0.1-0.1c0,0,0,0,0,0
				c0.2-0.2,0.4-0.3,0.7-0.5c0.4-0.3,0.9-0.5,1.3-0.3c1,0.3,1.5,1,2.1,2.5c0.3,1,0.1,2,0.1,2s-0.1,1-0.5,2.5l0,0
				c0,0.1-0.1,0.2-0.1,0.3c-0.2,0.6-0.4,1.3-0.7,2c0,0.1-0.1,0.2-0.1,0.3c-0.2,0.5-0.5,0.9-0.8,1.4c-1.8,2.8-3.7,2.7-3.7,2.7
				s-1.3,1.7-4.1,1.8c-0.6,0-1.3-0.1-2-0.2c-2.3-0.4-4.5-1.2-5.2-1.5c0,0-3.3,0.3-4.1,1.2C157.6,267.7,158,266.3,158.9,265.9z"/>
			
				<linearGradient id="SVGID_15_" gradientUnits="userSpaceOnUse" x1="302.8102" y1="189.3313" x2="305.346" y2="193.152" gradientTransform="matrix(-0.3345 0.9424 -0.9424 -0.3345 456.3765 32.7445)">
				<stop  offset="0" style="stop-color:#5E3417"/>
				<stop  offset="1" style="stop-color:#532B12"/>
			</linearGradient>
			<path class="st32" d="M171.4,258.1c0.1-0.1,0.2-0.2,0.3-0.3c1-0.8,2.3-1.3,3.1-1.8c0.8-0.3,1.2-0.5,1.1-0.8
				c-0.1-0.1-0.5-0.4-1-0.7c-0.3-0.2-0.7-0.4-0.7-0.4c0.2-0.2,0.7-0.7,1.3-1.1c0.4,0.1,0.8,0.4,1.2,1.1c0,0,0.7,0.7,0.6,1.1
				c-0.1,0.4-1.1,0.6-1.1,0.6s-2.8,1.2-2.9,1.2C173.1,257.3,172,257.8,171.4,258.1z"/>
			
				<linearGradient id="SVGID_16_" gradientUnits="userSpaceOnUse" x1="311.8085" y1="192.887" x2="317.8414" y2="201.9765" gradientTransform="matrix(-0.3345 0.9424 -0.9424 -0.3345 456.3765 32.7445)">
				<stop  offset="0" style="stop-color:#5E3417"/>
				<stop  offset="1" style="stop-color:#532B12"/>
			</linearGradient>
			<path class="st33" d="M158.9,265.9c-0.1,0-1.7-0.1-2.2-0.9c-0.5-0.8-0.2-0.9-0.2-0.9s1-1.2,1.9-2c0.9-0.8,3.3-1.1,3.3-1.1
				c0,0.4,0.2,0.8,0.6,1.3c1.1,1.2,2.8,1.5,3.1,0.5c0.1-0.4-0.1-0.9-0.5-1.3c0,0-0.4-0.5-0.8-0.8c-0.6-0.4-1.2-0.7-1.3-0.7
				c-0.2-0.1-0.4-1-0.4-1s0.6,0.2,3.1,0.3c2.5,0.1,3.5,0.5,3.5,0.5s0.6-0.1,1.4-0.9c-0.5,0.6-1.1,1.5-1.4,1.7
				c-0.5,0.5-2.4,2-2.8,2.8c0,0,0,0,0,0.1c-0.3,0.7,0.7,0.1,1,0.2c0,0-1.1,0.9-1.2,1.3c0,0,0.8-0.2,1-0.1c0.2,0.2-0.8,1.6-0.8,1.7
				c0,0.1,0.4,0.9,0.6,1.4c-2.3-0.4-4.5-1.2-5.2-1.5c0,0-3.3,0.3-4.1,1.2C157.6,267.7,158,266.3,158.9,265.9z"/>
			
				<linearGradient id="SVGID_17_" gradientUnits="userSpaceOnUse" x1="312.8997" y1="208.8312" x2="313.2102" y2="201.6889" gradientTransform="matrix(-0.3345 0.9424 -0.9424 -0.3345 456.3765 32.7445)">
				<stop  offset="0" style="stop-color:#ECBE96"/>
				<stop  offset="1" style="stop-color:#EB9D7E"/>
			</linearGradient>
			<path class="st34" d="M161.7,261c0,0,0,0.1,0,0.1l0.2-1.1C161.9,260,161.6,260.4,161.7,261z"/>
			
				<linearGradient id="SVGID_18_" gradientUnits="userSpaceOnUse" x1="232.4268" y1="483.6782" x2="359.0201" y2="7.1894" gradientTransform="matrix(-0.3345 0.9424 -0.9424 -0.3345 456.3765 32.7445)">
				<stop  offset="0" style="stop-color:#ECBE96"/>
				<stop  offset="1" style="stop-color:#EB9D7E"/>
			</linearGradient>
			<path class="st35" d="M162.3,262.3c-0.4-0.4-0.5-0.8-0.6-1.2v0c0,0,0-0.1,0-0.1c-0.1-0.6,0.2-1,0.2-1s-2.2-0.4-2.9-1
				c-0.6-0.5-0.9-2.1-1.1-3.7c-0.1-0.4-0.1-0.8-0.1-1.2c-0.2-1.9,0-3.3,0.3-3.5c0,0,0,0,0.1,0c0.4-0.1,1.2-0.1,2.6-0.3
				c0.2,0,0.4-0.1,0.6-0.1c0.1,0,0.2,0,0.3,0c1.1,0,1.9,0.1,1.9,0.1c0.3-1.5,1.2-1.9,1.3-2c0,0,0,0,0,0c0.7,3.2,3.6,4.3,3.8,4.4
				c0.2,0.1,0.4-0.1,1.3-0.4c0.9-0.2,0.9,0,2.1,0.8c0.5,0.3,1.3,0.7,2.1,1.1c0.3,0.1,0.5,0.2,0.7,0.4c0.4,0.2,0.8,0.4,0.9,0.6
				c0,0,0.1,0.1,0.1,0.1c0.1,0.3-0.3,0.5-1.1,0.8c-0.4,0.2-1,0.5-1.6,0.8c-0.5,0.2-1,0.5-1.5,0.9c-0.2,0.1-0.4,0.3-0.5,0.5
				c0,0,0,0,0,0c-0.1,0.2-0.3,0.3-0.4,0.4c-1,0.9-1.7,1.1-1.7,1.1s-1-0.4-3.5-0.5c-2.5-0.1-3.1-0.3-3.1-0.3s0.2,0.9,0.4,1
				c0.1,0,0.8,0.4,1.3,0.7c0.3,0.3,1.6,1.3,1.3,2.1C165.1,263.9,163.4,263.5,162.3,262.3z"/>
			
				<linearGradient id="SVGID_19_" gradientUnits="userSpaceOnUse" x1="300.63" y1="193.1263" x2="315.095" y2="193.1263" gradientTransform="matrix(-0.3345 0.9424 -0.9424 -0.3345 456.3765 32.7445)">
				<stop  offset="0" style="stop-color:#ECBE96"/>
				<stop  offset="1" style="stop-color:#EB9D7E"/>
			</linearGradient>
			<path class="st36" d="M171.2,258.2c0.2-0.2,0.3-0.3,0.5-0.5C171.6,257.9,171.4,258.1,171.2,258.2
				C171.2,258.2,171.2,258.2,171.2,258.2z"/>
			
				<linearGradient id="SVGID_20_" gradientUnits="userSpaceOnUse" x1="307.1295" y1="203.1013" x2="307.8388" y2="186.7872" gradientTransform="matrix(-0.3345 0.9424 -0.9424 -0.3345 456.3765 32.7445)">
				<stop  offset="0" style="stop-color:#5E3417"/>
				<stop  offset="1" style="stop-color:#532B12"/>
			</linearGradient>
			<path class="st37" d="M171.2,258.2c0.2-0.2,0.3-0.3,0.5-0.5C171.6,257.9,171.4,258.1,171.2,258.2
				C171.2,258.2,171.2,258.2,171.2,258.2z"/>
			<path class="st30" d="M162.3,262.3c-0.4-0.4-0.5-0.8-0.6-1.2v0c0,0,0-0.1,0-0.1c-0.1-0.6,0.2-1,0.2-1s-2.2-0.4-2.9-1
				c-0.6-0.5-0.9-2.1-1.1-3.7c-0.1-0.4-0.1-0.8-0.1-1.2c-0.2-1.9,0-3.3,0.3-3.5c-0.4,3,1.1,6.7,2.4,7.3c1.3,0.6,2.7,0.7,5.5,0.7
				c2.8,0,3.9-0.1,3.9-0.1s2.3-1.4,3.3-2.1c1-0.7,1.6-0.7,2.6-1.2c0,0,0.1,0.1,0.1,0.1c0.1,0.3-0.3,0.5-1.1,0.8
				c-0.4,0.2-1,0.5-1.6,0.8c-0.5,0.2-1,0.5-1.5,0.9c-0.2,0.1-0.4,0.3-0.5,0.5c0,0,0,0,0,0c-0.1,0.2-0.3,0.3-0.4,0.4
				c-1,0.9-1.7,1.1-1.7,1.1s-1-0.4-3.5-0.5c-2.5-0.1-3.1-0.3-3.1-0.3s0.2,0.9,0.4,1c0.1,0,0.8,0.4,1.3,0.7c0.3,0.3,1.6,1.3,1.3,2.1
				C165.1,263.9,163.4,263.5,162.3,262.3z"/>
			<path class="st38" d="M164.8,262.6c0-0.7-0.8-1.7-2.4-2.2c0,0-0.4,0.7,0,1.1c0.4,0.3,0.8-0.4,0.8-0.4L164.8,262.6z"/>
			<path class="st30" d="M163.5,250.2c0.3-1.5,1.2-1.9,1.3-2c0,0,0,0,0,0S164,250.4,163.5,250.2z"/>
			
				<linearGradient id="SVGID_21_" gradientUnits="userSpaceOnUse" x1="304.0119" y1="194.5876" x2="304.8894" y2="195.9098" gradientTransform="matrix(-0.3345 0.9424 -0.9424 -0.3345 456.3765 32.7445)">
				<stop  offset="0" style="stop-color:#5E3417"/>
				<stop  offset="1" style="stop-color:#532B12"/>
			</linearGradient>
			<path class="st39" d="M169.7,252.4c0.1-0.1,0.4-0.2,0.9-0.2c0.5,0,0.8,1,0.7,2.2c-0.2,1.2-0.9,2.2-1.4,2.4c0,0,0.4-1.3,0.4-2.6
				C170.2,252.8,169.7,252.4,169.7,252.4z"/>
			<path class="st40" d="M169.2,260.9c0.1-0.4,0.2-0.8,0.3-1.2c0.4-0.3,1-0.7,1.3-0.9c0.6-0.4,1.2-0.7,1.9-0.9
				c-0.2,0.4-0.3,0.6-0.3,0.6L169.2,260.9z"/>
			<g class="st41">
				<g>
					<path class="st42" d="M166.9,263.4C166.9,263.3,166.9,263.3,166.9,263.4C166.9,263.3,166.9,263.3,166.9,263.4
						c1-0.9,3.8-2.3,6.2-3.5c1.1-0.6,2.2-1.1,2.9-1.5c1.2-0.7,1.9-1.4,2.1-2.1c0.1-0.5,0-0.9-0.3-1.4c-0.6-0.9-2.3-1.2-3.2-1.1
						c0,0,0.1-0.1,0.1-0.1c0,0,0,0,0,0c0.9,0,2.5,0.2,3.2,1.2c0.3,0.5,0.5,1.1,0.3,1.6c-0.2,0.7-0.9,1.4-2.2,2.1
						c-0.7,0.4-1.8,0.9-2.9,1.5C170.8,261.2,168,262.6,166.9,263.4C167,263.4,167,263.4,166.9,263.4z"/>
				</g>
				<g>
					<path class="st42" d="M166.7,264.6C166.7,264.6,166.7,264.5,166.7,264.6C166.7,264.5,166.7,264.5,166.7,264.6
						c2-1.7,6-3.2,9.3-3.5c1-0.1,1.8-0.5,2.4-1.3c0,0.1-0.1,0.2-0.1,0.3c-0.6,0.6-1.4,1-2.3,1.1C172.8,261.5,168.8,263,166.7,264.6
						C166.8,264.6,166.7,264.6,166.7,264.6z"/>
				</g>
				<g>
					<path class="st42" d="M171.2,263.8C171.2,263.8,171.1,263.8,171.2,263.8C171.2,263.8,171.1,263.8,171.2,263.8
						c0-0.1,0-0.1,0-0.1c1.2,0.3,4.1,0.2,6-1.3c0.2-0.1,0.3-0.2,0.4-0.4c0,0.1-0.1,0.2-0.1,0.3c-0.1,0.1-0.1,0.1-0.2,0.2
						C175.4,264,172.4,264.1,171.2,263.8z"/>
				</g>
			</g>
			<path class="st8" d="M168.5,256.5c0,0-0.1-0.9-0.3-1.7c-0.1-0.3-0.2-0.5-0.3-0.8c-0.2-0.4-0.4-0.7-0.4-0.8c0,0,0,0,0,0
				c0,0,0,0,0,0c0.4-0.1,2,0.3,2.1,0.9c0,0,0,0,0,0C169.7,254.7,169.1,256.2,168.5,256.5z"/>
			<path class="st43" d="M168.4,254.3c-0.2-0.1-0.3-0.1-0.5-0.2c-0.2-0.4-0.4-0.7-0.4-0.8c0,0,0,0,0,0c0.4-0.1,2,0.3,2.1,0.9
				c0,0,0,0,0,0C169.4,254.4,168.9,254.4,168.4,254.3z"/>
			<path class="st44" d="M169.1,253.6c0.1,0.1,0.4,0.5,0.1,1.6c-0.4,1-0.7,1.3-0.7,1.3s0.5,0.1,0.9-0.8c0.4-0.8,0.5-1.3,0.3-1.7
				C169.5,253.6,169.1,253.6,169.1,253.6z"/>
			<path class="st45" d="M169.1,253.6c0,0,0.4,0.2,0.4,0.9c0,0.7-0.5,1.7-1,2c0,0,0.5-0.9,0.7-1.7
				C169.3,254,169.1,253.6,169.1,253.6z"/>
			<path class="st8" d="M168.7,254.5c-0.1,0-0.1-0.1-0.1-0.2c0-0.1,0.1-0.1,0.2-0.1c0.1,0,0.1,0.1,0.1,0.2
				C168.9,254.5,168.8,254.6,168.7,254.5z"/>
			<g>
				<path class="st46" d="M161.5,252.8c-0.2-0.2-0.2-0.6-0.1-1.1c0.1-0.5,0.1-1,0-1.5c0.1,0,0.2,0,0.3,0c0.1,0.5,0.1,1.1,0,1.6
					c-0.1,0.4-0.1,0.8,0,0.9c0,0.1,0.1,0.1,0.2,0.1c0.1,0,0.1,0.1,0.1,0.1c0,0.1-0.1,0.1-0.1,0.1C161.7,253,161.6,252.9,161.5,252.8
					z"/>
			</g>
		</g>
		<path class="st47" d="M150.4,267.2c0,0-7.9,1-17.5,1.8c-9.6,0.8-29.5-1.2-30.7-1.2l0.6-2.4c0,0,0.4-0.1,1-0.3
			c2.5-0.7,9-2.7,15.3-4.9c8.1-2.8,21-8.2,22.1-8c1,0.2,7.9,1.6,7.9,1.6l0.6,6.6L150.4,267.2z"/>
		<path class="st13" d="M149.6,257.6c-3.5-2-7.7-3.2-7.7-3.2l-0.4-0.1l-0.8-1.7c3.9,1,6.8,2,8.7,2.8L149.6,257.6z"/>
		<g>
			<path class="st48" d="M311.4,268c-0.1,5.9-0.4,11.8-1.4,12.7c-0.4,0.4-1.2,0.7-2.2,0.9c-0.4,0.1-0.8,0.2-1.2,0.2
				c-0.6,0.1-1.3,0.2-1.9,0.2c-0.4,0-0.8,0.1-1.2,0.1c-1.2,0.1-2.4,0.1-3.6,0.1c-0.4,0-0.8,0-1.2,0c-0.9,0-1.7-0.1-2.5-0.2
				c-0.5,0-0.9-0.1-1.2-0.2c-0.5-0.1-0.9-0.2-1.2-0.3c-1.3-0.6-2-6.3-2.4-11.7c-0.3-3.9-0.4-7.5-0.4-8.7l3.6-1l1.2-0.3l2-0.5
				l1.2-0.3l4.2-1.2l1.2-0.3l3.7-1l1.2-0.3l2.1-0.6C311.2,255.4,311.5,261.7,311.4,268z"/>
			<g class="st49">
				<path class="st50" d="M296.2,282c-0.5,0-0.9-0.1-1.2-0.2c-0.1-4.7-0.3-15.4-0.5-21.6l1.2-0.3C295.8,266,296,277.3,296.2,282z"/>
			</g>
			<g class="st49">
				<path class="st50" d="M299.8,282.1c-0.4,0-0.8,0-1.2,0c-0.3-6.5-0.7-16.6-1-22.9l1.2-0.3C299.1,265.2,299.5,275.6,299.8,282.1z"
					/>
			</g>
			<g class="st49">
				<path class="st50" d="M304.6,282c-0.4,0-0.8,0.1-1.2,0.1c-0.1-6.9-0.3-17.6-0.4-24.3l1.2-0.3C304.3,264.1,304.5,275,304.6,282z"
					/>
			</g>
			<g class="st49">
				<path class="st50" d="M309.1,256c-0.4,8-1,18.7-1.3,25.5c-0.4,0.1-0.8,0.2-1.2,0.2c0.4-7.3,1-19.2,1.3-25.4L309.1,256z"/>
			</g>
			<path class="st51" d="M311.4,268c-6.5-0.8-15.2,0.5-20.1,1.9c-0.3-3.9-0.4-7.5-0.4-8.7l3.6-1l1.2-0.3l2-0.5l1.2-0.3l4.2-1.2
				l1.2-0.3l3.7-1l1.2-0.3l2.1-0.6C311.2,255.4,311.5,261.7,311.4,268z"/>
		</g>
		<g>
			<path class="st48" d="M169.1,260.7c0,0,0,4.6-0.2,9.2c-0.2,4-0.6,7.9-1.2,8.9c-0.3,0.4-0.9,0.7-1.8,1c-0.4,0.1-0.8,0.2-1.2,0.3
				c-0.5,0.1-0.9,0.1-1.5,0.2c-0.4,0-0.8,0.1-1.2,0.1c-0.9,0-1.8,0-2.6,0c-0.4,0-0.8-0.1-1.2-0.1c-0.8-0.1-1.6-0.3-2.3-0.4
				c-0.4-0.1-0.9-0.3-1.3-0.4c-1.2-0.5-2.1-1.1-2.7-1.9c-0.6-0.9-1.3-6.7-1.9-12.1c-0.5-4.9-0.9-9.5-0.9-9.5l3.5,0.9l1.3,0.3
				l2.9,0.7l1.2,0.3l3.9,1l1.2,0.3l2.1,0.5l1.2,0.3L169.1,260.7z"/>
			<g class="st49">
				<path class="st50" d="M155.8,279.7c-0.4-0.1-0.9-0.3-1.3-0.4c-0.6-6.2-1.4-16-2-22.6l1.3,0.3
					C154.4,263.8,155.2,273.7,155.8,279.7z"/>
			</g>
			<g class="st49">
				<path class="st50" d="M163.2,280.3c-0.4,0-0.8,0.1-1.2,0.1c-0.1-6.7-0.1-15.5-0.1-21.3l1.2,0.3
					C163.1,264.7,163.1,272.8,163.2,280.3z"/>
			</g>
			<g class="st49">
				<path class="st50" d="M159.3,280.3c-0.4,0-0.8-0.1-1.2-0.1l-1.4-22.4l1.2,0.3L159.3,280.3z"/>
			</g>
			<g class="st49">
				<path class="st50" d="M166.4,260.1c0,5.2-0.3,13.9-0.6,19.7c-0.4,0.1-0.8,0.2-1.2,0.3c0.3-7.1,0.6-15.6,0.6-20.3L166.4,260.1z"
					/>
			</g>
			<path class="st51" d="M169.1,260.7c0,0,0,4.6-0.2,9.2c-5.6-2.7-13.4-4.8-19-4.6c-0.5-4.9-0.9-9.5-0.9-9.5l3.5,0.9l1.3,0.3
				l2.9,0.7l1.2,0.3l3.9,1l1.2,0.3l2.1,0.5l1.2,0.3L169.1,260.7z"/>
		</g>
		<g>
			<linearGradient id="SVGID_22_" gradientUnits="userSpaceOnUse" x1="299.2451" y1="174.2536" x2="316.3286" y2="174.2536">
				<stop  offset="0" style="stop-color:#FF6531"/>
				<stop  offset="1" style="stop-color:#FF591F"/>
			</linearGradient>
			<path class="st52" d="M316.3,170.1l-1.2,8.8c-3.7,2.4-15.9-0.9-15.9-0.9s0.1-1.6,0.3-3.4c0.3-2.6,0.7-5.7,1.2-5.7
				c4.6-0.5,11.8,0.6,14.5,1C315.9,170,316.3,170.1,316.3,170.1z"/>
			<linearGradient id="SVGID_23_" gradientUnits="userSpaceOnUse" x1="304.934" y1="171.555" x2="313.3097" y2="178.8032">
				<stop  offset="0" style="stop-color:#FF6531"/>
				<stop  offset="1" style="stop-color:#FF591F"/>
			</linearGradient>
			<path class="st53" d="M316.3,170.1l-1.2,8.8c-3.7,2.4-15.9-0.9-15.9-0.9s0.1-1.6,0.3-3.4c2.6,0.5,7.7,0.9,10.4-0.2
				c1.4-0.6,3.5-2.6,5.3-4.5C315.9,170,316.3,170.1,316.3,170.1z"/>
		</g>
		<g>
			<linearGradient id="SVGID_24_" gradientUnits="userSpaceOnUse" x1="138.844" y1="173.636" x2="158.6654" y2="173.636">
				<stop  offset="0" style="stop-color:#FF6531"/>
				<stop  offset="1" style="stop-color:#FF591F"/>
			</linearGradient>
			<path class="st54" d="M158.7,176.8c-9.8,4-18,1.8-18,1.8l-0.9-3.9l-1-4.3c7-3,18.3-2.1,18.3-2.1l0.1,0.8L158.7,176.8z"/>
			<linearGradient id="SVGID_25_" gradientUnits="userSpaceOnUse" x1="145.8833" y1="171.1413" x2="154.828" y2="178.8818">
				<stop  offset="0" style="stop-color:#FF6531"/>
				<stop  offset="1" style="stop-color:#FF591F"/>
			</linearGradient>
			<path class="st55" d="M158.7,176.8c-9.8,4-18,1.8-18,1.8l-0.9-3.9c5.7,1.2,10,1.1,12.8-0.7c1.8-1.1,3.5-3.3,4.7-5L158.7,176.8z"
				/>
		</g>
		<linearGradient id="SVGID_26_" gradientUnits="userSpaceOnUse" x1="221.5953" y1="130.5202" x2="231.6589" y2="244.2689">
			<stop  offset="0" style="stop-color:#FF6531"/>
			<stop  offset="1" style="stop-color:#FF591F"/>
		</linearGradient>
		<path class="st56" d="M311.6,257.7c0,0-43.5,12.2-80.7,11.4c-14.4-0.3-30-2.2-43.6-4.3c-21.6-3.4-38.5-7.5-38.5-7.5s0-0.9-0.1-2.5
			c-0.3-8.9-1.1-39.2,0.5-52.6c0.3-2.3,2.7-6.9,5.1-11.1c2.9-4.9,5.9-9.4,5.9-9.4c5.1-16.1,17.9-45.7,20.5-48c0,0,25.2-3.5,44.9-3.7
			c17.5-0.2,50.7,3,53.8,5.9c3,2.8,18,42.1,18,42.1s2.8,4.5,6,9.9c3.7,6.3,7.9,13.9,8.7,16.7C313.5,209.9,311.6,257.7,311.6,257.7z"
			/>
		<linearGradient id="SVGID_27_" gradientUnits="userSpaceOnUse" x1="211.4766" y1="209.9415" x2="283.1662" y2="271.9806">
			<stop  offset="0" style="stop-color:#FF6531"/>
			<stop  offset="1" style="stop-color:#FF591F"/>
		</linearGradient>
		<path class="st57" d="M311.6,257.7c0,0-43.5,12.2-80.7,11.4c-37.2-0.8-82.1-11.8-82.1-11.8s0-0.9-0.1-2.5l22.5,5.2
			c0,0,17.7,4,38.7,5.5c21,1.5,46-2.4,46-2.4c7.3-6.7,30.1-48.5,30.1-48.5c5.1-4.9,14.3-18,17.3-26.7c3.7,6.3,7.9,13.9,8.7,16.7
			C313.5,209.9,311.6,257.7,311.6,257.7z"/>
		<path class="st58" d="M187.3,264.8c-21.6-3.4-38.5-7.5-38.5-7.5s0-0.9-0.1-2.5c-0.3-8.9-1.1-39.2,0.5-52.6
			c0.3-2.3,2.7-6.9,5.1-11.1c1.9,3.7,7.1,9.3,16.5,22.9C181.5,229.4,189.8,251,187.3,264.8z"/>
		<linearGradient id="SVGID_28_" gradientUnits="userSpaceOnUse" x1="231.6113" y1="173.3591" x2="192.5761" y2="122.4304">
			<stop  offset="1.009770e-02" style="stop-color:#46676C"/>
			<stop  offset="1" style="stop-color:#54797C"/>
		</linearGradient>
		<path class="st59" d="M290.1,181.6c0,0-43.9-0.6-68.9-1.2c-25-0.6-55.2,0.9-55.2,0.9l3.1-7.7l8-20.2l5.1-13l1.3-3.4
			c0,0,0.8-0.1,2.1-0.2c8.9-0.9,44.3-4,72.7-1.1c6.1,0.6,11.9,1.5,17,2.7c0.5,0.1,1.1,0.3,1.6,0.4l1,3.3l1.4,4.7l1.9,6.2l2.6,8.3
			L290.1,181.6z"/>
		<path class="st60" d="M290.1,181.6c0,0-43.9-0.6-68.9-1.2c-25-0.6-55.2,0.9-55.2,0.9l3.1-7.7c18.4,1.1,49.2,3.5,71-4.2
			c16-5.6,32.4-12.5,41.3-16.3l2.6,8.3L290.1,181.6z"/>
		<path class="st61" d="M153.2,240.8c0,0,1.5,12.5,6.7,13.7c5.2,1.2,7.9-11,7.9-11L153.2,240.8z"/>
		<path class="st62" d="M291.6,243.2c0,0,3.4,11.9,8.2,11c4.9-0.9,7-14.3,7-14.3L291.6,243.2z"/>
		<path class="st63" d="M299.9,174.5l-3,2.6l2.1,3.5c0,0,11.8,0.3,16.1-1.6c0,0-5.7,0.1-9.6-0.5
			C301.7,177.8,299.9,174.5,299.9,174.5z"/>
		<path class="st63" d="M140.7,178.6c0,0,7.1,0.6,11.4,0c4.3-0.6,6.1-3.5,6.1-3.5l3.9,3.9l-0.6,2.9c0,0-6.7,0.2-10.6-0.2
			C147,181.2,140.7,178.6,140.7,178.6z"/>
		<path class="st64" d="M290.1,181.6c0,0-43.9-0.6-68.9-1.2c-25-0.6-55.2,0.9-55.2,0.9l17.6-44.2c0,0,0.8-0.1,2.1-0.2
			c-4.4,11-14.1,37-16.4,42.6c0,0,29.6-1.8,55.2-1.2c25.6,0.6,61.9,1.2,61.9,1.2l-11-41c0.5,0.1,1.1,0.3,1.6,0.4l2.5,8l4.5,14.5
			L290.1,181.6z"/>
		<g>
			<linearGradient id="SVGID_29_" gradientUnits="userSpaceOnUse" x1="284.5323" y1="226.6397" x2="327.2264" y2="209.2571">
				<stop  offset="5.019530e-03" style="stop-color:#8DA5B0"/>
				<stop  offset="0.99" style="stop-color:#668DA2"/>
			</linearGradient>
			<path class="st65" d="M303.7,228.8c-7.4,4.4-19.7,2.9-22.3,2.6c-0.3,0-0.5-0.1-0.5-0.1c-0.7-1.4,11.2-20.9,26.8-23.7
				c0,0,0,0,0,0.1v0C308.1,209.1,311.6,224.1,303.7,228.8z"/>
			<path class="st66" d="M286.4,224.3c0-3.9,3.1-7,7-7c3.9,0,7,3.1,7,7c0,3.9-3.1,7-7,7C289.6,231.4,286.4,228.2,286.4,224.3z"/>
			<path class="st67" d="M303.7,228.8c-7.4,4.4-19.7,2.9-22.3,2.6c3.6-0.4,15-2.2,20.3-7.8c5.6-6,5.9-11.4,6-15.8
				C308.1,209.1,311.6,224.1,303.7,228.8z"/>
		</g>
		<g>
			<linearGradient id="SVGID_30_" gradientUnits="userSpaceOnUse" x1="152.5982" y1="210.8692" x2="173.3383" y2="231.9143">
				<stop  offset="5.019530e-03" style="stop-color:#8DA5B0"/>
				<stop  offset="0.99" style="stop-color:#668DA2"/>
			</linearGradient>
			<path class="st68" d="M180.6,229.8c0,0-0.6,0.1-1.6,0.2c-4.1,0.5-15,1.2-21.8-2.5c-8.5-4.6-4.1-19.9-4.1-19.9c0,0,0,0,0,0
				C169.1,210.2,181.3,228.5,180.6,229.8z"/>
			<path class="st66" d="M160.5,223.3c0-3.8,3.1-6.9,6.9-6.9c3.8,0,6.9,3.1,6.9,6.9c0,3.8-3.1,6.9-6.9,6.9
				C163.6,230.1,160.5,227.1,160.5,223.3z"/>
			<path class="st67" d="M179,230c-4.1,0.5-15,1.2-21.8-2.5c-8.5-4.6-4.1-19.9-4.1-19.9c0,0,0,0,0,0
				C154.4,214.2,160.7,226.9,179,230z"/>
		</g>
		<linearGradient id="SVGID_31_" gradientUnits="userSpaceOnUse" x1="228.5092" y1="175.2238" x2="231.7652" y2="212.0257">
			<stop  offset="0" style="stop-color:#FF6531"/>
			<stop  offset="1" style="stop-color:#FF591F"/>
		</linearGradient>
		<path class="st69" d="M300.3,195.3c0,1.6-4.7,7.7-14.2,19.3c0,0-15.3,3.2-37.9,3.9c-1.5,0-3,0.1-4.5,0.1c-2.2,0-4.5,0.1-6.8,0
			c-9.8-0.1-19.3-0.1-27.9-0.3c-1.2,0-2.4-0.1-3.5-0.1c-14.9-0.5-26.5-1.9-31.4-5.6c-7.9-6.1-13.8-16.9-13.8-18.5
			c0-1.6,3.9-10.4,6.1-13.6l18.9,0.1l9.1,0.1l63.8,0.4l10.2,0.1l21.6,0.1C289.9,181.2,300.3,193.6,300.3,195.3z"/>
		<path class="st70" d="M208.9,218.3c-1.2,0-2.4-0.1-3.5-0.1c-4.8-10.1-13.8-28.6-20.1-37.6l9.1,0.1
			C201.6,195.3,206.3,209.3,208.9,218.3z"/>
		<path class="st70" d="M268.3,181.1c-5.8,9.1-15.5,28.2-20.1,37.4c-1.5,0-3,0.1-4.5,0.1c3.9-13.4,10.8-29.5,14.5-37.6L268.3,181.1z
			"/>
		<g>
			<linearGradient id="SVGID_32_" gradientUnits="userSpaceOnUse" x1="223.987" y1="246.1818" x2="233.1346" y2="260.818">
				<stop  offset="1.007810e-02" style="stop-color:#C7AFA5"/>
				<stop  offset="1" style="stop-color:#BEA693"/>
			</linearGradient>
			<path class="st71" d="M253.2,262.5l-46.4-1.2c0,0-0.3-11-0.3-12.2l46.4,0.9L253.2,262.5z"/>
			<path class="st72" d="M252.9,250l0.3,12.5l-19.9-0.5c1.7-3.6,3.7-8.6,5.1-12.3L252.9,250z"/>
		</g>
		<g>
			<linearGradient id="SVGID_33_" gradientUnits="userSpaceOnUse" x1="226.6762" y1="214.314" x2="244.9741" y2="241.1509">
				<stop  offset="5.039060e-03" style="stop-color:#A52A07"/>
				<stop  offset="0.995" style="stop-color:#9C1F07"/>
			</linearGradient>
			<path class="st73" d="M284.2,221.9c0,0-0.9,1.7-2.2,4c-0.7,1.1-1.4,2.4-2.2,3.7c-0.8,1.3-1.6,2.6-2.4,3.8c-1,1.5-2,2.9-2.8,3.7
				c-0.3,0.3-0.6,0.6-0.9,0.8c-4.2,2.7-26.6,6.8-37.4,7.8c-2.3,0.2-4.1,0.3-5,0.2c-5.2-0.6-39.6-8.2-41.5-9.5
				c-0.1-0.1-0.3-0.2-0.5-0.5c-0.7-0.8-1.8-2.4-3-4.3c-1-1.6-2-3.3-3-5c-0.8-1.3-1.5-2.5-2.1-3.6c-1.1-1.9-1.8-3.2-1.8-3.2l70.1,1.2
				L284.2,221.9z"/>
			<path class="st74" d="M282,225.9c-0.7,1.1-1.4,2.4-2.2,3.7c-12,0.3-37.4,0.9-44.6,1.1c-7.9,0.3-41.3-2.9-51.9-3.9
				c-0.8-1.3-1.5-2.5-2.1-3.6c10.8,0.8,35.5,2.5,54.9,3.2C254.3,227.1,272.8,226.4,282,225.9z"/>
			<path class="st74" d="M277.4,233.5c-1,1.5-2,2.9-2.8,3.7c-11.3,0.8-39.9,2.9-43.3,3.3c-3.5,0.5-31.9-3.1-42-4.4
				c-0.7-0.8-1.8-2.4-3-4.3c12.3,1.5,39.5,4.8,45,4.8C236.8,236.5,266.9,234.3,277.4,233.5z"/>
			<path class="st75" d="M284.2,221.9c0,0-7.5,14.1-10.6,16.1c-4.2,2.7-26.6,6.8-37.4,7.8c0.5-0.7,1-1.4,1.4-1.9
				c1.7-2.6,7.9-14.6,11.9-22.6L284.2,221.9z"/>
		</g>
		<g>
			<path class="st64" d="M289.9,181.2c0,0-38.3-0.9-57.6-1.1c-2.3,0-4.2,0-5.9,0c-15.9,0-60.4,1.2-60.4,1.2s28.1-7.3,61.9-6.4
				c2.3,0.1,4.6,0.1,6.8,0.2C265.4,176.6,289.9,181.2,289.9,181.2z"/>
			<path class="st76" d="M290.1,181.6c0,0-38.7-0.8-58.1-1c0.9-1.6,2-3.8,2.7-5.4C265.4,176.6,290.1,181.6,290.1,181.6z"/>
		</g>
		<path class="st60" d="M258.4,135.8c-12,5.7-32.3,14.7-45.1,17.2c-17,3.2-24.2,3.6-36.2,0.5l5.1-13l1.3-3.4c0,0,0.8-0.1,2.1-0.2
			C194.6,136,230,132.9,258.4,135.8z"/>
		<g class="st77">
			<path class="st78" d="M234.6,220.5c-1.6,0-3.2,0-4.9,0c-32.9-0.6-58.7-5.8-59-5.8l-0.2,0l-0.1-0.1c-8.9-7.7-10.8-19.8-10.9-20.4
				l0-0.2l0.1-0.2l6.6-12.3l0.6-0.1l-5.8,12.7c0.3,1.6,2.5,12.3,10.3,19.2c2.4,0.5,27.2,5.2,58.5,5.7c31,0.6,54.6-4.5,57.2-5.1
				c1.3-1.6,9.9-12.5,12.5-18.6l-10.1-13.7l1.1-0.1l10.6,13.6l-0.1,0.4c-2.7,6.6-12.6,19-13,19.5l-0.2,0.2l-0.2,0.1
				C287.3,215.3,265.1,220.5,234.6,220.5z"/>
		</g>
		<path class="st60" d="M283.9,161.5c-3.3,0.6-8.1,1.6-14.5,2.8c-14.3,2.7-39,9.8-39,9.8l-12.2-9.5c13.3-7.9,45.9-14.5,61.3-17.6
			L283.9,161.5z"/>
		<path class="st64" d="M278,142.2c-8.2-1.7-24-4.2-46.7-4.2c-26.4,0-42.5,1.6-49,2.5l1.3-3.4c0,0,0.8-0.1,2.1-0.2
			c10.9-1.1,60.7-5.4,89.7,1.6c0.5,0.1,1.1,0.3,1.6,0.4L278,142.2z"/>
		<linearGradient id="SVGID_34_" gradientUnits="userSpaceOnUse" x1="85.5101" y1="276.5576" x2="98.9279" y2="241.3864">
			<stop  offset="1.000000e-02" style="stop-color:#002440"/>
			<stop  offset="1" style="stop-color:#002D4E"/>
		</linearGradient>
		<path class="st79" d="M130.9,256.8l-27.5,8.5l-0.2,0.1l-0.3,0.1l-0.6,2.4c0,0-0.9,0-2.1-0.2c-2.6-0.3-7-1.1-9.1-3.1
			c-3.1-2.8-17.7-23.9-17.7-23.9s0.6,5.2-1.4,9.7c-2,4.5-15.6,19-15.6,19s-0.8,0-2-0.3c-0.8-0.2-1.7-0.7-2.6-1.4
			c0,0,10.6-31.3,13.4-36.4c2.8-5.1,6.9-11.8,13.6-6.5c5.6,4.4,21.6,21.5,26.7,26.9c1,1.1,1.6,1.7,1.6,1.7l0.4,0l5.1-0.4l13.9-1
			l1.4-0.1C127.9,252,129.1,254.5,130.9,256.8z"/>
		<g>
			<path class="st48" d="M97.6,273.8c0,0.7-0.3,1.3-0.8,1.8c-0.4,0.4-1,0.7-1.7,0.7c-1.4,0-2.5-1.1-2.5-2.5c0-0.2,0-0.5,0.1-0.7
				c0.3-1,1.3-1.8,2.4-1.8C96.5,271.4,97.6,272.5,97.6,273.8z"/>
			<path class="st80" d="M93.4,273.9c0-0.9,0.7-1.6,1.6-1.6c0.9,0,1.6,0.7,1.6,1.6c0,0.9-0.7,1.6-1.6,1.6
				C94.1,275.6,93.4,274.8,93.4,273.9z"/>
			<path class="st81" d="M97.6,273.8c0,0.7-0.3,1.3-0.8,1.8c-1.2-0.8-2.8-1.8-4.1-2.5c0.3-1,1.3-1.8,2.4-1.8
				C96.5,271.4,97.6,272.5,97.6,273.8z"/>
		</g>
		<g>
			<path class="st48" d="M126.8,274.1c0,0.7-0.3,1.3-0.8,1.8c-0.4,0.4-1,0.7-1.7,0.7c-1.4,0-2.5-1.1-2.5-2.5c0-0.2,0-0.5,0.1-0.7
				c0.3-1,1.3-1.8,2.4-1.8C125.7,271.6,126.8,272.7,126.8,274.1z"/>
			<path class="st80" d="M122.7,274.1c0-0.9,0.7-1.6,1.6-1.6c0.9,0,1.6,0.7,1.6,1.6c0,0.9-0.7,1.6-1.6,1.6
				C123.4,275.8,122.7,275,122.7,274.1z"/>
			<path class="st81" d="M126.8,274.1c0,0.7-0.3,1.3-0.8,1.8c-1.2-0.8-2.8-1.8-4.1-2.5c0.3-1,1.3-1.8,2.4-1.8
				C125.7,271.6,126.8,272.7,126.8,274.1z"/>
		</g>
		<g>
			<path class="st48" d="M153.1,273.7c0,0.7-0.3,1.3-0.8,1.8c-0.4,0.4-1,0.7-1.7,0.7c-1.4,0-2.5-1.1-2.5-2.5c0-0.2,0-0.5,0.1-0.7
				c0.3-1,1.3-1.8,2.4-1.8C152,271.2,153.1,272.4,153.1,273.7z"/>
			<path class="st80" d="M148.9,273.8c0-0.9,0.7-1.6,1.6-1.6c0.9,0,1.6,0.7,1.6,1.6s-0.7,1.6-1.6,1.6
				C149.6,275.5,148.9,274.7,148.9,273.8z"/>
			<path class="st81" d="M153.1,273.7c0,0.7-0.3,1.3-0.8,1.8c-1.2-0.7-2.8-1.7-4.1-2.5c0.3-1,1.3-1.8,2.4-1.8
				C152,271.2,153.1,272.4,153.1,273.7z"/>
		</g>
		<linearGradient id="SVGID_35_" gradientUnits="userSpaceOnUse" x1="100.7949" y1="267.4263" x2="107.5039" y2="250.8569">
			<stop  offset="4.980470e-03" style="stop-color:#034980"/>
			<stop  offset="1" style="stop-color:#084D98"/>
		</linearGradient>
		<path class="st82" d="M107.5,253.4c-1.2,1.9-2.5,4.8-3.4,8.5c-0.3,1.3-0.6,2.4-0.9,3.5l-0.3,0.1l-0.6,2.4c0,0-0.9,0-2.1-0.2
			c0.6-2.1,1.8-5.9,2.9-9.2c1-3,2-5.4,2.5-6.8c1,1.1,1.6,1.7,1.6,1.7L107.5,253.4z"/>
		<linearGradient id="SVGID_36_" gradientUnits="userSpaceOnUse" x1="76.2497" y1="274.1316" x2="86.2143" y2="248.0122">
			<stop  offset="1.000000e-02" style="stop-color:#002440"/>
			<stop  offset="1" style="stop-color:#002D4E"/>
		</linearGradient>
		<path class="st83" d="M103.4,265.2l-0.6,0.2l-0.6,2.4c0,0-8.1-0.4-11.2-3.3c-3.1-2.8-17.7-23.9-17.7-23.9s0.6,5.2-1.4,9.7
			c-2,4.5-15.6,19-15.6,19s-0.8,0-2-0.3c2-2.3,8.9-10.1,11.1-14.5c2.4-4.8,6.2-19.1,6.2-19.1s9.3,11.8,13.7,17.2
			C89.5,257.4,98.3,262.7,103.4,265.2z"/>
		<path class="st84" d="M150.4,267.2c0,0-7.9,1-17.5,1.8c-9.6,0.8-29.5-1.2-30.7-1.2l0.6-2.4c0,0,0.4-0.1,1-0.3
			c5,0.4,15,0.7,21.7,0.3c7.3-0.4,10.3-1.2,10.3-1.2s10.1-2.2,12-3.1c0.4-0.2,1.1-0.5,1.9-0.8L150.4,267.2z"/>
		<g>
			<path class="st85" d="M146,266.8c-0.6,0.5-1.3,0.9-2.2,1.1c-3,0.8-8.5-3.4-10.9-6.9c0-0.1,1.2,0.1,2.7,0c1.2-0.1,2.6-0.3,3.6-0.8
				c2.1-1.2,4.4-4.2,4.4-4.2s3.8,4.1,4.2,6.3C148.2,263.9,147.5,265.6,146,266.8z"/>
			<path class="st84" d="M146,266.8c-0.6,0.5-1.3,0.9-2.2,1.1c-3,0.8-8.5-3.4-10.9-6.9c0-0.1,1.2,0.1,2.7,0c1.9,2.2,4,3.8,6.2,4.6
				C143.5,266.1,145,266.5,146,266.8z"/>
		</g>
		<g>
			<linearGradient id="SVGID_37_" gradientUnits="userSpaceOnUse" x1="140.8677" y1="261.1168" x2="137.2639" y2="243.2842">
				<stop  offset="0" style="stop-color:#E7BD9A"/>
				<stop  offset="1" style="stop-color:#E6A081"/>
			</linearGradient>
			<path class="st86" d="M139,249.8l4.7,6.3c0,0,0,0-0.1,0.1c-0.3,0.4-1.7,2.4-4.4,4c-1.2,0.7-2.4,1-3.5,1.1
				c-1.6,0.1-2.8-0.3-2.8-0.3c-0.6-0.8-7.1-10.4-7.1-13.2c0,0,3.3-2,7.2-4.1c3.1-1.6,6.6-3.3,8.9-4.1c5.3-1.6,6.5-1.9,6.5-1.9v0.1
				l0.1,5.4L139,249.8z"/>
			<path class="st2" d="M135.8,261.2c-1.6,0.1-2.8-0.3-2.8-0.3c-0.6-0.8-7.1-10.4-7.1-13.2c0,0,3.3-2,7.2-4.1
				c-1.7,1.7-3.3,4.6-3.3,4.6s0.2,2,1.8,5C133.2,256.1,134.4,259.2,135.8,261.2z"/>
			<path class="st2" d="M139,249.8l4.7,6.3c0,0,0,0-0.1,0.1c-0.2,0-0.4-0.1-0.4-0.1c-0.5-0.9-6.1-7-6.1-7s3.5-3.6,6.4-6.3
				c1.5-1.4,3.4-3.4,4.9-5l0.1,5.4L139,249.8z"/>
		</g>
		<path class="st87" d="M126.9,253.8c0,0-0.8,0.1-3.4,0.4c-2.5,0.3-11.5,1-11.5,1l0.5-2.2l13.9-1L126.9,253.8z"/>
	</g>
	<g>
		<g class="st88">
			<path class="st89" d="M22,159.3l49.4-28.4l49.4-28.4c6.1-3.5,17.5-3.9,25.3-0.9l7.7,3c7.8,3.1,9.2,8.4,3.1,12L128,133.4l14.3,9.2
				l-1.3,4.1l-30.1-3.5l-52.9,30.2c-6.1,3.5-17.5,3.9-25.3,0.9l-7.7-3C17.2,168.3,15.9,162.9,22,159.3z"/>
			<path class="st90" d="M151.2,105.6c6.8,2.7,8.4,7.4,4.1,10.7c-0.4,0.3-0.8,0.6-1.3,0.9l-26.2,15.3l-1.3,0.9l13.8,8.8l-1.4,3.7
				l-12.3-1.5l-16.8-1.3l-20.1,11.4l-31.5,17.9c-1,0.6-2.4,1.2-3.6,1.6c-3.9,1.3-8.7,1.7-13.4,1.2c0,0,0,0,0,0
				c-2.7-0.3-5.3-0.9-7.6-1.7c-0.1,0-4.6-1.8-4.7-1.8c0,0-2.7-1-2.9-1.1c-4.2-1.6-6.2-4.1-6.3-6.4c-0.1-1.8,1.4-3.7,3.8-5.2
				l46.6-26.8l1.3-0.7l47.9-27.6c0.9-0.5,2.2-1.1,3.4-1.5c4.1-1.4,9.4-1.8,14.4-1.2c2.4,0.3,4.7,0.8,6.7,1.6c0.1,0,6.2,2.4,6.3,2.4
				C150.1,105.2,151.1,105.6,151.2,105.6z"/>
			<path class="st91" d="M148.6,106.6c6.4,2.5,7.9,7.1,3.7,10.3c-0.3,0.2-0.8,0.6-1.2,0.8L126,132.5l-1.1,0.8l13.3,8.3l-1.6,3.2
				l-12-1.5l-16.2-0.6l-19.5,11.1l-30.7,17.4c-0.9,0.5-2.4,1.2-3.5,1.5c-3.7,1.3-8.4,1.7-13.1,1.3c0,0,0,0,0,0
				c-2.6-0.3-5.1-0.8-7.4-1.6c-0.2,0-4.4-1.6-4.6-1.7c0,0-2.4-0.9-2.8-1.1c-4-1.6-5.8-4.1-5.7-6.3c0-1.6,1.6-3.6,3.8-4.9l45.1-25.9
				l1.2-0.7l46.3-26.7c0.8-0.5,2.2-1.1,3.2-1.5c3.9-1.4,9-1.8,13.9-1.2c2.3,0.3,4.5,0.8,6.5,1.5c0.3,0,5.9,2.2,6.1,2.3
				C147.5,106.2,148.4,106.5,148.6,106.6z"/>
			<path class="st92" d="M146,107.5c6.1,2.4,7.4,6.9,3.4,10c-0.3,0.2-0.8,0.6-1.2,0.8l-24,14.2l-0.9,0.8l12.8,7.9l-1.7,2.8
				l-11.6-1.6l-15.6,0.1l-19,10.7L58.2,170c-0.8,0.5-2.4,1.2-3.4,1.5c-3.5,1.3-8.1,1.7-12.7,1.3c0,0,0,0,0,0c-2.5-0.2-5-0.7-7.2-1.5
				c-0.3-0.1-4.2-1.5-4.4-1.6c0,0-2.2-0.8-2.7-1c-3.8-1.5-5.3-4.1-5.1-6.2c0.1-1.4,1.9-3.4,3.9-4.6l43.6-25.1l1.2-0.7l44.8-25.8
				c0.7-0.4,2.2-1.1,3.1-1.4c3.7-1.4,8.7-1.8,13.4-1.3c2.2,0.2,4.4,0.7,6.3,1.4c0.4,0.1,5.6,2,6,2.2
				C145,107.2,145.7,107.4,146,107.5z"/>
			<path class="st93" d="M143.4,108.5c5.7,2.2,6.9,6.7,3,9.6c-0.3,0.2-0.8,0.6-1.1,0.7l-22.9,13.6l-0.7,0.7l12.2,7.4l-1.9,2.4
				l-11.3-1.6l-15.1,0.9l-18.5,10.4l-29,16.3c-0.7,0.4-2.4,1.2-3.3,1.5c-3.3,1.3-7.8,1.7-12.3,1.4c0,0,0,0,0,0
				c-2.5-0.2-4.9-0.7-7-1.4c-0.5-0.1-3.9-1.4-4.3-1.6c0,0-2-0.7-2.6-1c-3.6-1.4-5.2-4.1-4.5-6.1c-0.1-1.2,2.1-3.3,3.9-4.3l42.1-24.2
				l1.2-0.7l43.3-24.9c0.7-0.4,2.2-1.2,3-1.4c3.5-1.3,8.3-1.8,13-1.4c2.1,0.2,4.2,0.6,6.1,1.2c0.6,0.1,5.3,1.9,5.8,2.1
				C142.5,108.2,143,108.3,143.4,108.5z"/>
			<path class="st94" d="M140.8,109.5c5.3,2.1,6.4,6.5,2.7,9.2c-0.2,0.2-0.8,0.5-1.1,0.7l-21.7,13l-0.4,0.7l11.7,7l-2,2l-10.9-1.6
				l-14.5,1.6l-18,10l-28.2,15.7c-0.6,0.3-2.4,1.2-3.2,1.5c-3.2,1.2-7.5,1.7-11.9,1.5c0,0,0,0,0,0c-2.4-0.2-4.7-0.6-6.8-1.2
				c-0.6-0.1-3.7-1.3-4.2-1.5c0,0-1.7-0.6-2.5-1c-3.4-1.3-4.8-4.1-3.9-6c-0.1-1.1,2.4-3.2,3.9-4l40.6-23.4l1.1-0.6l41.7-24
				c0.6-0.3,2.2-1.2,2.9-1.4c3.3-1.3,7.9-1.9,12.5-1.5c2.1,0.2,4.1,0.6,5.9,1.1c0.7,0.1,5,1.7,5.6,1.9
				C139.9,109.2,140.3,109.3,140.8,109.5z"/>
			<path class="st95" d="M138.2,110.4c4.9,1.9,5.8,6.2,2.3,8.8c-0.2,0.1-0.8,0.5-1,0.7l-20.6,12.4l-0.2,0.7l11.2,6.6l-2.2,1.5
				l-10.6-1.6l-13.9,2.3l-17.4,9.7l-27.4,15.2c-0.5,0.3-2.4,1.3-3.1,1.5c-3,1.2-7.2,1.8-11.5,1.6c0,0,0,0,0,0
				c-2.3-0.1-4.6-0.5-6.6-1.1c-0.7-0.1-3.5-1.2-4.1-1.4c0,0-1.5-0.5-2.5-0.9c-3.2-1.3-4.4-4.1-3.3-5.8c-0.1-0.9,2.7-3,3.9-3.7
				l39.1-22.5l1.1-0.6l40.2-23.2c0.5-0.3,2.2-1.2,2.8-1.4c3.1-1.3,7.6-1.9,12-1.6c2,0.1,3.9,0.5,5.7,1c0.9,0.1,4.7,1.5,5.4,1.8
				C137.4,110.2,137.6,110.2,138.2,110.4z"/>
			<path class="st96" d="M135.6,111.4c4.5,1.8,5.3,6,2,8.5c-0.1,0.1-0.8,0.5-1,0.6l-19.5,11.8l0,0.6l10.7,6.1l-2.3,1.1l-10.2-1.7
				l-13.3,3l-16.9,9.3l-26.5,14.6c-0.4,0.2-2.5,1.3-3,1.4c-2.8,1.2-6.9,1.8-11.1,1.7c0,0,0,0,0,0c-2.2-0.1-4.4-0.5-6.4-1
				c-0.8-0.2-3.3-1.1-4-1.3c0,0-1.2-0.4-2.4-0.9c-3-1.2-4-4.1-2.8-5.7c-0.1-0.7,2.9-2.9,3.9-3.4l37.6-21.7l1-0.6l38.7-22.3
				c0.4-0.2,2.2-1.2,2.6-1.3c2.9-1.3,7.2-1.9,11.5-1.6c1.9,0.1,3.8,0.4,5.5,0.9c1,0.2,4.4,1.3,5.2,1.7
				C134.8,111.2,134.9,111.1,135.6,111.4z"/>
			<path class="st97" d="M132.9,112.4c4.1,1.6,4.8,5.8,1.6,8.1c-0.1,0.1-0.8,0.5-0.9,0.6l-18.4,11.3l0.2,0.6l10.1,5.7l-2.5,0.7
				l-9.9-1.7l-12.7,3.7l-16.4,9l-25.7,14.1c-0.3,0.2-2.5,1.3-2.9,1.4c-2.6,1.2-6.6,1.8-10.7,1.7c0,0,0,0,0,0
				c-2.2-0.1-4.3-0.4-6.2-0.9c-0.9-0.2-3.1-0.9-3.9-1.2c0,0-1-0.3-2.3-0.8c-2.8-1.1-3.6-4-2.2-5.6c0-0.5,3.2-2.7,3.9-3.2l36.1-20.8
				l1-0.6l37.1-21.4c0.3-0.2,2.2-1.2,2.5-1.3c2.7-1.3,6.8-1.9,11-1.7c1.8,0.1,3.6,0.3,5.3,0.7c1.2,0.2,4.1,1.2,5,1.6
				C132.3,112.2,132.2,112.1,132.9,112.4z"/>
			<path class="st98" d="M130.3,113.3c3.8,1.5,4.3,5.6,1.3,7.7c-0.1,0.1-0.7,0.5-0.8,0.5l-17.2,10.7l0.4,0.5l9.6,5.2l-2.7,0.3
				l-9.5-1.7L99.2,141l-15.9,8.6l-24.9,13.6c-0.2,0.1-2.5,1.3-2.7,1.4c-2.5,1.2-6.3,1.9-10.3,1.8c0,0,0,0,0,0
				c-2.1-0.1-4.2-0.3-6-0.8c-1-0.2-2.9-0.8-3.7-1.2c0,0-0.8-0.2-2.2-0.8c-2.6-1.1-3.3-4-1.6-5.5c0-0.4,3.5-2.6,4-2.9l34.6-19.9
				l0.9-0.5l35.6-20.5c0.2-0.1,2.2-1.2,2.4-1.3c2.5-1.3,6.4-1.9,10.5-1.8c1.8,0.1,3.5,0.3,5.1,0.6c1.3,0.2,3.7,1,4.8,1.4
				C129.7,113.2,129.5,113,130.3,113.3z"/>
			<path class="st99" d="M127.7,114.3c3.4,1.3,3.8,5.3,0.9,7.3c0,0-0.7,0.5-0.8,0.5l-16.1,10.1l0.7,0.5l9.1,4.8l-2.8-0.2l-9.2-1.8
				l-11.6,5.2L82.6,149l-24.1,13c-0.1,0.1-2.5,1.3-2.6,1.4c-2.3,1.2-6,1.9-10,1.9c0,0,0,0,0,0c-2,0-4-0.3-5.8-0.7
				c-1.1-0.2-2.7-0.7-3.6-1.1c0,0-0.5-0.1-2.2-0.8c-2.5-1-2.9-4-1-5.4c0-0.2,3.7-2.4,4-2.6l33.1-19.1l0.9-0.5l34.1-19.7
				c0.1-0.1,2.2-1.2,2.3-1.3c2.3-1.2,6.1-1.9,10.1-1.9c1.7,0,3.3,0.2,4.9,0.5c1.5,0.2,3.4,0.8,4.6,1.3
				C127.2,114.2,126.8,113.9,127.7,114.3z"/>
			<path class="st100" d="M46.5,164.2c3.9,0,7.4-0.7,9.6-2l25.8-13.8l25.8-13.8l11.8,2.4l-9.4-4.8l15.7-10c2.7-1.7,2.4-5.8-0.6-6.9
				c-1-0.4-0.5-0.1-0.5-0.1c-2.5-1-5.8-1.5-9.1-1.5c-3.9,0-7.4,0.7-9.6,2l-35.5,20.5l-35.5,20.5c-2.1,1.2-1.9,4.3,0.4,5.2
				c1.8,0.7,2.1,0.7,2.1,0.7C39.9,163.6,43.1,164.2,46.5,164.2C46.5,164.2,46.5,164.2,46.5,164.2z"/>
		</g>
		<g>
			<g>
				<path class="st101" d="M42.8,101.3L164,31.1c3.8-2.2,7.2-2.4,9.9-1.1l0.1-0.1l8.7,5.1l0,0.1c-2.8-1.7-6.4-1.6-10.5,0.8
					L50.9,106.1c-8.8,5.1-15.9,18.6-15.9,30.3v11.5c0,5.7,1.7,9.8,4.4,12.1l-4.8-3.2c-4.1-2.3-7.8-5.9-7.8-13.7v-11.5
					C26.9,119.9,34,106.4,42.8,101.3z"/>
				
					<linearGradient id="SVGID_38_" gradientUnits="userSpaceOnUse" x1="6.8811" y1="58.3336" x2="41.3608" y2="117.2364" gradientTransform="matrix(0.6667 0 0 1 87.6933 0)">
					<stop  offset="0.1515" style="stop-color:#D1D6F5"/>
					<stop  offset="0.4343" style="stop-color:#D2D7F6"/>
					<stop  offset="0.5354" style="stop-color:#D6DAF6"/>
					<stop  offset="0.7222" style="stop-color:#C9CEF1"/>
					<stop  offset="0.9091" style="stop-color:#C9CEF1"/>
					<stop  offset="1" style="stop-color:#CED3F4"/>
				</linearGradient>
				<path class="st102" d="M43.1,101.6l121.1-70.2c3.7-2.2,7.2-2.4,9.9-1.1l0.1-0.1l8.7,5.1l0,0.1c-2.8-1.7-6.4-1.6-10.4,0.8
					L51.3,106.4c-8.8,5.1-15.8,18.6-15.8,30.3v11.5c0,5.7,1.7,9.8,4.4,12.1l-4.8-3.2c-4.1-2.3-7.7-5.9-7.7-13.7v-11.5
					C27.3,120.2,34.4,106.7,43.1,101.6z"/>
				
					<linearGradient id="SVGID_39_" gradientUnits="userSpaceOnUse" x1="-254.9164" y1="13.8086" x2="-142.4234" y2="205.9844" gradientTransform="matrix(0.3333 0 0 1 175.3866 0)">
					<stop  offset="0.1515" style="stop-color:#D5D9F6"/>
					<stop  offset="0.4343" style="stop-color:#D6DAF8"/>
					<stop  offset="0.5354" style="stop-color:#DEE2F8"/>
					<stop  offset="0.6815" style="stop-color:#CACFF1"/>
					<stop  offset="0.7222" style="stop-color:#C4C9EF"/>
					<stop  offset="0.9091" style="stop-color:#C4C9EF"/>
					<stop  offset="1" style="stop-color:#CED3F4"/>
				</linearGradient>
				<path class="st103" d="M43.5,101.9l121-70.1c3.7-2.2,7.2-2.4,9.9-1.1l0.1-0.1l8.7,5.1l0,0.1c-2.8-1.7-6.4-1.6-10.4,0.8
					l-121,70.1c-8.7,5-15.8,18.6-15.8,30.3v11.5c0,5.7,1.7,9.8,4.4,12l-4.8-3.2c-4.1-2.3-7.7-5.9-7.7-13.7v-11.5
					C27.7,120.5,34.8,107,43.5,101.9z"/>
				
					<linearGradient id="SVGID_40_" gradientUnits="userSpaceOnUse" x1="-10956.335" y1="2982.2776" x2="-10847.5332" y2="3168.1465" gradientTransform="matrix(0 0 0 1 263.0799 0)">
					<stop  offset="0.1515" style="stop-color:#D8DCF8"/>
					<stop  offset="0.4343" style="stop-color:#DADEFA"/>
					<stop  offset="0.5176" style="stop-color:#E4E7FA"/>
					<stop  offset="0.5354" style="stop-color:#E7E9FA"/>
					<stop  offset="0.6358" style="stop-color:#D3D7F4"/>
					<stop  offset="0.7222" style="stop-color:#BFC4ED"/>
					<stop  offset="0.9091" style="stop-color:#BFC4ED"/>
					<stop  offset="0.9797" style="stop-color:#CACFF1"/>
					<stop  offset="1" style="stop-color:#CED3F3"/>
				</linearGradient>
				<path class="st104" d="M43.9,102.2l120.9-70.1c3.7-2.2,7.2-2.4,9.9-1.1l0.1-0.1l8.6,5.1l0,0.1c-2.8-1.7-6.4-1.6-10.4,0.8L52,107
					c-8.7,5-15.8,18.6-15.8,30.2v11.5c0,5.7,1.7,9.8,4.4,12l-4.8-3.2c-4.1-2.3-7.7-5.9-7.7-13.6v-11.5
					C28.1,120.8,35.2,107.2,43.9,102.2z"/>
				
					<linearGradient id="SVGID_41_" gradientUnits="userSpaceOnUse" x1="655.5958" y1="-51.1651" x2="888.3927" y2="346.5302" gradientTransform="matrix(-0.3333 0 0 1 350.7732 0)">
					<stop  offset="0.1515" style="stop-color:#DBDFF9"/>
					<stop  offset="0.4343" style="stop-color:#DDE2FB"/>
					<stop  offset="0.4993" style="stop-color:#E7EAFB"/>
					<stop  offset="0.5354" style="stop-color:#EFF0FB"/>
					<stop  offset="0.6129" style="stop-color:#DBDFF5"/>
					<stop  offset="0.7222" style="stop-color:#B9C0EA"/>
					<stop  offset="0.9091" style="stop-color:#B9C0EA"/>
					<stop  offset="0.9656" style="stop-color:#C4CAEF"/>
					<stop  offset="1" style="stop-color:#CDD2F3"/>
				</linearGradient>
				<path class="st105" d="M44.3,102.5l120.8-70c3.7-2.2,7.2-2.4,9.9-1.1l0.1-0.1l8.6,5.1l0,0.1c-2.8-1.7-6.4-1.5-10.4,0.8
					l-120.8,70c-8.7,5-15.8,18.6-15.8,30.2V149c0,5.7,1.7,9.8,4.4,12l-4.8-3.2c-4-2.3-7.7-5.9-7.7-13.6v-11.5
					C28.5,121.1,35.5,107.5,44.3,102.5z"/>
				
					<linearGradient id="SVGID_42_" gradientUnits="userSpaceOnUse" x1="449.644" y1="-1.1699" x2="601.5153" y2="258.2773" gradientTransform="matrix(-0.6667 0 0 1 438.4666 0)">
					<stop  offset="0.1515" style="stop-color:#DFE2FA"/>
					<stop  offset="0.4343" style="stop-color:#E1E5FD"/>
					<stop  offset="0.49" style="stop-color:#EBEEFD"/>
					<stop  offset="0.5354" style="stop-color:#F7F8FD"/>
					<stop  offset="0.5996" style="stop-color:#E3E6F7"/>
					<stop  offset="0.7222" style="stop-color:#B4BBE8"/>
					<stop  offset="0.9091" style="stop-color:#B4BBE8"/>
					<stop  offset="0.9566" style="stop-color:#BFC5ED"/>
					<stop  offset="1" style="stop-color:#CDD2F3"/>
				</linearGradient>
				<path class="st106" d="M44.6,102.8l120.7-70c3.7-2.2,7.2-2.4,9.9-1.1l0.1-0.1l8.6,5.1l0,0.1c-2.8-1.7-6.4-1.5-10.4,0.8
					l-120.7,70c-8.7,5-15.8,18.5-15.8,30.2v11.5c0,5.7,1.7,9.8,4.4,12l-4.8-3.2c-4-2.3-7.7-5.9-7.7-13.6V133
					C28.8,121.3,35.9,107.8,44.6,102.8z"/>
				
					<linearGradient id="SVGID_43_" gradientUnits="userSpaceOnUse" x1="381.4774" y1="15.4401" x2="507.0736" y2="230.0006" gradientTransform="matrix(-1 0 0 1 526.1599 0)">
					<stop  offset="0.1515" style="stop-color:#E2E5FB"/>
					<stop  offset="0.4343" style="stop-color:#E5E9FF"/>
					<stop  offset="0.4834" style="stop-color:#EFF2FF"/>
					<stop  offset="0.5354" style="stop-color:#FFFFFF"/>
					<stop  offset="0.5905" style="stop-color:#EBEDF9"/>
					<stop  offset="0.7024" style="stop-color:#B9BFE8"/>
					<stop  offset="0.7222" style="stop-color:#AFB6E5"/>
					<stop  offset="0.9091" style="stop-color:#AFB6E5"/>
					<stop  offset="0.9503" style="stop-color:#BAC0EA"/>
					<stop  offset="1" style="stop-color:#CDD2F3"/>
				</linearGradient>
				<path class="st107" d="M45,103.1l120.6-69.9c3.7-2.2,7.2-2.4,9.9-1.1l0.1-0.1l8.6,5.1l0,0.1c-2.8-1.7-6.4-1.5-10.4,0.8
					L53.1,107.9c-8.7,5-15.8,18.5-15.8,30.2v11.5c0,5.6,1.7,9.8,4.4,12l-4.8-3.2c-4-2.3-7.7-5.9-7.7-13.6v-11.5
					C29.2,121.6,36.3,108.1,45,103.1z"/>
			</g>
			
				<linearGradient id="SVGID_44_" gradientUnits="userSpaceOnUse" x1="319.6101" y1="196.329" x2="449.4968" y2="61.7268" gradientTransform="matrix(-1 0 0 1 526.1599 0)">
				<stop  offset="0" style="stop-color:#AFB6E5"/>
				<stop  offset="0.1449" style="stop-color:#B6BCE8"/>
				<stop  offset="0.3485" style="stop-color:#C8CDF1"/>
				<stop  offset="0.5808" style="stop-color:#E5E9FF"/>
				<stop  offset="0.8551" style="stop-color:#F5F6FF"/>
				<stop  offset="1" style="stop-color:#FFFFFF"/>
			</linearGradient>
			<path class="st108" d="M50.9,106.1l121.2-70.3c8.8-5.1,15.9,0.3,15.9,12v11.5c0,11.7-7.1,25.2-15.9,30.3l-25.4,15.6l-7.1,40.5
				l-13.6-28.6l-75,42.7c-8.8,5.1-15.9-0.3-15.9-12v-11.5C35.1,124.7,42.2,111.2,50.9,106.1z"/>
			
				<linearGradient id="SVGID_45_" gradientUnits="userSpaceOnUse" x1="393.6226" y1="121.87" x2="420.8958" y2="254.4927" gradientTransform="matrix(-1 0 0 1 526.1599 0)">
				<stop  offset="0" style="stop-color:#AFB6E5"/>
				<stop  offset="0.1449" style="stop-color:#B6BCE8"/>
				<stop  offset="0.3485" style="stop-color:#C8CDF1"/>
				<stop  offset="0.5808" style="stop-color:#E5E9FF"/>
				<stop  offset="0.9546" style="stop-color:#F5F4FC"/>
				<stop  offset="1" style="stop-color:#F7F6FB"/>
			</linearGradient>
			<polygon class="st109" points="121,120 125.9,117.2 139.6,145.7 131.6,141.1 			"/>
			<g>
				<path class="st110" d="M160,57.1l-2,7.8c-0.2,0.6-0.6,1.3-1.1,1.6l-6.1,3.7c-1.1,0.7-1.6,2.6-0.7,2.9l4.9,1.4
					c0.4,0.1,0.6,0.6,0.4,1.3l-1.8,7.7c-0.3,1.5,0.9,1.8,1.9,0.5l5-6.9c0.4-0.6,1-0.9,1.4-0.8l5,1.1c0.9,0.2,2.2-1.5,1.9-2.6
					l-1.8-5.7c-0.1-0.5,0-1.2,0.4-1.8l4.9-7c0.9-1.3,0.4-2.7-0.7-2.1l-6.1,3.4c-0.5,0.3-1,0.2-1.1-0.3l-2-5.5
					C161.9,54.7,160.3,55.6,160,57.1z"/>
				<path class="st110" d="M134.6,71.8l-2,7.8c-0.2,0.6-0.6,1.3-1.1,1.6l-6.1,3.7c-1.1,0.7-1.6,2.6-0.7,2.9l4.9,1.4
					c0.4,0.1,0.6,0.6,0.4,1.3l-1.8,7.7c-0.3,1.5,0.9,1.8,1.9,0.5l5-6.9c0.4-0.6,1-0.9,1.4-0.8l5,1.1c0.9,0.2,2.2-1.5,1.9-2.6
					l-1.8-5.7c-0.1-0.5,0-1.2,0.4-1.8l4.9-7c0.9-1.3,0.4-2.7-0.7-2.1l-6.1,3.4c-0.5,0.3-1,0.2-1.1-0.3l-2-5.5
					C136.5,69.4,134.9,70.3,134.6,71.8z"/>
				<path class="st110" d="M109.2,86.4l-2,7.8c-0.2,0.6-0.6,1.3-1.1,1.6l-6.1,3.7c-1.1,0.7-1.6,2.6-0.7,2.9l4.9,1.4
					c0.4,0.1,0.6,0.6,0.4,1.3l-1.8,7.7c-0.3,1.5,0.9,1.8,1.9,0.5l5-6.9c0.4-0.6,1-0.9,1.4-0.8l5,1.1c0.9,0.2,2.2-1.5,1.9-2.6
					l-1.8-5.7c-0.1-0.5,0-1.2,0.4-1.8l4.9-7c0.9-1.3,0.4-2.7-0.7-2.1l-6.1,3.4c-0.5,0.3-1,0.2-1.1-0.3l-2-5.5
					C111.1,84.1,109.5,85,109.2,86.4z"/>
				<path class="st110" d="M83.8,101.1l-2,7.8c-0.2,0.6-0.6,1.3-1.1,1.6l-6.1,3.7c-1.1,0.7-1.6,2.6-0.7,2.9l4.9,1.4
					c0.4,0.1,0.6,0.6,0.4,1.3l-1.8,7.7c-0.3,1.5,0.9,1.8,1.9,0.5l5-6.9c0.4-0.6,1-0.9,1.4-0.8l5,1.1c0.9,0.2,2.2-1.5,1.9-2.6
					l-1.8-5.7c-0.1-0.5,0-1.2,0.4-1.8l4.9-7c0.9-1.3,0.4-2.7-0.7-2.1l-6.1,3.4c-0.5,0.3-1,0.2-1.1-0.3l-2-5.5
					C85.7,98.7,84.2,99.6,83.8,101.1z"/>
				<path class="st110" d="M58.4,115.7l-2,7.8c-0.2,0.6-0.6,1.3-1.1,1.6l-6.1,3.7c-1.1,0.7-1.6,2.6-0.7,2.9l4.9,1.4
					c0.4,0.1,0.6,0.6,0.4,1.3l-1.8,7.7c-0.3,1.5,0.9,1.8,1.9,0.5l5-6.9c0.4-0.6,1-0.9,1.4-0.8l5,1.1c0.9,0.2,2.2-1.5,1.9-2.6
					l-1.8-5.7c-0.1-0.5,0-1.2,0.4-1.8l4.9-7c0.9-1.3,0.4-2.7-0.7-2.1l-6.1,3.4c-0.5,0.3-1,0.2-1.1-0.3l-2-5.5
					C60.3,113.4,58.8,114.3,58.4,115.7z"/>
				<g>
					<path class="st101" d="M87.1,104.4l-1.9-5.1c0.4-0.1,0.7,0,0.8,0.4l1.9,5.1C87.5,104.9,87.2,104.8,87.1,104.4z"/>
					<path class="st101" d="M77.7,117.6c0.3,0.1,0.4,0.3,0.5,0.6l-4.3-1.3c-0.3-0.1-0.4-0.3-0.5-0.6L77.7,117.6z"/>
					<path class="st101" d="M78.2,127.1l5-6.9c0.4-0.6,1-0.9,1.4-0.8l5,1.1c0.9,0.2,2.2-1.5,1.9-2.6l-1.8-5.7
						c-0.1-0.5,0-1.2,0.4-1.8l4.9-7c0.3-0.5,0.5-1,0.5-1.4c1-0.4,1.4,0.9,0.5,2.2l-4.9,7c-0.4,0.6-0.6,1.3-0.4,1.8l1.8,5.7
						c0.3,1.1-0.9,2.8-1.9,2.6l-5-1.1c-0.4-0.1-1,0.2-1.4,0.8l-5,6.9c-0.8,1.2-1.9,1-1.9-0.1C77.6,127.7,77.9,127.5,78.2,127.1z"/>
				</g>
				<g>
					<path class="st101" d="M61.7,119.1l-1.9-5.1c0.4-0.1,0.7,0,0.8,0.4l1.9,5.1C62.1,119.6,61.8,119.5,61.7,119.1z"/>
					<path class="st101" d="M52.8,141.8l5-6.9c0.4-0.6,1-0.9,1.4-0.8l5,1.1c0.9,0.2,2.2-1.5,1.9-2.6l-1.8-5.7
						c-0.1-0.5,0-1.2,0.4-1.8l4.9-7c0.3-0.5,0.5-1,0.5-1.4c1-0.4,1.4,0.9,0.5,2.2l-4.9,7c-0.4,0.6-0.6,1.3-0.4,1.8l1.8,5.7
						c0.3,1.1-0.9,2.8-1.9,2.6l-5-1.1c-0.4-0.1-1,0.2-1.4,0.8l-5,6.9c-0.8,1.2-1.9,1-1.9-0.1C52.2,142.4,52.5,142.2,52.8,141.8z"/>
					<path class="st101" d="M52.3,132.3c0.3,0.1,0.4,0.3,0.5,0.6l-4.3-1.3c-0.3-0.1-0.4-0.3-0.5-0.6L52.3,132.3z"/>
				</g>
			</g>
			<path class="st110" d="M160,57.1l-2,7.8c-0.2,0.6-0.6,1.3-1.1,1.6l-6.1,3.7c-1.1,0.7-1.6,2.6-0.7,2.9l4.9,1.4
				c0.4,0.1,0.6,0.6,0.4,1.3l-1.8,7.7c-0.3,1.5,0.9,1.8,1.9,0.5l5-6.9c0.4-0.6,1-0.9,1.4-0.8l5,1.1c0.9,0.2,2.2-1.5,1.9-2.6
				l-1.8-5.7c-0.1-0.5,0-1.2,0.4-1.8l4.9-7c0.9-1.3,0.4-2.7-0.7-2.1l-6.1,3.4c-0.5,0.3-1,0.2-1.1-0.3l-2-5.5
				C161.9,54.7,160.3,55.6,160,57.1z"/>
			<path class="st110" d="M134.6,71.8l-2,7.8c-0.2,0.6-0.6,1.3-1.1,1.6l-6.1,3.7c-1.1,0.7-1.6,2.6-0.7,2.9l4.9,1.4
				c0.4,0.1,0.6,0.6,0.4,1.3l-1.8,7.7c-0.3,1.5,0.9,1.8,1.9,0.5l5-6.9c0.4-0.6,1-0.9,1.4-0.8l5,1.1c0.9,0.2,2.2-1.5,1.9-2.6
				l-1.8-5.7c-0.1-0.5,0-1.2,0.4-1.8l4.9-7c0.9-1.3,0.4-2.7-0.7-2.1l-6.1,3.4c-0.5,0.3-1,0.2-1.1-0.3l-2-5.5
				C136.5,69.4,134.9,70.3,134.6,71.8z"/>
			<path class="st110" d="M109.2,86.4l-2,7.8c-0.2,0.6-0.6,1.3-1.1,1.6l-6.1,3.7c-1.1,0.7-1.6,2.6-0.7,2.9l4.9,1.4
				c0.4,0.1,0.6,0.6,0.4,1.3l-1.8,7.7c-0.3,1.5,0.9,1.8,1.9,0.5l5-6.9c0.4-0.6,1-0.9,1.4-0.8l5,1.1c0.9,0.2,2.2-1.5,1.9-2.6
				l-1.8-5.7c-0.1-0.5,0-1.2,0.4-1.8l4.9-7c0.9-1.3,0.4-2.7-0.7-2.1l-6.1,3.4c-0.5,0.3-1,0.2-1.1-0.3l-2-5.5
				C111.1,84.1,109.5,85,109.2,86.4z"/>
			<g>
				<g>
					
						<linearGradient id="SVGID_46_" gradientUnits="userSpaceOnUse" x1="431.8955" y1="119.3865" x2="419.4483" y2="106.886" gradientTransform="matrix(-1 0 0 1 526.1599 0)">
						<stop  offset="0" style="stop-color:#FFC954"/>
						<stop  offset="1" style="stop-color:#D45D22"/>
					</linearGradient>
					<path class="st111" d="M104.9,105c0.1-0.3-0.1-0.9-0.1-1.1l0.6,0.2c0.4,0.1,0.6,0.6,0.4,1.3l-1.8,7.7c-0.1,0.5,0,0.9,0.2,1.1
						l-0.7-0.3c-0.4-0.1-0.6-0.5-0.4-1.3L104.9,105z"/>
					
						<linearGradient id="SVGID_47_" gradientUnits="userSpaceOnUse" x1="395.3271" y1="76.7652" x2="410.1336" y2="92.2273" gradientTransform="matrix(-1 0 0 1 526.1599 0)">
						<stop  offset="0" style="stop-color:#FFC954"/>
						<stop  offset="1" style="stop-color:#D45D22"/>
					</linearGradient>
					<path class="st112" d="M121.9,88l-6.1,3.4c-0.5,0.3-0.9,0.2-1.1-0.3l0.5-0.3l5.8-3.2c0.4-0.2,0.7-0.2,0.9,0l0.8,0.3l0,0
						C122.5,87.8,122.2,87.8,121.9,88z"/>
					
						<linearGradient id="SVGID_48_" gradientUnits="userSpaceOnUse" x1="425.2539" y1="87.795" x2="417.9364" y2="96.5086" gradientTransform="matrix(-1 0 0 1 526.1599 0)">
						<stop  offset="0" style="stop-color:#FFC954"/>
						<stop  offset="1" style="stop-color:#D45D22"/>
					</linearGradient>
					<path class="st113" d="M100.3,99.5l6.1-3.7c0.5-0.3,0.9-0.9,1.1-1.6l2-7.7c0.3-1.3,1.5-2.1,2.1-1.6l0.8,0.3l0,0
						c-0.6-0.3-1.7,0.5-2,1.7l-2,7.7c-0.2,0.6-0.6,1.3-1.1,1.6l-6.1,3.7c-1.1,0.6-1.5,2.3-0.9,2.8l0,0l-0.8-0.4
						C98.7,101.9,99.2,100.1,100.3,99.5z"/>
				</g>
				
					<linearGradient id="SVGID_49_" gradientUnits="userSpaceOnUse" x1="421.7693" y1="96.7057" x2="381.0102" y2="116.4296" gradientTransform="matrix(-1 0 0 1 526.1599 0)">
					<stop  offset="0" style="stop-color:#FFE585"/>
					<stop  offset="1" style="stop-color:#FF9E6E"/>
				</linearGradient>
				<path class="st114" d="M110.4,86.9l-2,7.7c-0.2,0.6-0.6,1.3-1.1,1.6l-6.1,3.7c-1.1,0.7-1.6,2.6-0.7,2.9l4.8,1.4
					c0.4,0.1,0.6,0.6,0.4,1.3l-1.8,7.7c-0.3,1.4,0.9,1.8,1.8,0.5l5-6.9c0.4-0.6,1-0.9,1.4-0.8l5,1.1c0.9,0.2,2.2-1.5,1.8-2.6
					l-1.8-5.7c-0.1-0.5,0-1.2,0.4-1.7l4.8-7c0.9-1.3,0.4-2.7-0.7-2.1l-6.1,3.4c-0.5,0.3-0.9,0.2-1.1-0.3l-2-5.4
					C112.3,84.6,110.8,85.5,110.4,86.9z"/>
				<g>
					<path class="st8" d="M122,88.1l-6.1,3.4c-0.4,0.2-0.8,0.2-1-0.1c0.2,0.1,0.5,0.1,0.8-0.1l6.1-3.4c0.4-0.2,0.8-0.2,1,0.1
						C122.6,87.9,122.3,87.9,122,88.1z"/>
					<path class="st8" d="M105.7,105.5c0.1-0.5,0-0.8-0.1-1.1c0.3,0.2,0.5,0.6,0.3,1.2l-1.8,7.7c-0.1,0.5,0,0.9,0.1,1.1
						c-0.3-0.2-0.5-0.6-0.3-1.2L105.7,105.5z"/>
					<path class="st8" d="M101.2,99.9l6.1-3.7c0.5-0.3,0.9-0.9,1.1-1.6l2-7.7c0.3-1.3,1.6-2.2,2.1-1.6c-0.6-0.3-1.6,0.5-1.9,1.7
						l-2,7.7c-0.2,0.6-0.6,1.3-1.1,1.6l-6.1,3.7c-1,0.6-1.5,2.1-1,2.7C99.6,102.3,100.1,100.5,101.2,99.9z"/>
				</g>
			</g>
			<g>
				<g>
					
						<linearGradient id="SVGID_50_" gradientUnits="userSpaceOnUse" x1="406.604" y1="104.8117" x2="394.1568" y2="92.3113" gradientTransform="matrix(-1 0 0 1 526.1599 0)">
						<stop  offset="0" style="stop-color:#FFC954"/>
						<stop  offset="1" style="stop-color:#D45D22"/>
					</linearGradient>
					<path class="st115" d="M130.2,90.5c0.1-0.3-0.1-0.9-0.1-1.1l0.6,0.2c0.4,0.1,0.6,0.6,0.4,1.3l-1.8,7.7c-0.1,0.5,0,0.9,0.2,1.1
						l-0.7-0.3c-0.4-0.1-0.6-0.5-0.4-1.3L130.2,90.5z"/>
					
						<linearGradient id="SVGID_51_" gradientUnits="userSpaceOnUse" x1="370.0355" y1="62.1903" x2="384.8421" y2="77.6525" gradientTransform="matrix(-1 0 0 1 526.1599 0)">
						<stop  offset="0" style="stop-color:#FFC954"/>
						<stop  offset="1" style="stop-color:#D45D22"/>
					</linearGradient>
					<path class="st116" d="M147.1,73.4l-6.1,3.4c-0.5,0.3-0.9,0.2-1.1-0.3l0.5-0.3l5.8-3.2c0.4-0.2,0.7-0.2,0.9,0l0.8,0.3l0,0
						C147.8,73.2,147.5,73.2,147.1,73.4z"/>
					
						<linearGradient id="SVGID_52_" gradientUnits="userSpaceOnUse" x1="399.9623" y1="73.2203" x2="392.6449" y2="81.9338" gradientTransform="matrix(-1 0 0 1 526.1599 0)">
						<stop  offset="0" style="stop-color:#FFC954"/>
						<stop  offset="1" style="stop-color:#D45D22"/>
					</linearGradient>
					<path class="st117" d="M125.6,84.9l6.1-3.7c0.5-0.3,0.9-0.9,1.1-1.6l2-7.7c0.3-1.3,1.5-2.1,2.1-1.6l0.8,0.3l0,0
						c-0.6-0.3-1.7,0.5-2,1.7l-2,7.7c-0.2,0.6-0.6,1.3-1.1,1.6l-6.1,3.7c-1.1,0.6-1.5,2.3-0.9,2.8l0,0l-0.8-0.4
						C124,87.4,124.5,85.5,125.6,84.9z"/>
				</g>
				
					<linearGradient id="SVGID_53_" gradientUnits="userSpaceOnUse" x1="396.4778" y1="82.1309" x2="355.7187" y2="101.8548" gradientTransform="matrix(-1 0 0 1 526.1599 0)">
					<stop  offset="0" style="stop-color:#FFE585"/>
					<stop  offset="1" style="stop-color:#FF9E6E"/>
				</linearGradient>
				<path class="st118" d="M135.7,72.3l-2,7.7c-0.2,0.6-0.6,1.3-1.1,1.6l-6.1,3.7c-1.1,0.7-1.6,2.6-0.7,2.9l4.8,1.4
					c0.4,0.1,0.6,0.6,0.4,1.3l-1.8,7.7c-0.3,1.4,0.9,1.8,1.8,0.5l5-6.9c0.4-0.6,1-0.9,1.4-0.8l5,1.1c0.9,0.2,2.2-1.5,1.8-2.6
					l-1.8-5.7c-0.1-0.5,0-1.2,0.4-1.7l4.8-7c0.9-1.3,0.4-2.7-0.7-2.1l-6.1,3.4c-0.5,0.3-0.9,0.2-1.1-0.3l-2-5.4
					C137.6,70,136.1,70.9,135.7,72.3z"/>
				<g>
					<path class="st8" d="M147.3,73.5l-6.1,3.4c-0.4,0.2-0.8,0.2-1-0.1c0.2,0.1,0.5,0.1,0.8-0.1l6.1-3.4c0.4-0.2,0.8-0.2,1,0.1
						C147.9,73.3,147.6,73.3,147.3,73.5z"/>
					<path class="st8" d="M131,90.9c0.1-0.5,0-0.8-0.1-1.1c0.3,0.2,0.5,0.6,0.3,1.2l-1.8,7.7c-0.1,0.5,0,0.9,0.1,1.1
						c-0.3-0.2-0.5-0.6-0.3-1.2L131,90.9z"/>
					<path class="st8" d="M126.5,85.3l6.1-3.7c0.5-0.3,0.9-0.9,1.1-1.6l2-7.7c0.3-1.3,1.6-2.2,2.1-1.6c-0.6-0.3-1.6,0.5-1.9,1.7
						l-2,7.7c-0.2,0.6-0.6,1.3-1.1,1.6l-6.1,3.7c-1,0.6-1.5,2.1-1,2.7C124.9,87.8,125.4,86,126.5,85.3z"/>
				</g>
			</g>
			<g>
				<g>
					
						<linearGradient id="SVGID_54_" gradientUnits="userSpaceOnUse" x1="381.0981" y1="90.1834" x2="368.6509" y2="77.6829" gradientTransform="matrix(-1 0 0 1 526.1599 0)">
						<stop  offset="0" style="stop-color:#FFC954"/>
						<stop  offset="1" style="stop-color:#D45D22"/>
					</linearGradient>
					<path class="st119" d="M155.7,75.8c0.1-0.3-0.1-0.9-0.1-1.1l0.6,0.2c0.4,0.1,0.6,0.6,0.4,1.3l-1.8,7.7c-0.1,0.5,0,0.9,0.2,1.1
						l-0.7-0.3c-0.4-0.1-0.6-0.5-0.4-1.3L155.7,75.8z"/>
					
						<linearGradient id="SVGID_55_" gradientUnits="userSpaceOnUse" x1="344.5297" y1="47.562" x2="359.3362" y2="63.0242" gradientTransform="matrix(-1 0 0 1 526.1599 0)">
						<stop  offset="0" style="stop-color:#FFC954"/>
						<stop  offset="1" style="stop-color:#D45D22"/>
					</linearGradient>
					<path class="st120" d="M172.7,58.7l-6.1,3.4c-0.5,0.3-0.9,0.2-1.1-0.3l0.5-0.3l5.8-3.2c0.4-0.2,0.7-0.2,0.9,0l0.8,0.3l0,0
						C173.3,58.6,173,58.6,172.7,58.7z"/>
					
						<linearGradient id="SVGID_56_" gradientUnits="userSpaceOnUse" x1="374.4565" y1="58.5919" x2="367.139" y2="67.3055" gradientTransform="matrix(-1 0 0 1 526.1599 0)">
						<stop  offset="0" style="stop-color:#FFC954"/>
						<stop  offset="1" style="stop-color:#D45D22"/>
					</linearGradient>
					<path class="st121" d="M151.1,70.3l6.1-3.7c0.5-0.3,0.9-0.9,1.1-1.6l2-7.7c0.3-1.3,1.5-2.1,2.1-1.6l0.8,0.3l0,0
						c-0.6-0.3-1.7,0.5-2,1.7l-2,7.7c-0.2,0.6-0.6,1.3-1.1,1.6l-6.1,3.7c-1.1,0.6-1.5,2.3-0.9,2.8l0,0l-0.8-0.4
						C149.5,72.7,150,70.9,151.1,70.3z"/>
				</g>
				
					<linearGradient id="SVGID_57_" gradientUnits="userSpaceOnUse" x1="370.972" y1="67.5025" x2="330.2128" y2="87.2265" gradientTransform="matrix(-1 0 0 1 526.1599 0)">
					<stop  offset="0" style="stop-color:#FFE585"/>
					<stop  offset="1" style="stop-color:#FF9E6E"/>
				</linearGradient>
				<path class="st122" d="M161.2,57.7l-2,7.7c-0.2,0.6-0.6,1.3-1.1,1.6l-6.1,3.7c-1.1,0.7-1.6,2.6-0.7,2.9l4.8,1.4
					c0.4,0.1,0.6,0.6,0.4,1.3l-1.8,7.7c-0.3,1.4,0.9,1.8,1.8,0.5l5-6.9c0.4-0.6,1-0.9,1.4-0.8l5,1.1c0.9,0.2,2.2-1.5,1.8-2.6
					l-1.8-5.7c-0.1-0.5,0-1.2,0.4-1.7l4.8-7c0.9-1.3,0.4-2.7-0.7-2.1l-6.1,3.4c-0.5,0.3-0.9,0.2-1.1-0.3l-2-5.4
					C163.1,55.4,161.6,56.3,161.2,57.7z"/>
				<g>
					<path class="st8" d="M172.8,58.9l-6.1,3.4c-0.4,0.2-0.8,0.2-1-0.1c0.2,0.1,0.5,0.1,0.8-0.1l6.1-3.4c0.4-0.2,0.8-0.2,1,0.1
						C173.4,58.7,173.1,58.7,172.8,58.9z"/>
					<path class="st8" d="M156.5,76.2c0.1-0.5,0-0.8-0.1-1.1c0.3,0.2,0.5,0.6,0.3,1.2l-1.8,7.7c-0.1,0.5,0,0.9,0.1,1.1
						c-0.3-0.2-0.5-0.6-0.3-1.2L156.5,76.2z"/>
					<path class="st8" d="M152,70.7l6.1-3.7c0.5-0.3,0.9-0.9,1.1-1.6l2-7.7c0.3-1.3,1.6-2.2,2.1-1.6c-0.6-0.3-1.6,0.5-1.9,1.7
						l-2,7.7c-0.2,0.6-0.6,1.3-1.1,1.6l-6.1,3.7c-1,0.6-1.5,2.1-1,2.7C150.4,73.1,150.9,71.3,152,70.7z"/>
				</g>
			</g>
			<g>
				<g>
					
						<linearGradient id="SVGID_58_" gradientUnits="userSpaceOnUse" x1="458.162" y1="134.2355" x2="445.7147" y2="121.7351" gradientTransform="matrix(-1 0 0 1 526.1599 0)">
						<stop  offset="0" style="stop-color:#FFC954"/>
						<stop  offset="1" style="stop-color:#D45D22"/>
					</linearGradient>
					<path class="st123" d="M78.6,119.9c0.1-0.3-0.1-0.9-0.1-1.1l0.6,0.2c0.4,0.1,0.6,0.6,0.4,1.3l-1.8,7.7c-0.1,0.5,0,0.9,0.2,1.1
						l-0.7-0.3c-0.4-0.1-0.6-0.5-0.4-1.3L78.6,119.9z"/>
					
						<linearGradient id="SVGID_59_" gradientUnits="userSpaceOnUse" x1="421.5935" y1="91.6142" x2="436.4" y2="107.0763" gradientTransform="matrix(-1 0 0 1 526.1599 0)">
						<stop  offset="0" style="stop-color:#FFC954"/>
						<stop  offset="1" style="stop-color:#D45D22"/>
					</linearGradient>
					<path class="st124" d="M95.6,102.8l-6.1,3.4c-0.5,0.3-0.9,0.2-1.1-0.3l0.5-0.3l5.8-3.2c0.4-0.2,0.7-0.2,0.9,0l0.8,0.3l0,0
						C96.2,102.6,95.9,102.6,95.6,102.8z"/>
					
						<linearGradient id="SVGID_60_" gradientUnits="userSpaceOnUse" x1="451.5203" y1="102.6441" x2="444.2028" y2="111.3577" gradientTransform="matrix(-1 0 0 1 526.1599 0)">
						<stop  offset="0" style="stop-color:#FFC954"/>
						<stop  offset="1" style="stop-color:#D45D22"/>
					</linearGradient>
					<path class="st125" d="M74.1,114.3l6.1-3.7c0.5-0.3,0.9-0.9,1.1-1.6l2-7.7c0.3-1.3,1.5-2.1,2.1-1.6l0.8,0.3l0,0
						c-0.6-0.3-1.7,0.5-2,1.7l-2,7.7c-0.2,0.6-0.6,1.3-1.1,1.6l-6.1,3.7c-1.1,0.6-1.5,2.3-0.9,2.8l0,0l-0.8-0.4
						C72.5,116.8,72.9,115,74.1,114.3z"/>
				</g>
				
					<linearGradient id="SVGID_61_" gradientUnits="userSpaceOnUse" x1="448.0358" y1="111.5547" x2="407.2766" y2="131.2787" gradientTransform="matrix(-1 0 0 1 526.1599 0)">
					<stop  offset="0" style="stop-color:#FFE585"/>
					<stop  offset="1" style="stop-color:#FF9E6E"/>
				</linearGradient>
				<path class="st126" d="M84.1,101.8l-2,7.7c-0.2,0.6-0.6,1.3-1.1,1.6l-6.1,3.7c-1.1,0.7-1.6,2.6-0.7,2.9l4.8,1.4
					c0.4,0.1,0.6,0.6,0.4,1.3l-1.8,7.7c-0.3,1.4,0.9,1.8,1.8,0.5l5-6.9c0.4-0.6,1-0.9,1.4-0.8l5,1.1c0.9,0.2,2.2-1.5,1.8-2.6
					l-1.8-5.7c-0.1-0.5,0-1.2,0.4-1.7l4.8-7c0.9-1.3,0.4-2.7-0.7-2.1l-6.1,3.4c-0.5,0.3-0.9,0.2-1.1-0.3l-2-5.4
					C86,99.4,84.5,100.3,84.1,101.8z"/>
				<g>
					<path class="st8" d="M95.8,102.9l-6.1,3.4c-0.4,0.2-0.8,0.2-1-0.1c0.2,0.1,0.5,0.1,0.8-0.1l6.1-3.4c0.4-0.2,0.8-0.2,1,0.1
						C96.4,102.8,96.1,102.8,95.8,102.9z"/>
					<path class="st8" d="M79.5,120.3c0.1-0.5,0-0.8-0.1-1.1c0.3,0.2,0.5,0.6,0.3,1.2l-1.8,7.7c-0.1,0.5,0,0.9,0.1,1.1
						c-0.3-0.2-0.5-0.6-0.3-1.2L79.5,120.3z"/>
					<path class="st8" d="M74.9,114.7l6.1-3.7c0.5-0.3,0.9-0.9,1.1-1.6l2-7.7c0.3-1.3,1.6-2.2,2.1-1.6c-0.6-0.3-1.6,0.5-1.9,1.7
						l-2,7.7c-0.2,0.6-0.6,1.3-1.1,1.6l-6.1,3.7c-1,0.6-1.5,2.1-1,2.7C73.3,117.2,73.8,115.4,74.9,114.7z"/>
				</g>
			</g>
		</g>
		<g>
			
				<radialGradient id="SVGID_62_" cx="-3951.7178" cy="821.6137" r="5.5626" gradientTransform="matrix(0.829 0.5592 -0.5592 0.829 3813.9937 1663.6874)" gradientUnits="userSpaceOnUse">
				<stop  offset="3.030300e-02" style="stop-color:#FEDFCB"/>
				<stop  offset="0.7778" style="stop-color:#F9B69E"/>
				<stop  offset="0.9949" style="stop-color:#F2A78C"/>
			</radialGradient>
			<path class="st127" d="M81.5,131.3c0,0-2.6-1.9-4-2c-1.4-0.1-4.2,0.6-4.5,1.2c-0.3,0.5,0.7,1.4,1.7,1.8c1.1,0.4,1.4,0.6,2.2,0.9
				c0.8,0.3,1.7,0.1,3.2,0.6C80.8,134.1,81.5,131.3,81.5,131.3z"/>
			<g>
				
					<linearGradient id="SVGID_63_" gradientUnits="userSpaceOnUse" x1="464.617" y1="133.7871" x2="423.8578" y2="153.511" gradientTransform="matrix(-1 0 0 1 526.1599 0)">
					<stop  offset="0" style="stop-color:#FFE585"/>
					<stop  offset="1" style="stop-color:#FF9E6E"/>
				</linearGradient>
				<path class="st128" d="M67.5,124l-2,7.7c-0.2,0.6-0.6,1.3-1.1,1.6l-6.1,3.7c-1.1,0.7-1.6,2.6-0.7,2.9l4.8,1.4
					c0.4,0.1,0.6,0.6,0.4,1.3l-1.8,7.7c-0.3,1.4,0.9,1.8,1.8,0.5l5-6.9c0.4-0.6,1-0.9,1.4-0.8l5,1.1c0.9,0.2,2.2-1.5,1.8-2.6
					l-1.8-5.7c-0.1-0.5,0-1.2,0.4-1.7l4.8-7c0.9-1.3,0.4-2.7-0.7-2.1l-6.1,3.4c-0.5,0.3-0.9,0.2-1.1-0.3l-2-5.4
					C69.4,121.7,67.9,122.5,67.5,124z"/>
				<g>
					<path class="st8" d="M79.2,125.2l-6.1,3.4c-0.4,0.2-0.8,0.2-1-0.1c0.2,0.1,0.5,0.1,0.8-0.1L79,125c0.4-0.2,0.8-0.2,1,0.1
						C79.8,125,79.5,125,79.2,125.2z"/>
					<path class="st8" d="M62.9,142.5c0.1-0.5,0-0.8-0.1-1.1c0.3,0.2,0.5,0.6,0.3,1.2l-1.8,7.7c-0.1,0.5,0,0.9,0.1,1.1
						c-0.3-0.2-0.5-0.6-0.3-1.2L62.9,142.5z"/>
					<path class="st8" d="M58.3,137l6.1-3.7c0.5-0.3,0.9-0.9,1.1-1.6l2-7.7c0.3-1.3,1.6-2.2,2.1-1.6c-0.6-0.3-1.6,0.5-1.9,1.7
						l-2,7.7c-0.2,0.6-0.6,1.3-1.1,1.6l-6.1,3.7c-1,0.6-1.5,2.1-1,2.7C56.8,139.4,57.2,137.6,58.3,137z"/>
				</g>
				<g>
					
						<linearGradient id="SVGID_64_" gradientUnits="userSpaceOnUse" x1="475.3173" y1="156.6106" x2="462.5323" y2="143.771" gradientTransform="matrix(-1 0 0 1 526.1599 0)">
						<stop  offset="0" style="stop-color:#FFC954"/>
						<stop  offset="1" style="stop-color:#D45D22"/>
					</linearGradient>
					<path class="st129" d="M61.2,141.6c0.1-0.3,0.1-0.5,0-0.7l1.3,0.4c0.4,0.1,0.6,0.6,0.4,1.3l-1.8,7.7c-0.1,0.5,0,0.9,0.2,1.1
						l-1.5-0.8c-0.4-0.1-0.6-0.5-0.4-1.3L61.2,141.6z"/>
					
						<linearGradient id="SVGID_65_" gradientUnits="userSpaceOnUse" x1="438.4615" y1="113.5719" x2="453.268" y2="129.0341" gradientTransform="matrix(-1 0 0 1 526.1599 0)">
						<stop  offset="0" style="stop-color:#FFC954"/>
						<stop  offset="1" style="stop-color:#D45D22"/>
					</linearGradient>
					<path class="st130" d="M79,125l-6.1,3.4c-0.5,0.3-0.9,0.2-1.1-0.3l-0.3-0.8l5.8-3.2c0.4-0.2,0.7-0.2,0.9,0l1.6,0.9l0,0
						C79.6,124.8,79.4,124.8,79,125z"/>
					
						<linearGradient id="SVGID_66_" gradientUnits="userSpaceOnUse" x1="469.1773" y1="123.8377" x2="460.8726" y2="133.727" gradientTransform="matrix(-1 0 0 1 526.1599 0)">
						<stop  offset="0" style="stop-color:#FFC954"/>
						<stop  offset="1" style="stop-color:#D45D22"/>
					</linearGradient>
					<path class="st131" d="M56.6,136l6.1-3.7c0.5-0.3,0.9-0.9,1.1-1.6l2-7.7c0.3-1.3,1.5-2.1,2.1-1.6l1.6,0.9l0,0
						c-0.6-0.3-1.7,0.5-2,1.7l-2,7.7c-0.2,0.6-0.6,1.3-1.1,1.6l-6.1,3.7c-1.1,0.6-1.5,2.3-0.9,2.8l0,0l-1.6-0.9
						C55,138.5,55.5,136.7,56.6,136z"/>
				</g>
			</g>
			<path class="st132" d="M75.2,129.1c-0.3,0.1-0.4,0.6,0.1,0.9c0.5,0.3,1.8,0.8,2.2,1.1c0.5,0.2,2.3,0.2,2.3,0.2L75.2,129.1z"/>
			
				<radialGradient id="SVGID_67_" cx="-4198.687" cy="960.4945" r="6.207" gradientTransform="matrix(0.7778 0.6286 -0.6286 0.7778 3946.9868 2017.5996)" gradientUnits="userSpaceOnUse">
				<stop  offset="3.030300e-02" style="stop-color:#FEDFCB"/>
				<stop  offset="1" style="stop-color:#F9B69E"/>
			</radialGradient>
			<path class="st133" d="M78.6,129.3c-0.2-0.2-1.6-0.4-2.1-0.5s-0.8-0.4-1-0.3c-0.2,0.1-0.5,0.7,0.7,1.1c1.2,0.5,1.8,0.7,2.4,1.1
				c0.6,0.4,1.8,1.2,2.2,1c0.4-0.2,0.3-0.9,0.3-0.9S78.8,129.5,78.6,129.3z"/>
			
				<linearGradient id="SVGID_68_" gradientUnits="userSpaceOnUse" x1="-2835.6821" y1="-46.0447" x2="-2821.4951" y2="-46.0447" gradientTransform="matrix(0.9578 0.2874 -0.2874 0.9578 2782.2063 990.1532)">
				<stop  offset="2.525250e-02" style="stop-color:#10054D"/>
				<stop  offset="0.9848" style="stop-color:#273B98"/>
			</linearGradient>
			<path class="st134" d="M80.3,130.2c0,0-0.8,0.3-1,1.3c-0.2,1,0.3,2.6,0.3,2.6l9.4,2.3c0,0,3.5,1.5,4.1-1.5
				c0.5-2.9-1.4-3.3-5.8-3.5c-4.4-0.2-2.4-0.1-3.8-0.4C82.1,130.6,80.3,130.2,80.3,130.2z"/>
			<path class="st132" d="M79.4,132.8c0.1,0.8,0.3,1.2,0.3,1.2l9.4,2.3c0,0,3.5,1.5,4.1-1.5c-1.8-0.1-3,0.7-6.9-0.2
				C82.5,133.7,80.3,133.1,79.4,132.8z"/>
			<path class="st135" d="M77.2,194.9c6.7,2.6,9.7,0.6,14.3-2c4.6-2.7,6.6-4.9,1.6-6.9c-4.9-1.9-9.8,0.1-14.4,2.8
				C74.1,191.4,73.6,193.5,77.2,194.9z"/>
			<path class="st136" d="M93.8,188.8c0,0,0.3,1.3,0.1,1.8c-0.3,0.5-1.4,1-2.4,0.5c-1-0.5-1.4-1.4-1.7-1.7c-0.4-0.3-2.4-0.5-3.9-1.8
				c-1.5-1.3-1.3-2.7,0.2-2.7c1.5,0,4.3,0.7,5.3,1.3C92.3,186.9,93.8,188.8,93.8,188.8z"/>
			
				<linearGradient id="SVGID_69_" gradientUnits="userSpaceOnUse" x1="-1407.3661" y1="188.369" x2="-1407.3661" y2="183.2792" gradientTransform="matrix(1 0 0 1 1496.881 0)">
				<stop  offset="2.525250e-02" style="stop-color:#10054D"/>
				<stop  offset="0.9848" style="stop-color:#273B98"/>
			</linearGradient>
			<path class="st137" d="M93.1,190.2c-1.1,0.2-2.5-0.7-3.1-1.3c-0.6-0.5-1.8-0.3-3.3-1.4c-1.5-1.2-2-2-1.3-2.4
				c0.7-0.4,3.1-0.3,5,0.8c1.9,1,3.2,1.8,3.2,1.8s0.5,1.4,0.2,1.7C93.6,189.7,93.7,190,93.1,190.2z"/>
			
				<linearGradient id="SVGID_70_" gradientUnits="userSpaceOnUse" x1="-1410.0923" y1="173.7172" x2="-1402.4364" y2="173.7172" gradientTransform="matrix(1 0 0 1 1496.881 0)">
				<stop  offset="1.010100e-02" style="stop-color:#97A0DE"/>
				<stop  offset="0.1604" style="stop-color:#9EA6E0"/>
				<stop  offset="0.3636" style="stop-color:#AFB6E5"/>
				<stop  offset="0.5224" style="stop-color:#B6BCE8"/>
				<stop  offset="0.7455" style="stop-color:#C8CDF1"/>
				<stop  offset="1" style="stop-color:#E5E9FF"/>
			</linearGradient>
			<path class="st138" d="M93.1,157.5c0,0,0.8,3.5,0.3,7.9c-0.5,4.4,0.3,13.3,0.5,16.5c0.2,3.1,1.3,7-0.3,7.8
				c-0.9,0.5-2.6,0.2-3.8-1.3c-1.3-1.5-1.6-2.9-1.4-3.2c0.2-0.3,0.4-1.5-0.1-4.1c-0.5-2.6-1.5-8.9-1.4-11c0.1-2.1,0.8-11.7,0.8-11.7
				L93.1,157.5z"/>
			<path class="st132" d="M86.8,170.2c-0.1,2.1,0.9,8.4,1.4,11c0.5,2.6,0.3,3.8,0.1,4.1c-0.2,0.3,0.1,1.7,1.4,3.2
				c0.5,0.6,1.1,1,1.6,1.2c-0.6-1-1.4-3.2-1.4-6.8c0-5.4-1.1-12.2-1.3-15.9c-0.1-2.2,0.4-6.3,0.4-9l-1.5,0.5
				C87.6,158.5,86.9,168.1,86.8,170.2z"/>
			<path class="st136" d="M85.7,193.4c0,0,0.6,1.7-0.1,2c-0.7,0.4-1.8,0.6-2.7,0.2c-0.9-0.4-1.2-0.8-2.2-0.8c-0.9,0-4.6-1.8-5.3-2.7
				c-0.7-0.9,0-1.9,1.7-1.8c1.7,0.1,4.2,0.3,4.7,0.5C82.3,191.1,85.7,193.4,85.7,193.4z"/>
			
				<linearGradient id="SVGID_71_" gradientUnits="userSpaceOnUse" x1="-1416.7228" y1="194.0182" x2="-1414.704" y2="188.0878" gradientTransform="matrix(1 0 0 1 1496.881 0)">
				<stop  offset="2.525250e-02" style="stop-color:#10054D"/>
				<stop  offset="0.9848" style="stop-color:#273B98"/>
			</linearGradient>
			<path class="st139" d="M84.9,194.6c-1.6,0.2-2.1-0.3-3.7-0.6c-1.5-0.3-5.8-2-5.7-3c0.1-1,1.1-0.8,1.9-0.7
				c0.8,0.1,3.5,0.3,3.7,0.3c0.2,0,4.5,1.9,4.5,1.9s0.3,1.4,0,1.6S85.4,194.6,84.9,194.6z"/>
			
				<linearGradient id="SVGID_72_" gradientUnits="userSpaceOnUse" x1="-1418.1605" y1="176.0555" x2="-1408.3634" y2="176.0555" gradientTransform="matrix(1 0 0 1 1496.881 0)">
				<stop  offset="1.010100e-02" style="stop-color:#97A0DE"/>
				<stop  offset="0.1604" style="stop-color:#9EA6E0"/>
				<stop  offset="0.3636" style="stop-color:#AFB6E5"/>
				<stop  offset="0.5224" style="stop-color:#B6BCE8"/>
				<stop  offset="0.7455" style="stop-color:#C8CDF1"/>
				<stop  offset="1" style="stop-color:#E5E9FF"/>
			</linearGradient>
			<path class="st140" d="M88.1,158.7c0,0,1,2.1,0,5.7c-0.9,3.6-2,7.9-2.1,12.5c0,4.6,0.5,16.4-0.2,17.1c-0.7,0.7-3.2,0.9-4.2,0.2
				c-1.6-1.2-2.5-2.9-2.3-3.5c0.2-0.6,1.4-2.7,1-4.5c-0.4-1.9-1.9-8.3-1.6-12.7c0.3-4.4,1-15.8,1-15.8L88.1,158.7z"/>
			
				<radialGradient id="SVGID_73_" cx="-1413.4301" cy="126.8428" r="6.8197" gradientTransform="matrix(1 0 0 1 1496.881 0)" gradientUnits="userSpaceOnUse">
				<stop  offset="3.030300e-02" style="stop-color:#FEDFCB"/>
				<stop  offset="1" style="stop-color:#F9B69E"/>
			</radialGradient>
			<path class="st141" d="M84.1,122.5c-1,0.5-2.1,1.3-2.1,3.9c-0.1,2.6-0.1,3.8,0.4,4.2c0.5,0.3,0.9,0,1,0.7
				c0.1,0.7-0.1,1.9-0.1,1.9l5.6-1.3c0,0-0.4-0.9,0-1.8c0.4-0.9,2-2.7,0.8-5.4C88.4,122,85.3,121.9,84.1,122.5z"/>
			
				<linearGradient id="SVGID_74_" gradientUnits="userSpaceOnUse" x1="-1407.8385" y1="130.6392" x2="-1412.4375" y2="122.5067" gradientTransform="matrix(1 0 0 1 1496.881 0)">
				<stop  offset="3.535350e-02" style="stop-color:#602213"/>
				<stop  offset="0.571" style="stop-color:#6D310E"/>
				<stop  offset="1" style="stop-color:#7A4108"/>
			</linearGradient>
			<path class="st142" d="M81.9,124.7c0,0.5,0.3,1.3,1,1.3c0.7,0.1,1,0.9,0.9,1.3c-0.2,0.4-0.1,0.5-0.1,0.5s0.5-0.2,0.8,0.2
				c0.2,0.4-0.1,1.3-0.2,1.6c-0.2,0.3,1,1.4,2,1.4c1,0.1,2.3,0,2.7-0.5c0.4-0.5,1.9-2.1,1.4-4.8c-0.5-2.6-3-4.2-5.2-3.8
				C82.8,122.4,82,124,81.9,124.7z"/>
			
				<linearGradient id="SVGID_75_" gradientUnits="userSpaceOnUse" x1="-1410.0391" y1="134.5859" x2="-1411.4692" y2="132.048" gradientTransform="matrix(1 0 0 1 1496.881 0)">
				<stop  offset="3.535350e-02" style="stop-color:#9D9EB3"/>
				<stop  offset="0.5808" style="stop-color:#D4D1D8"/>
				<stop  offset="1" style="stop-color:#EEEBF2"/>
			</linearGradient>
			<path class="st143" d="M82.4,134.7c0,0,0.6-2.1,1.9-2.4c1.3-0.3,2.4-0.1,3.2-0.5c0.9-0.4,1.3-1.1,1.3-1.1s1,0.3,0.3,1.1
				C88.4,132.7,82.4,134.7,82.4,134.7z"/>
			<path class="st132" d="M82.7,158l-2.9-0.4c0,0-0.7,11.5-1,15.8c-0.3,4.4,1.2,10.8,1.6,12.7c0.4,1.9-0.8,4-1,4.5
				c-0.1,0.5,0.6,2,1.9,3.1c-0.2-2.5,0-5,0.1-6.7c0.2-2-1.3-9.3-0.9-13.7C80.9,169.5,82.3,160.3,82.7,158z"/>
			
				<linearGradient id="SVGID_76_" gradientUnits="userSpaceOnUse" x1="-1418.3774" y1="147.5744" x2="-1401.2789" y2="147.5744" gradientTransform="matrix(1 0 0 1 1496.881 0)">
				<stop  offset="2.525250e-02" style="stop-color:#10054D"/>
				<stop  offset="0.9848" style="stop-color:#273B98"/>
			</linearGradient>
			<path class="st144" d="M87.1,132.7c1.2-0.4,2.4-1.1,2.4-1.1s1.8,0,2.8,0.1c1,0.2,2.6,1.1,2.5,3.1c-0.1,1.9-0.5,4.4-1.2,7.1
				c-0.6,2.7-0.6,4.7-0.1,7.4c0.5,2.7,2.2,8.7,2.1,9.3c-0.1,0.6-1.6,3-5,4.1c-3.4,1.2-9,1.5-11.3-1.1c-2.1-2.4,0.6-7.1,0.8-14
				c0.1-4.4-1.4-8.2,0.4-10.5c1.9-2.3,4-3.7,5.2-4C86.8,132.8,87.1,132.7,87.1,132.7z"/>
			<path class="st132" d="M82.2,134.8c0.5-0.7,1.6-1.7,2.6-1.8c1-0.1,3-0.5,3.6-1c0.7-0.5,0.8-1,0.8-1l1.5,0.6c0,0,0.1,1.8-2,2.5
				c-2.1,0.6-4.5,0.6-6.1,1.5c-1.5,0.8-2.4,1.7-2.4,1.7L82.2,134.8z"/>
			
				<linearGradient id="SVGID_77_" gradientUnits="userSpaceOnUse" x1="-1413.9753" y1="141.4315" x2="-1409.7688" y2="130.6069" gradientTransform="matrix(1 0 0 1 1496.881 0)">
				<stop  offset="2.525250e-02" style="stop-color:#10054D"/>
				<stop  offset="0.9848" style="stop-color:#273B98"/>
			</linearGradient>
			<path class="st145" d="M82.2,134.8c0.5-0.7,1.6-1.7,2.6-1.8c1-0.1,3-0.5,3.6-1c0.7-0.5,0.8-1,0.8-1l1.5,0.6c0,0,0,1.5-2.1,2.1
				c-2.1,0.6-4.9,0.8-6.2,1.8c-1.3,1-2,1.7-2,1.7L82.2,134.8z"/>
			
				<radialGradient id="SVGID_78_" cx="-1410.7931" cy="134.9793" r="4.194" gradientTransform="matrix(1 0 0 1 1496.881 0)" gradientUnits="userSpaceOnUse">
				<stop  offset="0" style="stop-color:#FFFFFF"/>
				<stop  offset="1" style="stop-color:#000000"/>
			</radialGradient>
			<path class="st146" d="M90.7,131.5c0,0.3-0.3,1.5-2.1,2.1c-2.1,0.6-4.9,0.8-6.2,1.8c-0.5,0.4-0.9,0.7-1.2,1l-0.6,0.8
				c0,0,0.7-0.7,2-1.7c1.3-1,4.1-1.2,6.2-1.8c2.1-0.6,2.1-2.1,2.1-2.1L90.7,131.5z"/>
			<path class="st132" d="M84.6,138.6c-1.5-2.2-3.6-0.4-5.1,1c0,1.5,0.6,5.2,0.5,7.9c-0.2,6.9-2.8,11.7-0.8,14c1.1,1.3,3,1.8,5,2
				c-0.2-1-0.3-2.2-0.4-3.6c-0.2-3.8,1-5.9,1.4-11C85.8,143.9,86.5,141.5,84.6,138.6z"/>
			<path class="st132" d="M90.3,126c-0.5,0.4-1.3,0.9-2.7,1.1c-1.4,0.3-2.8,0-3.9-0.2c0,0.2,0,0.3,0,0.4c-0.2,0.4-0.1,0.5-0.1,0.5
				s0.5-0.2,0.8,0.2c0.2,0.4-0.1,1.3-0.2,1.6c-0.2,0.3,1,1.4,2,1.4c1,0.1,2.3,0,2.7-0.5C89.3,130.1,90.7,128.5,90.3,126z"/>
			<g>
				
					<radialGradient id="SVGID_79_" cx="3843.717" cy="898.3855" r="5.2347" gradientTransform="matrix(0.8867 -0.4623 -0.4623 -0.8867 -2926.4897 2712.3318)" gradientUnits="userSpaceOnUse">
					<stop  offset="3.030300e-02" style="stop-color:#FEDFCB"/>
					<stop  offset="0.7778" style="stop-color:#F9B69E"/>
					<stop  offset="0.9949" style="stop-color:#F2A78C"/>
				</radialGradient>
				<path class="st147" d="M65.8,142.4c-0.9-0.8-1.5-1.4-2-1.9c-0.5-0.6-1.1-1.1-1.3-0.8c-0.5,0.5,1.6,2.9,1.6,2.9L65.8,142.4z"/>
				
					<radialGradient id="SVGID_80_" cx="2706.925" cy="505.6085" r="5.4182" gradientTransform="matrix(0.4865 -0.8737 -0.8737 -0.4865 -811.6163 2757.0474)" gradientUnits="userSpaceOnUse">
					<stop  offset="3.030300e-02" style="stop-color:#FEEADD"/>
					<stop  offset="1" style="stop-color:#F9B69E"/>
				</radialGradient>
				<path class="st148" d="M66.5,145.8c0,0-2.6,0.2-4.1,0c-0.8-0.1-1.3-0.2-2.4-1.2c-0.5-0.5-0.8-0.8-0.6-1.2
					c0.1-0.1,0.3,0.2,0.3,0.2s-0.6-0.6-0.4-1c0.2-0.4,0.5,0.1,0.5,0.1s-0.6-0.6-0.4-1c0.2-0.4,0.5,0.1,0.5,0.1s-0.5-0.5-0.4-0.9
					c0.1-0.4,0.3-0.3,0.7,0c0.5,0.3,1.6,1.1,2.7,1.2c1.1,0.1,2-0.4,2.7,0.2c0.7,0.6,2,0.6,2,0.6L66.5,145.8z"/>
				
					<linearGradient id="SVGID_81_" gradientUnits="userSpaceOnUse" x1="1722.3387" y1="45.9692" x2="1727.2645" y2="37.3348" gradientTransform="matrix(-0.9984 -5.570000e-02 -5.570000e-02 0.9984 1799.7388 197.5449)">
					<stop  offset="2.525250e-02" style="stop-color:#10054D"/>
					<stop  offset="0.9848" style="stop-color:#273B98"/>
				</linearGradient>
				<path class="st149" d="M83.4,137.1c1.7,0.9,2.1,3,1,4.6c-1.1,1.6-6.7,5.7-8.8,6.2c-2.1,0.5-10.3-1.3-10.3-1.3s-0.2-1.6-0.1-2.7
					c0.2-1.1,0.8-1.4,0.8-1.4s5.4,1,7.2,0.6c1.8-0.5,3.8-2.8,5.5-4.3C80.8,137.2,81.8,136.2,83.4,137.1z"/>
			</g>
		</g>
	</g>
</g>
</svg>
