<?xml version="1.0" encoding="utf-8"?>
<!-- Generator: Adobe Illustrator 23.0.3, SVG Export Plug-In . SVG Version: 6.00 Build 0)  -->
<svg version="1.1" xmlns="http://www.w3.org/2000/svg" xmlns:xlink="http://www.w3.org/1999/xlink" x="0px" y="0px"
	 viewBox="0 0 420 300" style="enable-background:new 0 0 420 300;" xml:space="preserve">
<style type="text/css">
	.st0{opacity:0.4;fill:#E1894E;}
	.st1{fill:#111419;}
	.st2{opacity:0.5;fill:#111419;}
	.st3{fill:url(#SVGID_1_);}
	.st4{fill:url(#SVGID_2_);}
	.st5{fill:url(#SVGID_3_);}
	.st6{opacity:0.5;fill:url(#SVGID_4_);}
	.st7{fill:url(#SVGID_5_);}
	.st8{fill:url(#SVGID_6_);}
	.st9{opacity:0.5;fill:url(#SVGID_7_);}
	.st10{opacity:0.5;fill:url(#SVGID_8_);}
	.st11{fill:#3E4749;}
	.st12{opacity:0.6;fill:#1B1D1C;}
	.st13{fill:url(#SVGID_9_);}
	.st14{opacity:0.3;fill:#BF1623;}
	.st15{opacity:0.4;fill:url(#SVGID_10_);}
	.st16{opacity:0.3;fill:#FCA250;}
	.st17{opacity:0.5;fill:url(#SVGID_11_);}
	.st18{opacity:0.4;fill:url(#SVGID_12_);}
	.st19{opacity:0.3;fill:url(#SVGID_13_);}
	.st20{fill:#111919;}
	.st21{opacity:0.4;fill:url(#SVGID_14_);}
	.st22{fill:url(#SVGID_15_);}
	.st23{fill:#46676C;}
	.st24{fill:#263A3A;}
	.st25{opacity:0.6;}
	.st26{fill:#9A4730;}
	.st27{fill:#181A18;}
	.st28{fill:#1E232B;}
	.st29{fill:#889EAB;}
	.st30{fill:#EF1A21;}
	.st31{fill:#E8552D;}
	.st32{opacity:0.4;fill:url(#SVGID_16_);}
	.st33{opacity:0.4;fill:#F55226;}
	.st34{fill:#8DA5B0;}
	.st35{opacity:0.3;fill:#8DA5B0;}
	.st36{opacity:0.4;fill:#46676C;}
	.st37{fill:#992F05;}
	.st38{fill:#BF1623;}
	.st39{opacity:0.6;fill:#9A4730;}
	.st40{fill:#FFD49F;}
	.st41{fill:#E8BA89;}
	.st42{fill:#A52A07;}
	.st43{opacity:0.4;fill:#A52A07;}
	.st44{fill:#C7AFA5;}
	.st45{opacity:0.8;fill:#C7AFA5;}
	.st46{opacity:0.4;fill:#8DA5B0;}
	.st47{opacity:0.4;}
	.st48{fill:#091D23;}
	.st49{opacity:0.3;fill:#111919;}
	.st50{fill:#282F39;}
	.st51{opacity:0.3;fill:#282F39;}
	.st52{fill:url(#SVGID_17_);}
	.st53{opacity:0.4;fill:url(#SVGID_18_);}
	.st54{opacity:0.5;fill:url(#SVGID_19_);}
	.st55{opacity:0.5;fill:url(#SVGID_20_);}
	.st56{fill:url(#SVGID_21_);}
	.st57{fill:url(#SVGID_22_);}
	.st58{fill:url(#SVGID_23_);}
	.st59{fill:url(#SVGID_24_);}
	.st60{opacity:0.5;fill:url(#SVGID_25_);}
	.st61{opacity:0.5;fill:#343436;}
	.st62{opacity:0.5;fill:url(#SVGID_26_);}
	.st63{opacity:0.5;fill:url(#SVGID_27_);}
	.st64{opacity:0.4;fill:url(#SVGID_28_);}
	.st65{opacity:0.4;fill:url(#SVGID_29_);}
	.st66{fill:#4C575A;}
	.st67{opacity:0.3;fill:#4C575A;}
	.st68{fill:url(#SVGID_30_);}
	.st69{opacity:0.24;fill:#DA7553;}
	.st70{fill:url(#SVGID_31_);}
	.st71{opacity:0.5;fill:#DA7553;}
	.st72{opacity:0.5;fill:url(#SVGID_32_);}
	.st73{opacity:0.5;fill:url(#SVGID_33_);}
	.st74{opacity:0.5;fill:url(#SVGID_34_);}
	.st75{opacity:0.5;fill:url(#SVGID_35_);}
	.st76{opacity:0.5;fill:url(#SVGID_36_);}
	.st77{opacity:0.5;fill:url(#SVGID_37_);}
	.st78{opacity:0.5;fill:url(#SVGID_38_);}
	.st79{opacity:0.5;fill:url(#SVGID_39_);}
	.st80{opacity:0.5;fill:url(#SVGID_40_);}
	.st81{fill:url(#SVGID_41_);}
	.st82{fill:url(#SVGID_42_);}
	.st83{fill:url(#SVGID_43_);}
	.st84{fill:url(#SVGID_44_);}
	.st85{fill:url(#SVGID_45_);}
	.st86{fill:url(#SVGID_46_);}
	.st87{fill:url(#SVGID_47_);}
	.st88{fill:url(#SVGID_48_);}
	.st89{opacity:0.4;fill:url(#SVGID_49_);}
	.st90{fill:url(#SVGID_50_);}
	.st91{opacity:0.4;fill:url(#SVGID_51_);}
	.st92{opacity:0.4;fill:url(#SVGID_52_);}
	.st93{opacity:0.4;fill:url(#SVGID_53_);}
	.st94{fill:url(#SVGID_54_);}
	.st95{opacity:0.4;fill:url(#SVGID_55_);}
	.st96{fill:url(#SVGID_56_);}
	.st97{fill:url(#SVGID_57_);}
	.st98{fill:url(#SVGID_58_);}
	.st99{fill:url(#SVGID_59_);}
	.st100{opacity:0.4;fill:url(#SVGID_60_);}
	.st101{fill:#343436;}
	.st102{fill:url(#SVGID_61_);}
	.st103{fill:url(#SVGID_62_);}
	.st104{fill:url(#SVGID_63_);}
	.st105{fill:url(#SVGID_64_);}
	.st106{fill:url(#SVGID_65_);}
	.st107{opacity:0.3;fill:url(#SVGID_66_);}
	.st108{opacity:0.3;fill:url(#SVGID_67_);}
	.st109{opacity:0.3;fill:url(#SVGID_68_);}
	.st110{opacity:0.3;fill:url(#SVGID_69_);}
	.st111{opacity:0.3;fill:url(#SVGID_70_);}
	.st112{fill:url(#SVGID_71_);}
	.st113{fill:#FFFFFF;}
	.st114{fill:#493426;}
	.st115{fill:#806249;}
	.st116{opacity:0.4;fill:#A0A0A0;}
	.st117{opacity:0.5;fill:url(#SVGID_72_);}
	.st118{opacity:0.3;fill:url(#SVGID_73_);}
	.st119{opacity:0.5;fill:#091D23;}
	.st120{fill:url(#SVGID_74_);}
	.st121{fill:#C7D2CF;}
	.st122{opacity:0.5;fill:#C7D2CF;}
	.st123{fill:url(#SVGID_75_);}
	.st124{fill:url(#SVGID_76_);}
	.st125{opacity:0.4;fill:url(#SVGID_77_);}
	.st126{opacity:0.4;fill:url(#SVGID_78_);}
	.st127{fill:url(#SVGID_79_);}
	.st128{opacity:0.3;fill:#64757A;}
	.st129{opacity:0.6;fill:#64757A;}
	.st130{opacity:0.4;fill:#D4C6B0;}
	.st131{fill:url(#SVGID_80_);}
	.st132{opacity:0.6;fill:#343436;}
	.st133{opacity:0.1;}
	.st134{fill:#E80606;}
</style>
<g id="Layer_1">
	<g>
		<path class="st0" d="M403.1,286.8c0,0-35.7,9.8-109.7,11c-73.9,1.2-162.5-4.9-162.5-4.9L75,278.6c0,0,18.6-3.1,41.2-6.7
			c22.6-3.7,141.5,3.4,181.8,4.3c40.3,0.9,119.8,6.4,119.8,6.4L403.1,286.8z"/>
		<g>
			<path class="st1" d="M96.4,255.9c0,2.5,0.4,4.9,1,7.2c3.1,10.8,13.1,18.8,25,18.8c11.5,0,21.8-2.9,25-15.1c0.8-3,1.1-6.6,1-10.9
				c-0.6-14.3-11.6-26-26-26C108.1,230,96.4,241.6,96.4,255.9z"/>
			<path class="st2" d="M96.4,255.9c0,2.5,0.4,4.9,1,7.2c13.9,3.7,33.9,2.6,33.9,2.6c5.3-3,12.1-1.2,16.1,1c0.8-3,1.1-6.6,1-10.9
				c-0.6-14.3-11.6-26-26-26C108.1,230,96.4,241.6,96.4,255.9z"/>
		</g>
		<g>
			<path class="st1" d="M203.8,265.9c0,3.3,0.6,6.5,1.8,9.5c3.8,9.7,13.2,16.5,24.2,16.5c11.5,0,22.5-3.1,25.8-15.4
				c0.8-3,1.2-6.5,1-10.7c-0.6-14.3-12.5-25.8-26.8-25.8C215.4,239.9,203.8,251.6,203.8,265.9z"/>
			<path class="st2" d="M203.8,265.9c0,3.3,0.6,6.5,1.8,9.5c9.4,5.5,27.7,5.6,33.7,2.8c6.1-2.9,11.8-2.7,16.3-1.7
				c0.8-3,1.2-6.5,1-10.7c-0.6-14.3-12.5-25.8-26.8-25.8C215.4,239.9,203.8,251.6,203.8,265.9z"/>
		</g>
		<g>
			
				<linearGradient id="SVGID_1_" gradientUnits="userSpaceOnUse" x1="133.0711" y1="191.6086" x2="126.1446" y2="142.3093" gradientTransform="matrix(-1 0 0 1 523.8077 0)">
				<stop  offset="0" style="stop-color:#80D3BF"/>
				<stop  offset="1" style="stop-color:#72C3C0"/>
			</linearGradient>
			<path class="st3" d="M386.4,165c0,0.4,0,0.7,0,1.1c0,0.6,0,1.2,0,1.8c0.3,8.9,1.3,18.7,1.8,20.5c0.5,2,5.5,3.8,5.5,3.8
				s1.8-1.1,3.3-2c0.9-0.5,1.6-0.9,2-1.1c-0.4-2-1.5-7.3-1.8-12.3c-0.4-6.3,0.2-11.6,0.2-11.6s2.6-1.9,5.2-4.1c2.6-2.2,3-4,3-4
				s-0.6-0.7-1.6-1.7c-2.2-2.3-6.2-6.3-8.8-8.3c-1.6-1.2-3-1.9-4.2-2.3c-1.7-0.5-2.9-0.5-3.4-0.5c-0.3,0.7-0.6,2.1-0.8,4.1
				C386.4,152.6,386.4,158.6,386.4,165z"/>
			
				<linearGradient id="SVGID_2_" gradientUnits="userSpaceOnUse" x1="147.8347" y1="189.5285" x2="140.9094" y2="140.2374" gradientTransform="matrix(-1 0 0 1 523.8077 0)">
				<stop  offset="0" style="stop-color:#80D3BF"/>
				<stop  offset="1" style="stop-color:#72C3C0"/>
			</linearGradient>
			<path class="st4" d="M375.5,151.6c0,0.2,0,0.4,0,0.6c0.4,4.3,1,11.5,1.6,12.9c0,0,5.7,0.5,8-0.5c0,0-0.6-6.1-0.5-11.8
				c0-0.9,0.1-1.7,0.1-2.5c0.2-1.9,0.5-3.5,0.8-4.7c-0.4,0.7-1,1.6-1.5,1.9c-0.7,0.4-1.2,0.9-1.4,1.1
				C380.6,150.9,377.5,152,375.5,151.6C375.6,151.6,375.6,151.6,375.5,151.6z"/>
			
				<linearGradient id="SVGID_3_" gradientUnits="userSpaceOnUse" x1="157.2476" y1="188.1974" x2="150.324" y2="138.9185" gradientTransform="matrix(-1 0 0 1 523.8077 0)">
				<stop  offset="0" style="stop-color:#80D3BF"/>
				<stop  offset="1" style="stop-color:#72C3C0"/>
			</linearGradient>
			<path class="st5" d="M366.6,154.4c0,0,0.9,1.8,2.5,4.3c0.4,0.6,0.8,1.2,1.1,1.7c0.9,1.5,1.5,2.5,1.5,2.5c1.6-0.4,2.9-1,3.2-1.1
				c-0.1-1.1-0.2-2.2-0.3-3.3c-0.3-2.7-0.5-5.3-0.7-6.9c0-0.2,0-0.5-0.1-0.7c-0.2,0.1-0.4,0.2-0.6,0.3
				C371.2,152.2,366.6,154.4,366.6,154.4z"/>
		</g>
		
			<linearGradient id="SVGID_4_" gradientUnits="userSpaceOnUse" x1="151.4741" y1="162.949" x2="150.8129" y2="158.2424" gradientTransform="matrix(-1 0 0 1 523.8077 0)">
			<stop  offset="0" style="stop-color:#80D3BF"/>
			<stop  offset="1" style="stop-color:#72C3C0"/>
		</linearGradient>
		<path class="st6" d="M370.2,160.4c0.9,1.5,1.5,2.5,1.5,2.5c1.6-0.4,2.9-1,3.2-1.1c-0.1-1.1-0.2-2.2-0.3-3.3c-1,0.4-2.9,1.2-4,1.8
			L370.2,160.4z"/>
		
			<linearGradient id="SVGID_5_" gradientUnits="userSpaceOnUse" x1="137.7755" y1="144.1455" x2="141.1353" y2="144.1455" gradientTransform="matrix(-1 0 0 1 523.8077 0)">
			<stop  offset="0" style="stop-color:#EEC4A0"/>
			<stop  offset="1" style="stop-color:#EDA688"/>
		</linearGradient>
		<path class="st7" d="M384.1,145.8c0.3-0.8,0.6-1.6,0.7-2.4c0.2-1.2,0.3-2.3,0.4-3.1c0-0.4,0.1-0.6,0.1-0.8c0,0.1,0.1,0.2,0.1,0.3
			l0.6,5.1c0,0,0,0.1-0.1,0.1c-0.2,0.5-1.1,2.1-1.8,2.5c-0.7,0.4-1.2,0.9-1.4,1.1c0,0-0.1,0.1-0.1,0.1S383.5,147.4,384.1,145.8z"/>
		
			<linearGradient id="SVGID_6_" gradientUnits="userSpaceOnUse" x1="156.7253" y1="124.7609" x2="138.8132" y2="142.7111" gradientTransform="matrix(-1 0 0 1 523.8077 0)">
			<stop  offset="0" style="stop-color:#AF5106"/>
			<stop  offset="0.995" style="stop-color:#8F3305"/>
		</linearGradient>
		<path class="st8" d="M364,126.8c0,0.5,0.1,1,0.3,1.5c0.4,1.2,1.7,2.8,4,3.1c0.4,0.1,0.8,0.1,1.2,0c0.2,0,0.3,0,0.5-0.1
			c0.2,0,0.5-0.1,0.7-0.2c0.5-0.1,1-0.3,1.5-0.6c0.3-0.2,0.6-0.3,0.8-0.5c1.4-0.9,2-2,2-2s0.6,1,1.6,1.8c0.3,0.2,0.7,0.5,1.1,0.6
			c0,0,0,0,0,0c1.6,0.6,4.6,0.5,4.6,0.5s0.9,3.1,0.7,5.1c0,0.2-0.1,0.5-0.1,0.7c-0.2,0.6-0.6,1.3-1.2,2c-0.2,0.2-0.4,0.4-0.7,0.7
			c0,0,0,0,0,0c-0.6,0.5-1.3,1.1-2.1,1.5c-0.3,0.2-0.6,0.3-0.9,0.5c-0.1,0-0.1,0.1-0.2,0.1c-0.6,0.3-1.3,0.6-1.9,0.8
			c-0.8,0.3-1.5,0.4-2.1,0.6c0,0,0,0-0.1,0c-1.9,0.5-2.7,0.5-2.7,0.5c0,0.1,0,0.1,0,0.2l0,0c-0.4,2.1,1.2,5.5,3.2,7.1
			c0.2,0.1,0.3,0.3,0.5,0.4c0.4,0.2,0.7,0.4,1.1,0.5c0.2,0,0.4,0.1,0.6,0.1c0.1,0,0.2,0,0.2,0c0.4,0,0.9-0.1,1.4-0.2
			c0.1,0,0.1,0,0.2-0.1c0.4-0.1,0.8-0.2,1.1-0.4c1.3-0.5,2.5-1.3,3.6-2.4c0,0,0,0,0.1-0.1c0.1-0.1,0.3-0.3,0.4-0.4c0,0,0,0,0,0
			c0.3-0.4,0.6-0.9,0.9-1.3c0.2-0.4,0.4-0.8,0.5-1.2c0-0.1,0.1-0.3,0.1-0.4c0.5-2,0.6-5.9,0.7-5.7c0-0.2,0.1,0.3,0.1,0.3
			c0.2,0.5,0.4,0.9,0.7,1.2c0.8,0.8,3.1,0.1,3.8-2c0.8-2.1-0.7-2.7-0.7-2.7c0.2-1.9-0.9-4.1-1.2-5.4c-0.6-2.4-1.3-4.2-2-5.6
			c-1.6-3.1-3.4-4-4.7-3.8c-1.9,0.3-1.1,1.6-1.1,1.6c-0.2-0.1-0.4-0.3-0.6-0.4c-0.4-0.3-0.8-0.5-1.3-0.8c-0.9-0.5-2-0.8-3.2-0.7
			c-0.5,0.1-1.1,0.3-1.7,0.6l0,0c-3.4,1.7-4.1,4-4.1,4s-1.1-0.5-2.2-0.8c-0.6-0.2-1.3-0.3-1.7-0.3c0,0,0,0,0,0c-0.2,0-0.3,0-0.4,0.1
			C364.2,125.2,364,125.9,364,126.8z M372,143.4c-0.3,0.1-0.5,0.1-0.6,0.1C371.5,143.5,371.7,143.5,372,143.4z"/>
		
			<linearGradient id="SVGID_7_" gradientUnits="userSpaceOnUse" x1="155.2849" y1="124.7246" x2="141.2636" y2="139.1169" gradientTransform="matrix(-1 0 0 1 523.8077 0)">
			<stop  offset="0" style="stop-color:#AF5106"/>
			<stop  offset="0.995" style="stop-color:#8F3305"/>
		</linearGradient>
		<path class="st9" d="M364,126.8c0,0.5,0.1,1,0.3,1.5c0.4,1.2,1.7,2.8,4,3.1c0.5,0.1,1.1,0.1,1.7,0c3.3-0.5,5-3.2,5-3.2
			s1.1,1.8,2.7,2.4c1.6,0.6,4.6,0.5,4.6,0.5s0.9,3.1,0.7,5.1c0.5,2.6,0.8,6,0,8.8c-0.9,3-3.3,5.2-5.2,6.6c1.6-0.4,3.5-1.3,4.9-2.8
			c0,0,0,0,0.1-0.1c0.8-0.9,1.4-1.9,1.8-3c0-0.1,0.1-0.3,0.1-0.4c0.5-2,0.6-5.9,0.7-5.7c0-0.2,0.1,0.3,0.1,0.3
			c0.2,0.5,0.4,0.9,0.7,1.2c0.8,0.8,3.1,0.1,3.8-2c0.8-2.1-0.7-2.7-0.7-2.7c0.2-1.9-0.9-4.1-1.2-5.4c-0.6-2.4-1.3-4.2-2-5.6
			c-1.1,1.2-4,4-6.5,4c-3.2-0.1-4.4-2.8-4.4-2.8s-2.6,2.9-5.5,3.7C366.9,130.9,364.7,128.4,364,126.8z"/>
		
			<linearGradient id="SVGID_8_" gradientUnits="userSpaceOnUse" x1="131.8819" y1="189.3721" x2="126.4375" y2="150.621" gradientTransform="matrix(-1 0 0 1 523.8077 0)">
			<stop  offset="0" style="stop-color:#80D3BF"/>
			<stop  offset="1" style="stop-color:#72C3C0"/>
		</linearGradient>
		<path class="st10" d="M385.9,168c0,0,0.2,0,0.6-0.1c1.4-0.2,5-0.7,7.3-1.9c0,0,0.3,6.7,0.8,11.6c0.3,3.4,1.7,9.4,2.5,12.6
			c0.9-0.5,1.6-0.9,2-1.1c-0.4-2-1.5-7.3-1.8-12.3c-0.4-6.3,0.2-11.6,0.2-11.6s2.6-1.9,5.2-4.1c2.6-2.2,3-4,3-4s-0.6-0.7-1.6-1.7
			c-1.8,2.6-5.2,6-7.3,7.3c0,0-2.6-2.1-3.7-3.7c-1-1.4-2-6.2-2.1-6.8c0.1,0.7,1.2,7.8,1.2,9.7c0,1.9-3.4,3.9-5.7,4
			c-0.2,0-0.3,0-0.4,0L385.9,168z"/>
		<path class="st11" d="M387.1,282.1c0.3,1,1,7.3,0.6,8.1c0,0-2.6,1.3-7.8,1.6c-5.2,0.3-6.3-0.5-6.3-0.5s4.3-2.6,7.2-4.3
			c2.9-1.7,4.5-5.2,4.5-5.2L387.1,282.1z"/>
		<g>
			<path class="st1" d="M316.9,270c0,0,0.1,2.4,1.3,5.3c1.7,4,5.7,8.7,14.8,8.9c8.4,0.2,13.7-5.5,16.8-11c2.8-4.9,3.9-9.7,4-10.3
				L316.9,270z"/>
			<path class="st12" d="M316.9,270c0,0,0.1,2.4,1.3,5.3c9.8-2.7,23.4-2.7,31.6-2.1c2.8-4.9,3.9-9.7,4-10.3L316.9,270z"/>
		</g>
		
			<linearGradient id="SVGID_9_" gradientUnits="userSpaceOnUse" x1="244.2126" y1="181.138" x2="371.3138" y2="291.1294" gradientTransform="matrix(-1 0 0 1 523.8077 0)">
			<stop  offset="0" style="stop-color:#FF6531"/>
			<stop  offset="1" style="stop-color:#FF591F"/>
		</linearGradient>
		<path class="st13" d="M86.6,224.4c0,1.5,0,3,0.1,4.5c0,1,0.1,2,0.2,3c0.6,9.5,1.9,18.6,1.9,18.6s0.9,0.1,2.6,0.3
			c0.6,0.1,1.3,0.2,2,0.2c7.9,1,25.1,3,45.5,5.5c20,2.5,43.1,5.3,63.2,7.9c11.9,1.5,22.9,2.9,31.6,4.1c5.5,0.7,10.1,1.4,13.5,1.9
			c0.5,0.1,0.9,0.1,1.3,0.2c2.8,0.4,4.6,0.7,5,0.9c1.2,0.4,5,0.7,10.1,0.7c16.2,0.2,46.6-1.2,57.7-2.9c14.7-2.1,40-8.3,40-8.3
			s0.4-2.6,1-6.4c0.8-5.8,1.9-14.4,2-20c0-2.5-0.1-4.4-0.6-5.3c-0.5-1.1-3.2-3.3-7.1-6c-0.9-0.6-1.9-1.3-2.9-2
			c-9.8-6.6-24.7-15.1-34.3-19.2c-1.8-0.8-3.5-1.4-4.8-1.8c0,0-34.2-32.4-59.9-38.2c-25.7-5.8-72.4-8.6-95.6-5.5
			c-9.4,1.2-17.7,3-24.9,5.5c-10.7,3.7-19.1,9.2-25.5,17.4c-4.3,5.5-8.6,11.6-12.3,17.6c-2,3.3-3.9,6.6-5.4,9.9
			c-0.9,2-1.7,3.9-2.4,5.8c-1.2,3.3-1.9,6.5-1.9,9.3C86.6,222.8,86.6,223.6,86.6,224.4z"/>
		<path class="st14" d="M86.8,231.9c0.6,9.5,1.9,18.6,1.9,18.6s1.6,0.2,4.6,0.6c7.9,1,25.1,3,45.5,5.5c20,2.5,43.1,5.3,63.2,7.9
			c11.9,1.5,22.9,2.9,31.6,4.1l-9.2-8.3c0,0-17.7-2.7-46.1-7.6C152.7,248.2,101.1,237.2,86.8,231.9z"/>
		
			<linearGradient id="SVGID_10_" gradientUnits="userSpaceOnUse" x1="159.5096" y1="246.8719" x2="262.7578" y2="246.8719" gradientTransform="matrix(-1 0 0 1 523.8077 0)">
			<stop  offset="0" style="stop-color:#FF6531"/>
			<stop  offset="1" style="stop-color:#FF591F"/>
		</linearGradient>
		<path class="st15" d="M261.7,260.6c0.7,5.3,1.3,9,1.8,11.7c16.2,0.2,46.6-1.2,57.7-2.9c14.7-2.1,40-8.3,40-8.3s0.4-2.6,1-6.4
			c0.8-5.8,1.9-14.4,2-20c0-2.5-0.1-4.4-0.6-5.3c-0.5-1.1-3.2-3.3-7.1-6c-0.9-0.6-1.9-1.3-2.9-2c-0.9,2.4-2.3,4.8-4.4,6.1
			c-2.8,1.8-50.1,7.3-66,6.4c-15.9-0.9-20.8-2.7-20.8-2.7S259.8,246.2,261.7,260.6z"/>
		<path class="st16" d="M247.6,243.8c0,0-27.5-18-57.4-29c-29.9-11-82-16.6-99.2-2.3c0,0,18.5-5.3,62.8,2
			C198.1,221.8,247.6,243.8,247.6,243.8z"/>
		
			<linearGradient id="SVGID_11_" gradientUnits="userSpaceOnUse" x1="400.9539" y1="207.7556" x2="295.0504" y2="305.4063" gradientTransform="matrix(-1 0 0 1 523.8077 0)">
			<stop  offset="0" style="stop-color:#D23200"/>
			<stop  offset="1" style="stop-color:#D53B1F"/>
		</linearGradient>
		<path class="st17" d="M91.3,250.8c0.6,0.1,1.3,0.2,2,0.2c7.9,1,25.1,3,45.5,5.5c20,2.5,43.1,5.3,63.2,7.9
			c11.9,1.5,22.9,2.9,31.6,4.1c5.5,0.7,10.1,1.4,13.5,1.9c0.5,0.1,0.9,0.1,1.3,0.2v0c0,0,1.5-9.5-2.3-18.8
			c-3.8-9.3-13.9-14.1-24.1-13.6c-10.2,0.5-22.6,6.4-22,24.1l-58.4-8.1c0,0-3.5-16-10.4-22.8c-6.9-6.7-24.1-8.6-31,0.9
			c-6.9,9.5-8.9,18.2-8.9,18.2L91.3,250.8z"/>
		
			<linearGradient id="SVGID_12_" gradientUnits="userSpaceOnUse" x1="253.6954" y1="193.422" x2="370.6057" y2="294.5944" gradientTransform="matrix(-1 0 0 1 523.8077 0)">
			<stop  offset="0" style="stop-color:#FF6531"/>
			<stop  offset="1" style="stop-color:#FF591F"/>
		</linearGradient>
		<path class="st18" d="M86.6,224.4c0,1.5,0,3,0.1,4.5c0.4,10.4,2.1,21.6,2.1,21.6s159.5,19.2,164.7,21.1c5.2,1.8,53.2,0,67.8-2.1
			c14.7-2.1,40-8.3,40-8.3s0.4-2.6,1-6.4c-26.4,7.4-84.1,11.1-104.3,7.6c-23.2-4-88.6-16.5-113-27.8c-20-9.3-40-27.3-48.6-37.4
			c-2,3.3-3.9,6.6-5.4,9.9c-0.9,2-1.7,3.9-2.4,5.8c-1.2,3.3-1.9,6.5-1.9,9.3C86.6,222.8,86.6,223.6,86.6,224.4z"/>
		
			<linearGradient id="SVGID_13_" gradientUnits="userSpaceOnUse" x1="245.5913" y1="236.9012" x2="437.2232" y2="236.9012" gradientTransform="matrix(-1 0 0 1 523.8077 0)">
			<stop  offset="0" style="stop-color:#FF6531"/>
			<stop  offset="1" style="stop-color:#FF591F"/>
		</linearGradient>
		<path class="st19" d="M86.6,224.4c0,1.5,0,3,0.1,4.5c7.5-4,24.2-10.1,54.3-8.7c44,2.1,137.2,42.8,137.2,42.8s0.6-2-3.1-5
			c0,0-105.5-57.4-184.1-45.6c0,0-1,0.1-2.4,0.4c-1.2,3.3-1.9,6.5-1.9,9.3C86.6,222.8,86.6,223.6,86.6,224.4z"/>
		<path class="st20" d="M202,264.5c19.5,2.5,36.3,4.7,45,6c0.2-5.9-0.3-28.1-22.7-29.8C201.5,239,201.8,260.4,202,264.5z"/>
		<path class="st20" d="M93.3,250.8c0,0,0,0.1,0,0.3c7.9,1,25.1,3,45.5,5.5c-0.2-4.8-2.2-26.4-20.4-27.8
			C97.9,227.3,93.3,250.8,93.3,250.8z"/>
		
			<linearGradient id="SVGID_14_" gradientUnits="userSpaceOnUse" x1="266.4751" y1="155.7241" x2="331.7636" y2="212.2238" gradientTransform="matrix(-1 0 0 1 523.8077 0)">
			<stop  offset="0" style="stop-color:#FF6531"/>
			<stop  offset="1" style="stop-color:#FF591F"/>
		</linearGradient>
		<path class="st21" d="M134.1,162.2c21,11.7,62.4,34,83.9,40c24.7,6.9,82.8,1.9,101.4,0c-1.8-0.8-3.5-1.4-4.8-1.8
			c0,0-34.2-32.4-59.9-38.2c-2.8-0.6-5.9-1.2-9.1-1.8c-25.9-4.5-64.2-6.4-85.2-3.9c-0.4,0.1-0.9,0.1-1.3,0.2
			C149.6,157.9,141.3,159.7,134.1,162.2z"/>
		
			<linearGradient id="SVGID_15_" gradientUnits="userSpaceOnUse" x1="304.2626" y1="144.0703" x2="339.7239" y2="174.758" gradientTransform="matrix(-1 0 0 1 523.8077 0)">
			<stop  offset="0" style="stop-color:#FF6531"/>
			<stop  offset="1" style="stop-color:#FF591F"/>
		</linearGradient>
		<path class="st22" d="M160.3,156.5c10.6,2.2,34.1,6.9,44.3,6.6c9.3-0.3,28.5-1.6,40.9-2.7C219.6,155.9,181.3,154,160.3,156.5z"/>
		<path class="st23" d="M206.4,168.3c0,0,8.3,13.1,13.8,22.3c0.4,0.6,0.8,1.3,1.2,2c5,8.3,10.7,17.6,10.7,17.6s8.2-0.7,18.7-1.6
			c7.5-0.6,16.3-1.3,24.1-1.8c15.9-1,37.6-2.7,37.6-2.7l-2.4-1.9L265,167.7c-7.2-0.5-15-0.7-22.5-0.7
			C223.4,167,206.4,168.3,206.4,168.3z"/>
		<path class="st24" d="M108,199.5c0,0,32.7,1.2,51.9,3.7c0.3,0,0.6,0.1,1,0.1c1.2,0.2,2.5,0.3,3.8,0.5c21,2.6,59.4,7.3,59.4,7.3
			s-20.2-37.9-29.9-42.2c-5.3-2.3-14.3-3.6-23.6-4.1c-1.3-0.1-2.6-0.1-3.9-0.2c-6.8-0.2-13.5,0-18.9,0.6
			c-14.1,1.5-20.8,5.8-23.2,8.2C122,175.9,110.4,193,108,199.5z"/>
		<path class="st23" d="M112.3,197.3c0,0,5.5,0.1,13.6,0.4c5.4,0.2,12,0.6,18.9,1.1c6.2,0.5,12.6,1.1,18.7,1.9
			c23.2,3.1,57.7,9.2,57.7,9.2s-9.2-13.7-16.3-24.3c-2.1-3.1-3.9-5.9-5.4-8c-8.2-12.2-26.9-10.7-44.3-10.7c-11,0-19.1,2.3-25.1,6.2
			c-3,1.9-5.4,4.3-7.3,7c-0.2,0.2-0.3,0.5-0.5,0.7c-2.3,3.2-4.4,6.5-6.1,9.4C113.9,194.2,112.3,197.3,112.3,197.3z"/>
		<g class="st25">
			<path class="st26" d="M164.2,259.8c0-10.1-0.3-56.6-0.3-57.1c0-0.2-0.1-0.5-0.3-0.5c0,0,0,0,0,0c-0.2,0-0.3,0.3-0.3,0.5
				c0,0.5,0.3,46.5,0.3,56.6C163.6,259.4,164.2,259.9,164.2,259.8z"/>
		</g>
		<polygon class="st27" points="211.4,202.5 221,206.5 223.2,210.9 211.4,210.5 		"/>
		<path class="st28" d="M203.9,267.9c0.2,2.1,0.5,4,1,5.8c4.1,16.5,17.2,17.7,21.3,17.7c4.2,0,20.2,1.2,19.2-22.3
			c-0.3-7-2-12.2-4.4-16c-5.6-9-15.3-10.8-20.4-10.8C215.8,242.2,201.6,244.4,203.9,267.9z"/>
		<path class="st29" d="M210.4,266.7c0.3,2.5,1,4.9,2,7.2c0.5,1.1,1,2.2,1.6,3.2c1.3,2.2,2.8,4.1,4.4,5.2c0.1,0.1,0.2,0.1,0.3,0.2
			c1,0.7,2.4,1.3,4,1.6c1.8,0.4,3.9,0.5,5.8,0c1.7-0.4,3.3-1.1,4.7-2.2c1.8-1.5,3.2-3.6,3.8-6.7c0.2-1.2,0.4-2.6,0.3-4.2
			c0-0.5,0-1.1-0.1-1.6c-0.1-2.2-0.4-4.3-0.9-6.1c-0.4-1.7-1-3.2-1.6-4.6c-1.1-2.3-2.4-4.1-3.9-5.5c-1.2-1.1-2.4-1.9-3.8-2.4
			c-1.7-0.7-3.6-1-5.4-0.7c0,0-0.1,0-0.1,0c-1.9,0.3-3.5,0.8-4.9,1.6c-2.6,1.3-4.3,3.4-5.3,5.7C210.1,260.2,209.9,263.4,210.4,266.7
			z"/>
		<path class="st28" d="M94.6,257.5c0.1,2,0.4,3.9,0.8,5.8c2.8,11,11.7,18.9,21.9,18.4c11.9-0.6,21-12.3,20.3-26.2
			c-0.2-3.7-1-7.2-2.4-10.3c-3.8-8.6-11.6-14.3-20.3-13.9C103,231.8,93.9,243.6,94.6,257.5z"/>
		<path class="st29" d="M102.5,257.1c0,0,0,0.1,0,0.1c0.1,2.3,0.6,4.5,1.4,6.5c0.7,1.9,1.7,3.6,2.9,5.1c1.1,1.4,2.5,2.6,3.9,3.4
			c1.8,1,3.7,1.6,5.8,1.5c0.1,0,0.2,0,0.4,0c1.3-0.1,2.5-0.3,3.7-0.8c1.6-0.7,3.1-1.7,4.4-3.1c1.1-1.2,2-2.5,2.8-4.1
			c1.1-2.2,1.7-4.7,1.9-7.4c0.1-0.8,0.1-1.7,0-2.5c-0.1-2.1-0.5-4.1-1.1-5.9c-0.7-2-1.7-3.9-2.9-5.4c-1.4-1.8-3-3.2-4.8-4.1
			c-1.6-0.8-3.2-1.3-5-1.3c-0.2,0-0.4,0-0.7,0c-2,0.1-3.8,0.7-5.5,1.8c-2.1,1.4-4,3.5-5.2,6c-0.4,0.7-0.7,1.5-1,2.3
			C102.8,251.6,102.4,254.3,102.5,257.1z"/>
		<path class="st30" d="M86.6,224.4l12.2-2.3l0.6-5.4l0.3-2.6l-8.8-7.1c-1.6,3.3-2.8,6.5-3.5,9.5c-0.5,1.9-0.8,3.8-0.8,5.5
			C86.6,222.8,86.6,223.6,86.6,224.4z"/>
		<g>
			<path class="st31" d="M187.1,200.4c0,0,3,6.4,4.5,8.9l19.8,1.2v-7.9c0,0,0.2-0.1-0.1-0.3c0,0,0.2,0,0.2,0
				c-1.8-1.2-7.7-5-11.6-5.8c-3.5-0.7-9,1.9-11.5,3.3C187.6,200.1,187.1,200.4,187.1,200.4z"/>
			
				<linearGradient id="SVGID_16_" gradientUnits="userSpaceOnUse" x1="320.5185" y1="201.9498" x2="329.6111" y2="209.8184" gradientTransform="matrix(-1 0 0 1 523.8077 0)">
				<stop  offset="0" style="stop-color:#FF6531"/>
				<stop  offset="1" style="stop-color:#FF591F"/>
			</linearGradient>
			<path class="st32" d="M187.1,200.4c0,0,3,6.4,4.5,8.9l19.8,1.2v-2.6c-5.5-0.6-11.7-1.1-14.9-2.6c-2.5-1.2-6-3.8-8.3-5.6
				C187.4,200.1,187.1,200.4,187.1,200.4z"/>
		</g>
		<path class="st33" d="M188.4,199.7c0,0,4.2-0.2,9.1-0.2c4.2,0,9.3,0.9,14.1,2.7c-1.8-1.2-7.8-5-11.7-5.8
			C196.5,195.7,190.9,198.3,188.4,199.7z"/>
		<g>
			<path class="st34" d="M251.3,229.1c0,0,6.4,11,18.6,17.4c1.6,0.9,3.2,2.5,4.7,3c1.6,0.5,3.2,1.8,4.6,1.8c0,0,0,0,0,0
				c6.6,0,10.3-4.6,10.3-4.6s-2-2.7-5.1-5.3c-2-1.6-4.4-3.7-7-5.3c-1.4-0.8-2.9-1.7-4.4-2.3c-7.1-2.8-17.3-4.2-20.6-4.5
				C251.7,229.2,251.3,229.1,251.3,229.1z"/>
			<path class="st35" d="M251.3,229.1c0,0,6.4,11,18.6,17.4c12.2,6.4,19.6-0.9,19.6-0.9s-8.2,1.2-16.8-2.8
				c-6.1-2.8-15.4-9.8-20.3-13.6C251.7,229.1,251.3,229.1,251.3,229.1z"/>
		</g>
		<g>
			<path class="st34" d="M353.2,237.6c0.6,2.4,1.4,4.2,1.9,4.4c0.3,0.1,0.7,0.1,1,0.1c0.1,0,0.3,0,0.4,0c0.1,0,0.1,0,0.2,0
				c0.1,0,0.3,0,0.4-0.1c0,0,0,0,0,0c0.2,0,0.3-0.1,0.5-0.1c0.2,0,0.3-0.1,0.5-0.2c0.2-0.1,0.3-0.1,0.5-0.2c0.2-0.1,0.3-0.2,0.5-0.2
				c0.4-0.2,0.9-0.6,1.3-0.9c0.1-0.1,0.3-0.2,0.4-0.4c0.1-0.1,0.2-0.2,0.3-0.3c0,0,0.1-0.1,0.1-0.1c0.1-0.1,0.2-0.2,0.3-0.4
				c0.3-0.3,0.5-0.6,0.8-0.9c0.1-0.1,0.2-0.2,0.3-0.4c0,0,0.1-0.1,0.1-0.1c0.1-0.1,0.2-0.3,0.3-0.4c0,0,0,0,0,0
				c0.5-0.8,1-1.7,1.4-2.6c0-2.5-0.1-4.4-0.6-5.3c0,0-0.1-0.1-0.1-0.2c-0.2-0.4-0.7-0.9-1.4-1.5c-0.2-0.2-0.5-0.4-0.8-0.7
				c0,0,0,0,0,0c-1.2-1-2.9-2.3-4.8-3.6c-0.8,1.2-1.6,2.4-2.4,3.7c-0.2,0.4-0.4,0.7-0.6,1.1C352.3,230.6,352.5,234.5,353.2,237.6z"
				/>
			<path class="st35" d="M356.2,242c0.1,0,0.3,0,0.4,0c0.1,0,0.1,0,0.2,0c0.1,0,0.3,0,0.4-0.1c0,0,0,0,0,0c0.2,0,0.3-0.1,0.5-0.1
				c0.2,0,0.3-0.1,0.5-0.2c0.2-0.1,0.3-0.1,0.5-0.2c0.2-0.1,0.3-0.2,0.5-0.2c0.4-0.2,0.9-0.6,1.3-0.9c0.1-0.1,0.3-0.2,0.4-0.4
				c0.1-0.1,0.2-0.2,0.3-0.3c0,0,0.1-0.1,0.1-0.1c0.1-0.1,0.2-0.2,0.3-0.4c0.3-0.3,0.5-0.6,0.8-0.9c0.1-0.1,0.2-0.2,0.3-0.4
				c0,0,0.1-0.1,0.1-0.1c0.1-0.1,0.2-0.3,0.3-0.4c0,0,0,0,0,0c0.5-0.8,1-1.7,1.4-2.6c0-2.5-0.1-4.4-0.6-5.3c0,0-0.1-0.1-0.1-0.2
				c-0.2-0.4-0.7-0.9-1.4-1.5c-0.8,3.6-2.2,8.2-4.3,11.7C357.4,240.4,356.8,241.3,356.2,242z"/>
		</g>
		<path class="st36" d="M130.3,173c6.3,3.9,21.2,10.9,44,17c16.9,4.5,26,0.1,30.8-4.5c-2.1-3.1-3.9-5.9-5.4-8
			c-8.2-12.2-26.9-10.7-44.3-10.7C144.4,166.8,136.2,169.1,130.3,173z"/>
		<path class="st24" d="M164.7,203.7c-0.2-11.8,3.8-31,5.8-39c-1.3-0.1-2.6-0.1-3.9-0.2c-0.4,2.9-1.3,8.3-3,16.8
			c-2,9.7-2.5,18-2.7,21.8C162.1,203.4,163.4,203.6,164.7,203.7z"/>
		<path class="st36" d="M116.4,190c3.2,2.8,6.4,5.4,9.5,7.7c5.4,0.2,12,0.6,18.9,1.1c-7.2-5.5-14.2-11.8-22.4-18.2
			C120.2,183.8,118.1,187.1,116.4,190z"/>
		<path class="st37" d="M179.8,219.6l-2.4,1.2l-12.2-0.9l3.4-3.1C168.5,216.9,174.9,217.2,179.8,219.6z"/>
		<path class="st37" d="M126.6,214.1l-2.4,1.2l-12.2-0.9l3.4-3.1C115.3,211.4,121.7,211.7,126.6,214.1z"/>
		<path class="st38" d="M86.6,224.4l12.2-2.3l0.6-5.4c-3.6,1.2-6.8,1.7-6.8,1.7l-5.2-1.9c-0.5,1.9-0.8,3.8-0.8,5.5
			C86.6,222.8,86.6,223.6,86.6,224.4z"/>
		<g>
			<path class="st39" d="M200.5,260l0-0.3c2.4-19,23.3-48.3,23.5-48.6l-0.5-0.4c-0.2,0.3-20.9,29.5-23.5,48.6l-56.7-7.6
				c-0.8-2-8-18.8-16.2-24.1c-4.6-2.9-9.6-4.7-13.7-6.2c-3.4-1.2-6.1-2.2-6.7-3.2c-1.5-2.4-1.4-12.1,1.6-18.7l-0.6-0.3
				c-3.1,6.8-3.1,16.6-1.5,19.2c0.8,1.2,3.4,2.2,7,3.5c4,1.4,9,3.2,13.5,6.1c8.4,5.4,16,23.8,16.1,24l0.1,0.2l0.2,0L200.5,260z"/>
		</g>
		<path class="st40" d="M280.9,256c0,0-11,0.9-14.7-0.3c0,0,2.4,10.7,7.6,11.6C279.1,268.2,280.9,256,280.9,256z"/>
		<path class="st24" d="M312.4,204c0,0-20.8,1.5-35.4,3.4c-14.7,1.8-44.9,2.8-44.9,2.8s27.2-6.1,42.2-7.3c15-1.2,30.6,0.3,30.6,0.3
			L312.4,204z"/>
		<path class="st41" d="M362.8,246.2c0,0-5.8,3.1-8.9,3.7c0,0,0.3,9.5,4.6,9.8C362.8,260,362.8,246.2,362.8,246.2z"/>
		<g>
			<path class="st42" d="M292.5,241.3c0,0,1.4,1.2,3.2,2.8c1.1,1,2.4,2.1,3.7,3.3c1.3,1.1,2.5,2.2,3.4,3c1,0.8,1.7,1.4,1.9,1.6
				c1.2,0.9,34.8-3.7,37.3-4.6c0.7-0.3,1.6-1.4,2.5-2.8c0.9-1.5,1.9-3.3,2.7-4.9c0.5-1,0.9-2,1.3-2.8c0.4-1,0.7-1.7,0.8-2
				c0,0-9.5,0.3-27.2,2.4C305.9,239.3,292.5,241.3,292.5,241.3z"/>
			<path class="st43" d="M295.7,244.1c1.1,1,2.4,2.1,3.7,3.3c6.1-0.8,17.2-2.3,28.9-3.9c11.7-1.6,17.2-3.2,18.9-3.8
				c0.5-1,0.9-2,1.3-2.8c-4.5,0.7-21.1,3.2-33.7,5.3C306.4,243.6,299.8,244,295.7,244.1z"/>
			<path class="st43" d="M302.8,250.4c1,0.8,1.7,1.4,1.9,1.6c1.2,0.9,34.8-3.7,37.3-4.6c0.7-0.3,1.6-1.4,2.5-2.8
				C335.1,246,312,249.1,302.8,250.4z"/>
		</g>
		<g>
			<polygon class="st44" points="301.7,254.8 304.2,265.8 322.1,263.5 342.3,260.9 343.3,250.8 330.8,252 			"/>
			<path class="st45" d="M322.1,263.5l20.3-2.6l0.9-10.1l-12.4,1.2C327.5,256.4,324.5,260.3,322.1,263.5z"/>
		</g>
		<path class="st46" d="M271.2,242.5c0,2.5,1.4,4.7,3.4,5.9c1,0.6,2.1,1.9,3.3,1.9c0.4,0,0.9,0.9,1.3,0.9c0,0,0,0,0,0
			c2,0,3.7-2.8,4.7-4.5c0.5-0.9,0.8-2.5,0.8-3.7c0-0.6-0.1-1.4-0.2-2c-2-1.6-4.4-3.6-7-5.1c-3.3,0.2-6,2.9-6.2,6.2
			C271.2,242.3,271.2,242.4,271.2,242.5z"/>
		<path class="st46" d="M353.2,238c1.2,1.2,2.9,2.4,4.7,2.4h0c1.9,0,3.7-1.3,4.9-2.6c0,0,0-0.2,0-0.2c0.5-0.8,1-1.8,1.4-2.7
			c0-2.5-0.1-4.5-0.6-5.4c0-0.1-0.1-0.1-0.1-0.2c-0.5-0.9-1.3-1.6-2.1-2.2c0,0,0,0,0,0c-1-0.6-2.3-1-3.6-1c-1.3,0-2.6,0.4-3.7,1.1
			c-0.2,0.4-0.4,0.9-0.6,1.3C352.3,230.8,352.5,235,353.2,238z"/>
		<g class="st47">
			<path class="st48" d="M221.6,250.1c0.3,3.2,1.2,11,2.5,11.1c1.2,0.1,2.5-7.6,2.9-10.6C225.2,250,223.4,249.9,221.6,250.1z"/>
			<path class="st48" d="M211.3,256.5c2.6,2.3,8.8,7.4,9.6,6.5c0.9-1-3.6-8.7-5.1-11.4C213.6,252.8,212.2,254.5,211.3,256.5z"/>
			<path class="st48" d="M226.5,264.3c0.9,1.2,5.8-3.8,8.1-6.4c-1-1.9-2.2-3.5-3.6-4.6C229.4,256.4,225.6,263,226.5,264.3z"/>
			<path class="st48" d="M228.8,267.4c0,1.6,5.9,1.9,8.3,2c-0.1-2.2-0.4-4.3-0.7-6.1C234.1,264,228.8,265.8,228.8,267.4z"/>
			<path class="st48" d="M233.6,281.9c1.6-1.3,2.8-3.2,3.3-6c-2.5-2.3-7.7-6.6-8.4-5.6C227.8,271.4,231.8,278.8,233.6,281.9z"/>
			<path class="st48" d="M222.6,284.1c1.8,0.3,3.9,0.4,5.8,0c-0.4-3.4-1.5-11.8-2.6-12C224.7,272,223.2,280.2,222.6,284.1z"/>
			<path class="st48" d="M213.9,277.7c1.1,1.9,2.4,3.5,3.7,4.6c1.7-3.5,4.9-10.5,4.5-11.3C221.7,270.1,216,275.7,213.9,277.7z"/>
			<path class="st48" d="M210.4,266.7c0.3,2.5,0.9,4.9,1.7,7.2c2.3-1.4,7.9-5,7.7-6.4C219.5,266,213.1,266.4,210.4,266.7z"/>
		</g>
		<g class="st47">
			<path class="st48" d="M114.5,251.3c0.1,0.3-1.3,0.6-1.3,0.9c0,0,0,0,0,0c0,0.5,1.9,0.8,2.1,0.9c0.1,0.1,1,0.5,1.1,0.5
				c0.5-0.2,1.5-2.3,2-2.3h0.1c1-2.7,2-8.5,2.3-10.7c-1.6-0.6-4-1.2-5.7-1.2C115,242.4,114,248.2,114.5,251.3z"/>
			<path class="st48" d="M104.6,245.6c2.5,2.2,9.7,8.1,10.8,7.4c0.1-0.1,0.6-0.2,0.6-0.4c0,0,0,0,0,0c0-0.3-0.5-0.6-0.7-1.1
				c-0.9-2.6-4.2-7.9-5.8-10.5C107.5,242,105.7,243.6,104.6,245.6z"/>
			<path class="st48" d="M118.1,255.1c0,0,0.4,0.1,0.4,0.1c1,1,7-3.7,9.9-6.1c-0.6-1.7-2-3.3-3.1-4.6c-1.5,1.7-4,5.1-6.7,7.6v0
				C118.7,253.5,117.9,254.6,118.1,255.1z"/>
			<path class="st48" d="M122.2,259.5C122.2,259.5,122.2,259.5,122.2,259.5c1.8,2.7,4.5,4.6,5.9,5.9c0.9-2.2,1.4-4.5,1.5-7.2
				c-1.7-0.3-8.6-1.5-9.1-0.4c0,0,0-0.3,0-0.3C120.4,257.7,121.1,259.5,122.2,259.5z"/>
			<path class="st48" d="M120.8,272.9c1.6-0.6,3-1.5,4.2-2.7c-1-2.1-2.8-5.9-4.4-8.3c-0.7-1.1-1.4-2-2-2.2c-0.2-0.1-0.3-0.1-0.5,0
				C116.9,260.6,119.5,268.9,120.8,272.9z"/>
			<path class="st48" d="M110.8,272.5c1.8,0.9,3.7,1.3,5.8,1.3c0.4-3.4,1.4-12.7,0.2-13.4C115.5,259.8,112.2,268.6,110.8,272.5z"/>
			<path class="st48" d="M103.9,264.4c0.6,1.7,1.4,3.2,2.4,4.4c2.4-2.4,8-8.2,7.2-9.6C112.7,258,106.8,262.3,103.9,264.4z"/>
			<path class="st48" d="M102.5,257.1c0,0,0,0.1,0,0.1c2.9,0.6,9,1.4,9.6,0.1c0.6-1.3-5.8-6.2-8.7-8.1
				C102.7,251.6,102.4,254.3,102.5,257.1z"/>
		</g>
		<path class="st49" d="M203.9,267.9c0.2,2.1,0.5,4,1,5.8c4.2-3.9,9.3-8.7,12.5-11.6c5.2-4.6,16.2-8.2,23.8-9
			c-5.6-9-15.3-10.8-20.4-10.8C215.8,242.2,201.6,244.4,203.9,267.9z"/>
		<path class="st49" d="M94.6,257.5c0.1,2,0.4,3.9,0.8,5.8c3.7-3.4,11.6-10.4,16.9-13.3c5.7-3.2,16.2-5.2,22.9-4.7
			c-3.8-8.6-11.6-14.3-20.3-13.9C103,231.8,93.9,243.6,94.6,257.5z"/>
		<path class="st36" d="M221.3,192.6c5,8.3,10.7,17.6,10.7,17.6s8.2-0.7,18.7-1.6c6.8-2.7,15.6-5.1,26.2-6.4c13-1.5,24.4-1,33,0
			L265,167.7c-7.2-0.5-15-0.7-22.5-0.7C238.1,173.6,228.9,186.2,221.3,192.6z"/>
		<path class="st50" d="M237.2,210.2l0.6,5.2c0,0,6.2,2.8,14.3,6.3c10.4,4.5,24,10.1,31.2,12.4c0,0,57.1-2.7,66-6.4
			c0,0,0-2.7-0.4-4.6c-0.1-0.6-0.3-1.1-0.5-1.5c-0.9-1.5-26.3-15.6-33-16.8c0,0-18.3,3.4-38.2,5.2
			C257.4,211.7,237.2,210.2,237.2,210.2z"/>
		<path class="st51" d="M252.2,221.6c10.4,4.5,24,10.1,31.2,12.4c0,0,57.1-2.7,66-6.4c0,0,0-2.7-0.4-4.6c-2.3-1.3-11.2-3.9-11.2-3.9
			l-6.4,6.1l-9.8,1.2c0,0-4.9-8.9-13.1-12.5c0,0-8.2-2.1-15.3-2.1c-7,0-25.4,2.1-25.4,2.1L252.2,221.6z"/>
		<g>
			<g>
				
					<linearGradient id="SVGID_17_" gradientUnits="userSpaceOnUse" x1="269.0453" y1="150.6986" x2="206.3108" y2="208.5443" gradientTransform="matrix(-1 0 0 1 523.8077 0)">
					<stop  offset="0" style="stop-color:#E85C21"/>
					<stop  offset="1" style="stop-color:#FF591F"/>
				</linearGradient>
				<path class="st52" d="M232.6,211c0,0.1,0.1,0.3,0.2,0.4c0,0,19.6-13.9,45.2-13.4c17.3,0.3,28.1,2.6,33.4,4.1
					c2.5,0.7,3.7,1.2,3.7,1.2l24.9-55c0,0-0.5,0-1.3,0c-2,0-6.3,0.2-12.1,0.4c-8.2,0.4-19.4,1-31.8,2.2c-22.2,2-39.9,4.1-43.7,4.6
					c-0.5,0.1-0.7,0.1-0.7,0.1s-13.7,23.7-17.7,41.3C231.4,202.5,231.1,207.5,232.6,211z"/>
				
					<linearGradient id="SVGID_18_" gradientUnits="userSpaceOnUse" x1="268.6409" y1="171.3883" x2="297.4413" y2="196.3117" gradientTransform="matrix(-1 0 0 1 523.8077 0)">
					<stop  offset="0" style="stop-color:#FF6531"/>
					<stop  offset="1" style="stop-color:#FF591F"/>
				</linearGradient>
				<path class="st53" d="M232.6,211c-0.3-5,2.5-15.6,5.5-25.3c3.3-10.6,10-22.2,11.8-26.5c0.9-2,1.1-3.1,1.2-3.8
					c-0.5,0.1-0.7,0.1-0.7,0.1S226.5,196.6,232.6,211z"/>
				
					<linearGradient id="SVGID_19_" gradientUnits="userSpaceOnUse" x1="257.9823" y1="160.8995" x2="207.0591" y2="207.8543" gradientTransform="matrix(-1 0 0 1 523.8077 0)">
					<stop  offset="0" style="stop-color:#E85C21"/>
					<stop  offset="1" style="stop-color:#FF591F"/>
				</linearGradient>
				<path class="st54" d="M232.6,211c0,0.1,0.1,0.3,0.2,0.4c0,0,19.6-13.9,45.2-13.4c25.7,0.4,37.1,5.3,37.1,5.3l24.9-55
					c0,0-5.1,0.1-13.4,0.5C314.6,159.4,297,170,276.8,181c-19.5,10.6-37.8,14.7-44.1,15.9C231.4,202.5,231.1,207.5,232.6,211z"/>
			</g>
			
				<linearGradient id="SVGID_20_" gradientUnits="userSpaceOnUse" x1="204.5691" y1="169.2377" x2="188.9037" y2="183.6823" gradientTransform="matrix(-1 0 0 1 523.8077 0)">
				<stop  offset="0" style="stop-color:#E85C21"/>
				<stop  offset="1" style="stop-color:#FF591F"/>
			</linearGradient>
			<path class="st55" d="M311.3,202c2.5,0.7,3.7,1.2,3.7,1.2l24.9-55c0,0-0.5,0-1.3,0c-1.5,5.1-8.5,19.9-13.9,29.8
				C320.3,186.2,314,197.2,311.3,202z"/>
		</g>
		
			<linearGradient id="SVGID_21_" gradientUnits="userSpaceOnUse" x1="146.1286" y1="150.6769" x2="137.9809" y2="278.3953" gradientTransform="matrix(-1 0 0 1 523.8077 0)">
			<stop  offset="0" style="stop-color:#1A5DB6"/>
			<stop  offset="0.995" style="stop-color:#0854A6"/>
		</linearGradient>
		<path class="st56" d="M363.2,236.3c0,0,10.4,17.1,12.9,22.2c2.1,4.1,7.1,17,9,21.9c0.5,1.2,0.7,1.9,0.7,1.9l1.9-2.1l0,0l0.7-0.8
			l0.1-0.7l0.1-1.6c0,0,0.2-0.5,0.5-1.4c0,0,0,0,0,0c0-0.1,0-0.1,0.1-0.2c0-0.1,0-0.1,0.1-0.2c0,0,0,0,0-0.1c0-0.1,0.1-0.1,0.1-0.2
			c0.1-0.2,0.2-0.4,0.3-0.7c0,0,0-0.1,0-0.1c0.1-0.2,0.1-0.4,0.2-0.6c0-0.1,0.1-0.2,0.1-0.3c0.2-0.5,0.4-1,0.6-1.6
			c0.7-1.8,1.6-3.9,2.4-5.8c0-0.1,0.1-0.1,0.1-0.2c0.1-0.2,0.2-0.4,0.2-0.6c0.1-0.3,0.2-0.5,0.3-0.8c0.1-0.1,0.1-0.2,0.2-0.4
			c0.1-0.1,0.1-0.2,0.2-0.4c0.1-0.2,0.2-0.4,0.3-0.6l0-0.1c0.1-0.2,0.2-0.4,0.3-0.7c0.1-0.2,0.2-0.5,0.3-0.7
			c0.1-0.2,0.1-0.3,0.2-0.5c0.1-0.2,0.1-0.4,0.2-0.6c0.1-0.2,0.1-0.4,0.2-0.6c0.1-0.4,0.2-0.8,0.4-1.2c0-0.1,0.1-0.2,0.1-0.4
			c0.4-1.7,0.7-3.8,1.1-7c0.8-7.5-3.3-14.6-3.3-14.6c0,0,0,0,0-0.1c0,0,0,0,0-0.1c0-0.1,0-0.1,0-0.2c0,0,0-0.1,0-0.2c0,0,0,0,0-0.1
			c0.1-0.4,0.1-1,0.2-1.7c0,0,0-0.1,0-0.2c0.9-7.3,3.1-28.1,3.1-28.1s1.3-2.2,2.6-7c0.8-3,0.4-6.2-0.1-8.3c-0.3-1.2-0.6-1.9-0.6-2
			c0,0-0.1,0-0.2,0c-1,0.4-5.3,3-5.3,3s-2.3-0.8-4-2c0,0-0.1,0-0.1-0.1c-0.7-0.5-1.3-1.1-1.5-1.7c-0.5-2-1.7-13.9-1.8-23.4
			c0-0.3,0-0.6,0-1c-0.1-9.2,0.1-17.5,1.1-19.5c-0.2,0-0.9,0.2-1.6,0.5c-0.1,0.1-0.2,0.4-0.4,0.6c-0.4,1.6-0.9,4-0.9,7.1
			c-0.1,5.3-0.1,10.9-0.1,11.6c0,0,0,0.1,0,0.1c-1.8,0.9-6,0.7-7.1,0.7c-0.2,0-0.2,0-0.2,0c-0.6-1.5-1.3-9.3-1.6-13.5
			c-0.5-0.1-1.1-0.4-1.6-0.8c0,0-0.1,0-0.1,0.1c0.2,2.2,0.7,6.6,1.1,10.9c0.1,1.2,0.2,2.4,0.4,3.5c0.2,1.5,0.3,2.9,0.4,4
			c0.4,3.8,2,14.8,2.8,20.3c0.2,1.5,0.4,2.6,0.5,3.1c0,0.1,0,0.2,0,0.2s-2,7.8-4.6,13.9C371.9,212.9,363.2,236.3,363.2,236.3z
			 M374.5,237.5c0,0,2.8-3.4,4.8-6.9c2-3.6,4.2-5.3,4.2-5.3c0.1,2.9,0.8,20.7,0.8,20.7s-2.4-4.3-4.6-5.8
			C377.6,238.7,374.5,237.5,374.5,237.5z"/>
		
			<linearGradient id="SVGID_22_" gradientUnits="userSpaceOnUse" x1="151.5712" y1="148.402" x2="133.2715" y2="133.9115" gradientTransform="matrix(-1 0 0 1 523.8077 0)">
			<stop  offset="0" style="stop-color:#AF5106"/>
			<stop  offset="0.995" style="stop-color:#8F3305"/>
		</linearGradient>
		<path class="st57" d="M385.1,138.8c-0.1-0.5-0.2-1-0.2-1S385,138.2,385.1,138.8z"/>
		
			<linearGradient id="SVGID_23_" gradientUnits="userSpaceOnUse" x1="154.2742" y1="143.6263" x2="146.3305" y2="131.1761" gradientTransform="matrix(-1 0 0 1 523.8077 0)">
			<stop  offset="0" style="stop-color:#EEC4A0"/>
			<stop  offset="1" style="stop-color:#EDA688"/>
		</linearGradient>
		<path class="st58" d="M368.3,143.8C368.3,143.9,368.4,143.9,368.3,143.8c0.4,0.2,1.4,0,2.3-0.2c0.1,0,0.1,0,0.2,0l0,0
			c0.2,0,0.4-0.1,0.6-0.1c0.3-0.1,1.1-0.2,2.2-0.6c-0.8,0.2-1.5,0.3-1.9,0.4c0.4-0.1,1.1-0.2,1.9-0.4c1.2-0.3,2.7-0.8,4.1-1.3
			c0.3-0.1,0.5-0.2,0.7-0.4c2.2-1.2,3.9-3,4.4-4.4c0.6-1.9-0.5-5.8-0.5-5.8s-3,0.1-4.6-0.5c-1.6-0.6-2.7-2.4-2.7-2.4s-1.7,2.7-5,3.2
			c-0.6,0.1-1.2,0.1-1.7,0c0,0.2,0.1,0.5,0.1,0.8c0.2,1.5,0.6,4.3,1,6.3C369.9,141.4,368.2,143.5,368.3,143.8z M370.8,143.6
			c0-0.1,0-0.1,0-0.2h0C370.8,143.5,370.8,143.6,370.8,143.6z"/>
		
			<linearGradient id="SVGID_24_" gradientUnits="userSpaceOnUse" x1="152.5478" y1="134.6317" x2="149.4643" y2="132.1901" gradientTransform="matrix(-1 0 0 1 523.8077 0)">
			<stop  offset="0" style="stop-color:#AF5106"/>
			<stop  offset="0.995" style="stop-color:#8F3305"/>
		</linearGradient>
		<path class="st59" d="M375.8,133.5c-0.2-0.5-1.8-1.8-3.5-1.7c-1.7,0.2-1.9,1.5-1.9,1.5l0.5,0.8c0,0,0.7-0.4,2.1-0.7
			C374.4,133.2,375.8,133.5,375.8,133.5z"/>
		
			<linearGradient id="SVGID_25_" gradientUnits="userSpaceOnUse" x1="138.2735" y1="145.4515" x2="137.1078" y2="163.7236" gradientTransform="matrix(-1 0 0 1 523.8077 0)">
			<stop  offset="0" style="stop-color:#1A5DB6"/>
			<stop  offset="0.995" style="stop-color:#0854A6"/>
		</linearGradient>
		<path class="st60" d="M384.7,152.8c-0.1,5.3-0.1,10.9,0,11.6c0.7-0.1,1.3-0.2,1.8-0.3c-0.1-9.2,0.1-17.5,1.1-19.5
			c-0.2,0-0.9,0.2-1.6,0.5c-0.1,0.1-0.2,0.4-0.4,0.6C385.2,147.3,384.8,149.7,384.7,152.8z"/>
		<path class="st61" d="M378.5,189.6c0.2,1.5,0.4,2.6,0.5,3.1c2.6,0.5,10.6,1.7,20.9-1.4c-0.3-1.2-0.6-1.9-0.6-2c0,0-0.1,0-0.2,0
			c-1,0.4-5.3,3-5.3,3s-2.3-0.8-4-2C386.3,190.3,381.7,190.2,378.5,189.6z"/>
		
			<linearGradient id="SVGID_26_" gradientUnits="userSpaceOnUse" x1="148.5863" y1="151.3081" x2="147.7238" y2="164.828" gradientTransform="matrix(-1 0 0 1 523.8077 0)">
			<stop  offset="0" style="stop-color:#1A5DB6"/>
			<stop  offset="0.995" style="stop-color:#0854A6"/>
		</linearGradient>
		<path class="st62" d="M373.8,150.9c0.2,2.2,0.7,6.6,1.1,10.9c0.1,1.2,0.2,2.4,0.4,3.5c0.7,0,1.4,0,2.1-0.1c-0.2,0-0.3,0-0.3,0
			c-0.6-1.5-1.3-9.3-1.6-13.5c-0.5-0.1-1.1-0.4-1.6-0.8C373.9,150.8,373.9,150.8,373.8,150.9z"/>
		
			<linearGradient id="SVGID_27_" gradientUnits="userSpaceOnUse" x1="130.0425" y1="236.5354" x2="129.9517" y2="237.9598" gradientTransform="matrix(-1 0 0 1 523.8077 0)">
			<stop  offset="0" style="stop-color:#1A5DB6"/>
			<stop  offset="0.995" style="stop-color:#0854A6"/>
		</linearGradient>
		<path class="st63" d="M393.7,238l0.2-1.1c0-0.1,0-0.3,0.1-0.5C393.8,237.2,393.7,237.7,393.7,238z"/>
		
			<linearGradient id="SVGID_28_" gradientUnits="userSpaceOnUse" x1="128.9064" y1="191.2369" x2="126.238" y2="233.0653" gradientTransform="matrix(-1 0 0 1 523.8077 0)">
			<stop  offset="0" style="stop-color:#1A5DB6"/>
			<stop  offset="0.995" style="stop-color:#0854A6"/>
		</linearGradient>
		<path class="st64" d="M394.2,234.5c0.9-7.3,3.1-28.1,3.1-28.1s1.3-2.2,2.6-7c1.3-4.8-0.6-10-0.7-10.3c0,0-0.1,0-0.2,0
			c-1,0.4-5.3,3-5.3,3s-2.4-0.8-4-2c-0.3,1.1-0.1,2.2,0.4,1.9c0,0,0.3,2.1,0.9,2.3c0.6,0.2,5.3-2,5.3-2s2,1.8,1.1,6.9
			c-0.9,5-1.8,7.3-1.8,7.3S394.9,227.5,394.2,234.5z"/>
		
			<linearGradient id="SVGID_29_" gradientUnits="userSpaceOnUse" x1="141.9048" y1="203.3486" x2="137.1446" y2="277.9676" gradientTransform="matrix(-1 0 0 1 523.8077 0)">
			<stop  offset="0" style="stop-color:#1A5DB6"/>
			<stop  offset="0.995" style="stop-color:#0854A6"/>
		</linearGradient>
		<path class="st65" d="M371.7,238c0,0,4.6,4.9,6.6,7.6c2,2.8,5.2,9.8,6.6,15.9c1.1,4.8,2.5,14.3,3,18.7l0.7-0.8l0.1-0.7l0.1-1.6
			c0,0,0.2-0.5,0.5-1.4c0,0,0,0,0,0l0,0l0.1,0c0-0.1,0-0.2,0-0.2c0-0.1,0.1-0.2,0.1-0.2c0-0.1,0.1-0.2,0.1-0.2
			c0.1-0.2,0.2-0.4,0.3-0.7c0,0,0-0.1,0-0.1c0.1-0.2,0.1-0.4,0.2-0.6c0-0.1,0.1-0.2,0.1-0.3c0.2-0.5,0.4-1,0.6-1.6
			c0.7-1.8,1.6-3.9,2.4-5.8c0-0.1,0.1-0.1,0.1-0.2c0.1-0.2,0.2-0.4,0.3-0.6c0.1-0.3,0.2-0.5,0.3-0.8c0.1-0.1,0.1-0.2,0.2-0.4
			c0.1-0.1,0.1-0.2,0.2-0.4c0.1-0.2,0.2-0.4,0.3-0.6l0-0.1c0.1-0.2,0.2-0.4,0.3-0.7c0.1-0.2,0.2-0.5,0.3-0.7
			c0.1-0.2,0.1-0.3,0.2-0.5c0.1-0.2,0.1-0.4,0.2-0.6c0.1-0.2,0.1-0.4,0.2-0.6c0.1-0.4,0.2-0.8,0.4-1.2c0-0.1,0.1-0.2,0.1-0.4
			c0.4-1.7,0.7-3.8,1.1-7c0.8-7.5-3.3-14.6-3.3-14.6s0.9,10.6-0.1,17.8c-0.8,5.6-3.1,15.1-4.3,19c0-3.2-0.3-6.8-0.5-9.9
			c-0.6-7.8-2.5-14.1-2.5-14.1s-0.9-10.7-1.1-21.2c-0.2-10.5-2.5-28.6-2.5-28.6c-0.3,3.5,0.3,20.2,0.3,20.2s-2.1,2.7-5,7.2
			C375.2,231.8,371.7,238,371.7,238z M374.5,237.5c0,0,2.8-3.4,4.8-6.9c2-3.6,4.2-5.3,4.2-5.3c0.1,2.9,0.8,20.7,0.8,20.7
			s-2.4-4.3-4.6-5.8C377.6,238.7,374.5,237.5,374.5,237.5z"/>
		<g>
			<path class="st66" d="M381.6,293.1c0,0,3.3-2.8,4.6-4.1c0.5-0.5,1.4-1.5,2.2-2.6c1.4-1.7,2.8-3.5,2.8-3.5c0-0.7-1.3-2.4-2.7-4.2
				l-0.1,0.7l-1.1,1.2l-1.5,1.7c0,0-0.3-0.7-0.7-1.9c-0.1,0.4-1,3-1.4,4.3C383.4,286.1,381.6,293.1,381.6,293.1z"/>
			<path class="st67" d="M387.4,280.6c0.4,1.7,0.7,3.9,1,5.8c1.4-1.7,2.8-3.5,2.8-3.5c0-0.7-1.3-2.4-2.7-4.2l-0.1,0.7L387.4,280.6z"
				/>
		</g>
		<g>
			
				<linearGradient id="SVGID_30_" gradientUnits="userSpaceOnUse" x1="123.0256" y1="197.2859" x2="117.4986" y2="149.1812" gradientTransform="matrix(-1 0 0 1 523.8077 0)">
				<stop  offset="0" style="stop-color:#EEC4A0"/>
				<stop  offset="1" style="stop-color:#EDA688"/>
			</linearGradient>
			<path class="st68" d="M390.1,190.6L390.1,190.6c0.7,0.8,2.4-1.5,2.7-1.6c0,0,0,0,0,0c-0.2,0.2-0.3,0.4-0.6,0.6
				c-0.1,0.1-0.2,0.2-0.3,0.3c-0.8,0.9-1.8,2.1-1.3,2.5c0,0,0,0,0,0c0.4,0.3,0.9,0,1.5-0.4c-0.1,0.1-0.1,0.2-0.2,0.3
				c0,0.2,0,0.3,0.1,0.4c0.1,0,0.1,0,0.2,0.1c0.7,0.1,2.1-1,2.8-1.6c0.1,0,0.1-0.1,0.1-0.1c-0.1,0-0.1,0.1-0.2,0.2c0,0,0,0,0,0
				c-0.1,0.2-0.3,0.3-0.4,0.5c0,0,0,0,0,0c0,0,0,0.1-0.1,0.1c0,0,0,0.8,0,0.8c-0.1,0.3-0.1,1.3,0.3,1.3h0c0,0,0-0.8,0.1-0.7
				c0,0,0-0.4,0-0.4c1.3,0.1,3.5-1.9,3.5-1.9l0.9-0.3c0.8-0.3,1.8-1.1,3-2.1c0,0,0.1-0.1,0.1-0.1c0.1-0.1,0.3-0.2,0.4-0.4
				c0.5-0.5,1.1-1,1.6-1.6c0.1-0.1,0.3-0.3,0.4-0.4c0.2-0.2,0.5-0.5,0.7-0.8c0.2-0.2,0.4-0.4,0.5-0.6c0.2-0.2,0.3-0.4,0.5-0.6
				c0.2-0.2,0.4-0.4,0.5-0.7c0.4-0.6,0.8-1.1,1.2-1.7c0.2-0.3,0.4-0.5,0.5-0.8c2.7-4.1,6.6-10.7,6.6-10.7c-0.1-0.1-0.1-0.2-0.2-0.3
				c-2.2-3.3-7.5-10.8-9.7-12.7c0,0-1.3,2.4-3,4c-0.5,0.5-1.3,1.1-2,1.7c-1.6,1.2-3.2,2.4-3.2,2.4l7.4,6.4
				c-0.5,3.1-3.2,8.1-5.1,11.4c0,0,0,0,0,0c-1.1,2-2,3.3-2,3.3s-2.5-1.5-3.9-0.8C392.6,186.4,389.4,189.8,390.1,190.6z"/>
			<path class="st69" d="M404.9,171.8c-0.5,3.1-3.2,8.1-5.1,11.4c1.1-1.5,3-4,4.2-5.8c1.7-2.6,2.7-6.1,2.7-6.1s-0.4-0.4-1.5-1.9
				c-1-1.4-3.5-4.6-4.5-6.4c-1.6,1.2-3.2,2.4-3.2,2.4L404.9,171.8z"/>
			<g>
				<path class="st69" d="M395,192.5c0,0,0.1,0,0.1,0c1.3,0.1,3.5-1.7,3.5-1.7l0.9-0.2c2.3-0.8,6.7-5.5,9.4-9.6
					c2.7-4.1,6.6-10.7,6.6-10.7c-0.1-0.1-0.1-0.2-0.2-0.3c-1.4,2.8-5.1,8.3-8.4,11.9c-3.6,3.9-7.9,8.3-7.9,8.3
					S396.5,191.8,395,192.5z"/>
				<path class="st69" d="M395.2,191.3c-0.1,0.2-0.3,0.3-0.4,0.5c0-0.1,0.1-0.1,0.1-0.2C395,191.5,395.1,191.4,395.2,191.3z"/>
				<path class="st69" d="M394.8,191.8c0,0,0,0.1-0.1,0.1C394.7,191.9,394.7,191.8,394.8,191.8C394.8,191.8,394.8,191.8,394.8,191.8
					z"/>
				<path class="st69" d="M392.4,192.8c0.7,0.1,2.1-1,2.8-1.6c0.5-0.6,0.6-1,0.6-1.1C395.1,190.9,393.4,192.1,392.4,192.8z"/>
				<path class="st69" d="M390.7,192.4C390.7,192.4,390.7,192.4,390.7,192.4c0.4,0.3,1,0.1,1.6-0.3c-0.1,0.1-0.1,0.2-0.2,0.3
					c0,0,0.1-0.1,0.1-0.1c0.8-0.7,2.1-2.3,2.1-2.3S391.8,191.7,390.7,192.4z"/>
				<path class="st69" d="M390.1,190.6c0.7,0.8,2.4-1.5,2.7-1.6c0,0,0,0,0,0c0.8-0.9,1-1.4,0.7-1.2C393.2,188,390.9,190,390.1,190.6
					z"/>
			</g>
		</g>
		<g>
			
				<linearGradient id="SVGID_31_" gradientUnits="userSpaceOnUse" x1="138.0518" y1="138.8234" x2="137.1941" y2="131.3582" gradientTransform="matrix(-1 0 0 1 523.8077 0)">
				<stop  offset="0" style="stop-color:#EEC4A0"/>
				<stop  offset="1" style="stop-color:#EDA688"/>
			</linearGradient>
			<path class="st70" d="M384.3,137c0,0.9,0.1,1.2,0.1,1.2s2.4,0.6,3.4-2.3c0.4-1.2,0.3-2,0-2.5c-0.4-0.7-1.3-0.8-1.7-0.7
				c-0.7,0.2-1.4,1.2-1.6,2.5C384.3,136,384.3,136.6,384.3,137z"/>
			<path class="st69" d="M384.3,137c0.3-0.5,0.6-1,0.9-1.4c0.8-1.4,1.5-2,2.6-2.2c-0.4-0.7-1.3-0.8-1.7-0.7
				c-0.7,0.2-1.4,1.2-1.6,2.5C384.3,136,384.3,136.6,384.3,137z"/>
		</g>
		<path class="st69" d="M368.2,131.4c0,0.2,0.1,0.5,0.1,0.8c1,0.2,2.3,0,3.6-0.6c1.8-0.8,3-2.1,3-2.1s0.7,1.9,3.1,2.2
			c2.4,0.3,3.7,0,3.7,0s1.1,3.7-0.2,6c-0.7,1.4-2.1,2.7-3.1,3.4c2.2-1.2,3.9-3,4.4-4.4c0.6-1.9-0.5-5.8-0.5-5.8s-3,0.1-4.6-0.5
			c-1.6-0.6-2.7-2.4-2.7-2.4s-1.7,2.7-5,3.2C369.4,131.5,368.8,131.5,368.2,131.4z"/>
		<path class="st71" d="M386.9,133.6c0,0-1.8,1.6-1.8,3.4c0,0,1.1-0.1,1.4-0.5c0.2-0.5-0.4-1-0.4-1L386.9,133.6z"/>
		
			<linearGradient id="SVGID_32_" gradientUnits="userSpaceOnUse" x1="152.1808" y1="123.9173" x2="149.3805" y2="126.7916" gradientTransform="matrix(-1 0 0 1 523.8077 0)">
			<stop  offset="0" style="stop-color:#AF5106"/>
			<stop  offset="0.995" style="stop-color:#8F3305"/>
		</linearGradient>
		<path class="st72" d="M372.1,130.7c0.3-0.2,0.6-0.3,0.8-0.5c-0.4-1.2-0.9-3.2-0.5-4.8c0.4-1.8,1.4-3.2,2.7-4.2
			c-0.5,0.1-1.1,0.3-1.7,0.6l0,0c-0.5,0.8-1.2,2.1-1.7,3.7C371.1,127.7,371.6,129.6,372.1,130.7z"/>
		
			<linearGradient id="SVGID_33_" gradientUnits="userSpaceOnUse" x1="158.4074" y1="125.3569" x2="154.3212" y2="129.5512" gradientTransform="matrix(-1 0 0 1 523.8077 0)">
			<stop  offset="0" style="stop-color:#AF5106"/>
			<stop  offset="0.995" style="stop-color:#8F3305"/>
		</linearGradient>
		<path class="st73" d="M365.3,124.8c2.3,1.9,3.7,4.2,4.2,6.6c0.2,0,0.3,0,0.5-0.1c0.2,0,0.5-0.1,0.7-0.2c-0.1-1-0.5-2.4-1.6-3.8
			c-0.7-1-1.5-1.7-2.1-2.4C366.4,124.9,365.7,124.8,365.3,124.8z"/>
		
			<linearGradient id="SVGID_34_" gradientUnits="userSpaceOnUse" x1="147.5927" y1="124.3826" x2="144.7995" y2="127.2498" gradientTransform="matrix(-1 0 0 1 523.8077 0)">
			<stop  offset="0" style="stop-color:#AF5106"/>
			<stop  offset="0.995" style="stop-color:#8F3305"/>
		</linearGradient>
		<path class="st74" d="M376.6,129.9c0.3,0.2,0.7,0.5,1.1,0.6c0.9-0.9,1.8-2.3,2-4.1c0.2-1.6,0.1-2.9,0-3.8
			c-0.4-0.3-0.8-0.5-1.3-0.8C378.9,124.1,378.6,127.9,376.6,129.9z"/>
		
			<linearGradient id="SVGID_35_" gradientUnits="userSpaceOnUse" x1="152.3514" y1="144.6924" x2="148.0622" y2="149.0951" gradientTransform="matrix(-1 0 0 1 523.8077 0)">
			<stop  offset="0" style="stop-color:#AF5106"/>
			<stop  offset="0.995" style="stop-color:#8F3305"/>
		</linearGradient>
		<path class="st75" d="M372.1,143.4c0.1,0.8,0.2,2.2,0.7,4.1c0.4,1.6,1.1,2.8,1.6,3.7c0.4,0.2,0.7,0.4,1.1,0.5
			c0.2,0,0.4,0.1,0.6,0.1c-1.9-2-2.8-6-2.9-8.6C372.8,143.2,372.4,143.3,372.1,143.4z"/>
		
			<linearGradient id="SVGID_36_" gradientUnits="userSpaceOnUse" x1="147.754" y1="143.9156" x2="143.9722" y2="147.7975" gradientTransform="matrix(-1 0 0 1 523.8077 0)">
			<stop  offset="0" style="stop-color:#AF5106"/>
			<stop  offset="0.995" style="stop-color:#8F3305"/>
		</linearGradient>
		<path class="st76" d="M378.3,148.8c-0.1,1.1-0.2,2-0.4,2.7c0.4-0.1,0.8-0.2,1.1-0.4c0.3-1.3,0.6-3.2,0.3-5.2
			c-0.3-2.1-0.5-3.8-0.6-4.9c-0.3,0.2-0.6,0.3-0.9,0.5C378.3,143.6,378.5,146.5,378.3,148.8z"/>
		
			<linearGradient id="SVGID_37_" gradientUnits="userSpaceOnUse" x1="143.9225" y1="141.0569" x2="140.0928" y2="144.988" gradientTransform="matrix(-1 0 0 1 523.8077 0)">
			<stop  offset="0" style="stop-color:#AF5106"/>
			<stop  offset="0.995" style="stop-color:#8F3305"/>
		</linearGradient>
		<path class="st77" d="M380.8,139.5C380.8,139.5,380.8,139.5,380.8,139.5c0.8,1.9,2.1,5.7,2.3,8.7c0.3-0.4,0.6-0.9,0.9-1.3
			c0-1.1-0.2-2.3-0.7-3.7c-0.7-1.9-1.4-3.4-1.8-4.4C381.3,139.1,381.1,139.3,380.8,139.5z"/>
		
			<linearGradient id="SVGID_38_" gradientUnits="userSpaceOnUse" x1="135.2425" y1="148.8563" x2="134.6021" y2="144.2984" gradientTransform="matrix(-1 0 0 1 523.8077 0)">
			<stop  offset="0" style="stop-color:#80D3BF"/>
			<stop  offset="1" style="stop-color:#72C3C0"/>
		</linearGradient>
		<path class="st78" d="M387.6,144.5c-0.3,0.7-0.6,2.1-0.8,4.1c0.8-0.2,2.3-2.3,4.2-3.6C389.3,144.5,388,144.5,387.6,144.5z"/>
		
			<linearGradient id="SVGID_39_" gradientUnits="userSpaceOnUse" x1="143.8064" y1="152.7909" x2="142.6389" y2="144.4813" gradientTransform="matrix(-1 0 0 1 523.8077 0)">
			<stop  offset="0" style="stop-color:#80D3BF"/>
			<stop  offset="1" style="stop-color:#72C3C0"/>
		</linearGradient>
		<path class="st79" d="M375.6,151.6C375.6,151.6,375.6,151.6,375.6,151.6c0,0.2,0,0.4,0,0.6c0.2,0,1.3,0,4.3,0.1
			c1.8,0.1,3.6-1,4.9-1.9c0.2-1.9,0.5-3.5,0.8-4.7c-0.4,0.7-1,1.6-1.5,1.9c-0.7,0.4-1.2,0.9-1.4,1.1
			C380.6,150.9,377.5,152,375.6,151.6z"/>
		
			<linearGradient id="SVGID_40_" gradientUnits="userSpaceOnUse" x1="150.2654" y1="151.4681" x2="150.1705" y2="150.7927" gradientTransform="matrix(-1 0 0 1 523.8077 0)">
			<stop  offset="0" style="stop-color:#80D3BF"/>
			<stop  offset="1" style="stop-color:#72C3C0"/>
		</linearGradient>
		<path class="st80" d="M373.2,151.2c0.2,0.1,0.5,0.2,0.7,0.3c0-0.2,0-0.5-0.1-0.7C373.7,151,373.5,151.1,373.2,151.2z"/>
		
			<linearGradient id="SVGID_41_" gradientUnits="userSpaceOnUse" x1="171.8447" y1="293.4933" x2="176.5803" y2="238.6518" gradientTransform="matrix(-1 0 0 1 523.8077 0)">
			<stop  offset="5.000000e-03" style="stop-color:#1A56A4"/>
			<stop  offset="1" style="stop-color:#084D98"/>
		</linearGradient>
		<path class="st81" d="M339.3,246.5c0,0,3.6,9.9,5,18.1c1.4,8.2,2.8,22.8,2.8,22.8l1.1-0.4l3-1.1c0,0,4.7-16.8,4.4-27.8
			c-0.3-11-5.8-14.7-5.8-14.7c0.7-2.5,2-9.7,3-16.1c0.7-4.7,1.2-9,1.2-10.6c0,0-4.8,12.1-7.7,17.2
			C343.3,238.9,339.3,246.5,339.3,246.5z"/>
		
			<linearGradient id="SVGID_42_" gradientUnits="userSpaceOnUse" x1="237.6611" y1="173.8687" x2="233.9098" y2="195.2513" gradientTransform="matrix(-1 0 0 1 523.8077 0)">
			<stop  offset="0" style="stop-color:#EEC4A0"/>
			<stop  offset="1" style="stop-color:#EDA688"/>
		</linearGradient>
		<path class="st82" d="M284.6,176.5c1.8,0,5.9,2.6,7.5,2.9c-1,0-2.3-0.4-4.2-1.7c-2.3-1.5-4-0.9-4.7,0.3c-0.8,1.2,1.3,7.8,1.3,7.8
			c-0.1,0-0.1,0-0.2,0c-0.6-0.6-1-1.3-1.3-2C281.8,180.5,282.5,176.5,284.6,176.5z"/>
		
			<linearGradient id="SVGID_43_" gradientUnits="userSpaceOnUse" x1="227.9593" y1="172.165" x2="224.207" y2="193.5531" gradientTransform="matrix(-1 0 0 1 523.8077 0)">
			<stop  offset="0" style="stop-color:#EEC4A0"/>
			<stop  offset="1" style="stop-color:#EDA688"/>
		</linearGradient>
		<path class="st83" d="M298,178.5c0,0,0.3-1.5-1.4-3.2c-1.7-1.7-2.6-1.8-3.1-0.3c-0.5,1.5,0.2,4.3-0.9,4.4c0.8-0.6-0.8-3.7,0-4.9
			c0.8-1.2,3.7-1.5,4.9,0.3c1.2,1.8,1.1,3.4,1.1,3.4s2.3-1.1,2.3-2.1C301.6,177.3,298,178.5,298,178.5z"/>
		
			<linearGradient id="SVGID_44_" gradientUnits="userSpaceOnUse" x1="170.9845" y1="177.6185" x2="222.4043" y2="177.6185" gradientTransform="matrix(-1 0 0 1 523.8077 0)">
			<stop  offset="0" style="stop-color:#D5C6B0"/>
			<stop  offset="0.99" style="stop-color:#C7B5A4"/>
		</linearGradient>
		<path class="st84" d="M302.9,179c0,0-0.2-0.8,1.1-1.8c0.2-0.2,0.8-0.5,2-0.9C304.2,177,303.1,178,302.9,179z"/>
		<g>
			
				<linearGradient id="SVGID_45_" gradientUnits="userSpaceOnUse" x1="170.9256" y1="185.7396" x2="222.4067" y2="185.7396" gradientTransform="matrix(-1 0 0 1 523.8077 0)">
				<stop  offset="0" style="stop-color:#D5C6B0"/>
				<stop  offset="0.99" style="stop-color:#C7B5A4"/>
			</linearGradient>
			<path class="st85" d="M342.6,183.4c-5-5.1-9.2-8.7-20.6-9.1c-3.5-0.1-6.6,0-9.3,0.3c3.7-0.5,8.6-0.8,14.3-0.1
				c13.7,1.7,24.4,17.9,25.8,22.6c0,0,0,0.1-0.1,0.2C352,195.9,348,188.8,342.6,183.4z"/>
			
				<linearGradient id="SVGID_46_" gradientUnits="userSpaceOnUse" x1="170.924" y1="192.9265" x2="222.4077" y2="192.9265" gradientTransform="matrix(-1 0 0 1 523.8077 0)">
				<stop  offset="0" style="stop-color:#D5C6B0"/>
				<stop  offset="0.99" style="stop-color:#C7B5A4"/>
			</linearGradient>
			<path class="st86" d="M301.4,201.9c1.1,0.9,2.8,4.1,3.9,6.3c0.6,1.2,1,2.1,1,2.1l4-1.2c3.1-1.8,6.7-12.5,6.7-12.5
				c0.2-1.5,0.3-3,0.3-3s11.8,9.4,17.4,11.5c5.2,2,10.4,3.3,11,3.4c1.5-1.7,2.9-3.7,4-5.6c1-1.6,1.7-3,2.3-4.1
				c-1.5-2.4-12.8-19.6-21.9-22c-9.2-2.5-21.6-0.9-24.5,0.8c-0.2,0.1-0.3,0.2-0.4,0.3c-1.8,1.8-1.9,6-1.9,6.9
				c0.1,1.5,0.2,3.2,0.3,4.6c0,0,0,0,0,0c0,0.2,0,0.3,0,0.4c0.3,4.6,0.2,9.2,0.2,10.1S301.4,201.9,301.4,201.9z"/>
		</g>
		
			<linearGradient id="SVGID_47_" gradientUnits="userSpaceOnUse" x1="214.1887" y1="179.234" x2="207.5643" y2="283.0742" gradientTransform="matrix(-1 0 0 1 523.8077 0)">
			<stop  offset="5.000000e-03" style="stop-color:#135DA4"/>
			<stop  offset="1" style="stop-color:#084D98"/>
		</linearGradient>
		<path class="st87" d="M312.8,174.6c-3,0.4-5.4,1.1-6.9,1.6C307.6,175.5,309.9,175,312.8,174.6z"/>
		
			<linearGradient id="SVGID_48_" gradientUnits="userSpaceOnUse" x1="208.1814" y1="271.5513" x2="193.974" y2="191.3479" gradientTransform="matrix(-1 0 0 1 523.8077 0)">
			<stop  offset="5.000000e-03" style="stop-color:#135DA4"/>
			<stop  offset="1" style="stop-color:#084D98"/>
		</linearGradient>
		<path class="st88" d="M302.8,181c0,2.1,0.5,3.9,0.5,3.9c0-0.9,0.1-5.1,1.9-6.9c1.8-1.8,15.2-3.8,24.9-1.1c1.2,0.3,2.5,0.9,3.8,1.8
			c8.2,5.1,16.8,18.2,18.1,20.3c-0.9,1.7-2.4,4.5-4.3,7.1c0,0,0,0,0,0c-0.6,0.9-1.3,1.7-2,2.5c0,0,0,0-0.1,0
			c-0.9-0.2-5.9-1.5-11-3.4c-1.6-0.6-3.8-1.9-6.1-3.3c-5.4-3.5-11.3-8.2-11.3-8.2s-0.1,1.5-0.3,3c0,0,4,4.3,6.4,8.2
			c1.8,3,5.9,8.3,7.8,10.7c0.6,0.8,1,1.3,1,1.3s-0.1,0.3-0.2,0.8c-0.9,4.4-5.4,25.5-7.8,34.8c-2.6,10.4-9,33.8-9,33.8l0.3,0l1,0
			l1.2,0.1l0.5,0c0,0,8.7-10.5,14.5-19.7c5.8-9.2,5.8-19.4,5.8-19.4c3.8-3.7,13.9-24.9,15.9-31.8c1.3-4.5,0.6-10.1-0.3-14
			c-0.4-1.9-0.9-3.4-1.2-4.1c0-0.1-0.1-0.1-0.1-0.2c0,0,0,0.1-0.1,0.2c-0.8-1.4-4.8-8.5-10.1-14c-2.1-2.2-4.1-4-6.5-5.5
			c-3.3-2-7.5-3.3-14-3.5c-3.5-0.1-6.6,0-9.3,0.3c-3,0.4-5.3,1.1-6.9,1.6c-1.8,0.8-2.8,1.7-3,2.7C302.8,179.7,302.8,180.4,302.8,181
			z"/>
		
			<linearGradient id="SVGID_49_" gradientUnits="userSpaceOnUse" x1="207.9203" y1="239.2401" x2="193.1416" y2="196.3968" gradientTransform="matrix(-1 0 0 1 523.8077 0)">
			<stop  offset="0" style="stop-color:#D5C6B0"/>
			<stop  offset="0.99" style="stop-color:#C7B5A4"/>
		</linearGradient>
		<path class="st89" d="M305.3,208.2c0.6,1.2,1,2.1,1,2.1l4-1.2c3.1-1.8,6.7-12.5,6.7-12.5c0.2-1.5,0.3-3,0.3-3s11.8,9.4,17.4,11.5
			c5.2,2,10.4,3.3,11,3.4c1.5-1.7,2.9-3.7,4-5.6c-1.9,2.2-3.4,4-3.4,4s-8.7-3.7-14.8-7.5c-6.1-3.8-13.7-8.1-13.7-8.1
			c0-3.2-1.5-7.8-1.5-7.8s0.2,4.7-1.1,9.9c-1.2,5.2-5.5,13-5.5,13S306.7,207.7,305.3,208.2z"/>
		
			<linearGradient id="SVGID_50_" gradientUnits="userSpaceOnUse" x1="220.5755" y1="182.73" x2="276.561" y2="182.73" gradientTransform="matrix(-1 0 0 1 523.8077 0)">
			<stop  offset="0" style="stop-color:#EEC4A0"/>
			<stop  offset="1" style="stop-color:#EDA688"/>
		</linearGradient>
		<path class="st90" d="M283.2,178.1c0.8-1.2,2.4-1.8,4.7-0.3c1.9,1.3,3.2,1.7,4.2,1.7c0.3,0.1,0.5,0.1,0.6,0c0.8-0.6-0.8-3.7,0-4.9
			c0.8-1.2,3.7-1.5,4.9,0.3c1.2,1.8,1.1,3.4,1.1,3.4s2.3-1.1,2.3-2.1l1.4,2c0.1,0.3,0.7,0.5,0.7,0.5l0.2,6.3l-0.3,0.5
			c0,0.5,0,0.9-0.1,1.3c0,0.1-0.1,0.2-0.1,0.3c-1.2,2.5-4.6,4-9,3.2c-0.2,0-0.3-0.1-0.5-0.1l-1.4,1.8c-0.1-1.1-2.2-2.6-3.1-3.2
			c-1.7-0.7-3.2-1.7-4.3-2.8c0.1,0,0.1,0,0.2,0c0,0-1-3.3-1.4-5.7v0C283,179.2,283,178.4,283.2,178.1z"/>
		
			<linearGradient id="SVGID_51_" gradientUnits="userSpaceOnUse" x1="224.7567" y1="198.6922" x2="218.5883" y2="180.8103" gradientTransform="matrix(-1 0 0 1 523.8077 0)">
			<stop  offset="0" style="stop-color:#D5C6B0"/>
			<stop  offset="0.99" style="stop-color:#C7B5A4"/>
		</linearGradient>
		<path class="st91" d="M303.2,184.9c0.1,1.5,0.2,3.2,0.3,4.6c0.6-1.1,1.2-2.5,1.4-4c0.5-3.1,0.7-5.7,0.7-7.9
			c-0.2,0.1-0.3,0.2-0.4,0.3C303.3,179.8,303.2,184,303.2,184.9z"/>
		
			<linearGradient id="SVGID_52_" gradientUnits="userSpaceOnUse" x1="200.3168" y1="196.8685" x2="194.8284" y2="282.9006" gradientTransform="matrix(-1 0 0 1 523.8077 0)">
			<stop  offset="0" style="stop-color:#1A5DB6"/>
			<stop  offset="0.995" style="stop-color:#0854A6"/>
		</linearGradient>
		<path class="st92" d="M315.3,286.2l1.3,0.1c1.5-4.3,4.9-14.6,7.4-21.9c3.2-9.5,4.9-15.3,8.4-26.1c3.5-10.8,6-26,6-26
			c-2.1-1-6.3-6-9.8-10.6c-5.4-3.5-11.3-8.2-11.3-8.2s-0.1,1.5-0.3,3c0,0,4,4.3,6.4,8.2c2.4,4,8.9,12.1,8.9,12.1s-5.3,25.2-7.9,35.6
			C321.7,262.9,315.3,286.2,315.3,286.2z"/>
		
			<linearGradient id="SVGID_53_" gradientUnits="userSpaceOnUse" x1="177.9254" y1="220.0538" x2="173.764" y2="285.2855" gradientTransform="matrix(-1 0 0 1 523.8077 0)">
			<stop  offset="0" style="stop-color:#1A5DB6"/>
			<stop  offset="0.995" style="stop-color:#0854A6"/>
		</linearGradient>
		<path class="st93" d="M339.3,246.5c0,0,3.6,9.9,5,18.1c1.4,8.2,2.8,22.8,2.8,22.8l1.1-0.4c0.1-3.4,0.4-16-0.2-22.7
			c-0.6-7.8-4.1-16.7-4.1-16.7s2.3-4,4.3-7.8c1.4-2.7,3.2-7.9,4.6-12.6c0.7-4.7,1.2-9,1.2-10.6c0,0-4.8,12.1-7.7,17.2
			C343.3,238.9,339.3,246.5,339.3,246.5z"/>
		<g>
			
				<linearGradient id="SVGID_54_" gradientUnits="userSpaceOnUse" x1="181.276" y1="285.3311" x2="176.8997" y2="292.9644" gradientTransform="matrix(-1 0 0 1 523.8077 0)">
				<stop  offset="0.9166" style="stop-color:#29536F"/>
				<stop  offset="1" style="stop-color:#436875"/>
			</linearGradient>
			<path class="st94" d="M337.6,291.3c0,0,3,0.6,6.3,0.7c0.3,0,0.7,0,1.1,0c3.7,0,6.7-1.8,6.7-1.8c0.3-0.8-0.5-4.3-0.5-4.3
				s-0.6,0.1-2.1,0.2c-0.5,0-0.9,0-1.2,0c-0.6-0.1-0.8-0.2-0.8-0.2C345.4,287.5,337.6,291.3,337.6,291.3z"/>
			
				<linearGradient id="SVGID_55_" gradientUnits="userSpaceOnUse" x1="182.0731" y1="286.9663" x2="179.3503" y2="291.7155" gradientTransform="matrix(-1 0 0 1 523.8077 0)">
				<stop  offset="0.9166" style="stop-color:#29536F"/>
				<stop  offset="1" style="stop-color:#436875"/>
			</linearGradient>
			<path class="st95" d="M337.6,291.3c0,0,3,0.6,6.3,0.7l2.3-2.3c0,0,1.1-1.7,1.7-3.6c-0.6-0.1-0.8-0.2-0.8-0.2
				C345.4,287.5,337.6,291.3,337.6,291.3z"/>
		</g>
		<g>
			
				<linearGradient id="SVGID_56_" gradientUnits="userSpaceOnUse" x1="189.5737" y1="142.0321" x2="190.1463" y2="148.2539" gradientTransform="matrix(-1 0 0 1 523.8077 0)">
				<stop  offset="0" style="stop-color:#EEC4A0"/>
				<stop  offset="1" style="stop-color:#EDA688"/>
			</linearGradient>
			<path class="st96" d="M332.5,149.4c0.2,0.2,0.4,0.3,0.5,0.3c0.5-0.1,1-1.4,1.2-2.2c0.3-1.1,0.9-2.8,1.1-3.1
				c0.1-0.2,0.2-0.6,0.1-0.8c-0.1-0.2-0.2-0.4-0.6-0.4C333.9,143.1,331.7,148.4,332.5,149.4z"/>
			<path class="st69" d="M333,149.7c0.5-0.1,1-1.4,1.2-2.2c0.3-1.1,0.9-2.8,1.1-3.1c0.1-0.2,0.2-0.6,0.1-0.8
				C334,145.5,332.7,147.5,333,149.7z"/>
		</g>
		<g>
			
				<linearGradient id="SVGID_57_" gradientUnits="userSpaceOnUse" x1="190.8288" y1="141.8665" x2="191.4082" y2="148.1631" gradientTransform="matrix(-1 0 0 1 523.8077 0)">
				<stop  offset="0" style="stop-color:#EEC4A0"/>
				<stop  offset="1" style="stop-color:#EDA688"/>
			</linearGradient>
			<path class="st97" d="M331.3,149.2c0.1,0.1,0.2,0.2,0.4,0.1c0.7-0.3,1.7-3.1,2.2-4.9c0.1-0.3,0-0.6-0.1-0.8
				c-0.2-0.2-0.5-0.2-0.9,0C332.3,143.9,330.6,148.3,331.3,149.2z"/>
			<path class="st69" d="M331.7,149.3c0.7-0.3,1.7-3.1,2.2-4.9c0.1-0.3,0-0.6-0.1-0.8C333,144.9,331.8,147.2,331.7,149.3z"/>
		</g>
		<g>
			
				<linearGradient id="SVGID_58_" gradientUnits="userSpaceOnUse" x1="192.0249" y1="141.7287" x2="192.6067" y2="148.0506" gradientTransform="matrix(-1 0 0 1 523.8077 0)">
				<stop  offset="0" style="stop-color:#EEC4A0"/>
				<stop  offset="1" style="stop-color:#EDA688"/>
			</linearGradient>
			<path class="st98" d="M330.4,149c0.1,0.1,0.2,0,0.4-0.1c0.5-0.4,1.2-1.7,1.6-3.7c0.1-0.4,0-0.8-0.2-1.1c-0.2-0.2-0.5-0.3-0.9,0.1
				C330.6,145.1,330,148.8,330.4,149z"/>
			<path class="st69" d="M330.8,148.9c0.5-0.4,1.2-1.7,1.6-3.7c0.1-0.4,0-0.8-0.2-1.1c-0.7,1.4-1,2.4-1.1,3.5
				C330.9,148.2,330.8,148.6,330.8,148.9z"/>
		</g>
		<g>
			
				<linearGradient id="SVGID_59_" gradientUnits="userSpaceOnUse" x1="207.6824" y1="297.2943" x2="213.5861" y2="287.8282" gradientTransform="matrix(-1 0 0 1 523.8077 0)">
				<stop  offset="0" style="stop-color:#29536F"/>
				<stop  offset="1" style="stop-color:#436875"/>
			</linearGradient>
			<path class="st99" d="M304,292.3c0,0,2.4,0.4,5.1,0.6c0.9,0.1,1.8,0.1,2.7,0c3.5-0.1,7-2,7-2s0-3-0.5-4.6l-2.3-0.1l-0.8,0
				C312.4,288.4,304,292.3,304,292.3z"/>
			
				<linearGradient id="SVGID_60_" gradientUnits="userSpaceOnUse" x1="214.6246" y1="287.8121" x2="212.4408" y2="291.6211" gradientTransform="matrix(-1 0 0 1 523.8077 0)">
				<stop  offset="0.9166" style="stop-color:#29536F"/>
				<stop  offset="1" style="stop-color:#436875"/>
			</linearGradient>
			<path class="st100" d="M304,292.3c0,0,2.4,0.4,5.1,0.6l3.2-2.7c0,0,2.3-1.1,3.8-3.9l-0.8,0C312.4,288.4,304,292.3,304,292.3z"/>
		</g>
		<path class="st101" d="M302.9,179c0,0,0.1,2.7,0.3,5.9c0-0.9,0.1-5.1,1.9-6.9c1.8-1.8,15.2-3.8,24.9-1.1c1.2,0.3,2.5,0.9,3.8,1.8
			c0.8-0.3,1.5-0.5,2.2-0.8c-3.3-2-7.5-3.3-14-3.5c-3.5-0.1-6.6,0-9.3,0.3c-3,0.4-5.3,1.1-6.9,1.6C304.2,177,303.1,178,302.9,179z"
			/>
		<path class="st69" d="M283.1,180.2c0.5-1.3,2.2-1.6,4.3-1c2.7,0.7,9.4,1,11.6,2.4c1.9,1.2,3.1,3.6,3.6,5.3
			c0.1-0.1,0.1-0.2,0.1-0.3c0.1-0.3,0.2-0.8,0.1-1.3l0.3-0.5l-0.2-6.3c0,0-0.6-0.2-0.7-0.5l-1.4-2c0,1.1-2.3,2.1-2.3,2.1
			s0.2-1.5-1.1-3.4c-1.2-1.8-4.1-1.5-4.9-0.3c-0.8,1.2,0.8,4.3,0,4.9c-0.1,0.1-0.3,0.1-0.6,0c-1,0-2.3-0.4-4.2-1.7
			c-2.3-1.5-4-0.9-4.7,0.3C283,178.4,283,179.2,283.1,180.2z"/>
		<path class="st69" d="M294.5,174.5c0,0.7,0.6,3.9,2.6,4.6c0,0,0.9-1.3,0.5-1.9c-0.5-0.7-1.1,0-1.1,0L294.5,174.5z"/>
		<g>
			<g>
				
					<linearGradient id="SVGID_61_" gradientUnits="userSpaceOnUse" x1="230.7134" y1="200.6487" x2="229.1862" y2="209.3539" gradientTransform="matrix(-1 0 0 1 523.8077 0)">
					<stop  offset="0" style="stop-color:#EEC4A0"/>
					<stop  offset="1" style="stop-color:#EDA688"/>
				</linearGradient>
				<path class="st102" d="M283.7,212c0.2,0.1,0.6-0.1,1-0.4c0.8-0.6,1.8-1.6,1.8-1.6s4.9,1.2,9.2,1.4c4.3,0.2,10.7-1.1,10.7-1.1
					s-0.3-1.3-0.9-2.7c-0.3-0.8-0.7-1.7-1.2-2.4c-1.4-2-2.8-3.4-2.8-3.4c-2.1,1.4-13.3,5.2-13.3,5.2s-1.7-1.4-2.3-2
					c-0.6-0.6-1.4,0-1.4,1.5C284.4,208.2,283.1,211.7,283.7,212z"/>
				
					<linearGradient id="SVGID_62_" gradientUnits="userSpaceOnUse" x1="240.8761" y1="202.7855" x2="239.348" y2="211.4957" gradientTransform="matrix(-1 0 0 1 523.8077 0)">
					<stop  offset="0" style="stop-color:#EEC4A0"/>
					<stop  offset="1" style="stop-color:#EDA688"/>
				</linearGradient>
				<path class="st103" d="M282.9,211.4C282.9,211.4,283,211.4,282.9,211.4c0.3,0,0.5-0.2,0.8-0.6c0.5-0.9,1.1-2.4,1.1-2.9
					c0-0.8,0.3-2.4,0.3-2.4c-0.2-0.6-0.8-2.9-1.4-0.8C283.1,206.8,282.3,211.1,282.9,211.4z"/>
				
					<linearGradient id="SVGID_63_" gradientUnits="userSpaceOnUse" x1="241.8354" y1="203.0264" x2="240.308" y2="211.733" gradientTransform="matrix(-1 0 0 1 523.8077 0)">
					<stop  offset="0" style="stop-color:#EEC4A0"/>
					<stop  offset="1" style="stop-color:#EDA688"/>
				</linearGradient>
				<path class="st104" d="M281.8,210.1c0.1,0.1,0.3,0.1,0.4,0c0.3-0.2,0.6-0.8,0.9-1.6c0.4-1,0.7-2.4,0.7-3.8c0,0-0.8-1.8-1.2-0.5
					C282.1,205.7,281.2,209.3,281.8,210.1z"/>
				
					<linearGradient id="SVGID_64_" gradientUnits="userSpaceOnUse" x1="242.7487" y1="202.9291" x2="241.221" y2="211.6374" gradientTransform="matrix(-1 0 0 1 523.8077 0)">
					<stop  offset="0" style="stop-color:#EEC4A0"/>
					<stop  offset="1" style="stop-color:#EDA688"/>
				</linearGradient>
				<path class="st105" d="M281,209.5c0.1,0.1,0.2,0.1,0.3,0c0,0,0,0,0,0c0.2-0.1,0.4-0.4,0.6-0.9c0.4-0.9,0.7-2.4,0.8-3.7
					c0.1-0.6-0.8-2-1.4-0.9C280.7,205.1,280.4,209.1,281,209.5z"/>
			</g>
			<path class="st69" d="M284.7,211.6c0.8-0.6,1.8-1.6,1.8-1.6s4.9,1.2,9.2,1.4c4.3,0.2,10.7-1.1,10.7-1.1s-0.3-1.3-0.9-2.7
				c-2.7,0.7-6.1,0.9-10.6,1.2c-4.9,0.3-8.6-0.6-8.6-0.6S285.4,210.2,284.7,211.6z"/>
			<path class="st69" d="M283,211.4c0.2,0,0.4-0.3,0.7-0.6c0.4-1.5,0.9-4.4,0.8-4.2C284.3,206.9,283.2,210.2,283,211.4z"/>
			<path class="st69" d="M282.2,210.1c0.3-0.2,0.6-0.8,0.9-1.6c0.2-1.2,0.4-2.5,0.3-2.4C283,206.1,282.4,208.7,282.2,210.1z"/>
			<path class="st69" d="M281.3,209.5c0.2-0.1,0.4-0.4,0.6-0.9c0.2-1.3,0.4-2.9,0.2-2.8C281.7,206,281.4,208.4,281.3,209.5z"/>
		</g>
		<g>
			
				<linearGradient id="SVGID_65_" gradientUnits="userSpaceOnUse" x1="235.062" y1="165.5156" x2="234.3498" y2="185.469" gradientTransform="matrix(-1 0 0 1 523.8077 0)">
				<stop  offset="0" style="stop-color:#5A2A1D"/>
				<stop  offset="1" style="stop-color:#5E301E"/>
			</linearGradient>
			<path class="st106" d="M277.3,175.9c0,0.8,0,1.5,0.1,2.2c0.1,0.9,0.3,1.8,0.7,2.6c1,2.7,3.1,4.6,6.2,5.1c0.1,0,0.1,0,0.2,0
				c0,0-0.3-0.9-0.6-2.2c-0.1-0.4-0.2-0.9-0.3-1.3c-0.2-1-0.4-2.1-0.5-2.9c-0.1-0.6,0-1.2,0.1-1.4c0-0.1,0.1-0.1,0.1-0.2
				c0.4-0.6,1-1,1.8-1c0.3,0,0.5,0,0.8,0c0.6,0.1,1.2,0.4,1.9,0.9c1,0.7,1.8,1.1,2.5,1.3c0.7,0.2,1.2,0.4,1.7,0.4c0.1,0,0.2,0,0.4,0
				c0.1,0,0.1,0,0.2,0c0.5-0.4,0-1.9-0.2-3.3c-0.1-0.6-0.1-1.2,0.2-1.6c0.8-1.2,3.7-1.5,4.9,0.3c1.2,1.8,1.1,3.4,1.1,3.4
				s2.3-1.1,2.3-2.1c-0.9-1.7-4.6-9.4-10.8-10.6c-0.3-0.1-0.6-0.1-0.9-0.1c0,0-0.1,0-0.1,0c-2.7-0.2-5.1,0.2-7,1.3
				c-0.4,0.2-0.7,0.4-1,0.7c0,0,0,0,0,0c-1.4,1-2.4,2.4-3,4.2c-0.2,0.6-0.4,1.3-0.5,2c0,0.2-0.1,0.4-0.1,0.6
				C277.4,174.7,277.3,175.3,277.3,175.9z"/>
			
				<linearGradient id="SVGID_66_" gradientUnits="userSpaceOnUse" x1="235.0555" y1="165.4134" x2="234.5923" y2="178.3901" gradientTransform="matrix(-1 0 0 1 523.8077 0)">
				<stop  offset="0" style="stop-color:#5A2A1D"/>
				<stop  offset="1" style="stop-color:#5E301E"/>
			</linearGradient>
			<path class="st107" d="M277.3,175.9c0.5-0.4,1-0.9,1.5-1.4c1.7-1.9,4.4-2.3,7.8-1.6c2.2,0.4,4.3,1.9,5.9,3.3
				c-0.1-0.6-0.1-1.2,0.2-1.6c0.8-1.2,3.7-1.5,4.9,0.3c1.2,1.8,1.1,3.4,1.1,3.4s2.3-1.1,2.3-2.1c-0.9-1.8-4.9-10.1-11.8-10.7
				c-6.5-0.6-11,2.7-11.7,8.7C277.4,174.7,277.3,175.3,277.3,175.9z"/>
			<g>
				
					<linearGradient id="SVGID_67_" gradientUnits="userSpaceOnUse" x1="243.2409" y1="178.1556" x2="243.0407" y2="183.7635" gradientTransform="matrix(-1 0 0 1 523.8077 0)">
					<stop  offset="0" style="stop-color:#5A2A1D"/>
					<stop  offset="1" style="stop-color:#5E301E"/>
				</linearGradient>
				<path class="st108" d="M277.5,178.2c0.1,0.9,0.3,1.8,0.7,2.6c0.6,0.5,1.4,1.1,2.3,1.5c1.6,0.7,2.8,1.2,3.5,1.5
					c-0.1-0.4-0.2-0.9-0.3-1.3c-1.6-0.4-3.4-0.8-4.9-2.6C278.2,179.2,277.8,178.6,277.5,178.2z"/>
				
					<linearGradient id="SVGID_68_" gradientUnits="userSpaceOnUse" x1="243.5196" y1="171.477" x2="243.234" y2="179.4781" gradientTransform="matrix(-1 0 0 1 523.8077 0)">
					<stop  offset="0" style="stop-color:#5A2A1D"/>
					<stop  offset="1" style="stop-color:#5E301E"/>
				</linearGradient>
				<path class="st109" d="M277.6,173.4c0.1,0.2,0.1,0.3,0.2,0.5c1.2,2.4,3.7,4.5,5.3,5.6c-0.1-0.6,0-1.2,0.1-1.4
					c0-0.1,0.1-0.1,0.1-0.2c-1.6-1.7-4.7-4.9-5.3-6.5C277.8,172.1,277.7,172.7,277.6,173.4z"/>
				
					<linearGradient id="SVGID_69_" gradientUnits="userSpaceOnUse" x1="240.4585" y1="166.7023" x2="240.0958" y2="176.8627" gradientTransform="matrix(-1 0 0 1 523.8077 0)">
					<stop  offset="0" style="stop-color:#5A2A1D"/>
					<stop  offset="1" style="stop-color:#5E301E"/>
				</linearGradient>
				<path class="st110" d="M281.1,167.3C281.1,167.3,281.1,167.3,281.1,167.3c0.1,1.4,0.3,3.2,1.1,4.8c1,2.1,2.1,3.7,3,4.8
					c0.3,0,0.5,0,0.8,0c-0.9-1.5-2-3.5-2.8-5.5c-0.8-1.8-1-3.5-1.1-4.8C281.7,166.8,281.4,167,281.1,167.3z"/>
				
					<linearGradient id="SVGID_70_" gradientUnits="userSpaceOnUse" x1="233.5367" y1="165.4941" x2="233.042" y2="179.3514" gradientTransform="matrix(-1 0 0 1 523.8077 0)">
					<stop  offset="0" style="stop-color:#5A2A1D"/>
					<stop  offset="1" style="stop-color:#5E301E"/>
				</linearGradient>
				<path class="st111" d="M290.4,179.1c0.7,0.2,1.2,0.4,1.7,0.4c0.1,0,0.2,0,0.4,0c-0.9-1.9-2.8-5.7-2.7-7.7
					c0.1-1.7,0.2-4.5,0.3-6.3c-0.3-0.1-0.6-0.1-0.9-0.1c0,0-0.1,0-0.1,0c0,2,0,5.2-0.2,6.9C288.6,174.4,289.4,177.3,290.4,179.1z"/>
			</g>
		</g>
		<path class="st61" d="M332.3,216.9c0,0-0.1,0.3-0.2,0.8c14.1-1.1,19.9-10.6,22.1-16.2c-0.4-1.9-0.9-3.4-1.2-4.1
			c-1,2.1-2.7,5.3-5.2,8.6c0,0,0,0,0,0c-0.5,0.7-1.1,1.4-1.7,2.1c-0.1,0.1-0.2,0.2-0.3,0.4c-4,4.4-10.9,6.3-14.4,7.1
			C331.9,216.4,332.3,216.9,332.3,216.9z"/>
		<g>
			
				<linearGradient id="SVGID_71_" gradientUnits="userSpaceOnUse" x1="172.2164" y1="165.6776" x2="169.3671" y2="140.8789" gradientTransform="matrix(-1 0 0 1 523.8077 0)">
				<stop  offset="0" style="stop-color:#EEC4A0"/>
				<stop  offset="1" style="stop-color:#EDA688"/>
			</linearGradient>
			<path class="st112" d="M333.4,149.1c0,0.3,0.1,0.5,0.2,0.6c0.6,0.3,1.8-1.8,1.8-1.8s0.2,1.7,1.1,3c0.9,1.2,2.1,0.6,2.1,0.6
				s1.7,1.6,5.6,5.1c3.9,3.5,10.8,7.7,15.6,8.7c4.8,0.9,9.7-1.3,12.2-2.4c-0.7-1.3-1.1-2-1.5-2.5c-0.4-0.6-0.7-1-1.3-2
				c-1.2-2-2.6-3.9-2.6-3.9c-1.5,1.1-5.8,1.7-5.8,1.7s-6-1.7-9.6-3.3c-3.6-1.5-11.7-5.1-11.7-5.1s-2.1-4.4-3.2-4.6
				c-1-0.2-2.4,3-2.4,3S333.4,148.1,333.4,149.1z"/>
			<path class="st69" d="M333.4,149.1c0,0.3,0.1,0.5,0.2,0.6c0.6,0.3,1.8-1.8,1.8-1.8s0.2,1.7,1.1,3c0.9,1.2,2.1,0.6,2.1,0.6
				s1.7,1.6,5.6,5.1c3.9,3.5,10.8,7.7,15.6,8.7c4.8,0.9,9.7-1.3,12.2-2.4c-0.7-1.3-1.1-2-1.5-2.5c-1.9,1.3-7.1,3.1-9.1,3.1
				c0,0-7.8-2-13.6-5.6c-5.8-3.6-9-7.1-9-7.1s-3.4-2.1-3.2-3.6C335.6,147.1,334.3,148.2,333.4,149.1z"/>
		</g>
		<g>
			<path class="st113" d="M371.6,135.7c0,0,0.7,1.6,0.9,1.8c0,0,0.3,0.1,1-0.1c0.2-0.1,0.4-0.1,0.7-0.3c1.1-0.5,1.8-1.1,1.8-1.1
				c-0.2-0.2-1.7-1.2-2.9-1.1c-0.1,0-0.2,0-0.3,0C371.8,135.1,371.6,135.7,371.6,135.7z"/>
			<path class="st114" d="M371.6,135.7c0,0,0.7,1.6,0.9,1.8c0,0,0.3,0.1,1-0.1c0.2-0.4,0.3-0.9,0.1-1.5c-0.1-0.4-0.4-0.8-0.7-1
				C371.8,135.1,371.6,135.7,371.6,135.7z"/>
			<path class="st115" d="M375.9,136.1c0-0.1-1.4-1.1-2.5-1.4c-1.1-0.3-2,0.4-2.1,0.9l0.2,0.3c0,0,0.1-0.5,1-0.7
				c0.9-0.2,1.4,0,2.1,0.4C375.5,135.9,375.9,136.1,375.9,136.1z"/>
			<path class="st116" d="M375.9,136.1c0,0-0.9-0.4-1.7-0.6c-0.8-0.2-1.5-0.1-2,0.1c-0.4,0.2-0.6,0.5-0.6,0.5l-0.1-0.3l-0.1-0.1
				c0,0,0.2-0.6,1.2-0.8c0.7-0.2,1.7,0.4,2.3,0.7C375.3,135.7,375.9,136.1,375.9,136.1z"/>
		</g>
		<path class="st69" d="M368.4,143.9c0.3,0.1,1.4-0.1,2.2-0.2c0.1-0.1,0.2-0.2,0.2-0.2s-0.1-0.6-0.9-0.5
			C369.3,143.1,368.7,143.7,368.4,143.9z"/>
		<g>
			<path class="st113" d="M287.5,186.1c0,0,1.7,0,1.9-0.1c0,0,0.2-0.2,0.3-0.9c0-0.2,0-0.5,0-0.7c0-1.2-0.3-2-0.3-2
				c-0.2,0.1-1.7,1-2.1,2.1c0,0.1-0.1,0.2-0.1,0.2C287.1,185.7,287.5,186.1,287.5,186.1z"/>
			<path class="st114" d="M287.5,186.1c0,0,1.7,0,1.9-0.1c0,0,0.2-0.2,0.3-0.9c-0.3-0.3-0.7-0.6-1.3-0.6c-0.4,0-0.8,0.1-1.1,0.3
				C287.1,185.7,287.5,186.1,287.5,186.1z"/>
			<path class="st115" d="M289.5,182.4c-0.1,0-1.5,0.8-2.2,1.6c-0.7,0.9-0.4,1.9,0,2.1l0.3-0.1c0,0-0.4-0.3-0.2-1.1
				c0.2-0.8,0.5-1.2,1.2-1.7C289.2,182.8,289.5,182.4,289.5,182.4z"/>
			<path class="st116" d="M289.5,182.4c0,0-0.7,0.7-1.2,1.3c-0.5,0.6-0.7,1.3-0.7,1.7c0,0.5,0.3,0.7,0.3,0.7l-0.3,0l-0.1,0
				c0,0-0.5-0.4-0.3-1.3c0.1-0.7,1-1.4,1.4-1.7C288.9,182.8,289.5,182.4,289.5,182.4z"/>
		</g>
		
			<linearGradient id="SVGID_72_" gradientUnits="userSpaceOnUse" x1="201.6417" y1="282.0301" x2="196.4549" y2="252.7493" gradientTransform="matrix(-1 0 0 1 523.8077 0)">
			<stop  offset="5.000000e-03" style="stop-color:#135DA4"/>
			<stop  offset="1" style="stop-color:#084D98"/>
		</linearGradient>
		<path class="st117" d="M315.6,286.2l1,0l1.2,0.1c1.8-3.4,6-10.4,9.7-17.3c4.7-9,6.5-21,6.5-21l-5.5,5.7c0,0-3.5,8.8-6.9,17.9
			C319.4,277.3,317.1,282.8,315.6,286.2z"/>
		
			<linearGradient id="SVGID_73_" gradientUnits="userSpaceOnUse" x1="271.4402" y1="220.1869" x2="296.3481" y2="220.1869" gradientTransform="matrix(-1 0 0 1 523.8077 0)">
			<stop  offset="0" style="stop-color:#FF6531"/>
			<stop  offset="1" style="stop-color:#FF591F"/>
		</linearGradient>
		<path class="st118" d="M252.4,229.2c-3.3-1.3-19.2-11.3-24.9-17.8l4.1-0.2c0,0,4.1,3.5,9.2,8.4
			C245.8,224.4,252.4,229.2,252.4,229.2z"/>
		<path class="st119" d="M221.4,267c0,2.2,1.2,4,2.6,3.9c1.4,0,2.5-1.8,2.5-4c0-2.2-1.2-4-2.6-3.9C222.4,263,221.3,264.8,221.4,267z
			"/>
		<path class="st119" d="M114,256.6c0,1.9,1,3.5,2.3,3.5c1.2,0,2.2-1.6,2.2-3.5c0-1.9-1-3.5-2.3-3.5C115,253.1,114,254.7,114,256.6z
			"/>
		
			<linearGradient id="SVGID_74_" gradientUnits="userSpaceOnUse" x1="238.7584" y1="181.4452" x2="238.5954" y2="186.0115" gradientTransform="matrix(-1 0 0 1 523.8077 0)">
			<stop  offset="0" style="stop-color:#5A2A1D"/>
			<stop  offset="1" style="stop-color:#5E301E"/>
		</linearGradient>
		<path class="st120" d="M285.8,186.1c-0.4-0.2-0.8-0.4-0.9-0.7c-0.2-0.3-0.8-2-0.1-3.3l0.9-0.7c0,0-0.1,0.5-0.2,2
			C285.4,184.9,285.8,186.1,285.8,186.1z"/>
		<g>
			<polygon class="st121" points="352.2,215.9 351.9,215.9 351,214.5 351.4,214.5 			"/>
			<path class="st121" d="M343.1,202.9c-1.1,0.7-1.2,1.6-0.7,2.5c0.5,0.9,1.5,1.1,1.5,1.1l1.4,2.2l2.8,4.9l0.1,0.2c0,0-0.6,0.9,0,2
				c0,0,0,0.1,0.1,0.1c0.6,1,1.3,1.2,1.3,1.2l0.4-0.1c0,0-0.9-0.4-1.4-1.1c0,0,0,0,0,0c-0.4-0.7,0-1.7,0-1.7l0-0.6l-0.1-0.2
				l-4.4-7.2c0,0-0.7,0.1-1.4-1C342,204.2,343.1,202.9,343.1,202.9z"/>
			<path class="st122" d="M348.6,213.6l-0.1-0.2c-0.1,0.1-0.3,0.2-0.4,0.2l0.1,0.2c0,0-0.6,0.9,0,2c0,0,0,0.1,0.1,0.1l0.4,0
				c0,0,0,0,0,0c-0.4-0.7,0-1.7,0-1.7L348.6,213.6z"/>
			
				<linearGradient id="SVGID_75_" gradientUnits="userSpaceOnUse" x1="1299.126" y1="103.4521" x2="1298.6016" y2="106.2756" gradientTransform="matrix(0.8593 -0.5116 -0.5116 -0.8593 -712.0137 969.8204)">
				<stop  offset="0" style="stop-color:#8D9596"/>
				<stop  offset="1" style="stop-color:#787878"/>
			</linearGradient>
			<path class="st123" d="M352.2,215.9l-0.8-1.4l-1.3,0l-0.9,1.2l0.7,1.3l0,0.1c-1.8-0.6-1.9-2.1-1.5-2.9c0.1-0.2,0.2-0.3,0.3-0.4
				c0.8-0.7,1.3-0.8,2-0.6c0.2,0.1,0.4,0.2,0.6,0.3C352.4,214,352.2,215.9,352.2,215.9z"/>
			
				<linearGradient id="SVGID_76_" gradientUnits="userSpaceOnUse" x1="1298.312" y1="103.6561" x2="1299.4296" y2="124.4895" gradientTransform="matrix(0.8593 -0.5116 -0.5116 -0.8593 -712.0137 969.8204)">
				<stop  offset="0" style="stop-color:#8D9596"/>
				<stop  offset="1" style="stop-color:#787878"/>
			</linearGradient>
			<path class="st124" d="M344.3,202.7c-1.6-0.1-2.2,1.4-1.7,2.5c0.5,1,1.5,1.1,1.5,1.1l0.8,1.4l0.2,0.3l3.4,5.8l0,0.5
				c0.1-0.2,0.2-0.3,0.3-0.4c0.8-0.7,1.3-0.8,2-0.6l0,0l-0.6-0.6l-3.3-5.4l-1.2-2C346,204.8,345.9,202.8,344.3,202.7z M344.9,203.2
				l0.6,1.5l-0.8,1l-1.1-0.1l-0.8-1l0.6-1.4L344.9,203.2z"/>
			<path class="st121" d="M344.9,203.2l-1.5,0l-0.1,0.2l1.3,0.1l0,0.1l0.5,1.1c0,0-0.6,1-0.6,1l0.2,0l0.8-1L344.9,203.2L344.9,203.2
				z"/>
			
				<linearGradient id="SVGID_77_" gradientUnits="userSpaceOnUse" x1="1297.1259" y1="105.3386" x2="1300.4397" y2="105.3386" gradientTransform="matrix(0.8593 -0.5116 -0.5116 -0.8593 -712.0137 969.8204)">
				<stop  offset="0" style="stop-color:#8D9596"/>
				<stop  offset="1" style="stop-color:#787878"/>
			</linearGradient>
			<path class="st125" d="M349.6,216.7l-0.7-1.1l1-1.3l1.5-0.1l0.6,1c0,0-0.4-2.8-2.5-1.6C347.4,214.9,349.4,216.6,349.6,216.7z"/>
			
				<linearGradient id="SVGID_78_" gradientUnits="userSpaceOnUse" x1="1298.5022" y1="116.07" x2="1299.3053" y2="107.2822" gradientTransform="matrix(0.8593 -0.5116 -0.5116 -0.8593 -712.0137 969.8204)">
				<stop  offset="0" style="stop-color:#8D9596"/>
				<stop  offset="1" style="stop-color:#787878"/>
			</linearGradient>
			<path class="st126" d="M350,212.8c0,0-0.1-0.2-0.3-0.4c-0.8-1.3-3.1-4.9-3.4-5.4c-0.4-0.6-0.9-1.4-0.9-1.4l-0.5,0.6
				c0,0-0.7,0.3-0.6,0.3c0.1,0,3.3,5.4,4.1,6.7c0.1,0.2,0.2,0.3,0.2,0.3s0,0,0,0C348.7,213.3,349.5,212.7,350,212.8z"/>
			<path class="st122" d="M344.9,203.3l-0.3,0.3l0.5,1.1c0,0-0.6,1-0.6,1l0.2,0l0.8-1L344.9,203.3z"/>
			
				<linearGradient id="SVGID_79_" gradientUnits="userSpaceOnUse" x1="1298.717" y1="117.2464" x2="1298.9618" y2="107.9159" gradientTransform="matrix(0.8593 -0.5116 -0.5116 -0.8593 -712.0137 969.8204)">
				<stop  offset="0" style="stop-color:#D4C6B0"/>
				<stop  offset="0.975" style="stop-color:#CDB09E"/>
			</linearGradient>
			<polygon class="st127" points="349.2,212.1 346.1,207.2 345.7,207.6 345.6,207.8 348.4,212.4 348.6,212.3 			"/>
			<path class="st128" d="M344.3,202.7c-1.6-0.1-2.2,1.4-1.7,2.5c0.5,1,1.5,1.1,1.5,1.1l0.8,1.4c0.5-0.1,1.3-0.3,1.9-0.5l-1.2-2
				C346,204.8,345.9,202.8,344.3,202.7z M344.9,203.2l0.6,1.5l-0.8,1l-1.1-0.1l-0.8-1l0.6-1.4L344.9,203.2z"/>
			<path class="st129" d="M350,212.8c0,0-0.1-0.2-0.3-0.4c-0.3,0.1-0.9,0.5-1.3,0.7c0.1,0.2,0.2,0.3,0.2,0.3s0,0,0,0
				C348.7,213.3,349.5,212.7,350,212.8z"/>
			<path class="st130" d="M348.6,212.3c-0.5-0.8-2.3-3.7-2.9-4.7l-0.2,0.2l2.8,4.6L348.6,212.3z"/>
		</g>
		
			<linearGradient id="SVGID_80_" gradientUnits="userSpaceOnUse" x1="177.1969" y1="211.6075" x2="176.4757" y2="207.5365" gradientTransform="matrix(-1 0 0 1 523.8077 0)">
			<stop  offset="5.000000e-03" style="stop-color:#135DA4"/>
			<stop  offset="1" style="stop-color:#084D98"/>
		</linearGradient>
		<path class="st131" d="M349.1,209.8c-1.1,1.2-2.1,2.1-2.8,2.5l-1.4-2.8c0,0,1.6-1.7,2.4-2.8L349.1,209.8z"/>
		<g>
			<path class="st101" d="M377,168.1l0.2,2.4l0.5,5.9l7.2-0.5l-0.3-5.6l-0.1-2.7C384.5,167.7,379.6,168.4,377,168.1z"/>
			<path class="st132" d="M377,168.1l0.2,2.4c2.6,0,5.9-0.2,7.4-0.2l-0.1-2.7C384.5,167.7,379.6,168.4,377,168.1z"/>
		</g>
		<path class="st113" d="M370.9,145.3c0,0,1.9,0.3,3.8-0.8c0,0-0.7,2.3-3.1,3.1C371.6,147.6,371,146.8,370.9,145.3z"/>
		<path class="st113" d="M293.6,190.1c0,0,1.5-1.4,2-2.9c0,0,0.8,1.5,0.2,3.1L293.6,190.1z"/>
	</g>
</g>
<g id="Layer_2">
	<g class="st133">
		<g>
			<path class="st134" d="M328.5,79.1c-2.1,0-4.1,0.4-5.9,1.1c-3.1-8.1-11-13.8-20.2-13.8c-1.7,0-3.4,0.2-5.1,0.6
				c-1.3-5.7-6.4-9.9-12.5-9.9c-6.8,0-12.4,5.3-12.8,12l0,0c-3.7-2.2-8.1-3.4-12.7-3.4c-13.7,0-24.9,10.8-25.5,24.4h104.9
				c2.6,0,4.1-3,2.4-5C338,81.4,333.5,79.1,328.5,79.1z M159.8,43c-7.2,0-13.5,4.3-16.2,10.6c-1.1-0.3-2.2-0.5-3.4-0.5
				c-5.1,0-9.5,3.4-10.9,8.1h48.2c0-0.1,0-0.3,0-0.4C177.6,50.9,169.6,43,159.8,43z M84.1,17.1c-2.4,0-4.7,0.6-6.7,1.6
				C74,10.1,65.6,4,55.8,4c-9.4,0-17.6,5.6-21.2,13.8c-1.4-0.4-2.9-0.7-4.4-0.7c-8.1,0-14.7,6.6-14.7,14.7c0,0.2,0,0.4,0,0.6h83.2
				c0-0.2,0-0.4,0-0.6C98.8,23.7,92.2,17.1,84.1,17.1z M392.4,31.3c-2.4,0-4.7,0.6-6.7,1.6c-3.4-8.6-11.8-14.7-21.6-14.7
				c-9.4,0-17.6,5.6-21.2,13.8c-1.4-0.4-2.9-0.7-4.4-0.7c-8.1,0-14.7,6.6-14.7,14.7c0,0.2,0,0.4,0,0.6h83.2c0-0.2,0-0.4,0-0.6
				C407.1,37.9,400.5,31.3,392.4,31.3z"/>
		</g>
	</g>
	<g>
		<path class="st134" d="M37.7,288.5c-10,0-18.2-8.2-18.2-18.2l-0.1-201c0-4.9,1.9-9.4,5.3-12.9c3.4-3.4,8-5.3,12.9-5.3l107.4,0
			c10,0,18.2,8.2,18.2,18.2l0.1,201c0,10-8.2,18.2-18.2,18.2L37.7,288.5L37.7,288.5z"/>
		<path d="M145,54c8.4,0,15.2,6.8,15.2,15.2l0.1,201c0,4.1-1.6,7.9-4.4,10.8c-2.9,2.9-6.7,4.5-10.7,4.5l-107.4,0
			c-8.4,0-15.2-6.8-15.2-15.2l-0.1-201c0-8.4,6.8-15.2,15.2-15.2L145,54L145,54L145,54 M145,48C144.9,48,144.9,48,145,48L37.6,48
			c-11.7,0-21.2,9.5-21.2,21.2l0.1,201c0,11.7,9.5,21.2,21.2,21.2c0,0,0,0,0,0l107.4,0c11.7,0,21.2-9.5,21.2-21.2l-0.1-201
			C166.1,57.5,156.7,48,145,48L145,48z"/>
	</g>
	<g>
		<g>
			<path class="st113" d="M71,182.1c0,0,0,1.3-0.7,2c-0.4,0.5-1.1,0.7-2.1,0.7h-5.7l0-0.1l-0.2,0.1c-0.3-0.1-0.9-0.9-0.9-3.3l0-20.3
				c0,0-0.1-4.1,2.1-6.5l1.9-2.1l-2.7-0.7c-0.2-0.1-5.3-1.5-4.3-5.9c0,0,0.4-1.8,1.8-2.4c1.2-0.6,3.1-0.3,5.4,1l1.6,0.8l5.2-10.8
				l0-0.1c0.1-0.3,3.1-7.1,13.8-7.1h5l2-3.4h-7c-12.6,0-16.5,8.3-16.9,9.1l-3.7,7.7c-2.6-1.1-4.9-1.2-6.8-0.3
				c-3,1.4-3.7,4.7-3.7,4.7c-1.1,4.7,1.8,7.6,4.5,9c-1.8,3.2-1.7,6.8-1.7,6.9v20.2c0,2.8,0.7,4.8,2,5.9c0.9,0.7,1.8,0.9,2.4,0.9
				c0.1,0,0.2,0,0.3,0h5.6c2.3,0,3.7-0.9,4.5-1.7c1.7-1.8,1.7-4.2,1.7-4.4v-1.2h24.2v-3.4H71L71,182.1z M76.1,155.9l-0.2-0.1
				c-2.7-1-4.8-1.1-6.2-0.1c-1.7,1.1-1.9,3.2-1.9,4.2c0,0.1,0,0.2,0,0.3c-0.2,2.1,0.2,3.7,1.2,4.9c1.3,1.5,2.9,1.6,3.1,1.6l8,0
				c4.3,0,4.4-3.1,4.4-4.3c0-0.2,0-0.3,0-0.5l0-0.2l0-0.2C84.2,158.8,82.3,158.1,76.1,155.9z M81.1,162.3c0,0.3,0,0.8-0.1,0.9
				c0,0-0.2,0.1-1,0.1h-7.8c-0.1,0-0.5-0.1-0.7-0.4c-0.4-0.5-0.5-1.3-0.4-2.4c0-0.1,0-0.3,0-0.5c0-0.5,0.1-1.3,0.4-1.5
				c0.1,0,0.8-0.4,3.2,0.5L75,159c4.4,1.6,5.9,2.2,6.1,2.8C81.1,162,81.1,162.2,81.1,162.3z M123.2,123.7c-1.4-1.4-2.8-1.9-3.9-1.5
				c-1.7,0.7-1.7,3-1.7,3.8v7.8l0,0.2c0,0,0.1,0.9-0.5,1.5c-0.6,0.7-1.7,1-3.2,1h-5.9l-0.2,0c0,0-0.8,0.1-1.3-0.4
				c-0.6-0.5-0.7-1.5-0.7-2.3V126c0-0.7-0.1-2.9-1.7-3.6c-1-0.4-2.1,0-3.4,1.2c-8.3,8.3-8.5,17.7-0.5,25.7c0.6,0.7,1.1,1.3,1.6,1.8
				c1.1,1.1,1.5,1.5,1.5,2.8v28.9c0,2.2,1.4,5.4,5.4,5.4c0.6,0,1.3,0,2,0.1c0.7,0,1.4,0.1,2.1,0.1c2,0,3.9-0.3,5.2-1.5
				c1-0.9,1.5-2.3,1.5-4l0-28.9c0-0.1,0.1-1.9,2.9-3.9l0.1-0.1c1.6-1.4,6-6.4,6.3-13C129.1,132.1,127.2,127.7,123.2,123.7z
				 M121,148.1c-3.8,2.7-3.9,5.6-3.9,5.9v28.9c0,1-0.2,1.8-0.7,2.2c-1,1-3.3,0.9-5.6,0.8c-0.7,0-1.4-0.1-2.1-0.1
				c-2.8,0-2.9-2.5-2.9-2.9v-28.9c0-2.2-1-3.3-2.2-4.5c-0.5-0.5-1-1-1.5-1.7l-0.1-0.1c-9-9-4.7-17.1,0.5-22.3
				c0.3-0.3,0.5-0.5,0.7-0.6c0.1,0.3,0.2,0.8,0.2,1.2v7.8c0,1.9,0.5,3.3,1.6,4.2c1.2,1.1,2.7,1,3.1,1h5.8c2.2,0,3.9-0.6,5-1.8
				c1.2-1.4,1.2-3,1.1-3.4V126c0-0.9,0.1-1.3,0.2-1.5c0.2,0.1,0.6,0.4,1.2,0.9c3.5,3.5,5.2,7.3,5,11.4
				C126.2,142.5,122.4,146.9,121,148.1z M110.3,180.9h2.5v-25.5h-2.5V180.9z"/>
		</g>
	</g>
	<path d="M117.2,201.8c0.3-0.6,0.4-1.2,0.4-1.7c0-0.1,0-0.2-0.1-0.3v-0.1c0.2-0.2,0.5-0.3,0.8-0.4c0.3-0.1,0.6-0.2,0.9-0.2
		c0.3,0,0.6,0.1,0.8,0.2c0.2,0.1,0.3,0.4,0.3,0.7c0,0.2-0.1,0.4-0.2,0.7c-0.1,0.3-0.2,0.6-0.4,0.9l-0.2,0.6c0.2-0.3,0.5-0.6,0.7-1
		c0.3-0.4,0.5-0.7,0.9-1c0.3-0.3,0.7-0.5,1-0.7c0.4-0.2,0.8-0.3,1.2-0.3c0.8,0,1.2,0.3,1.2,1c0,0.2,0,0.5-0.1,0.7
		c-0.1,0.2-0.1,0.4-0.2,0.6l-0.4,1.2c0.3-0.5,0.6-0.9,0.9-1.3c0.3-0.4,0.6-0.8,1-1.1c0.4-0.3,0.7-0.6,1.1-0.8
		c0.4-0.2,0.8-0.3,1.2-0.3s0.7,0.1,1,0.2c0.2,0.1,0.3,0.4,0.3,0.8c0,0.2,0,0.5-0.1,0.7c-0.1,0.2-0.1,0.4-0.2,0.6
		c-0.1,0.4-0.2,0.7-0.4,1.1c-0.1,0.4-0.3,0.8-0.4,1.2c-0.1,0.4-0.2,0.7-0.3,1c-0.1,0.3-0.1,0.6-0.1,0.8c0,0.1,0,0.1,0,0.2
		c0,0.1,0.1,0.1,0.2,0.1c0.2,0,0.4-0.1,0.6-0.3c0.2-0.2,0.5-0.4,0.7-0.6c0.2-0.2,0.5-0.4,0.6-0.7c0.2-0.2,0.3-0.4,0.4-0.5
		c0.2-0.2,0.4-0.3,0.7-0.3c0.3,0,0.5,0.1,0.5,0.3c0,0,0,0.1,0,0.1c-0.2,0.3-0.4,0.6-0.7,1c-0.3,0.4-0.6,0.8-1,1.2
		c-0.4,0.4-0.8,0.7-1.3,1c-0.4,0.3-0.9,0.4-1.3,0.4l-0.5-0.1c-0.5-0.1-0.8-0.4-1-0.8c-0.2-0.4-0.3-0.7-0.3-1.1c0-0.1,0-0.3,0-0.4
		c0-0.1,0.1-0.3,0.1-0.4c0-0.1,0-0.3,0.1-0.5c0.1-0.3,0.2-0.6,0.3-0.9c0.1-0.3,0.2-0.7,0.3-1c0.1-0.4,0.2-0.7,0.2-0.9
		c0,0,0-0.1,0.1-0.2c0-0.1,0-0.1,0-0.2c0-0.1,0-0.1-0.1-0.1c-0.1,0-0.3,0.1-0.4,0.3c-0.2,0.2-0.3,0.3-0.3,0.4
		c-0.3,0.3-0.6,0.7-0.9,1.2c-0.3,0.5-0.6,1-1,1.6c-0.3,0.6-0.6,1.1-0.8,1.6c-0.2,0.5-0.4,1-0.5,1.4c0,0.1-0.1,0.1-0.1,0.1
		c0,0-0.1,0-0.1,0c-0.6-0.1-1-0.3-1.3-0.5c-0.3-0.2-0.4-0.6-0.4-1.1c0-0.4,0.1-0.9,0.2-1.3c0.1-0.4,0.2-0.8,0.4-1.2
		c0.1-0.3,0.2-0.7,0.3-1c0.1-0.3,0.2-0.6,0.3-1c0,0,0-0.1,0-0.2c0-0.1,0-0.1,0-0.2c0-0.1,0-0.2-0.1-0.2c-0.1,0-0.3,0.1-0.6,0.4
		c-0.3,0.3-0.5,0.6-0.8,1.1c-0.3,0.4-0.6,0.9-0.9,1.4c-0.3,0.5-0.6,1-0.9,1.5c-0.3,0.5-0.5,0.9-0.6,1.3c-0.2,0.4-0.2,0.7-0.2,0.8
		c0,0.1-0.1,0.1-0.3,0.1c-0.1,0-0.3,0-0.5-0.1c-0.2-0.1-0.4-0.1-0.5-0.3c-0.2-0.1-0.3-0.3-0.4-0.5c-0.1-0.2-0.2-0.5-0.2-0.8
		c0-0.1,0-0.2,0-0.2c0-0.1,0-0.2,0-0.2c0-0.2,0.1-0.5,0.2-0.8c0.1-0.3,0.2-0.7,0.4-1.1C116.7,203.1,116.9,202.5,117.2,201.8z"/>
	<path d="M138.8,203.9c0,0,0,0.1-0.1,0.2c-0.1,0.1-0.1,0.2-0.2,0.3c-0.1,0.1-0.2,0.2-0.2,0.3s-0.1,0.2-0.2,0.2
		c-0.2,0.3-0.5,0.6-0.9,1c-0.4,0.3-0.8,0.6-1.3,0.9c-0.5,0.3-0.9,0.5-1.4,0.6c-0.5,0.2-1,0.3-1.4,0.3c-1,0-1.7-0.3-2.3-0.8
		c-0.5-0.5-0.8-1.2-0.8-2c0-0.6,0.1-1.2,0.4-1.8c0.3-0.7,0.6-1.3,1.1-1.8c0.5-0.6,1-1,1.6-1.4c0.6-0.4,1.3-0.6,2.1-0.6
		c0.6,0,1.1,0.1,1.5,0.4c0.4,0.3,0.6,0.7,0.6,1.2c0,0.4-0.1,0.8-0.3,1.2c-0.2,0.4-0.5,0.8-0.8,1.1c-0.3,0.3-0.7,0.6-1.2,0.8
		c-0.4,0.2-0.9,0.3-1.4,0.3c-0.4,0-0.7-0.1-1.1-0.2c0,0.1,0,0.2,0,0.2c0,0.1,0,0.1,0,0.2c0,0.4,0.1,0.8,0.4,1.1
		c0.3,0.3,0.6,0.5,1.2,0.5c0.5,0,1-0.1,1.6-0.4c0.5-0.3,1-0.5,1.4-0.9c0.1-0.2,0.3-0.3,0.4-0.4c0.1-0.1,0.2-0.3,0.2-0.3
		c0.2-0.2,0.4-0.3,0.7-0.3C138.6,203.6,138.8,203.7,138.8,203.9L138.8,203.9z M134.6,200.7c-0.3,0.2-0.5,0.5-0.8,0.8
		c-0.2,0.3-0.4,0.6-0.6,0.9c-0.2,0.3-0.3,0.6-0.4,0.7c0.1,0,0.2,0,0.3,0c0.3,0,0.6-0.1,1-0.2c0.3-0.2,0.6-0.4,0.8-0.6
		c0.2-0.2,0.4-0.5,0.6-0.8c0.2-0.3,0.2-0.6,0.2-0.8c0-0.2-0.1-0.4-0.3-0.4C135.2,200.4,134.9,200.5,134.6,200.7z"/>
	<path d="M50.5,202.8v1.2h1.8c-0.2,1.4-1.5,2.4-3.2,2.4c-2.1,0-3.6-1.6-3.6-3.8c0-2.2,1.4-3.8,3.5-3.8c1.4,0,2.8,0.8,3.3,2.1h1.3
		v-3.2h-1.3v1.1c-1-0.9-2-1.2-3.5-1.2c-3.6,0-5,2.8-5,5.1c0,1.9,1,5.1,5.2,5.1c2.6,0,5.1-1.3,5-4.9H50.5z"/>
	<path d="M63.2,204.1l0.7,2.2h-1.2v1.2h3.9v-1.2h-1.1l-2.7-7.5H64v-1.1h-5v1.1h1.2l-2.7,7.5h-1.2v1.2h3.9v-1.2h-1.2l0.8-2.2H63.2z
		 M62.8,203H60l1.4-4.1h0.1L62.8,203z"/>
	<path d="M69.4,206.4h-1.4v1.2h4.1v-1.2h-1.3V203h1.4l2.2,4.6h2.1v-1.2h-1.2l-1.7-3.6c1.3-0.3,2-1.2,2-2.5c0-1.5-0.9-2.6-3.1-2.6
		h-4.6v1.2h1.4V206.4z M70.9,201.7V199h1.8c0.9,0,1.6,0.5,1.6,1.3c0,0.7-0.3,1.4-1.7,1.4H70.9z"/>
	<path d="M85,204.1l0.7,2.2h-1.2v1.2h3.9v-1.2h-1.1l-2.7-7.5h1.2v-1.1h-5v1.1h1.2l-2.7,7.5H78v1.2h3.9v-1.2h-1.2l0.8-2.2H85z
		 M84.6,203h-2.8l1.4-4.1h0.1L84.6,203z"/>
	<path d="M96.6,202.8v1.2h1.8c-0.2,1.4-1.5,2.4-3.2,2.4c-2.1,0-3.6-1.6-3.6-3.8c0-2.2,1.4-3.8,3.5-3.8c1.4,0,2.8,0.8,3.3,2.1h1.3
		v-3.2h-1.3v1.1c-1-0.9-2-1.2-3.5-1.2c-3.6,0-5,2.8-5,5.1c0,1.9,1,5.1,5.2,5.1c2.6,0,5.1-1.3,5-4.9H96.6z"/>
	<path d="M104.1,206.4h-1.3v1.2h8.2v-3h-1.2v1.8h-4.2v-3.2h3.7v-1.2h-3.7V199h4.2v1.7h1.2v-3h-8.2v1.2h1.3V206.4z"/>
</g>
</svg>
