<?xml version="1.0" encoding="utf-8"?>
<!-- Generator: Adobe Illustrator 23.0.3, SVG Export Plug-In . SVG Version: 6.00 Build 0)  -->
<svg version="1.1" xmlns="http://www.w3.org/2000/svg" xmlns:xlink="http://www.w3.org/1999/xlink" x="0px" y="0px"
	 viewBox="0 0 420 300" style="enable-background:new 0 0 420 300;" xml:space="preserve">
<style type="text/css">
	.st0{fill-rule:evenodd;clip-rule:evenodd;fill:url(#SVGID_1_);}
	.st1{fill:url(#SVGID_2_);}
	.st2{opacity:0.4;fill:url(#SVGID_3_);}
	.st3{fill:#393939;}
	.st4{fill:url(#SVGID_4_);}
	.st5{opacity:0.3;fill:url(#SVGID_5_);}
	.st6{opacity:0.3;fill:url(#SVGID_6_);}
	.st7{fill:url(#SVGID_7_);}
	.st8{opacity:0.3;fill:url(#SVGID_8_);}
	.st9{fill:#776B62;}
	.st10{fill:#776A61;}
	.st11{opacity:0.3;fill:url(#SVGID_9_);}
	.st12{fill:url(#SVGID_10_);}
	.st13{opacity:0.3;fill:#7AB3B8;}
	.st14{opacity:0.4;fill:url(#SVGID_11_);}
	.st15{opacity:0.3;fill:url(#SVGID_12_);}
	.st16{opacity:0.4;fill:url(#SVGID_13_);}
	.st17{opacity:0.4;fill:#2D4549;}
	.st18{fill:#1E232B;}
	.st19{fill:#111419;}
	.st20{fill:#B6C0CA;}
	.st21{fill:#464A51;}
	.st22{opacity:0.3;fill:#111919;}
	.st23{fill:#263A3A;}
	.st24{opacity:0.4;fill:#263A3A;}
	.st25{fill:#46676C;}
	.st26{opacity:0.4;fill:#46676C;}
	.st27{fill:url(#SVGID_14_);}
	.st28{opacity:0.4;fill:#8DA5B0;}
	.st29{opacity:0.3;fill:#8DA5B0;}
	.st30{fill:#2D4649;}
	.st31{fill:#EF1A21;}
	.st32{fill:#BF1623;}
	.st33{fill:#E8552D;}
	.st34{fill:#181A18;}
	.st35{opacity:0.4;fill:url(#SVGID_15_);}
	.st36{opacity:0.3;fill:#669B9C;}
	.st37{fill:#FF7F32;}
	.st38{fill:url(#SVGID_16_);}
	.st39{fill:url(#SVGID_17_);}
	.st40{fill:url(#SVGID_18_);}
	.st41{fill:url(#SVGID_19_);}
	.st42{opacity:0.3;fill:#E78565;}
	.st43{opacity:0.3;fill:url(#SVGID_20_);}
	.st44{opacity:0.3;fill:url(#SVGID_21_);}
	.st45{opacity:0.2;}
	.st46{fill:#E67F55;}
	.st47{fill:#61727C;}
	.st48{fill:#C3C3C3;}
	.st49{fill:#323333;}
	.st50{fill:url(#SVGID_22_);}
	.st51{opacity:0.32;}
	.st52{fill:#8D7B06;}
	.st53{opacity:0.24;fill:#222B2A;}
	.st54{fill:url(#SVGID_23_);}
	.st55{fill:#3F342C;}
	.st56{opacity:0.25;fill:#503F33;}
	.st57{fill:url(#SVGID_24_);}
	.st58{opacity:0.3;fill:url(#SVGID_25_);}
	.st59{fill:#592A11;}
	.st60{fill:#AB9281;}
	.st61{opacity:0.3;fill:#592A11;}
	.st62{fill:url(#SVGID_26_);}
	.st63{opacity:0.3;fill:#DD7553;}
	.st64{fill:url(#SVGID_27_);}
	.st65{fill:url(#SVGID_28_);}
	.st66{opacity:0.4;fill:url(#SVGID_29_);}
	.st67{fill:#48210D;}
	.st68{fill:url(#SVGID_30_);}
	.st69{fill:url(#SVGID_31_);}
	.st70{opacity:0.5;}
	.st71{fill:url(#SVGID_32_);}
	.st72{fill:url(#SVGID_33_);}
	.st73{fill:url(#SVGID_34_);}
	.st74{fill:url(#SVGID_35_);}
	.st75{fill:url(#SVGID_36_);}
	.st76{opacity:0.4;}
	.st77{fill:url(#SVGID_37_);}
	.st78{fill:url(#SVGID_38_);}
	.st79{fill:url(#SVGID_39_);}
	.st80{fill:url(#SVGID_40_);}
	.st81{fill:url(#SVGID_41_);}
	.st82{fill:url(#SVGID_42_);}
	.st83{fill:url(#SVGID_43_);}
	.st84{fill:url(#SVGID_44_);}
	.st85{fill:url(#SVGID_45_);}
	.st86{opacity:0.5;fill:url(#SVGID_46_);}
	.st87{fill:#9D0012;}
	.st88{opacity:0.3;fill:#C93238;}
	.st89{opacity:0.5;fill:url(#SVGID_47_);}
	.st90{opacity:0.5;fill:url(#SVGID_48_);}
	.st91{opacity:0.5;fill:url(#SVGID_49_);}
	.st92{opacity:0.3;fill:url(#SVGID_50_);}
	.st93{fill:#FFFFFF;}
	.st94{fill:#52280D;}
	.st95{fill:#8A4511;}
	.st96{opacity:0.4;fill:#8C8580;}
	.st97{opacity:0.5;fill:#B80E1B;}
	.st98{fill:url(#SVGID_51_);}
	.st99{fill:url(#SVGID_52_);}
	.st100{opacity:0.7;fill:url(#SVGID_53_);}
	.st101{opacity:0.3;fill:url(#SVGID_54_);}
	.st102{opacity:0.3;fill:url(#SVGID_55_);}
	.st103{opacity:0.3;}
	.st104{fill:url(#SVGID_56_);}
	.st105{fill:url(#SVGID_57_);}
	.st106{fill:url(#SVGID_58_);}
	.st107{fill:#071E2B;}
	.st108{fill:url(#SVGID_59_);}
	.st109{fill:url(#SVGID_60_);}
	.st110{opacity:0.5;fill:url(#SVGID_61_);}
	.st111{fill:url(#SVGID_62_);}
	.st112{fill:url(#SVGID_63_);}
	.st113{fill:url(#SVGID_64_);}
	.st114{fill:#2C3235;}
	.st115{opacity:0.5;fill:#2C3235;}
	.st116{fill:url(#SVGID_65_);}
	.st117{fill:#948579;}
	.st118{fill:#232323;}
	.st119{fill:#505050;}
	.st120{fill:#2A2A2A;}
	.st121{opacity:0.3;fill:#505050;}
	.st122{opacity:0.4;fill:url(#SVGID_66_);}
	.st123{fill:#6A777C;}
	.st124{opacity:0.4;fill:#6A777C;}
	.st125{fill:#83756A;}
	.st126{opacity:0.3;fill:#948579;}
	.st127{fill:url(#SVGID_67_);}
	.st128{fill:url(#SVGID_68_);}
	.st129{fill:url(#SVGID_69_);}
	.st130{opacity:0.4;fill:url(#SVGID_70_);}
	.st131{fill:#70645C;}
	.st132{opacity:0.5;fill:#83756A;}
</style>
<g id="Layer_1">
</g>
<g id="Layer_2">
	<linearGradient id="SVGID_1_" gradientUnits="userSpaceOnUse" x1="210.5" y1="101.1302" x2="210.5" y2="290.5718">
		<stop  offset="0" style="stop-color:#FDEBEB"/>
		<stop  offset="0.3268" style="stop-color:#FDEBEB"/>
		<stop  offset="1" style="stop-color:#FFFFFF"/>
	</linearGradient>
	<path class="st0" d="M-131.7,337.9V221.6H50c1.5-1,3.3-1.6,5.2-1.6h2.4v-0.2v-56.2h-2.3h-4.2c-1.9,0-3.4-1.5-3.4-3.4h-2.4
		c-2.3,0-4.1-1.8-4.1-4.1v-0.5h0c-0.1,0-2.2,0-2.2,0c-2.9,0-24.1-1.5-26.3-1.5c-1.4-0.2-2.7-0.5-3.8-0.8l-0.1,0c0,0,0,0,0,0
		c-1.4-0.4-2.4-0.9-3-1.4c-4.1-4.1-3.1-9.2-3.1-9.2l1.9-3.7l0,0c0,0,0,0,0,0c0-0.1-0.1-0.1-0.1-0.2c0,0,0,0,0,0
		c0-0.1-0.1-0.2-0.1-0.4c0,0,0,0,0,0c-0.4-1.8-0.4-6.4-0.2-9.2c0.3-2.9,1.6-5.1,4-5.1c1.3,0,2.5,0,3.7,0.1l0.2-0.3l7.8-8.5
		c-1.3-0.5-3.7-2.4-3.9-2.8c-0.1-0.3,3.9-0.4,6.8-0.4l0.1-0.1c0,0,17.8-2.6,34.7-3.8v-5.9h2.5h7.4v5.4c6.6-0.2,12.4,0,16,1
		c0.5,0.1,1,0.3,1.5,0.4V97v-0.1h9.8v16c8.5,3.9,17.3,9,22,11.2c0.8,0.4,4.5,1.2,4.5,1.2s0,0,0,0.1c2.3,0.6,24,6.5,25.8,7.8
		c1.6,1.2,2.2,2.6,2.2,3c1.7,2.2,1.8,5.1,1.8,5.1s0.8,1.3,0.8,1.8c0,0.5,0,2.5,0,4.7c0,1.4,0,2.8,0,3.9c0,1.3,0,2.3,0,2.3
		c-0.6,0.8-5.3,1.2-11.3,1.5c0,0,0,0,0,0c-1.1,0-2.2,0.1-3.3,0.1c-0.3,0-1.3,0-2.7,0c-1.5,4.4-5.7,7.5-10.6,7.5
		c-4.9,0-9-3.1-10.6-7.4c-1.6,0-2.7,0-3.1,0c-0.1,0-0.2,0-0.3,0c-0.1,1.8-1.6,3.3-3.4,3.3H94.8v47.3h2.3c5.3,0,9.5,4.3,9.5,9.5H73.2
		c0-5.3,4.3-9.5,9.5-9.5H85v-43.2c-0.5,0.4-1.2,0.6-1.9,0.6H68.5h-1v56.4h2.2c1.9,0,3.7,0.6,5.2,1.6h477.8v116.3H-131.7z
		 M151.1,141.3L151.1,141.3L151.1,141.3L151.1,141.3z M348.6,204.9h45.5c2.2,0,4.3,0.7,5.6,1.9l11.2,9.9h-69.5v-7
		C341.5,207.1,344.7,204.9,348.6,204.9z M386.8,111v67.1h-1.8V111c0-0.1-0.4-1.2-2.3-1.2c-1.4,0-4.9,2.5-4.9,8.3
		c0,4.1-0.9,9.1-5.2,9.1c-2.7,0-4.7-2.5-6-5.5c-2.2,3.1-5.3,5.5-9.2,5.5c-4,0-6.9-2.5-8.7-5.6c-2.5,3.1-6.2,5.6-10.9,5.6
		c-3.5,0-6.3-1.4-8.1-4c-0.2-0.3-0.4-0.6-0.5-0.9c-2.3,2.3-6.2,4.7-12.7,4.7c-0.1,0-0.1,0-0.2,0c-1.1,0-2.1-0.1-3.1-0.2v76.7h-7.9
		v-78.8c-4-2.1-6.1-5.6-6.1-10.3c0-4.6,2.4-6.6,4.2-7.5h-4.4v-1.3v-1.3h6.3V92.4c-0.9-0.1-1.6-0.6-1.6-1.3c0-0.7,0.9-1.3,1.9-1.3
		h7.3c1,0,1.9,0.6,1.9,1.3c0,0.6-0.7,1.2-1.6,1.3v0.1l94.8,11.8h10.2v1.3v1.3h-31.4V111z M305.4,107.5c-0.2,0-4.4,0.8-4.4,6.9
		c0,3.1,1,6.5,4.4,8.8V107.5z M368.6,121.9c1.2,2.5,2.8,4.1,4.1,4.1c2.1,0,3.5-3,3.5-7.9c0-6.5,3.9-9.5,6.6-9.5c1,0,1.7,0.2,2.3,0.5
		v-2.3h-16.6v3.3c0.4,0.1,0.7,0.4,1,0.8c0.3,0.5,0.4,1.1,0.4,1.9c0,1.9-0.7,4.5-2.1,7C368,120.6,368.3,121.3,368.6,121.9z
		 M367.1,117.5c0.7-1.7,1.1-3.3,1.1-4.6c0-0.8-0.2-1.3-0.3-1.5c-0.1-0.2-0.2-0.3-0.3-0.3c-0.2,0-0.9,0.7-0.9,2.9
		C366.7,115.1,366.8,116.3,367.1,117.5z M357.5,126c3.6,0,6.6-2.9,8.5-6.2c-0.7-2.1-1-4.2-1-5.7c0-2.2,0.6-3.5,1.7-3.9v-3.3h-16.6v3
		c0.6,0.2,1.1,0.5,1.5,1c0.4,0.6,0.6,1.3,0.6,2.3c0,1.9-0.8,4.5-2.4,6.9C351.4,123.3,354.1,126,357.5,126z M349,118.2
		c0.9-1.8,1.4-3.6,1.4-5c0-0.8-0.1-1.4-0.4-1.8c-0.2-0.2-0.3-0.3-0.5-0.4H349c-0.2,0.1-0.4,0.4-0.4,0.5c-0.3,0.5-0.4,1.3-0.4,2.2
		C348.2,115.1,348.5,116.7,349,118.2z M337.9,126c4.4,0,7.9-2.8,10.1-6c-1-2.2-1.5-4.5-1.5-6.3c0-1.1,0.2-1.9,0.5-2.6
		c0.4-0.7,0.9-1,1.4-1.2v-3h-16.6v3.1c0.3,0.1,0.5,0.3,0.7,0.6c1.3,1.6,1.1,6.4-2,10.4C331.4,123.4,333.6,126,337.9,126z
		 M329.8,119.2C329.8,119.2,329.8,119.2,329.8,119.2c0.5-0.8,0.8-1.5,1-2c1.3-3.4,0.6-5.9,0.1-6.1
		C330,111.2,328.7,114.9,329.8,119.2z M313.3,125.7c1,0.1,2,0.2,3.1,0.2c0.1,0,0.1,0,0.2,0c6.3,0,9.9-2.5,12-5
		c-0.6-1.5-0.9-3.3-0.9-5.1c0-2.4,0.6-5.1,2.3-5.8v-3.1h-16.7V125.7z M313.3,104.3h47.8L313.3,93V104.3z M404.5,104.3l-87.9-11
		l46.5,11H404.5z"/>
	<g>
		<linearGradient id="SVGID_2_" gradientUnits="userSpaceOnUse" x1="78.3367" y1="218.8412" x2="374.074" y2="218.8412">
			<stop  offset="5.121970e-03" style="stop-color:#504133"/>
			<stop  offset="1" style="stop-color:#493233"/>
		</linearGradient>
		<polygon class="st1" points="374.1,223.1 78.3,223.1 85.1,215.4 109.3,215.4 339.4,214.6 367.9,214.6 		"/>
		<linearGradient id="SVGID_3_" gradientUnits="userSpaceOnUse" x1="109.2927" y1="218.8858" x2="339.4377" y2="218.8858">
			<stop  offset="5.121970e-03" style="stop-color:#504133"/>
			<stop  offset="1" style="stop-color:#493233"/>
		</linearGradient>
		<path class="st2" d="M339.4,214.6c-4.5,2.7-9.8,5.9-14.1,8.5H126c-4.4-2-11.6-5.4-16.7-7.8L339.4,214.6z"/>
		<polygon class="st3" points="179.4,260.9 187.7,250 202.7,254.4 		"/>
		<linearGradient id="SVGID_4_" gradientUnits="userSpaceOnUse" x1="138.9026" y1="260.4979" x2="318.5318" y2="260.4979">
			<stop  offset="5.121970e-03" style="stop-color:#504133"/>
			<stop  offset="1" style="stop-color:#493233"/>
		</linearGradient>
		<polygon class="st4" points="318.5,285.5 306.1,285.5 233.7,264 196.8,253 170.5,245.2 138.9,235.8 192.4,235.5 213,241.7 
			218.7,243.4 260.5,256 260.5,256 314.4,272.2 		"/>
		<linearGradient id="SVGID_5_" gradientUnits="userSpaceOnUse" x1="138.9026" y1="240.3695" x2="213.0216" y2="240.3695">
			<stop  offset="5.121970e-03" style="stop-color:#504133"/>
			<stop  offset="1" style="stop-color:#493233"/>
		</linearGradient>
		<path class="st5" d="M213,241.7c-8,0.6-27.9,2.2-42.5,3.5l-31.6-9.4l53.5-0.3L213,241.7z"/>
		<linearGradient id="SVGID_6_" gradientUnits="userSpaceOnUse" x1="196.7912" y1="253.7054" x2="260.4831" y2="253.7054">
			<stop  offset="5.121970e-03" style="stop-color:#504133"/>
			<stop  offset="1" style="stop-color:#493233"/>
		</linearGradient>
		<polygon class="st6" points="260.5,256 233.7,264 196.8,253 218.7,243.4 		"/>
		<linearGradient id="SVGID_7_" gradientUnits="userSpaceOnUse" x1="145.9046" y1="282.7369" x2="282.6934" y2="233.9893">
			<stop  offset="5.121970e-03" style="stop-color:#504133"/>
			<stop  offset="1" style="stop-color:#493233"/>
		</linearGradient>
		<polygon class="st7" points="309.1,236.1 306.8,237.5 286.5,243.6 147.2,285.5 139.5,285.5 145.7,270.7 250.2,240.5 266.5,235.8 
					"/>
		<linearGradient id="SVGID_8_" gradientUnits="userSpaceOnUse" x1="250.2123" y1="239.7291" x2="309.1112" y2="239.7291">
			<stop  offset="5.121970e-03" style="stop-color:#504133"/>
			<stop  offset="1" style="stop-color:#493233"/>
		</linearGradient>
		<polygon class="st8" points="309.1,236.1 306.8,237.5 286.5,243.6 250.2,240.5 266.5,235.8 		"/>
		<rect x="139.5" y="285.2" class="st9" width="179.5" height="6.2"/>
		<rect x="78.3" y="223.1" class="st10" width="295.7" height="15.7"/>
		<linearGradient id="SVGID_9_" gradientUnits="userSpaceOnUse" x1="305.7255" y1="230.9535" x2="356.8382" y2="230.9535">
			<stop  offset="5.121970e-03" style="stop-color:#504133"/>
			<stop  offset="1" style="stop-color:#493233"/>
		</linearGradient>
		<path class="st11" d="M356.8,238.8h-51.1c1.4-4.9,3.2-10.9,4.6-15.7h44.2L356.8,238.8z"/>
		<g>
			<linearGradient id="SVGID_10_" gradientUnits="userSpaceOnUse" x1="130.1148" y1="145.3991" x2="323.3224" y2="188.6594">
				<stop  offset="0" style="stop-color:#FF6531"/>
				<stop  offset="1" style="stop-color:#FF591F"/>
			</linearGradient>
			<path class="st12" d="M339.8,203.5c-0.4,2.3-0.7,3.8-0.7,3.8L104,203.8c0,0-0.5-1-1.2-2.8c-0.8-2.1-1.7-5.2-2.3-8.9
				c-0.5-3.6-0.7-7.7,0-12.2c0,0,2.4-8.1,7.8-13.1c0,0,0,0,0,0c0.6-0.6,1.3-1.1,2-1.6c6.6-4.5,35.8-9.8,49.2-11.6
				c0.2,0,0.3,0,0.5-0.1c0,0,1.4-1,3.6-2.5c7.5-5.3,24.6-17.3,32.4-22.5c10.2-6.7,30.4-14.2,64.4-13.6c15.1,0.3,27.2,1.8,35.9,3.4
				c11,2,16.8,4.1,16.8,4.1s6,8.6,12.2,18.6c4.4,7,8.9,14.7,11.4,20.5c0.3,0.6,0.5,1.2,0.7,1.7c2.5,5.7,3.9,9.4,4.8,11.9
				c1,3,1.3,4.4,1.4,5.5C343.8,182.4,341.1,196.6,339.8,203.5z"/>
			<path class="st13" d="M296.3,118.4c-10.9,6.9-35.1,20.6-63.5,25.6c-25.5,4.5-52.2,6.4-69.3,7c7.5-5.3,24.6-17.3,32.4-22.5
				c10.2-6.7,30.4-14.2,64.4-13.6C275.4,115.3,287.5,116.8,296.3,118.4z"/>
			<linearGradient id="SVGID_11_" gradientUnits="userSpaceOnUse" x1="102.7566" y1="191.0047" x2="339.8112" y2="191.0047">
				<stop  offset="0" style="stop-color:#FF6531"/>
				<stop  offset="1" style="stop-color:#FF591F"/>
			</linearGradient>
			<path class="st14" d="M339.8,203.5c-0.4,2.3-0.7,3.8-0.7,3.8L104,203.8c0,0-0.5-1-1.2-2.8c4,0.3,15.8-0.4,15.8-0.4
				s-0.2-24.8,27.8-24.8c28,0,25.8,26.7,25.8,26.7s98-0.2,98.9-0.9c0.9-0.6,2.6-30,31.2-26.7c25.2,2.8,25.2,27.8,25.2,27.8
				L339.8,203.5z"/>
			<linearGradient id="SVGID_12_" gradientUnits="userSpaceOnUse" x1="100.4673" y1="180.8915" x2="343.635" y2="180.8915">
				<stop  offset="0" style="stop-color:#FF6531"/>
				<stop  offset="1" style="stop-color:#FF591F"/>
			</linearGradient>
			<path class="st15" d="M339.1,207.3l-55.6-0.8l-153.1-2.2l-26.3-0.4c0,0-2.5-4.7-3.5-11.7c8.6-2.8,25.4-7.6,54.3-12.6
				c5.1-0.9,59.6-11.4,91.1-15.7c31.4-4.3,78.1-9.3,78.1-9.3l13.5,8.8c5.4,12.4,6,15.4,6.2,17.5
				C343.8,182.9,339.1,207.3,339.1,207.3z"/>
			<linearGradient id="SVGID_13_" gradientUnits="userSpaceOnUse" x1="130.3259" y1="193.0937" x2="295.2675" y2="193.0937">
				<stop  offset="0" style="stop-color:#FF6531"/>
				<stop  offset="1" style="stop-color:#FF591F"/>
			</linearGradient>
			<path class="st16" d="M295.3,179.7c0,0-24.1,8.4-11.8,26.8l-153.1-2.2c0,0,0-0.1,0-0.1c17.9-1.6,79.8-7.2,120.7-16.8
				C279,180.8,295.3,179.7,295.3,179.7z"/>
			<path class="st17" d="M296.7,146l-0.6,0.2c2,6.7,4.8,17.2,4.3,18.6c-0.4,1.1-5.2,4.6-9.9,8c-3.5,2.6-7.1,5.2-9.6,7.3
				c-5.7,4.9-10.4,16.6-11.1,18.3c-2.1,0.2-20.2,1.9-30,1.9c-0.6-13.2,2.4-42.5,2.8-43.5l-0.3-0.1l-0.3-0.1
				c-0.6,1.4-3.4,30.8-2.9,43.8c-10.7,0-61.5,0.6-65.6,0.6c-3.2-13.3-4.5-40.1-4.3-41.2l-0.6-0.1c-0.3,1,1.1,28.6,4.3,41.8l0.1,0.2
				l0.3,0c0.6,0,55.9-0.6,66.1-0.6c10.3,0,30.4-1.9,30.6-1.9l0.2,0l0.1-0.2c0-0.1,5-13.1,11-18.2c2.5-2.1,6.1-4.7,9.5-7.3
				c6-4.4,9.7-7.2,10.1-8.4C301.7,163,297.2,147.7,296.7,146z"/>
			<path class="st18" d="M120.9,204.1c0,0-0.4-25.4,24.5-25.4s24.1,26.1,24.1,26.1L120.9,204.1z"/>
			<path class="st18" d="M274.4,206.4c0,0-0.4-26.7,23.2-26.9c23.6-0.2,26,19.8,25.8,27.8L274.4,206.4z"/>
			<g>
				<path class="st19" d="M166.8,201.6c0,6.1-2.6,11.7-6.8,15.6c-3.8,3.5-8.9,5.7-14.5,5.7c-11.8,0-21.4-9.5-21.4-21.2
					c0-7,3.4-13.3,8.8-17.1c3.5-2.6,7.9-4.1,12.6-4.1C157.3,180.4,166.8,189.9,166.8,201.6z"/>
				<path class="st20" d="M159.9,201.6c0,0.8-0.1,1.6-0.2,2.3c-0.4,2.6-1.5,4.9-3.2,6.9c-2.4,2.9-6,4.8-10.1,5.1c-0.3,0-0.7,0-1,0
					c-2.1,0-4-0.4-5.8-1.2c-3-1.3-5.4-3.6-6.9-6.4c-0.5-1-0.9-2-1.2-3.1c-0.3-1.2-0.5-2.4-0.5-3.6c0-4,1.6-7.6,4.3-10.2
					c1.4-1.4,3.1-2.5,5-3.2c1.6-0.6,3.3-0.9,5.1-0.9c2,0,3.9,0.4,5.7,1.2c1.2,0.5,2.4,1.2,3.4,2.1
					C157.8,193.1,159.9,197.1,159.9,201.6z"/>
				<g>
					<path class="st21" d="M150.8,190.6c-1,2.5-4.1,8.8-5.7,8.6c-1.7-0.2-4.7-6.2-5.3-8.7c1.4-1.3,3.7-1.9,5.5-1.9
						C147.2,188.6,149.2,189.4,150.8,190.6z"/>
					<path class="st21" d="M141.3,200.1c0,1.3-4.8,2.6-8.2,4c-1.5-1.8,0-8.1,2.6-10.7C137.8,195.7,141.3,198.7,141.3,200.1z"/>
					<path class="st21" d="M158.2,203.7c-3.8-0.3-7.9-0.8-8.2-2.7c-0.3-2,2.7-6.1,4.4-8.5C157.9,194.8,159.4,200.4,158.2,203.7z"/>
					<path class="st21" d="M141.1,214.3c-3-1.3-5.1-2.8-6.6-5.7c2.6-2.2,8.5-5.5,9.2-4.3C144.3,205.5,143.1,210.5,141.1,214.3z"/>
					<path class="st21" d="M156.4,209.8c-2.4,2.9-4.8,4.7-8.8,5c-0.8-3.5-1.7-9.5-0.2-10.5C148.9,203.4,153.4,207.1,156.4,209.8z"/>
				</g>
				<g>
					<path class="st21" d="M143.8,200.4c0.1,0.3-0.1,0.6-0.4,0.6c-0.3,0.1-0.6-0.1-0.7-0.4c-0.1-0.3,0.1-0.6,0.4-0.6
						C143.4,199.9,143.7,200.1,143.8,200.4z"/>
					<path class="st21" d="M147.4,199.6c0.1,0.3-0.1,0.6-0.4,0.7c-0.3,0.1-0.6-0.1-0.7-0.4c-0.1-0.3,0.1-0.6,0.4-0.6
						C147.1,199.1,147.4,199.3,147.4,199.6z"/>
					<path class="st21" d="M148.2,202.5c0.1,0.3-0.1,0.6-0.4,0.6c-0.3,0.1-0.6-0.1-0.7-0.4c-0.1-0.3,0.1-0.6,0.4-0.7
						C147.9,202,148.2,202.2,148.2,202.5z"/>
					<path class="st21" d="M145,203.5c0.1,0.3-0.1,0.6-0.4,0.6c-0.3,0.1-0.6-0.1-0.7-0.4c-0.1-0.3,0.1-0.6,0.4-0.7
						C144.6,203.1,144.9,203.3,145,203.5z"/>
				</g>
				<path class="st22" d="M166.8,201.6c0,6.1-2.6,11.7-6.8,15.6c-1.1-1.9-2.2-4-3.5-6.4c-3.8-7.5-16-19.8-23.7-26.3
					c3.5-2.6,7.9-4.1,12.6-4.1C157.3,180.4,166.8,189.9,166.8,201.6z"/>
			</g>
			<g>
				<path class="st19" d="M319.8,202.2c0,5.9-2.6,11.3-6.8,15c-3.8,3.4-8.9,5.4-14.5,5.4c-11.8,0-21.4-9.1-21.4-20.4
					c0-6.8,3.4-12.8,8.8-16.5c3.5-2.5,7.9-3.9,12.6-3.9C310.2,181.8,319.8,190.9,319.8,202.2z"/>
				<path class="st20" d="M312.9,202.2c0,0.8-0.1,1.5-0.2,2.2c-0.4,2.5-1.5,4.7-3.2,6.6c-2.4,2.8-6,4.7-10,4.9c-0.3,0-0.7,0-1,0
					c-2.1,0-4-0.4-5.8-1.2c-3-1.3-5.4-3.4-6.9-6.2c-0.5-0.9-0.9-1.9-1.2-3c-0.3-1.1-0.5-2.3-0.5-3.5c0-3.8,1.6-7.3,4.3-9.8
					c1.4-1.3,3.1-2.4,5-3.1c1.6-0.6,3.3-0.9,5.1-0.9c2,0,3.9,0.4,5.7,1.1c1.2,0.5,2.4,1.2,3.4,2C310.8,194,312.9,197.9,312.9,202.2z
					"/>
				<g>
					<path class="st21" d="M303.8,191.5c-1,2.4-4.1,8.5-5.7,8.3c-1.7-0.2-4.7-6-5.3-8.4c1.4-1.2,3.7-1.8,5.5-1.8
						C300.2,189.6,302.2,190.4,303.8,191.5z"/>
					<path class="st21" d="M294.3,200.7c0,1.2-4.8,2.5-8.2,3.8c-1.5-1.7,0-7.8,2.6-10.3C290.8,196.5,294.3,199.4,294.3,200.7z"/>
					<path class="st21" d="M311.2,204.1c-3.8-0.3-7.9-0.8-8.2-2.6c-0.3-2,2.7-5.8,4.4-8.2C310.8,195.6,312.4,201,311.2,204.1z"/>
					<path class="st21" d="M294.1,214.4c-3-1.2-5.1-2.7-6.6-5.4c2.6-2.1,8.5-5.3,9.2-4.1C297.3,205.9,296.1,210.8,294.1,214.4z"/>
					<path class="st21" d="M309.4,210.1c-2.4,2.8-4.8,4.5-8.8,4.8c-0.8-3.4-1.7-9.1-0.2-10.1C301.9,203.9,306.4,207.4,309.4,210.1z"
						/>
				</g>
				<g>
					<path class="st21" d="M296.8,201c0.1,0.3-0.1,0.6-0.4,0.6c-0.3,0.1-0.6-0.1-0.7-0.4c-0.1-0.3,0.1-0.6,0.4-0.6
						C296.4,200.6,296.7,200.7,296.8,201z"/>
					<path class="st21" d="M300.4,200.2c0.1,0.3-0.1,0.6-0.4,0.6c-0.3,0.1-0.6-0.1-0.7-0.4c-0.1-0.3,0.1-0.6,0.4-0.6
						C300,199.8,300.3,200,300.4,200.2z"/>
					<path class="st21" d="M301.2,203c0.1,0.3-0.1,0.6-0.4,0.6c-0.3,0.1-0.6-0.1-0.7-0.4c-0.1-0.3,0.1-0.6,0.4-0.6
						C300.9,202.6,301.2,202.8,301.2,203z"/>
					<path class="st21" d="M298,204.1c0.1,0.3-0.1,0.5-0.4,0.6c-0.3,0.1-0.6-0.1-0.7-0.4c-0.1-0.3,0.1-0.6,0.4-0.6
						C297.6,203.6,297.9,203.8,298,204.1z"/>
				</g>
				<path class="st22" d="M319.8,202.2c0,5.9-2.6,11.3-6.8,15c-1.1-1.8-2.2-3.9-3.5-6.2c-3.9-7.3-16-19-23.7-25.3
					c3.5-2.5,7.9-3.9,12.6-3.9C310.2,181.8,319.8,190.9,319.8,202.2z"/>
			</g>
			<path class="st23" d="M308.7,131c0,0-1.7,9-10.7,15.5c-1,0.7-2,1.4-3.1,2c-1.3,0.7-2.7,1.4-4.2,1.9c-8.6,3.3-27,5.4-44.2,6.9
				c-0.8,0.1-1.6,0.1-2.4,0.2c-1.6,0.1-3.1,0.2-4.7,0.4c-10.8,0.8-20.6,1.3-26.4,1.6c-15.8,0.9-48.1,0.4-48.1,0.4
				s31.9-26.1,47.1-32.5c7.1-3,20.3-4.8,34-5.4c1.3-0.1,2.7-0.1,4-0.2c5.4-0.2,10.7-0.2,15.8,0c8.4,0.3,15.9,1,21.1,2.1
				c1.3,0.3,2.4,0.5,3.6,0.8c1.1,0.2,2.1,0.5,3,0.7h0C305.1,128.5,308.7,131,308.7,131z"/>
			<path class="st24" d="M308.7,131c0,0-1.7,9-10.7,15.5c-1,0.7-2,1.4-3.1,2c-1.3,0.7-2.7,1.4-4.2,1.9c-8.6,3.3-27,5.4-44.2,6.9
				c3.7-4.4,8.5-10.3,12.5-15.3c6.6-8.3,7.4-14,6.8-20.2c8.4,0.3,15.9,1,21.1,2.1c1.3,0.3,2.4,0.5,3.6,0.8c1.1,0.2,2.1,0.5,3,0.7h0
				C305.1,128.5,308.7,131,308.7,131z"/>
			<path class="st25" d="M305.7,132.4c0,0-2.5,10-13.1,15.5h0c-2,1.1-4.4,2-7.1,2.6c-8.1,1.9-20.2,3.5-32,4.6c0,0,0,0,0,0
				c-12.4,1.2-24.4,2-31.1,2.1c-13,0.3-52.7,1-52.7,1s14-11.2,29.2-20.8c3.4-2.1,6.8-4.2,10.2-6c11.7-6.4,40-10.2,67.5-6.4
				c3.4,0.5,6.8,1,10.1,1.7c5.6,1.2,11.1,2.7,16.3,4.6C303.9,131.7,304.8,132,305.7,132.4z"/>
			<path class="st26" d="M303,131.4c-2.4,4.3-6.1,10.8-10.4,16.5h0c-2,1.1-4.4,2-7.1,2.6c-8.1,1.9-20.2,3.5-32,4.6
				c9.8-9.7,23.6-22.6,33.2-28.4C292.3,127.9,297.8,129.4,303,131.4z"/>
			<path class="st23" d="M298.1,146.5c-1,0.7-2,1.4-3.1,2l-4.6-23.8l3,0.7h0L298.1,146.5z"/>
			<g>
				<g>
					<linearGradient id="SVGID_14_" gradientUnits="userSpaceOnUse" x1="105.8326" y1="176.0495" x2="142.3807" y2="161.1693">
						<stop  offset="0" style="stop-color:#455C79"/>
						<stop  offset="0.99" style="stop-color:#668DA2"/>
					</linearGradient>
					<path class="st27" d="M128.3,166.1c0,0-3.3,7.3-11.1,10.8c-6.7,2.9-13,1.8-14.7,1.4c-0.3-0.1-0.4-0.1-0.4-0.1s1.2-3.6,4.4-6.7
						c1.2-1.1,2.7-2.2,4.5-3c1.2-0.5,2.6-1,3.9-1.3C121.1,165.7,128.3,166.1,128.3,166.1z"/>
					<path class="st28" d="M118.1,172.4c0,3.2-2.6,5.8-5.9,5.8s-5.9-2.6-5.9-5.8c0-0.3,0-0.6,0.1-0.8c1.2-1.1,2.7-2.2,4.5-3
						c1.2-0.5,2.6-1,3.9-1.3C116.8,168.1,118.1,170.1,118.1,172.4z"/>
				</g>
				<path class="st29" d="M128.3,166.1c0,0-3.3,7.3-11.1,10.8c-6.7,2.9-13,1.8-14.7,1.4C113.7,175.8,127,168.3,128.3,166.1z"/>
			</g>
			<path class="st13" d="M161.9,178.3c0,0,38.1-12.6,73.5-18.1c35.5-5.5,83.3-5.5,83.3-5.5s-47.5,5.8-81,10.7
				C204.2,170.2,161.9,178.3,161.9,178.3z"/>
			<path class="st26" d="M276.6,125c-7.1,7.9-19.3,19.7-29.8,21c-12,1.5-34.2-5-47.9-8.5c3.4-2.1,6.8-4.2,10.2-6
				C220.7,125,249.1,121.2,276.6,125z"/>
			<path class="st23" d="M250,121.8c-1.5,8.6-4.9,30-5.9,35.7c-1.6,0.1-3.1,0.2-4.7,0.4c0.8-6.3,5-28.8,6.5-35.9
				C247.3,121.8,248.6,121.8,250,121.8z"/>
			<path class="st30" d="M224.1,168.1l10.4-1.9v1.5c0,0-2,2.4-5.9,2.6C224.8,170.4,224.1,168.1,224.1,168.1z"/>
			<path class="st30" d="M284.1,159.9l0.2,1.5c0,0,3.4,1.1,6.1,1c2.7-0.2,4.2-4.2,4.2-4.2L284.1,159.9z"/>
			<path class="st31" d="M342.2,175.2l-13.8-6.3l-6.7-19.6c0,0,0.1-0.2,0.2-0.5c0.7-1.7,3.1-7.2,3.3-7.7c0,0,0,0,0.1,0
				c4.4,7,8.9,14.7,11.4,20.5c0.3,0.6,0.5,1.2,0.7,1.7c0.2,0.5,0.5,1.1,0.7,1.6C340.2,169.7,341.5,172.9,342.2,175.2z"/>
			<path class="st32" d="M342.2,175.2l-13.8-6.3l-6.7-19.6c0,0,0.1-0.2,0.2-0.5c1.9,3.7,5.8,10.7,7.2,11.7c1,0.7,5.4,2.8,9,4.4
				C340.2,169.7,341.5,172.9,342.2,175.2z"/>
			<g>
				<path class="st33" d="M185.4,158.7h-10.7l-0.2-1.3l-0.3-2.2c0,0,0.1-0.2,0.4-0.5c1-1.3,4-4.6,8.9-5l1.2,5L185.4,158.7z"/>
				<polygon class="st34" points="175.1,158.8 168.4,158.8 168.7,158.6 174.5,154.5 174.5,154.7 174.9,157.3 175.1,158.7 				"/>
			</g>
			<linearGradient id="SVGID_15_" gradientUnits="userSpaceOnUse" x1="168.3934" y1="156.7588" x2="185.4203" y2="156.7588">
				<stop  offset="0" style="stop-color:#FF6531"/>
				<stop  offset="1" style="stop-color:#FF591F"/>
			</linearGradient>
			<path class="st35" d="M175.1,158.7l0,0.1h-6.7l0.3-0.2c1.6-0.3,3.7-0.7,5.8-1.2c0.1,0,0.3-0.1,0.4-0.1c3.7-0.8,7.5-1.8,9.6-2.6
				l0.9,4H175.1z"/>
			<path class="st13" d="M159.5,153.7c-4.4,3.1-18.5,9.2-33.2,11.4c-7.4,1.1-13.6,1.6-18,1.8c0.6-0.6,1.3-1.1,2-1.6
				C116.9,160.8,146,155.5,159.5,153.7z"/>
			<path class="st36" d="M322.6,164c0,2.7-2.2,5-5,5c-2.8,0-5-2.2-5-5c0-2.7,2.2-5,5-5C320.4,159,322.6,161.2,322.6,164z"/>
			<path class="st37" d="M156.7,172.6l8.2-0.9c0,0-0.9-1.7-2.6-1.9c-1.7-0.2-5.6,0.9-5.6,0.9V172.6z"/>
		</g>
		<g>
			<linearGradient id="SVGID_16_" gradientUnits="userSpaceOnUse" x1="324.8467" y1="157.1454" x2="331.6742" y2="170.4265">
				<stop  offset="0" style="stop-color:#F1C194"/>
				<stop  offset="1" style="stop-color:#F29D7A"/>
			</linearGradient>
			<path class="st38" d="M338.8,171.1c-0.1,0.2-0.2,0.3-0.3,0.5c-0.6,1.2-1.3,2.8-1.3,2.8c-0.4-0.1-1.4,0-2.5,0.1
				c-1.8,0.2-3.8,0.4-3.8,0.4l-0.5-2.3c-0.7,0.7-1.9,1.2-3.2,0.7c-0.2-0.1-0.4-0.2-0.6-0.4c-1.1-1-2.2-3.5-2.7-7.5
				c-0.5-4.3,0.5-6.9,1.3-9c0.1-0.2,0.1-0.3,0.2-0.5c0-0.1,0.1-0.1,0.1-0.2c0.7,0.3,1.3,0.5,1.2,0.9c-0.5,3.3,1.2,5.6,1.2,5.6
				c0.5-0.8,1.2-1.2,1.7-1c0.4,0.2,0.8,0.9,1,2.2c0.5,3-2.1,3.9-2.1,3.9s0.3,1.1,1,2.2c0.7,1.1,1,1,4.7,0.3
				C337,169.6,338.3,170.5,338.8,171.1z"/>
			<linearGradient id="SVGID_17_" gradientUnits="userSpaceOnUse" x1="327.1179" y1="155.98" x2="333.9436" y2="169.2578">
				<stop  offset="0" style="stop-color:#F1C194"/>
				<stop  offset="1" style="stop-color:#F29D7A"/>
			</linearGradient>
			<path class="st39" d="M335.8,165.9l0.4-1.1c0,0-5.7-8.5-6.2-8.7c-0.6-0.2-3.5-2-4.4-0.2c0.7,0.3,1.3,0.5,1.2,0.9
				c-0.5,3.3,1.2,5.6,1.2,5.6c1-1.4,2.3-1.8,2.8,1.3c0.5,3-2.1,3.9-2.1,3.9s0.3,1.1,1,2.2c0.7,1.1,1,1,4.7,0.3
				c2.6-0.5,3.9,0.5,4.4,1.1c0.1-0.3,0.2-0.5,0.3-0.5L335.8,165.9z"/>
			<linearGradient id="SVGID_18_" gradientUnits="userSpaceOnUse" x1="327.6179" y1="147.3629" x2="341.4834" y2="169.8674">
				<stop  offset="0" style="stop-color:#734022"/>
				<stop  offset="1" style="stop-color:#613828"/>
			</linearGradient>
			<path class="st40" d="M344.9,160c0,1.2-0.3,2.4-0.8,3.4c-1.3,2.9-5.1,8-5.1,8s-0.1-0.2-0.3-0.4c-0.5-0.6-1.8-1.5-4.4-1.1
				c-3.7,0.6-4,0.8-4.7-0.3c-0.7-1.1-1-2.2-1-2.2s2.6-0.9,2.1-3.9c-0.5-3-1.8-2.7-2.8-1.3c0,0-1.7-2.2-1.2-5.5c0,0,0-0.1,0-0.1
				c0-0.2-0.1-0.4-0.4-0.5c0,0,0,0,0,0c-0.2-0.1-0.5-0.2-0.9-0.4c-0.8-0.4-1.8-1-1.7-2.5c0.1-1.3,0.4-2.1,0.8-2.5
				c0.1-0.1,0.1-0.1,0.2-0.2c0.1-0.1,0.2-0.2,0.3-0.2c0.2-0.1,0.3-0.1,0.3-0.1s-0.2-1.8,2.6-2c0,0,0.1,0,0.1,0c1.1,0,2,0.2,2.7,0.4
				c0.6,0.2,1.1,0.5,1.4,0.7c0.1,0.1,0.2,0.1,0.3,0.2c0.2,0.2,0.4,0.3,0.4,0.3s-0.1-0.4-0.1-0.8c0-0.2,0-0.4,0.1-0.6
				c0.1-0.2,0.4-0.4,0.8-0.2c0.1,0,0.3,0.1,0.4,0.2c1.1,0.6,1.8,2.2,1.8,2.2s0-0.1,0.1-0.3c0.2-0.4,0.6-1.1,1.2-1.3
				c0.2-0.1,0.4-0.1,0.7,0c0.1,0,0.2,0.1,0.3,0.1c1,0.5,1.5,1.3,1.8,1.7c0.1,0.2,0.2,0.3,0.2,0.3s0.1,0,0.2-0.1c0.1,0,0.3-0.1,0.6,0
				c0.1,0,0.3,0.1,0.4,0.1c0.6,0.3,1.3,0.9,2,2.2c0,0.1,0.1,0.1,0.1,0.2c0.1,0.1,0.1,0.2,0.2,0.3C344.5,156.1,345,158.1,344.9,160z"
				/>
			<linearGradient id="SVGID_19_" gradientUnits="userSpaceOnUse" x1="324.6866" y1="159.3771" x2="325.1946" y2="160.3653">
				<stop  offset="0" style="stop-color:#6B4634"/>
				<stop  offset="1" style="stop-color:#613828"/>
			</linearGradient>
			<path class="st41" d="M326.4,160.3c0.3,0.1-1.8-1.8-2.3-0.4v0.7C324.1,160.6,325.5,160.1,326.4,160.3z"/>
			<path class="st42" d="M329.1,162.4c-0.7,0.6-1.3,2.2-1.4,3.3c0,0,0.9,0.1,1.1-0.7c0.2-0.8-0.1-0.9-0.1-0.9L329.1,162.4z"/>
			<linearGradient id="SVGID_20_" gradientUnits="userSpaceOnUse" x1="323.4503" y1="151.4595" x2="326.3861" y2="156.2246">
				<stop  offset="0" style="stop-color:#734022"/>
				<stop  offset="1" style="stop-color:#613828"/>
			</linearGradient>
			<path class="st43" d="M324.5,150.9c-0.1,2.5,1.8,5.3,1.8,5.3c-0.2-0.1-0.5-0.2-0.9-0.4c-0.8-0.4-1.8-1-1.7-2.5
				C323.9,152.1,324.2,151.3,324.5,150.9z"/>
			<linearGradient id="SVGID_21_" gradientUnits="userSpaceOnUse" x1="330.598" y1="154.0146" x2="340.6897" y2="170.3941">
				<stop  offset="0" style="stop-color:#734022"/>
				<stop  offset="1" style="stop-color:#613828"/>
			</linearGradient>
			<path class="st44" d="M344.9,160c0,1.2-0.3,2.4-0.8,3.4c-1.3,2.9-5.1,8-5.1,8s-0.1-0.2-0.3-0.4c-0.5-0.6-1.8-1.5-4.4-1.1
				c-3.7,0.6-4,0.8-4.7-0.3c-0.7-1.1-1-2.2-1-2.2s2.6-0.9,2.1-3.9c-0.5-3-1.8-2.7-2.8-1.3c0,0-1.7-2.2-1.2-5.5
				c0.2,0.3,0.5,0.8,1,1.6c1.3,2.2,4.1,1.3,9.1,1.8C340.9,160.7,343,160.8,344.9,160z"/>
			<g class="st45">
				<path class="st46" d="M328,162.4c-1.5-1-1.8-4.9-1.6-5c0.1-0.1-0.6-0.4-1.2-0.8c0.1-0.2,0.1-0.3,0.2-0.5c0-0.1,0.1-0.1,0.1-0.2
					c0.7,0.3,1.3,0.5,1.2,0.9C326.2,160.1,328,162.4,328,162.4z"/>
				<path class="st46" d="M338.8,171.1c-0.1,0.2-0.2,0.3-0.3,0.5c-1.3,0.4-2.9,1.8-3.9,2.9c-1.8,0.2-3.8,0.4-3.8,0.4l-0.5-2.3
					c-0.7,0.7-1.9,1.2-3.2,0.7c-0.2-0.1-0.4-0.2-0.6-0.4c0.6,0,1.2-0.2,1.8-0.6c1.2-1,0-5.4,0-5.4c2.3-1.4,1.8-4.4,1.3-5.6
					c0.4,0.2,0.8,0.9,1,2.2c0.5,3-2.1,3.9-2.1,3.9s0.3,1.1,1,2.2c0.7,1.1,1,1,4.7,0.3C337,169.6,338.3,170.5,338.8,171.1z"/>
			</g>
		</g>
		<g>
			<g>
				<path class="st47" d="M297,220.1c0,0.5-0.4,1-1,1l0,0c-0.5,0-1-0.4-1-1v-31.7c0-0.5,0.4-1,1-1l0,0c0.5,0,1,0.4,1,1V220.1z"/>
				<path class="st47" d="M302.6,220.1c0,0.5-0.4,1-0.9,1l0,0c-0.5,0-0.9-0.4-0.9-1v-31.7c0-0.5,0.4-1,0.9-1l0,0
					c0.5,0,0.9,0.4,0.9,1V220.1z"/>
			</g>
			<g>
				<rect x="294.5" y="202.4" class="st48" width="8.6" height="3"/>
				<polygon class="st48" points="293.3,194.2 290.9,186.8 292.5,186 296.8,194.3 				"/>
				<polygon class="st48" points="304.3,194.2 307.5,186.2 305.7,185.2 300.7,194.3 				"/>
				<polygon class="st48" points="293.4,214 290.6,220.9 292.5,221.3 296.7,214.3 				"/>
				<path class="st48" d="M300.4,214.1c0.3,0.4,4.4,7.5,4.4,7.5l2.4-0.4l-2.8-6.6L300.4,214.1z"/>
				<rect x="293.3" y="194.2" class="st48" width="11.1" height="3.8"/>
				<rect x="293.3" y="210.7" class="st48" width="11.1" height="3.8"/>
			</g>
			<polygon class="st49" points="292.1,201.1 295,200.8 295.3,208.5 292.2,208.5 			"/>
			<path class="st48" d="M292.2,210.6c0,0.9-0.7,1.6-1.6,1.6l0,0c-0.9,0-1.6-0.7-1.6-1.6l0-12.6c0-0.9,0.7-1.6,1.6-1.6l0,0
				c0.9,0,1.6,0.7,1.6,1.6L292.2,210.6z"/>
		</g>
		<g>
			<g>
				
					<linearGradient id="SVGID_22_" gradientUnits="userSpaceOnUse" x1="283.5069" y1="164.4152" x2="286.5584" y2="170.3513" gradientTransform="matrix(0.998 -6.280000e-02 6.280000e-02 0.998 -6.0126 28.8635)">
					<stop  offset="0" style="stop-color:#F1C194"/>
					<stop  offset="1" style="stop-color:#F29D7A"/>
				</linearGradient>
				<path class="st50" d="M292.9,181.6c0,0,0,0.6-0.2,0.9l0,0c0,0.1-0.1,0.1-0.1,0.1c-0.6,0.3-1.2,0.8-1.7,1.2
					c-0.4,0.3-0.6,0.5-0.6,0.5s-1.2,0-2-1.5c-0.9-1.5-2.9-4.4-2.7-4.8c0,0,0,0,0,0c0.2-0.2,0.7,0.3,1.2,0.9c0,0,0,0,0,0
					c0.3,0.4,0.6,0.7,0.7,0.8c0,0,0,0,0,0c-0.2-0.3-1.9-3.3-1.5-3.6c0,0,0.1,0,0.1,0c0.4,0.1,1.2,1,1.7,1.6c0,0,0,0,0,0
					c0.2,0.3,0.4,0.5,0.4,0.5c0,0,0-0.1-0.1-0.1c0,0,0,0,0,0c-0.4-0.7-1.8-3.1-1.4-3.3c0,0,0.1,0,0.1,0h0c0.6,0.3,2.6,3.4,2.7,3.6
					c0,0,0,0,0-0.1c0,0,0,0,0,0c-0.3-0.6-1.5-3.4-1.1-3.6c0,0,0,0,0.1,0c0.7-0.2,2.9,3.8,2.9,3.8s0-1.5,0.3-1.8
					c0.1-0.1,0.1-0.1,0.2-0.1C292.5,176.9,292.9,181.6,292.9,181.6z"/>
				<g class="st51">
					<path class="st46" d="M290.9,183.8c-0.4,0.3-0.6,0.5-0.6,0.5s-1.2,0-2-1.5c-0.9-1.5-2.9-4.4-2.7-4.8c0.7,1.4,2.2,3.3,3.2,4.4
						C289.4,183.3,290.4,183.7,290.9,183.8z"/>
					<path class="st46" d="M286.7,178.9c0.3,0.4,0.6,0.7,0.7,0.8C287.2,179.5,287,179.2,286.7,178.9z"/>
					<path class="st46" d="M288.2,180.4c0,0-0.3-0.2-0.7-0.6c-0.2-0.3-1.9-3.3-1.5-3.6c0,0,0.1,0,0.1,0
						C286.5,177.2,287.6,179.7,288.2,180.4z"/>
					<path class="st46" d="M289.2,179.2c0,0-0.5-0.4-1-1c0,0,0,0,0,0c-0.4-0.7-1.8-3.1-1.4-3.3c0,0,0.1,0,0.1,0h0
						C287.2,175.8,288.1,178,289.2,179.2z"/>
					<path class="st46" d="M290.6,180.2c-0.1-0.2-0.6-0.9-1.1-1.8c0,0,0,0,0,0c-0.3-0.6-1.5-3.4-1.1-3.6c0,0,0,0,0.1,0
						C288.8,175.9,290.1,179.2,290.6,180.2z"/>
					<path class="st46" d="M292.9,181.6c0,0,0,0.6-0.2,0.9l0,0c-0.1,0-0.1,0-0.1,0c0-0.8-0.7-4.6-1-5.7c0.1-0.1,0.1-0.1,0.2-0.1
						C292.5,176.9,292.9,181.6,292.9,181.6z"/>
				</g>
			</g>
			<path class="st52" d="M352.3,200c-0.1,0.6-0.3,1.3-0.6,2c-1.4,3.8-7.2,7.9-7.2,7.9s-0.3,0.8-0.1,1.6c0.1,0.7,1,3.4,1.3,4.3
				c0,0.2,0.1,0.2,0.1,0.2c-0.5,0.4-1,0.7-1.6,1h0c-0.2,0.1-0.4,0.2-0.6,0.3c-3.5,1.5-8.5,1.8-13.9,1.7c-4.5-0.1-7.2-0.9-8.5-1.4
				c-0.6-0.2-0.9-0.4-0.9-0.4c0.4-1.5,1.4-9.1,1.5-12.8c0.1-3.7-1.1-12.3-1.1-12.3c-8.1,5.1-17.8,5.5-17.8,5.5s-0.9,0.2-4.5-2.8
				c-3.6-3-8.6-10.1-8.6-10.1c0.1-0.2,0.3-0.5,0.5-0.7c0.8-1,2.3-2.1,2.3-2.1s3,1.9,5.4,3.9c2.4,2,7.5,4.6,7.5,4.6
				s10.3-8.4,13.6-11.6c0.5-0.5,0.9-0.8,1.4-1.2c1.2-0.8,2.4-1.3,3.5-1.6c1.5-0.4,2.8-0.5,3.3-0.6l0.5-0.7l1-1.4
				c1.5-0.6,9.6-0.5,9.6-0.5l1.7,2.2l0.1,0.1c1.1,0.3,2.5,0.7,3.7,1.2c1.1,0.4,2,0.8,2.3,1.3c0,0,0,0,0.1,0.1
				c2.7,3,5.2,9.6,5.9,14.3C352.8,195.4,352.9,197.2,352.3,200z"/>
			<path class="st53" d="M334.3,181.7c0.1,0.4,0.8,17.1,0.3,23.2c0,0,1.5-4.6,1.2-11.3C335.6,186.9,334.3,181.7,334.3,181.7z"/>
			<path class="st53" d="M346.7,191.9c0.4,1.2,1.7,6.8-1.3,10.5c0,0,0.8-3.2,1-5.8C346.5,194,346.7,191.9,346.7,191.9z"/>
			<path class="st53" d="M322.3,200.5c0.1,4.8,0.2,12.9-1.1,17.2c-0.6-0.2-0.9-0.4-0.9-0.4c0.4-1.5,1.4-9.1,1.5-12.8
				c0.1-3.7-1.1-12.3-1.1-12.3c-8.1,5.1-17.8,5.5-17.8,5.5s-0.9,0.2-4.5-2.8c-3.6-3-8.6-10.1-8.6-10.1c0.1-0.2,0.3-0.5,0.5-0.7
				c2,2.7,8.8,10.8,12.7,11.9c0,0,13.4-1.6,19.8-8.2C322.7,187.7,322.1,195,322.3,200.5z"/>
			<path class="st53" d="M352.3,200c-0.1,0.6-0.3,1.3-0.6,2c-1.4,3.8-7.2,7.9-7.2,7.9s-0.3,0.8-0.1,1.6c0.1,0.7,1,3.4,1.3,4.3
				c-0.6,0.5-1.1,0.9-1.5,1.2h0c-0.3,0.3-0.5,0.4-0.5,0.4c0,0,0-0.1-0.1-0.1c-0.4-0.9-1.8-6.4-0.3-10.1c1.5-4,3.4-9.6,3.5-15.3
				c0,0,2.2,6.4-1.3,12.8c0,0-0.7,2.2-0.4,3.1C345,207.7,349.7,204.7,352.3,200z"/>
			<path class="st53" d="M354,194.2c0-1-0.1-1.6-0.1-1.6C354,193.1,354.1,193.7,354,194.2z"/>
			<path class="st53" d="M340.2,175c-3.9,0.5-9.9-0.2-12.4-0.3l1-1.4c1.5-0.6,9.6-0.5,9.6-0.5L340.2,175z"/>
		</g>
		<g>
			<linearGradient id="SVGID_23_" gradientUnits="userSpaceOnUse" x1="300.6221" y1="242.2912" x2="354.3471" y2="262.8438">
				<stop  offset="1.000000e-02" style="stop-color:#002440"/>
				<stop  offset="1" style="stop-color:#002D4E"/>
			</linearGradient>
			<path class="st54" d="M350.3,280.1C350.3,280.1,350.3,280.1,350.3,280.1c-0.9,5.7-1.9,10.5-1.9,10.6c0,0.2-0.8,0.1-1.4,0
				c-0.5-0.1-0.9-0.2-0.9-0.2s-5.4-24-7.3-31.6c-1.9-7.7-5.6-27.9-5.6-27.9l-5.6,25.4c0,0,2.5,2.8,1.9,12
				c-0.7,9.6-6.9,26.4-6.9,26.4h-2.2c-2.5-15-3.2-28.6-2.9-44.9c0.3-13.5,1.9-26.4,2.6-31.4c0.1-1,0.3-1.7,0.3-2
				c0,0,5.8,0.7,13.7,0.8c7.9,0.1,11.8-2.7,11.8-2.7c2.3,6.2-0.3,10.7-0.3,10.7l1.1,28.5c0,0,3.8,2.2,4.8,10.4
				C351.9,267.9,351.1,274.5,350.3,280.1z"/>
			<g>
				<path class="st53" d="M350.3,280.1c0-2.9,0-6.5-0.1-10.4c-0.3-9.4-4.1-15.6-4.1-15.9c0-0.3-1.5-29.2-1.5-29.2
					c0.6-3.6-0.9-7.4-0.9-7.4c-7.5,4.1-20,2-23.6,1.2c0.1-1,0.3-1.7,0.3-2c0,0,5.8,0.7,13.7,0.8c7.9,0.1,11.8-2.7,11.8-2.7
					c2.3,6.2-0.3,10.7-0.3,10.7l1.1,28.5c0,0,3.8,2.2,4.8,10.4C351.9,267.9,351.1,274.5,350.3,280.1z"/>
				<path class="st53" d="M339.6,254.7c-1.4-5.3-5.7-22.6-6.4-25.6c4.9-0.5,7.9-2.1,7.9-2.1c-8.5,1.4-15.4,0.7-15.4,0.7
					s1.4,1.6,5.7,1.6c0.6,0,1.1,0,1.6-0.1l-7.7,27.7c0,0,1.7,6.5,1.6,13.6c-0.1,6.5-4.6,21.4-5.5,24.4h1.1c0,0,6.3-16.8,6.9-26.4
					c0.6-9.2-1.9-12-1.9-12l5.6-25.4c0,0,3.7,20.3,5.6,27.9c1.9,7.7,7.3,31.6,7.3,31.6s0.4,0.1,0.9,0.2
					C346.8,284.9,341.1,260.3,339.6,254.7z"/>
			</g>
			<g>
				<path class="st55" d="M322.3,297c-0.3,0.4-0.9,0.8-1.8,0.9c-0.2,0-0.4,0.1-0.7,0.1c-3.2,0.2-7.9-1.2-9.2-1.9
					c0,0,0.2-0.2,0.6-0.6c0.9-0.7,2.6-1.9,4.5-1.9c2.1,0,3.8,0.7,4.3,1c0.2,0.1,0.2,0.1,0.2,0.1h2.2
					C322.5,294.8,323,296.1,322.3,297z"/>
				<path class="st56" d="M322.3,297c-0.3,0.4-0.9,0.8-1.8,0.9c-0.2,0-0.4,0.1-0.7,0.1c-3.2,0.2-7.9-1.2-9.2-1.9
					c0,0,0.2-0.2,0.6-0.6c3.2,1.1,6.6,1.4,8.8,1.5C321.1,297.1,321.9,297.1,322.3,297z"/>
				<path class="st56" d="M322.3,297c-0.3,0.4-0.9,0.8-1.8,0.9c-0.2,0-0.4,0.1-0.7,0.1c0.1-0.3,0.2-0.7,0.2-1c0.1-0.8,0.1-1.6,0-2.4
					c0.2,0.1,0.2,0.1,0.2,0.1h2.2C322.5,294.8,323,296.1,322.3,297z"/>
			</g>
			<g>
				<path class="st55" d="M348.5,292.8c-0.1,0.3-0.2,0.6-0.5,0.8c0,0-0.6,0.2-1.7,0.2c-1.7,0.1-4.8-0.2-8.9-2.1c0,0,0.3-0.2,0.7-0.4
					c1.5-0.7,4.9-2.1,7.8-0.8c0,0,0,0,0.1,0l2.3,0.2C348.3,290.8,348.7,291.9,348.5,292.8z"/>
				<path class="st56" d="M348.5,292.8c-0.1,0.3-0.2,0.6-0.5,0.8c0,0-3.9,1.2-10.6-1.9c0,0,0.3-0.2,0.7-0.4
					C340.3,292.1,345.5,293.5,348.5,292.8z"/>
				<path class="st56" d="M348.5,292.8c-0.1,0.3-0.2,0.6-0.5,0.8c0,0-0.6,0.2-1.7,0.2c0.1-1.4-0.1-2.6-0.3-3.3c0,0,0,0,0.1,0
					l2.3,0.2C348.3,290.8,348.7,291.9,348.5,292.8z"/>
			</g>
		</g>
		<linearGradient id="SVGID_24_" gradientUnits="userSpaceOnUse" x1="43.7981" y1="277.2907" x2="44.0935" y2="231.1048">
			<stop  offset="1.000000e-02" style="stop-color:#002440"/>
			<stop  offset="1" style="stop-color:#002D4E"/>
		</linearGradient>
		<path class="st57" d="M47.8,266.6c0.1,0.5,0.3,1.1,0.4,1.6c-0.7,0.9-3.3,4.3-5.2,7.3c-2.2,3.4-4,9.6-4,9.6l-0.8-1.3l-1.1-1.7
			c0,0,0.3-12.2,1.3-20.1c1-7.9,5.7-14.6,5.7-14.6s0-3.2-0.5-8.5c-0.3-3.2-0.7-9.9-1-14.7c-0.2-3-0.3-5.3-0.3-5.3
			c1.1,2.2,3.1,3.7,3.1,3.7l5.3,27.7C50.7,250.3,45.2,255.6,47.8,266.6z"/>
		<linearGradient id="SVGID_25_" gradientUnits="userSpaceOnUse" x1="44.3335" y1="277.2941" x2="44.6289" y2="231.1082">
			<stop  offset="1.000000e-02" style="stop-color:#002440"/>
			<stop  offset="1" style="stop-color:#002D4E"/>
		</linearGradient>
		<path class="st58" d="M47.8,266.6c0.1,0.5,0.3,1.1,0.4,1.6c-0.7,0.9-3.3,4.3-5.2,7.3c-2.2,3.4-4,9.6-4,9.6l-0.8-1.3
			c0.3-1.7,0.7-3.9,1.2-5.9c1.1-4.2,4.4-10.6,4.4-10.6s0.1-4.2,0.6-8.3c0.5-4,2.8-11.6,2.8-11.6l-2.8-18.2c0,0-1-2.8-1.8-4.9
			c-0.2-3-0.3-5.3-0.3-5.3c1.1,2.2,3.1,3.7,3.1,3.7l5.3,27.7C50.7,250.3,45.2,255.6,47.8,266.6z"/>
		<g>
			<path class="st59" d="M33.8,286.6c0,0,1.3,1.1,3.2,2c0.9,0.4,1.8,0.9,2.8,1.1c2.6,0.7,4,0.5,4.4,0.4c0.1,0,0.1-0.1,0.1-0.1
				c0-0.2-2.6-2.2-3.6-3.4c-0.7-0.9-1.3-1.7-1.7-2.5c-0.4-0.8-1-1.4-1.5-1.9c-0.3-0.3-0.5-0.5-0.5-0.5l-2.4,3.5L33.8,286.6z"/>
			<path class="st60" d="M33.8,286.6c0,0,2.9,2.3,6,3.1c2.6,0.7,4,0.5,4.4,0.4c-1.7-0.1-4.2-0.9-6.6-2.3c-1.6-0.9-2.5-1.8-3-2.5
				L33.8,286.6z"/>
			<path class="st61" d="M33.8,286.6c0,0,1.3,1.1,3.2,2c0-0.5,0-1.1,0-1.7c0-1.7,0.6-3.7,0.6-4.6c-0.3-0.3-0.5-0.5-0.5-0.5l-2.4,3.5
				L33.8,286.6z"/>
		</g>
		<g>
			<linearGradient id="SVGID_26_" gradientUnits="userSpaceOnUse" x1="102.1118" y1="196.3832" x2="65.277" y2="191.3602">
				<stop  offset="0" style="stop-color:#EDC4A0"/>
				<stop  offset="1" style="stop-color:#EDA687"/>
			</linearGradient>
			<path class="st62" d="M96.5,197.9c0,0.2-0.1,0.4-0.5,0.5c0,0,0,0,0,0c-0.6,0.1-1.1-0.4-1.2-0.6c0,0.1,0.1,0.2,0.2,0.3v0
				c0.1,0.2,0.2,0.5-0.1,0.5c-0.1,0-0.2,0-0.4,0c-0.5-0.1-1.1-0.4-1.1-0.4s0,0-0.2,0h-0.8c-1,0-3.4-1.5-3.4-1.5l-0.8,0.5
				c0,0-4.1,0.8-9.1,0.5c-4.9-0.3-13-3.3-13.5-3.8c0,0,0.2-1.4,0.6-2.6c0.1-0.4,0.2-0.7,0.3-1c0.5-1.3,2.7-3.1,2.7-3.1
				s6.1,3.1,9.6,4.3c3.4,1.3,8.8,2.4,8.8,2.4s1.8-1.7,3.2-1.9c1.5-0.2,3.7,2.3,4.9,3.5c0.7,0.8,0.9,1.3,0.8,1.7
				c0,0.2-0.1,0.3-0.1,0.3S96.5,197.7,96.5,197.9z"/>
			<path class="st63" d="M92.5,198.3h-0.1c-1,0-3.4-1.5-3.4-1.5l-0.8,0.5c0,0-4.1,0.8-9.1,0.5c-4.9-0.3-13-3.3-13.5-3.8
				c0,0,0.2-1.4,0.6-2.6c1.2,1.1,6,3.8,11.3,4.6c5.6,0.8,10.9,0.6,10.9,0.6l0.8-0.5C89.1,196,91.2,197.7,92.5,198.3z"/>
			<path class="st63" d="M94.5,198.7c-0.5-0.1-1.1-0.4-1.1-0.4s0,0-0.2,0c-1.2-1-2-2.4-2-2.4l0.6,0.5
				C92.6,197.4,94,198.3,94.5,198.7z"/>
			<path class="st63" d="M94.8,197.8c0,0.1,0.1,0.2,0.2,0.3c0,0,0,0-0.1-0.1c-0.9-0.9-1.5-1.9-1.6-2c0.6,0.7,2.1,1.8,2.7,2.3
				C95.4,198.5,94.9,198,94.8,197.8z"/>
			<path class="st63" d="M96.5,197.9c-0.5-0.5-2.4-2.3-2.6-2.6c-0.2-0.2,1.6,1.2,2.6,2.1c0,0.2-0.1,0.3-0.1,0.3
				S96.5,197.7,96.5,197.9z"/>
		</g>
		
			<linearGradient id="SVGID_27_" gradientUnits="userSpaceOnUse" x1="-185.959" y1="161.1373" x2="-177.4107" y2="152.6771" gradientTransform="matrix(-1 0 0 1 -111.7061 0)">
			<stop  offset="0" style="stop-color:#F1C7A3"/>
			<stop  offset="1" style="stop-color:#F0A98B"/>
		</linearGradient>
		<path class="st64" d="M63.5,158.4c0,0,0.5,0.4,1.2,1c0.7,0.5,1.5,1,2.5,1.4c2.1,0.8,4.4,0.9,4.4,0.9s0,0,1.1,0.1
			c1.1,0.1,1.8-0.6,1.8-0.6c-0.4-0.2-1.5-2.1-1.9-3.6c-0.3-1.3-0.2-3.8-0.1-5.2c0-0.3,0.1-0.6,0.1-0.8c0,0-4.3,0.1-6.5,2.7
			C63.8,156.8,63.5,158.4,63.5,158.4z"/>
		<path class="st63" d="M63.5,158.4c0,0,0.5,0.4,1.2,1c0.5-1.1,0.8-2.8,0.8-2.8s0.9-1.8,2.6-3c1.5-1.1,3.2-1.3,4.2-1.2
			c0-0.3,0.1-0.6,0.1-0.8c0,0-4.3,0.1-6.5,2.7C63.8,156.8,63.5,158.4,63.5,158.4z"/>
		
			<linearGradient id="SVGID_28_" gradientUnits="userSpaceOnUse" x1="-178.7994" y1="143.767" x2="-177.301" y2="163.731" gradientTransform="matrix(-1 0 0 1 -111.7061 0)">
			<stop  offset="0" style="stop-color:#48210D"/>
			<stop  offset="0.995" style="stop-color:#4C2112"/>
		</linearGradient>
		<path class="st65" d="M58,161.7c0.6-0.5,1.4-0.9,2.3-1.1c0,0,0,0.5,0.3,2.3c0.2,1.1,1.1,3.2,1.1,3.2v0c0.4,0.4,0.8,0.7,1.2,1
			c1.7,1.2,3.9,1.3,5.6,0c0.4-0.3,0.7-0.6,1-1c0.1-0.1,0.2-0.2,0.3-0.4c0.7-0.9,1.1-1.8,1.4-2.5c0.3-0.9,0.4-1.5,0.4-1.5
			s-2.3-0.1-4.4-0.9c-2.1-0.8-3.7-2.4-3.7-2.4s0-0.1,0-0.2c0.1-0.5,0.7-1.9,2.4-4c2.2-2.6,6.5-2.7,6.5-2.7s1.4,0.7,3.2-0.3
			c0.8-0.4,1.7-1.1,2.3-1.7c0.8-0.8,1.2-1.7,0.6-2.3c-1-0.9-2.9,0.8-3.1,1c0.1-0.3,1.1-2.6,0.5-3c-0.7-0.5-2.7,1.4-2.7,1.4
			s-0.8-3.9-7.9-4.5c-4.9-0.4-8,1.4-9.6,4.6c-0.7,1.5-1.2,3.2-1.3,5.2C54,156.2,56.4,159.9,58,161.7z"/>
		
			<linearGradient id="SVGID_29_" gradientUnits="userSpaceOnUse" x1="-178.1205" y1="147.4935" x2="-176.5825" y2="167.9846" gradientTransform="matrix(-1 0 0 1 -111.7061 0)">
			<stop  offset="0" style="stop-color:#48210D"/>
			<stop  offset="0.995" style="stop-color:#4C2112"/>
		</linearGradient>
		<path class="st66" d="M58,161.7c0.6-0.5,1.4-0.9,2.3-1.1c0,0,0,0.5,0.3,2.3c0.2,1.1,1.1,3.2,1.1,3.2v0c0.4,0.4,0.8,0.7,1.2,1
			c1.7,1.2,3.9,1.3,5.6,0c-0.8-0.1-1.9-0.3-3.1-0.8c-2.5-1.1-3.5-2.9-3.4-4.9c0-0.9,0.7-2.1,1.6-3.2c0.1-0.5,0.7-1.9,2.4-4
			c2.2-2.6,6.5-2.7,6.5-2.7s1.4,0.7,3.2-0.3c0.8-0.4,1.7-1.1,2.3-1.7c-1.3,0.9-3,1.6-4.5,1.2c-1.9-0.6-5-0.9-6.5-0.2
			c-1.5,0.8-1.9,1.3-1.9,1.3s-1.5-1.9-1.3-2.9c0.2-1-0.2-1-0.2-1s-0.9,3-1.6,3.7c-0.6,0.6-5.9-1.4-6.3-4.8c-0.7,1.5-1.2,3.2-1.3,5.2
			C54,156.2,56.4,159.9,58,161.7z"/>
		<path class="st67" d="M71.3,154.1c0.4-0.2,0.2-1.1-1.2-1.2c-1.1,0-2,0.8-1.9,1c0.1,0.2,0.8-0.2,1.5-0.1
			C70.4,153.9,71,154.3,71.3,154.1z"/>
		
			<linearGradient id="SVGID_30_" gradientUnits="userSpaceOnUse" x1="-172.6478" y1="168.4041" x2="-170.7092" y2="163.5574" gradientTransform="matrix(-1 0 0 1 -111.7061 0)">
			<stop  offset="0" style="stop-color:#EDC4A0"/>
			<stop  offset="1" style="stop-color:#EDA687"/>
		</linearGradient>
		<path class="st68" d="M56.5,163.3c0,0,0.5,0.1,1.3,0.5c0.5,0.3,1.2,0.8,1.8,1.6c0.5,0.7,1,1.3,1.5,2.1l0.2-0.5l0.3-0.8v0
			c0,0-0.9-2.1-1.1-3.2c-0.3-1.8-0.3-2.3-0.3-2.3c-0.9,0.2-1.7,0.7-2.3,1.1C57,162.5,56.5,163.3,56.5,163.3z"/>
		<linearGradient id="SVGID_31_" gradientUnits="userSpaceOnUse" x1="46.4436" y1="176.7141" x2="63.569" y2="203.6809">
			<stop  offset="0" style="stop-color:#B80E1B"/>
			<stop  offset="0.995" style="stop-color:#A3000F"/>
		</linearGradient>
		<path class="st69" d="M69.2,187.3c0,0-0.1,0.2-0.3,0.4c-0.1,0.1-0.1,0.2-0.2,0.3c0,0,0,0.1-0.1,0.1c-0.4,0.5-0.9,1.3-1.4,1.9
			c0,0-0.1,0.1-0.1,0.1c0,0.1-0.1,0.1-0.1,0.2c0,0-0.1,0.1-0.1,0.1c-0.2,0.3-0.4,0.8-0.6,1.2c-0.5,1.2-0.7,2.4-0.7,2.4
			c-0.4-0.2-0.9-0.6-1.3-1.1c-1-1-2-2.3-2.6-3.3c0,0,0,0,0,0.1c0,0.1-0.1,0.2-0.1,0.3c-0.2,0.6-0.4,1.3-0.5,1.9
			c0,0.1-0.1,0.3-0.1,0.4c0,0,0,0,0,0c0,0,0,0,0,0.1c-0.2,1.4-0.1,2.1,0.1,2.4c0,0,0.1,0.6,0.1,1.5c0,0.2,0,0.3,0,0.5
			c0,1.1,0.1,2.4,0.1,3.7c0,0.2,0,0.3,0,0.5c0,0.1,0,0.2,0,0.3c0,1.2-0.1,2.2-0.3,2.5c-0.4,0.7-0.8,1.2-1.2,1.7
			c-1.1,1.4-1.6,1.8-1.6,1.8s-0.1,0-0.3,0.1c-0.2,0-0.6,0.1-1.1,0.2c-0.9,0.1-2.1,0.2-3.6,0.1c-0.8-0.1-1.5-0.2-2.4-0.4
			c-0.3-0.1-0.6-0.2-1-0.3c-0.3-0.1-0.6-0.2-0.8-0.3c0,0,0,0,0,0c-0.2-0.1-0.3-0.1-0.5-0.2c0,0,0,0,0,0c-0.3-0.1-0.6-0.2-0.8-0.4
			c0,0,0,0,0,0c-0.7-0.3-1.3-0.6-1.9-1c-2.6-1.5-4-3.3-4.3-4.1c0,0,0-0.1,0-0.1c0-0.1,0-0.2-0.1-0.4c0-0.1,0-0.2,0-0.3
			c-0.2-1.4-0.2-4.3,0.2-8c0-0.1,0-0.3,0.1-0.4c0-0.1,0-0.2,0-0.4c0.2-1.6,0.6-3.4,1-5.1c0-0.1,0.1-0.2,0.1-0.4
			c0-0.1,0.1-0.2,0.1-0.3c0.3-1.2,0.7-2.3,1.2-3.5c0.6-1.5,1.2-2.9,1.8-4.3c0-0.1,0.1-0.2,0.1-0.2c0.1-0.1,0.1-0.2,0.1-0.3
			c0.7-1.7,1.4-3.2,2.1-4.6c0.1-0.1,0.1-0.2,0.2-0.3c0.1-0.2,0.2-0.4,0.3-0.5c1-1.9,1.9-3.6,2.8-4.9c0,0,0,0,0,0
			c0.1-0.1,0.1-0.2,0.2-0.3c0.6-0.9,1.2-1.5,1.7-2c0.1-0.1,0.1-0.1,0.2-0.2c0.1-0.1,0.2-0.2,0.3-0.2c0.1-0.1,0.1-0.1,0.2-0.1
			c0.8-0.6,1.4-0.9,1.7-1c0.6-0.1,0.8,0.1,0.8,0.1s1.1,0.1,2.4,1.2c0.1,0.1,0.2,0.2,0.3,0.3c0,0,0.1,0.1,0.1,0.1
			c0,0,0.1,0.1,0.1,0.1c0.1,0.1,0.1,0.2,0.2,0.3c0.5,0.7,1,1.3,1.5,2.1c0.3,0.5,0.6,1,0.9,1.6c0.3,0.6,0.6,1.4,1,2.3
			c0,0.1,0.1,0.3,0.1,0.4c0.3,0.7,0.6,1.7,0.9,2.7c0.3,0.9,0.6,1.8,0.9,2.7c0.3,1.1,0.7,3,1.4,5.1c0.2,0.7,0.4,1.3,0.7,2
			c0.1,0.3,0.2,0.5,0.3,0.8c0.1,0.2,0.6,0.8,1,1.4C68.8,186.8,69.2,187.3,69.2,187.3z"/>
		<g class="st70">
			
				<linearGradient id="SVGID_32_" gradientUnits="userSpaceOnUse" x1="-174.8791" y1="173.2078" x2="-165.1569" y2="173.2078" gradientTransform="matrix(-1 0 0 1 -111.7061 0)">
				<stop  offset="0" style="stop-color:#B80E1B"/>
				<stop  offset="0.995" style="stop-color:#A3000F"/>
			</linearGradient>
			<path class="st71" d="M53.5,173.9c0,0,0.3,2.6,0.7,3.5c0,0,3.1-0.2,4.2-1.3c0.9-0.8,3.6-3.3,4.8-4.4c0-0.1-0.1-0.3-0.1-0.4
				c-0.3-0.9-0.6-1.6-1-2.3C60.6,170.5,56.9,174.3,53.5,173.9z"/>
			
				<linearGradient id="SVGID_33_" gradientUnits="userSpaceOnUse" x1="-176.6769" y1="179.145" x2="-167.6833" y2="179.145" gradientTransform="matrix(-1 0 0 1 -111.7061 0)">
				<stop  offset="0" style="stop-color:#B80E1B"/>
				<stop  offset="0.995" style="stop-color:#A3000F"/>
			</linearGradient>
			<path class="st72" d="M56,181.6c0,0,2.2,2.4,2.2,2.3c0.4-0.3,1.9-1.2,4.1-3.7c1.3-1.5,2.1-2.5,2.6-3.1c-0.3-0.9-0.6-1.9-0.9-2.7
				c-1.4,2.1-2.2,2.8-3.9,4.5C58.4,180.7,56.7,181.4,56,181.6z"/>
			
				<linearGradient id="SVGID_34_" gradientUnits="userSpaceOnUse" x1="-171.6803" y1="195.4221" x2="-168.09" y2="195.4221" gradientTransform="matrix(-1 0 0 1 -111.7061 0)">
				<stop  offset="0" style="stop-color:#B80E1B"/>
				<stop  offset="0.995" style="stop-color:#A3000F"/>
			</linearGradient>
			<path class="st73" d="M56.8,207.5c0.5-0.1,0.8-0.1,1.1-0.2c0.2,0,0.3-0.1,0.3-0.1s0.6-0.4,1.6-1.8c0,0,0,0,0,0
				c-0.1-1-0.3-2.4-0.3-3.2c-0.1-1.5-0.2-4.6,0-8.2c0.2-3.6,0.4-6.3,0.5-7.6c0,0-0.6-0.7-1.2-1.6c-0.2-0.3-0.4-0.6-0.6-0.8
				c-0.3-0.4-0.5-0.6-0.5-0.6s0,0,0,0.1c0,0.3-0.2,1.2-0.5,3.9c-0.4,3.6-0.7,8.2-0.8,11.9C56.3,202.3,56.6,206.1,56.8,207.5z"/>
			
				<linearGradient id="SVGID_35_" gradientUnits="userSpaceOnUse" x1="-167.3316" y1="190.9966" x2="-161.3204" y2="190.9966" gradientTransform="matrix(-1 0 0 1 -111.7061 0)">
				<stop  offset="0" style="stop-color:#B80E1B"/>
				<stop  offset="0.995" style="stop-color:#A3000F"/>
			</linearGradient>
			<path class="st74" d="M50.8,207.2c0.8,0.2,1.6,0.3,2.4,0.4c-0.1-0.6-0.2-1.3-0.2-1.9c-0.1-0.9-0.2-5.2-0.1-8.2
				c0.1-2.9,0.6-6.7,1.4-10c0.7-3.3,1.2-5.8,1.5-7.2c0,0-0.5-0.9-1.4-2.6c-0.9-1.8-0.9-3.3-0.9-3.3c-0.5,1.5-1.8,5.9-1.8,7.3
				c-0.1,1.4-1.7,10.5-1.9,17.5C49.5,203.4,50.2,205.9,50.8,207.2z"/>
			
				<linearGradient id="SVGID_36_" gradientUnits="userSpaceOnUse" x1="-167.3943" y1="184.1677" x2="-152.8693" y2="184.1677" gradientTransform="matrix(-1 0 0 1 -111.7061 0)">
				<stop  offset="0" style="stop-color:#B80E1B"/>
				<stop  offset="0.995" style="stop-color:#A3000F"/>
			</linearGradient>
			<path class="st75" d="M41.4,201.1c0.3,0.9,1.7,2.6,4.3,4.1c0.1-0.9,0.2-2.4,0.1-3.9c-0.1-2.3-0.2-5.8-0.1-7.9
				c0.1-2.1,0.5-4.4,1.4-7.9c0.8-3.5,3.1-9.5,4.5-13.6c1.3-3.6,3-7.3,4.1-8.8c-0.5,0.1-1.3,0.5-2.4,1.5c-2.5,2.3-5.9,8.9-9.3,17.6
				C40.6,191,41.1,199.9,41.4,201.1z"/>
		</g>
		<g class="st76">
			<g>
				<linearGradient id="SVGID_37_" gradientUnits="userSpaceOnUse" x1="59.0332" y1="176.3942" x2="68.8834" y2="176.3942">
					<stop  offset="0" style="stop-color:#B80E1B"/>
					<stop  offset="0.995" style="stop-color:#A3000F"/>
				</linearGradient>
				<path class="st77" d="M68.9,187.7c-0.1,0.1-0.1,0.2-0.2,0.3c-4.2-3.9-5.9-8.2-7.3-11.8c-1.8-4.5-2.2-8.6-2.3-11.2
					c0-0.1,0-0.1,0.1-0.2c0,0,0.1,0.1,0.1,0.1c0,0,0.1,0,0.1,0.1c0,0,0,0,0,0c0,0,0,0,0,0c0.1,2.6,0.5,6.5,2.3,11
					C63.4,180.5,65.1,184.3,68.9,187.7z"/>
			</g>
			<g>
				<linearGradient id="SVGID_38_" gradientUnits="userSpaceOnUse" x1="53.4835" y1="177.3068" x2="67.1338" y2="177.3068">
					<stop  offset="0" style="stop-color:#B80E1B"/>
					<stop  offset="0.995" style="stop-color:#A3000F"/>
				</linearGradient>
				<path class="st78" d="M67.1,190.1c0,0.1-0.1,0.1-0.1,0.2c0,0-0.1,0.1-0.1,0.1c-2-1.6-4.5-4.2-6.3-7.7
					c-3.1-6.1-4.6-12.3-4.9-15.7c-0.3-0.2-1.5-0.9-2.2-2.5c0.1-0.1,0.2-0.2,0.3-0.2c0.7,1.7,2.2,2.4,2.2,2.4c0.1,0,0.1,0.1,0.1,0.1
					c0.3,3.4,1.8,9.6,4.9,15.7C62.7,185.9,65.2,188.5,67.1,190.1z"/>
			</g>
			<g>
				
					<linearGradient id="SVGID_39_" gradientUnits="userSpaceOnUse" x1="-165.7647" y1="168.3854" x2="-163.0711" y2="168.3854" gradientTransform="matrix(-1 0 0 1 -111.7061 0)">
					<stop  offset="0" style="stop-color:#B80E1B"/>
					<stop  offset="0.995" style="stop-color:#A3000F"/>
				</linearGradient>
				<path class="st79" d="M53.9,170c-0.4-0.5-1.7-1.9-2.6-3c0.1-0.1,0.1-0.2,0.2-0.3c0.7,0.9,1.7,2.1,2.5,2.9
					C54,169.8,54,169.9,53.9,170z"/>
			</g>
			<g>
				
					<linearGradient id="SVGID_40_" gradientUnits="userSpaceOnUse" x1="-165.8936" y1="175.1524" x2="-159.8152" y2="175.1524" gradientTransform="matrix(-1 0 0 1 -111.7061 0)">
					<stop  offset="0" style="stop-color:#B80E1B"/>
					<stop  offset="0.995" style="stop-color:#A3000F"/>
				</linearGradient>
				<path class="st80" d="M48.3,172.5c1.8,2,4.5,4,5.6,4.7c0.1,0.2,0.2,0.4,0.3,0.5c0,0,0,0.1,0,0.1c0,0,0,0,0,0c0,0-3.7-2.5-6.1-5
					C48.2,172.7,48.2,172.6,48.3,172.5z"/>
			</g>
			<g>
				
					<linearGradient id="SVGID_41_" gradientUnits="userSpaceOnUse" x1="-170.82" y1="181.3834" x2="-157.5505" y2="181.3834" gradientTransform="matrix(-1 0 0 1 -111.7061 0)">
					<stop  offset="0" style="stop-color:#B80E1B"/>
					<stop  offset="0.995" style="stop-color:#A3000F"/>
				</linearGradient>
				<path class="st81" d="M46,177.4c0.8,0.8,2.7,2.5,5.7,4.2c2.9,1.6,5.7,2.8,7.2,3.3c0.1,0.2,0.2,0.3,0.3,0.5
					c-1.2-0.4-4.4-1.6-7.6-3.5c-2.9-1.6-4.8-3.3-5.6-4.1C45.9,177.6,45.9,177.5,46,177.4z"/>
			</g>
			<g>
				
					<linearGradient id="SVGID_42_" gradientUnits="userSpaceOnUse" x1="-173.3529" y1="187.9812" x2="-154.3374" y2="187.9812" gradientTransform="matrix(-1 0 0 1 -111.7061 0)">
					<stop  offset="0" style="stop-color:#B80E1B"/>
					<stop  offset="0.995" style="stop-color:#A3000F"/>
				</linearGradient>
				<path class="st82" d="M42.6,186.5c1.4-0.2,4.4-0.4,9.4,0.7c4.1,0.9,8,2.3,9.5,2.8c0-0.1,0.1-0.2,0.1-0.3
					c-1.6-0.6-5.4-1.9-9.6-2.8c-4.8-1.1-7.8-1-9.3-0.8C42.7,186.2,42.7,186.3,42.6,186.5z"/>
			</g>
			<g>
				
					<linearGradient id="SVGID_43_" gradientUnits="userSpaceOnUse" x1="-172.7605" y1="192.1567" x2="-153.2581" y2="192.1567" gradientTransform="matrix(-1 0 0 1 -111.7061 0)">
					<stop  offset="0" style="stop-color:#B80E1B"/>
					<stop  offset="0.995" style="stop-color:#A3000F"/>
				</linearGradient>
				<path class="st83" d="M41.6,191.9c1.8,0.2,6.1,0.6,9.7,0.7c1.1,0,2.1,0.1,3.1,0.1c2.9,0,5.3-0.2,6.7-0.5c0-0.1,0-0.2,0.1-0.4
					c-1.6,0.4-5.4,0.6-9.8,0.4c-3.6-0.1-7.8-0.5-9.7-0.7C41.6,191.7,41.6,191.8,41.6,191.9z"/>
			</g>
			<g>
				<linearGradient id="SVGID_44_" gradientUnits="userSpaceOnUse" x1="41.3176" y1="198.741" x2="61.2135" y2="198.741">
					<stop  offset="0" style="stop-color:#B80E1B"/>
					<stop  offset="0.995" style="stop-color:#A3000F"/>
				</linearGradient>
				<path class="st84" d="M61.2,196.8c-1.4,1.5-4,3.3-8.6,4c-2.3,0.3-4.5,0.4-6.4,0.4c-2,0-3.7-0.1-4.8-0.2c0-0.1,0-0.2-0.1-0.4
					c2.2,0.2,6.7,0.4,11.3-0.2c4.7-0.6,7.2-2.6,8.6-4.1C61.2,196.5,61.2,196.6,61.2,196.8z"/>
			</g>
			<g>
				<linearGradient id="SVGID_45_" gradientUnits="userSpaceOnUse" x1="47.5996" y1="203.4913" x2="61.2716" y2="203.4913">
					<stop  offset="0" style="stop-color:#B80E1B"/>
					<stop  offset="0.995" style="stop-color:#A3000F"/>
				</linearGradient>
				<path class="st85" d="M61.3,200.5c0,0.2,0,0.3,0,0.5c-1,1-2.3,2.1-3.7,2.9c-3.1,1.7-5.7,2.7-9.1,2.7c0,0,0,0,0,0
					c-0.3-0.1-0.6-0.2-0.8-0.4c3.8,0.1,6.4-0.8,9.8-2.7C58.9,202.7,60.2,201.5,61.3,200.5z"/>
			</g>
		</g>
		<linearGradient id="SVGID_46_" gradientUnits="userSpaceOnUse" x1="59.6527" y1="186.1356" x2="66.9974" y2="186.1356">
			<stop  offset="0" style="stop-color:#B80E1B"/>
			<stop  offset="0.995" style="stop-color:#A3000F"/>
		</linearGradient>
		<path class="st86" d="M67,184.1c-0.7,0.8-2.2,2.3-3.7,3.5c-2.1,1.7-3.1,2.4-3.1,2.4l-0.6-3.2c0,0,3-1.3,4.7-2.7
			c0.9-0.7,1.6-1.5,2-2C66.5,182.8,66.8,183.5,67,184.1z"/>
		<path class="st63" d="M56.5,163.3c0,0,0.5,0.1,1.3,0.5c0.7,0,2.3,0,2.5,0c0.2,0,0.4,2.3,1,3.2l0.3-0.8v0c0,0-0.9-2.1-1.1-3.2
			c-0.3-1.8-0.3-2.3-0.3-2.3c-0.9,0.2-1.7,0.7-2.3,1.1C57,162.5,56.5,163.3,56.5,163.3z"/>
		<path class="st63" d="M71.6,161.7c0,0,0,0,1.1,0.1c1.1,0.1,1.8-0.6,1.8-0.6c-0.2-0.1-0.8-0.1-1.8,0
			C71.5,161.3,71.6,161.7,71.6,161.7z"/>
		<path class="st87" d="M61.3,167.7c0,0-0.6-2.6-1.9-4c-1.3-1.4-2.3-1.5-2.3-1.5s-0.9,0.7-0.9,1l0.3,0.1c0,0,1.2,0.3,2,1.1
			C59.4,165.1,61.3,167.7,61.3,167.7z"/>
		<g>
			<path class="st88" d="M41.3,200.3c1.4,0.1,7.9,0.3,11.9-0.3c3.7-0.5,7.2-3.7,8.3-4.8c-0.2-0.2-0.3-0.3-0.3-0.4
				c-0.2-0.3-0.4-1-0.1-2.4c-1.1,0.3-3.9,0.9-9.8,0.9c-6.3,0-8.9-0.6-9.7-0.9C41.1,196,41.1,198.9,41.3,200.3z"/>
			<path class="st88" d="M42.8,185.8c1-0.1,4.7-0.2,8,0.5c3.9,0.9,10.8,3.4,10.8,3.4l0,0c0,0-1.6-2.8-2.6-4.1c0,0-8.5-2.3-13.3-7.6
				c-0.6,1.4-1.2,2.8-1.8,4.3C43.5,183.4,43.1,184.6,42.8,185.8z"/>
			
				<linearGradient id="SVGID_47_" gradientUnits="userSpaceOnUse" x1="-165.6708" y1="171.7749" x2="-160.2532" y2="171.7749" gradientTransform="matrix(-1 0 0 1 -111.7061 0)">
				<stop  offset="0" style="stop-color:#B80E1B"/>
				<stop  offset="0.995" style="stop-color:#A3000F"/>
			</linearGradient>
			<path class="st89" d="M48.5,171.9c2.3,3.3,5.2,4.6,5.2,4.6s-0.3-2.3-0.4-3.6c-0.1-1.4,0.4-2.4,0.4-2.4s0.3,0,0-0.2
				c-0.3-0.2-1.9-2.3-2.4-3.2C50.5,168.3,49.5,170,48.5,171.9z"/>
			
				<linearGradient id="SVGID_48_" gradientUnits="userSpaceOnUse" x1="-170.5385" y1="164.7605" x2="-165.6429" y2="164.7605" gradientTransform="matrix(-1 0 0 1 -111.7061 0)">
				<stop  offset="0" style="stop-color:#B80E1B"/>
				<stop  offset="0.995" style="stop-color:#A3000F"/>
			</linearGradient>
			<path class="st90" d="M53.9,164.1c0.6,1.6,2.2,2.3,2.2,2.3c0.6-0.8,2.1-1.6,2.7-1.9c-1.3-1.1-2.4-1.2-2.4-1.2s-0.2-0.3-0.8-0.1
				C55.3,163.2,54.7,163.5,53.9,164.1z"/>
			<linearGradient id="SVGID_49_" gradientUnits="userSpaceOnUse" x1="56.1089" y1="177.3906" x2="68.6164" y2="177.3906">
				<stop  offset="0" style="stop-color:#B80E1B"/>
				<stop  offset="0.995" style="stop-color:#A3000F"/>
			</linearGradient>
			<path class="st91" d="M68.6,188c-0.4,0.5-0.9,1.3-1.4,1.9c-1.2-1-2.7-2.4-4-4c-2.7-3.7-5.5-11.2-6.3-14.4
				c-0.8-3.2-0.9-4.9-0.9-4.9s0.9-1,1.8-1.4c0.9-0.4,1.2-0.3,1.2-0.3c-0.2,1.2-0.2,4.8,1.7,10.1C62.5,179.5,64.3,184.5,68.6,188z"/>
			<linearGradient id="SVGID_50_" gradientUnits="userSpaceOnUse" x1="48.9631" y1="204.4474" x2="61.2589" y2="204.4474">
				<stop  offset="0" style="stop-color:#B80E1B"/>
				<stop  offset="0.995" style="stop-color:#A3000F"/>
			</linearGradient>
			<path class="st92" d="M61.3,201.2c0,1.2-0.1,2.2-0.3,2.5c-0.4,0.7-0.8,1.2-1.2,1.7c-1.1,1.4-1.6,1.8-1.6,1.8s-0.1,0-0.3,0.1
				c-0.2,0-0.6,0.1-1.1,0.2c-0.9,0.1-2.1,0.2-3.6,0.1c-0.8-0.1-1.5-0.2-2.4-0.4c-0.6-0.1-1.2-0.3-1.8-0.5c2.7-0.3,6.7-1.5,8.8-2.7
				C59,203.3,60.2,202.3,61.3,201.2z"/>
		</g>
		<g>
			<path class="st59" d="M54.4,291.5c0,0,1.6,0.6,3.6,0.9c1,0.1,2,0.2,3,0.2c2.6-0.2,3.9-0.8,4.3-1c0.1-0.1,0.1-0.1,0.1-0.1
				c0-0.2-3.2-1.3-4.4-2c-1-0.6-1.7-1.2-2.4-1.8c-0.7-0.6-1.4-1-2-1.3c-0.4-0.2-0.6-0.3-0.6-0.3l-1.2,4.1L54.4,291.5z"/>
			<path class="st60" d="M54.4,291.5c0,0,3.5,1.2,6.6,1c2.6-0.2,3.9-0.8,4.3-1c-1.7,0.4-4.2,0.5-6.9-0.1c-1.7-0.4-2.9-0.9-3.6-1.4
				L54.4,291.5z"/>
			<path class="st61" d="M54.4,291.5c0,0,1.6,0.6,3.6,0.9c-0.2-0.5-0.4-1.1-0.6-1.6c-0.6-1.6-0.6-3.7-0.8-4.5
				c-0.4-0.2-0.6-0.3-0.6-0.3l-1.2,4.1L54.4,291.5z"/>
		</g>
		<path class="st93" d="M67.5,162.8c0,0,0.7,2.1,2.2,3c0.7-0.9,1.1-1.8,1.4-2.5C70.6,163.3,68.9,163.4,67.5,162.8z"/>
		<path class="st93" d="M68.1,156.4c0,0,0.5,0.7,1.3,0.8c0.2,0,0.3,0,0.4,0.1c0.4,0,0.4-0.1,0.4-0.1s0.8-0.6,0.7-1.8
			c0-0.2-0.3-0.3-0.7-0.2c-0.3,0-0.7,0.2-1,0.4C68.6,155.9,68.1,156.4,68.1,156.4z"/>
		<path class="st94" d="M69.8,157.3c0.4,0,0.4-0.1,0.4-0.1s0.8-0.6,0.7-1.8c0-0.2-0.3-0.3-0.7-0.2c-0.4,0.1-0.7,0.5-0.7,0.9
			C69.4,156.6,69.5,157,69.8,157.3z"/>
		<path class="st95" d="M71,155.4c-0.1-0.2-0.7-0.5-1.5-0.3c-0.7,0.2-1.7,1.4-1.7,1.4s0.3,0,0.4,0c0.1,0,0.8-0.7,1.4-1
			c0.7-0.2,1.3,0.2,1.3,0.2S71.1,155.5,71,155.4z"/>
		<path class="st96" d="M70.9,155.7c-0.1,0-0.8-0.3-1.5,0.1c-0.7,0.5-1.1,0.6-1.3,0.6c0,0,0.5-0.8,1.3-1.2
			C70.3,155,70.9,155.7,70.9,155.7z"/>
		<path class="st97" d="M66.3,191.5c-0.5,1.2-0.7,2.4-0.7,2.4c-1.3-0.7-3-3-4-4.4c0,0,0,0,0,0.1c0,0.1-0.1,0.2-0.1,0.3
			c-0.2,0.6-0.4,1.3-0.5,1.9c0,0.1-0.1,0.3-0.1,0.4c0,0,0,0,0,0c0,0,0,0,0,0.1c-0.2,1.4-0.1,2.1,0.1,2.4c0,0,0.1,0.6,0.1,1.5
			c0,0.2,0,0.3,0,0.5c0,1.1,0.1,2.4,0.1,3.7c0,0.2,0,0.3,0,0.5c0,0.1,0,0.2,0,0.3c0,1.2-0.1,2.2-0.3,2.5c-0.4,0.7-0.8,1.2-1.2,1.7
			c-1.1,1.4-1.6,1.8-1.6,1.8s-0.1,0-0.3,0.1c-0.2,0-0.6,0.1-1.1,0.2c-0.9,0.1-2.1,0.2-3.6,0.1c-0.8-0.1-1.5-0.2-2.4-0.4
			c-0.3-0.1-0.6-0.2-1-0.3c0.1-1.7,0.4-3.7,0.7-5.3c0.6-3.4,1.5-5.6,3-11.5c1.5-5.9,1.8-8.6,1.8-8.6l-0.6-2.4
			c-1.7-4.4-0.8-8.4-0.8-8.4l0.5,2.4c0,0,3.8,8.7,6.2,12c2.4,3.4,5.3,5.8,5.7,6.1L66.3,191.5z"/>
		<linearGradient id="SVGID_51_" gradientUnits="userSpaceOnUse" x1="53.0266" y1="205.5943" x2="46.9206" y2="278.7664">
			<stop  offset="1.000000e-02" style="stop-color:#002440"/>
			<stop  offset="1" style="stop-color:#002D4E"/>
		</linearGradient>
		<path class="st98" d="M61.6,189.7l0,1.2l-0.1,9.1l0,2.9c0,0-0.1,2-0.2,5c0,0.7-0.1,1.4-0.1,2.2c-0.3,7.9-0.8,20.2-0.7,26.3
			c0.1,9.3-2.1,51.3-2.1,51.3l-2.7-0.4c0,0-4.9-8.8-7.6-19.1c-0.1-0.5-0.3-1-0.4-1.6c-2.5-10.9,2.1-16.4,2.1-16.4l-5.2-27.8
			c0,0-1.2-1.3-2.4-3.5c-0.6-1.2-1.2-2.6-1.5-4.2c-0.5-2.7-0.2-7.1,0.1-10.2c0.2-1.6,0.4-2.9,0.4-3.3c0-0.1,0-0.2,0-0.2
			c0.1,0.2,0.2,0.4,0.4,0.6c1.1,1.4,3.3,2.9,5.3,3.9c0,0,0,0,0,0c1.8,1,3.4,1.6,3.6,1.7c0,0,0,0,0,0l1.7-8.3c0,0,1-1.8,2.4-4.6
			c0.6-1.3,1.2-3.7,1.7-6c0.6-2.6,1-5.1,1-5.1l1.1,1.7c0,0,0.5,0.7,1.2,1.7c0.1,0.1,0.2,0.2,0.2,0.4C61,188.6,61.6,189.7,61.6,189.7
			z"/>
		<linearGradient id="SVGID_52_" gradientUnits="userSpaceOnUse" x1="40.5319" y1="182.7722" x2="61.4477" y2="182.7722">
			<stop  offset="1.000000e-02" style="stop-color:#002440"/>
			<stop  offset="1" style="stop-color:#002D4E"/>
		</linearGradient>
		<path class="st99" d="M41.6,201.6c-0.3-0.7-0.8-6.2,0.6-12.9c1.4-6.6,6.6-17.7,8.6-20.8c2.1-3.1,6.1-5.2,8.3-3.1
			c0,0,1.8,2.3,2.3,3c0,0-1.5-2.2-1.9-2.9c-0.4-0.7-1.8-1.5-2.4-1.6c-0.6-0.2-2.1-0.2-5,2.2c-2.9,2.5-5.2,8.2-7.4,13.3
			c-2.2,5.1-3.3,10.4-3.8,13.5c-1,5.6,0.4,9.8,0.4,9.8L41.6,201.6z"/>
		<linearGradient id="SVGID_53_" gradientUnits="userSpaceOnUse" x1="60.1655" y1="201.7032" x2="60.1655" y2="191.5849">
			<stop  offset="0" style="stop-color:#07364E"/>
			<stop  offset="1" style="stop-color:#002D4E"/>
		</linearGradient>
		<path class="st100" d="M61.6,189.7L61.5,200l-2.8-1c0,0,0.2-1.3,0.5-3.7c0.2-2,0.5-6.9,0.6-8.6c0.1,0.1,0.2,0.2,0.2,0.4
			C61,188.6,61.6,189.7,61.6,189.7z"/>
		<linearGradient id="SVGID_54_" gradientUnits="userSpaceOnUse" x1="59.0993" y1="189.9765" x2="59.1329" y2="184.7106">
			<stop  offset="1.000000e-02" style="stop-color:#002440"/>
			<stop  offset="1" style="stop-color:#002D4E"/>
		</linearGradient>
		<path class="st101" d="M61.6,189.7l0,1.2l-2.8-2.5c0,0-1.1-0.1-2.3,0c0.6-2.6,1-5.1,1-5.1l1.1,1.7c0,0,0.5,0.7,1.2,1.7
			c0.1,0.1,0.2,0.2,0.2,0.4C61,188.6,61.6,189.7,61.6,189.7z"/>
		<linearGradient id="SVGID_55_" gradientUnits="userSpaceOnUse" x1="49.5484" y1="213.3644" x2="49.5826" y2="208.0252">
			<stop  offset="1.000000e-02" style="stop-color:#002440"/>
			<stop  offset="1" style="stop-color:#002D4E"/>
		</linearGradient>
		<path class="st102" d="M55.3,210c-0.5,1-2.4,4.4-5.4,4.2c-3.1-0.2-6-7.7-6-7.7s1.7,1.8,5.6,2.6C53.3,210,55.3,210,55.3,210z"/>
		<g class="st103">
			<g>
				<linearGradient id="SVGID_56_" gradientUnits="userSpaceOnUse" x1="51.1041" y1="281.9178" x2="51.5394" y2="213.8729">
					<stop  offset="1.000000e-02" style="stop-color:#002440"/>
					<stop  offset="1" style="stop-color:#002D4E"/>
				</linearGradient>
				<path class="st104" d="M51.6,218c-0.1,0-0.2-0.1-0.2-0.2c-0.2-3.2-0.2-3.7-0.1-3.8c0-0.1,0.1-0.2,0.2-0.2c0.1,0,0.2,0.1,0.2,0.2
					c0,0.2,0,1.4,0.2,3.8C51.8,218,51.7,218,51.6,218C51.6,218,51.6,218,51.6,218z"/>
			</g>
			<g>
				<linearGradient id="SVGID_57_" gradientUnits="userSpaceOnUse" x1="53.046" y1="283.5644" x2="53.4866" y2="214.6855">
					<stop  offset="1.000000e-02" style="stop-color:#002440"/>
					<stop  offset="1" style="stop-color:#002D4E"/>
				</linearGradient>
				<path class="st105" d="M54.5,276.8c-0.1,0-0.2-0.1-0.2-0.2c-0.5-2.8-0.9-5.3-1.2-7.3c0-0.1,0.1-0.2,0.2-0.2
					c0.1,0,0.2,0.1,0.2,0.2c0.3,2,0.7,4.5,1.2,7.3C54.7,276.7,54.6,276.8,54.5,276.8C54.5,276.8,54.5,276.8,54.5,276.8z M52.9,262.2
					C52.9,262.2,52.9,262.2,52.9,262.2c-0.1,0-0.2-0.1-0.2-0.2c0.1-3,0.4-5.7,0.6-7.4c0-0.1,0.1-0.2,0.2-0.2c0.1,0,0.2,0.1,0.2,0.2
					c-0.2,1.7-0.5,4.4-0.6,7.3C53.1,262.1,53,262.2,52.9,262.2z M53.3,247.5c-0.1,0-0.2-0.1-0.2-0.2c-0.1-1-0.1-2.2-0.2-3.5
					c-0.1-1-0.1-2.3-0.2-3.9c0-0.1,0.1-0.2,0.2-0.2c0.1,0,0.2,0.1,0.2,0.2c0.1,1.5,0.2,2.9,0.2,3.9c0.1,1.3,0.1,2.5,0.2,3.5
					C53.5,247.4,53.5,247.5,53.3,247.5C53.3,247.5,53.3,247.5,53.3,247.5z M52.5,232.8c-0.1,0-0.2-0.1-0.2-0.2
					c-0.1-2.5-0.3-5-0.4-7.4c0-0.1,0.1-0.2,0.2-0.2c0.1,0,0.2,0.1,0.2,0.2c0.1,2.4,0.3,4.9,0.4,7.4
					C52.7,232.7,52.6,232.8,52.5,232.8C52.5,232.8,52.5,232.8,52.5,232.8z"/>
			</g>
			<g>
				<linearGradient id="SVGID_58_" gradientUnits="userSpaceOnUse" x1="56.347" y1="287.7185" x2="56.7813" y2="219.8296">
					<stop  offset="1.000000e-02" style="stop-color:#002440"/>
					<stop  offset="1" style="stop-color:#002D4E"/>
				</linearGradient>
				<path class="st106" d="M56.8,287.7c-0.1,0-0.2-0.1-0.2-0.1c0,0-0.3-1.5-0.8-3.7c0-0.1,0-0.2,0.1-0.2c0.1,0,0.2,0,0.2,0.1
					c0.5,2.2,0.8,3.7,0.8,3.7C57,287.6,56.9,287.7,56.8,287.7C56.8,287.7,56.8,287.7,56.8,287.7z"/>
			</g>
		</g>
		<path class="st107" d="M61.2,207.9c0,0.7-0.1,1.4-0.1,2.2c-1.6,0.2-5,0.3-10.4-0.7c-5-0.9-8.2-3.3-9.8-4.9
			c0.2-1.6,0.4-2.9,0.4-3.3c0.1,0.1,0.3,0.3,0.4,0.4c1.4,1.2,3.3,2.7,5.3,3.9c0,0,0,0,0,0c1.3,0.8,2.5,1.4,3.6,1.7c0,0,0,0,0,0
			C53.6,208.1,58.8,208,61.2,207.9z"/>
		<linearGradient id="SVGID_59_" gradientUnits="userSpaceOnUse" x1="58.1032" y1="208.2626" x2="57.8998" y2="210.6993">
			<stop  offset="1.000000e-02" style="stop-color:#002440"/>
			<stop  offset="1" style="stop-color:#002D4E"/>
		</linearGradient>
		<polygon class="st108" points="57.5,207.5 57.6,210.9 58.5,210.9 58.5,207.5 		"/>
		<linearGradient id="SVGID_60_" gradientUnits="userSpaceOnUse" x1="44.6737" y1="204.627" x2="44.4425" y2="207.3974">
			<stop  offset="1.000000e-02" style="stop-color:#002440"/>
			<stop  offset="1" style="stop-color:#002D4E"/>
		</linearGradient>
		<polygon class="st109" points="44.7,203.8 43.6,207.1 44.3,207.7 45.5,204.4 		"/>
		<linearGradient id="SVGID_61_" gradientUnits="userSpaceOnUse" x1="64.2967" y1="190.1254" x2="69.1777" y2="190.1254">
			<stop  offset="0" style="stop-color:#B80E1B"/>
			<stop  offset="0.995" style="stop-color:#A3000F"/>
		</linearGradient>
		<path class="st110" d="M69.2,187.3c0,0-0.1,0.2-0.3,0.4c-0.1,0.1-0.1,0.2-0.2,0.3c0,0,0,0.1-0.1,0.1c-0.4,0.5-0.9,1.3-1.4,1.9
			c0,0-0.1,0.1-0.1,0.1c0,0.1-0.1,0.1-0.1,0.2c0,0-0.1,0.1-0.1,0.1c-0.2,0.3-0.4,0.8-0.6,1.2c-0.5,1.2-0.7,2.4-0.7,2.4
			c-0.4-0.2-0.9-0.6-1.3-1.1c0.4-1.1,0.8-2.4,1.2-3.2c0.6-1.3,1.9-2.6,2.8-3.4C68.8,186.8,69.2,187.3,69.2,187.3z"/>
		<linearGradient id="SVGID_62_" gradientUnits="userSpaceOnUse" x1="58.9058" y1="157.9688" x2="62.2738" y2="154.6357">
			<stop  offset="0" style="stop-color:#F1C7A3"/>
			<stop  offset="1" style="stop-color:#F0A98B"/>
		</linearGradient>
		<path class="st111" d="M61.8,159.1c-0.1,0.1-0.2,0.2-0.3,0.4c-0.4,0.4-1.6,0.2-2.9-2.1c-1-1.7-0.3-3.1,0.6-3.7
			c0.3-0.2,0.7-0.3,1-0.2c1.2,0.2,1.7,3.1,1.8,3.7C62.3,158.2,62.1,158.7,61.8,159.1z"/>
		<path class="st63" d="M59.7,154.8c0.7,0.7,1.5,2.2,1.5,3.3c0,0-0.2,0.8-1,0.4c-0.8-0.4,0.3-1.7,0.3-1.7L59.7,154.8z"/>
		<path class="st63" d="M61.8,159.1c0-0.7-0.1-1.5-0.4-2.3c-0.5-1.6-1.3-2.3-2.2-3c0.3-0.2,0.7-0.3,1-0.2c1.2,0.2,1.7,3.1,1.8,3.7
			C62.3,158.2,62.1,158.7,61.8,159.1z"/>
		<linearGradient id="SVGID_63_" gradientUnits="userSpaceOnUse" x1="333.1997" y1="180.9613" x2="331.6783" y2="199.1926">
			<stop  offset="1.000000e-02" style="stop-color:#002440"/>
			<stop  offset="1" style="stop-color:#002D4E"/>
		</linearGradient>
		<path class="st112" d="M346.5,177.6c-0.4,2.2-1.1,6.1-2.1,9.8c-1.5,5.6-7.1,14.2-7.1,14.2l-4.6-0.3c-3.7-6.7-9.4-18.2-12.2-23.7
			c1.2-0.8,2.4-1.3,3.5-1.6c1.1,2,2.6,5.1,4,8.5c2.4,5.9,6.5,13,6.5,13h1.9c0,0,3.1-5.3,5-10.2c1.4-3.5,2.2-8.5,2.6-11
			C345.1,176.6,346,177.1,346.5,177.6C346.4,177.5,346.4,177.5,346.5,177.6z"/>
		<linearGradient id="SVGID_64_" gradientUnits="userSpaceOnUse" x1="335.773" y1="205.0109" x2="334.8083" y2="216.5718">
			<stop  offset="1.000000e-02" style="stop-color:#002440"/>
			<stop  offset="1" style="stop-color:#002D4E"/>
		</linearGradient>
		<path class="st113" d="M332.7,201.3l-1.3,16.3c0,0,3.4,0.6,6.7-0.3l-0.8-15.7L332.7,201.3z"/>
		<g>
			<g>
				<path class="st47" d="M143.2,217c0,0.5-0.4,1-1,1l0,0c-0.5,0-1-0.4-1-1v-31.7c0-0.5,0.4-1,1-1l0,0c0.5,0,1,0.4,1,1V217z"/>
				<path class="st47" d="M148.9,217c0,0.5-0.4,1-0.9,1l0,0c-0.5,0-0.9-0.4-0.9-1v-31.7c0-0.5,0.4-1,0.9-1l0,0c0.5,0,0.9,0.4,0.9,1
					V217z"/>
			</g>
			<g>
				<rect x="140.7" y="199.3" class="st48" width="8.6" height="3"/>
				<polygon class="st48" points="139.5,191.1 137.1,183.7 138.8,182.9 143,191.2 				"/>
				<polygon class="st48" points="150.6,191.1 153.7,183.1 151.9,182.1 146.9,191.2 				"/>
				<polygon class="st48" points="139.6,210.9 136.8,217.8 138.8,218.2 142.9,211.2 				"/>
				<path class="st48" d="M146.6,211c0.3,0.4,4.4,7.5,4.4,7.5l2.4-0.4l-2.8-6.6L146.6,211z"/>
				<rect x="139.5" y="191.1" class="st48" width="11.1" height="3.8"/>
				<rect x="139.5" y="207.6" class="st48" width="11.1" height="3.8"/>
			</g>
			<polygon class="st49" points="138.3,198 141.3,197.7 141.6,205.4 138.5,205.4 			"/>
			<path class="st48" d="M138.5,207.5c0,0.9-0.7,1.6-1.6,1.6l0,0c-0.9,0-1.6-0.7-1.6-1.6l0-12.6c0-0.9,0.7-1.6,1.6-1.6l0,0
				c0.9,0,1.6,0.7,1.6,1.6L138.5,207.5z"/>
		</g>
		<polygon class="st3" points="273,247.1 283.7,263 252.1,253.8 		"/>
		<g>
			<path class="st114" d="M119.9,290.9c0,0.8-0.2,1.5-0.5,2.1c-0.8,1.4-2.2,2.3-3.9,2.3c-2.4,0-4.4-2-4.4-4.4c0-0.6,0.1-1.1,0.3-1.6
				c0.7-1.6,2.2-2.8,4.1-2.8C117.9,286.4,119.9,288.4,119.9,290.9z"/>
			<path class="st115" d="M119.9,290.9c0,0.8-0.2,1.5-0.5,2.1c-2.6-2.2-5.9-3.4-8-3.8c0.7-1.6,2.2-2.8,4.1-2.8
				C117.9,286.4,119.9,288.4,119.9,290.9z"/>
			<linearGradient id="SVGID_65_" gradientUnits="userSpaceOnUse" x1="82.9875" y1="205.1029" x2="116.4485" y2="205.1029">
				<stop  offset="5.121970e-03" style="stop-color:#504133"/>
				<stop  offset="1" style="stop-color:#493233"/>
			</linearGradient>
			<path class="st116" d="M116.4,213.4l-33.4-0.3c0,0-0.6-3.7,1.4-5.8c0,0,0-0.1,0.1-0.1c2.1-2.1,12.4-10.3,12.4-10.3l16.5,0.6
				l1.5,8.1L116.4,213.4z"/>
			<polygon class="st117" points="119.1,282.8 103,282.9 79.8,283.1 83.1,213.1 111.6,213.3 116.4,213.4 			"/>
			<path class="st114" d="M89.7,291.1c0,0.8-0.2,1.5-0.5,2.1c-0.7,1.4-2.2,2.3-3.9,2.3c-2.5,0-4.4-2-4.4-4.4c0-0.6,0.1-1.2,0.3-1.7
				c0.7-1.6,2.2-2.7,4.1-2.7C87.7,286.6,89.7,288.6,89.7,291.1z"/>
			<g>
				<path class="st118" d="M98.7,192.1h4.1c0,0,3-11.2,5.6-20.6c1.8-6.6,3.4-12.3,3.5-12.5l-3.3-0.2l-4.7,15.8L98.7,192.1z"/>
				<polygon class="st3" points="108.7,159 106.2,160.9 97.6,190.9 98.8,192 				"/>
				<path class="st119" d="M108.1,172.6c0,0,4.2,0.9,3.5,3.8c-0.7,2.8-6,21.3-6,21.3h-2.3c0,0,4.3-13.1,5.6-17.4
					c1.3-4.3,1.2-5.6-1.3-5.9L108.1,172.6z"/>
				<polygon class="st120" points="112.6,196.2 104.2,196.1 103.3,197.7 112.1,197.9 				"/>
				<path class="st121" d="M103.9,174.6c1.2-0.8,2.9-2,4.5-3.1c1.8-6.6,3.4-12.3,3.5-12.5l-3.3-0.2L103.9,174.6z"/>
			</g>
			<linearGradient id="SVGID_66_" gradientUnits="userSpaceOnUse" x1="82.9875" y1="209.4725" x2="116.4485" y2="209.4725">
				<stop  offset="5.121970e-03" style="stop-color:#504133"/>
				<stop  offset="1" style="stop-color:#493233"/>
			</linearGradient>
			<path class="st122" d="M116.4,213.4l-33.4-0.3c0,0-0.6-3.7,1.4-5.8c6.1,0.4,16.7,0.1,22.7-0.4c3.4-0.3,6.1-0.8,7.8-1.3
				L116.4,213.4z"/>
			<path class="st115" d="M89.7,291.1c0,0.8-0.2,1.5-0.5,2.1c-1.9-1.7-5-3.3-8-3.8c0.7-1.6,2.2-2.7,4.1-2.7
				C87.7,286.6,89.7,288.6,89.7,291.1z"/>
			<g>
				<path class="st123" d="M86.2,287.1c-0.1,1.3-0.4,2.7-1.2,2.5c-0.8-0.2-1.1-1.6-1.2-2.8c0-1.1,0-2.1,0-2.1l2.4-0.1
					C86.2,284.6,86.3,285.8,86.2,287.1z"/>
				<path class="st124" d="M86.2,287.1c-0.8-0.1-1.6-0.2-2.4-0.3c0-1.1,0-2.1,0-2.1l2.4-0.1C86.2,284.6,86.3,285.8,86.2,287.1z"/>
			</g>
			<g>
				<path class="st123" d="M117,284.6c0,0,0,1.1-0.1,2.3c-0.2,1.4-0.5,3-1.3,2.9c-0.9-0.1-1.1-2.1-1.1-3.6c0-0.9,0-1.7,0-1.7
					L117,284.6z"/>
				<path class="st124" d="M117,284.6c0,0,0,1.1-0.1,2.3c-0.8-0.3-1.7-0.6-2.5-0.7c0-0.9,0-1.7,0-1.7L117,284.6z"/>
			</g>
			<polygon class="st125" points="81.9,282.9 81.8,284.9 87.9,284.7 87.4,282.6 			"/>
			<polygon class="st125" points="112.4,282.6 112.4,284.6 119,284.8 119.1,282.8 			"/>
			<polygon class="st125" points="87.5,223.7 87.5,233.2 103.7,233.8 103.7,224 			"/>
			<path class="st125" d="M101.7,255.9c0,0.9-0.2,8.5-0.2,8.5l12.9,0.1l-0.1-8.6H101.7z"/>
			<path class="st126" d="M119.1,282.8l-16.1,0.1c1.6-9,3.9-22.2,4.6-28.2c1-8,3.5-28,4-41.4l4.8,0L119.1,282.8z"/>
			<linearGradient id="SVGID_67_" gradientUnits="userSpaceOnUse" x1="87.4946" y1="228.4426" x2="91.2366" y2="228.4426">
				<stop  offset="5.121970e-03" style="stop-color:#504133"/>
				<stop  offset="1" style="stop-color:#493233"/>
			</linearGradient>
			<polygon class="st127" points="91,223.6 91.2,233.3 87.5,233.2 87.5,223.7 			"/>
			<linearGradient id="SVGID_68_" gradientUnits="userSpaceOnUse" x1="101.4783" y1="260.2527" x2="105.0249" y2="260.2527">
				<stop  offset="5.121970e-03" style="stop-color:#504133"/>
				<stop  offset="1" style="stop-color:#493233"/>
			</linearGradient>
			<polygon class="st128" points="105,255.9 104.8,264.6 101.5,264.4 101.7,255.9 			"/>
		</g>
		<g>
			<g>
				<polygon class="st117" points="386.2,293.7 357.2,293.7 357.8,233.5 382.6,233.5 				"/>
				<g>
					<linearGradient id="SVGID_69_" gradientUnits="userSpaceOnUse" x1="370.0804" y1="218.0958" x2="370.3759" y2="247.9431">
						<stop  offset="5.121970e-03" style="stop-color:#504133"/>
						<stop  offset="1" style="stop-color:#493233"/>
					</linearGradient>
					<polygon class="st129" points="382.6,233.5 357.8,233.5 360.2,223.4 381.2,223.4 					"/>
					<linearGradient id="SVGID_70_" gradientUnits="userSpaceOnUse" x1="370.8687" y1="219.8111" x2="371.0688" y2="240.0186">
						<stop  offset="5.121970e-03" style="stop-color:#504133"/>
						<stop  offset="1" style="stop-color:#493233"/>
					</linearGradient>
					<polygon class="st130" points="379.7,230.2 362.3,230.2 363.7,223.4 378,223.4 					"/>
				</g>
				<path class="st126" d="M371.5,293.7h-14.3l0.6-60.3h5c0,0.3,0,0.5,0,0.6C362.8,235,369.2,278.4,371.5,293.7z"/>
				<polygon class="st131" points="383.2,296.7 361.4,296.7 360.2,293.4 384.4,293.4 				"/>
			</g>
			<rect x="360.8" y="235.5" class="st132" width="19.8" height="3.8"/>
		</g>
	</g>
</g>
</svg>
