<?xml version="1.0" encoding="utf-8"?>
<!-- Generator: Adobe Illustrator 23.0.3, SVG Export Plug-In . SVG Version: 6.00 Build 0)  -->
<svg version="1.1" id="Layer_1" xmlns="http://www.w3.org/2000/svg" xmlns:xlink="http://www.w3.org/1999/xlink" x="0px" y="0px"
	 viewBox="0 0 96 80" style="enable-background:new 0 0 96 80;" xml:space="preserve">
<style type="text/css">
	.st0{fill-rule:evenodd;clip-rule:evenodd;fill:#DE070D;}
	.st1{fill-rule:evenodd;clip-rule:evenodd;fill:#231F20;}
</style>
<g>
	<g>
		<path class="st0" d="M24.4,54.4c-2.2,0-1.9-1.9-1.9-1.9s0-3.2,0-5.7c0-2.5,2.1-2.1,2.1-2.1h40.7l-4.1-15.1h-44
			c0,0,3.8-8.9,4.8-11.1c1-2.2,2.7-1.9,2.7-1.9h28.8c-0.5-0.8-0.4-3.7-0.4-3.7s-24.2,0-28.8,0c-4.6,0-5.6,3.9-5.6,3.9l-5.1,10.8
			c0,0-0.2-0.3-1.3-1.1c-1-4.8-5.7-5-7.2-4.9c-4.9,0.9-3.5,4.2-2.8,5.4c3.4,4.1,8.4,1.9,8.4,1.9l1.3,0.9c-8,3.7-7.4,8.3-7.4,8.3
			s0,22.1,0,25.7c0,3.6,3.2,3.2,3.2,3.2s11.1,0,14.4,0c3.3,0,2.9-2.9,2.9-2.9v-4h38.8c0.3-2.7,3.8-5.8,3.8-5.8S26.7,54.4,24.4,54.4z
			 M17.8,46.5c-1.2,1.2-6.1,1.3-9-2.7c0,0-2.1-2.5,0.1-4.6c0.9-0.5,4.1-2.2,7.8,1.1C18.8,42.4,19.6,44.6,17.8,46.5z"/>
	</g>
</g>
<path class="st1" d="M66,25l7.8,28.3c0,0-8.4,4.4-4,16.1c2.1,3.9,5,8.8,10.2,7.2c-1.7-3.7-3.5-8.4-3.5-8.4s-2.3-5.7,4.2-8
	c1.4-0.4,7-0.2,7.6,5.4c0.7,5.7,0.9,8.5,0.9,8.5s4.9,0.4,5.3-7.4c0.1-3.3,1.1-13.6-11.4-15.8c-2.1-8.4-7.6-28.5-7.6-28.5
	s6.8-4.5,3.7-13.7c-1.5-3.7-5.4-9.3-10-7.6c2.3,4.7,3.5,7.6,3.5,7.6s2.1,5.5-3.9,7.2c-2.7,0.6-6.6-0.5-7.2-4.8
	c-0.7-4.5-0.7-7.7-0.7-7.7s-7.9,0.7-4,15.2C58.1,22.4,63.9,24.9,66,25z"/>
</svg>
