<?xml version="1.0" encoding="utf-8"?>
<!-- Generator: Adobe Illustrator 23.0.3, SVG Export Plug-In . SVG Version: 6.00 Build 0)  -->
<svg version="1.1" id="Layer_1" xmlns="http://www.w3.org/2000/svg" xmlns:xlink="http://www.w3.org/1999/xlink" x="0px" y="0px"
	 viewBox="0 0 86.5 80" style="enable-background:new 0 0 86.5 80;" xml:space="preserve">
<style type="text/css">
	.st0{fill-rule:evenodd;clip-rule:evenodd;fill:#2A323C;}
	.st1{fill-rule:evenodd;clip-rule:evenodd;fill:#DE070D;}
</style>
<g>
	<g>
		<g>
			<path class="st0" d="M62.6,41.8c1.2-12.4-7.9-19.3-7.9-19.3l8.6-8.8c-6.2-5.4-14.2-8.6-22.9-8.6C21.1,5.2,5.5,20.8,5.5,40
				s15.6,34.8,34.9,34.8c18.6,0,33.8-14.6,34.8-33H62.6z M40.4,60.4C29.1,60.4,20,51.3,20,40S29,19.5,40.4,19.5
				c11.3,0,20.4,9.2,20.4,20.4S51.7,60.4,40.4,60.4z M40.4,20.8c-10.6,0-19.2,8.6-19.2,19.2s8.5,19.2,19.2,19.2S59.6,50.6,59.6,40
				S51,20.8,40.4,20.8z M40.2,24.6c1.4,0,2.6,1.1,2.6,2.6c0,1.4-1.1,2.6-2.6,2.6c-1.4,0-2.6-1.1-2.6-2.6
				C37.7,25.8,38.8,24.6,40.2,24.6z M28.1,38.8c-1.4,0-2.6-1.1-2.6-2.6c0-1.4,1.1-2.6,2.6-2.6s2.6,1.1,2.6,2.6S29.6,38.8,28.1,38.8z
				 M32.7,53c-1.4,0-2.6-1.1-2.6-2.6s1.1-2.6,2.6-2.6c1.4,0,2.6,1.1,2.6,2.6S34.2,53,32.7,53z M32.4,40c0-4.4,3.6-8,8-8s8,3.6,8,8
				s-3.6,8-8,8S32.4,44.4,32.4,40z M47.9,53c-1.4,0-2.6-1.1-2.6-2.6s1.1-2.6,2.6-2.6c1.4,0,2.6,1.1,2.6,2.6S49.4,53,47.9,53z
				 M55,36.1c0,1.4-1.1,2.6-2.6,2.6c-1.4,0-2.6-1.1-2.6-2.6c0-1.4,1.1-2.6,2.6-2.6S55,34.7,55,36.1z"/>
		</g>
	</g>
</g>
<g>
	<path class="st1" d="M68.9,10.6L56.8,22.8c0,0,8.1,6.7,7.5,18.1c8.3,0,17.1,0,17.1,0S82.5,24.7,68.9,10.6z"/>
</g>
</svg>
