<?xml version="1.0" encoding="utf-8"?>
<!-- Generator: Adobe Illustrator 23.0.3, SVG Export Plug-In . SVG Version: 6.00 Build 0)  -->
<svg version="1.1" id="Layer_1" xmlns="http://www.w3.org/2000/svg" xmlns:xlink="http://www.w3.org/1999/xlink" x="0px" y="0px"
	 viewBox="0 0 86.5 65.1" style="enable-background:new 0 0 86.5 65.1;" xml:space="preserve">
<style type="text/css">
	.st0{fill-rule:evenodd;clip-rule:evenodd;fill:#0C0C0C;}
	.st1{fill-rule:evenodd;clip-rule:evenodd;fill:#D31111;}
</style>
<path class="st0" d="M71.7,48.4V35.1c0-10.6-1-15.6-3.7-19c-4-5-9.9-3.5-10.2-3.4l-0.4-1.7c0.3-0.1,7.3-1.8,12,4
	c3.5,4.3,4.1,10.4,4.1,20.1v13.3H71.7z M63.6,44c0,2.4-2,4.4-4.4,4.4c-2.4,0-4.4-2-4.4-4.4c0-2.4,2-4.4,4.4-4.4
	C61.6,39.6,63.6,41.5,63.6,44z M56.3,44c0,1.6,1.3,2.8,2.8,2.8c1.6,0,2.8-1.3,2.8-2.8c0-1.6-1.3-2.8-2.8-2.8
	C57.6,41.1,56.3,42.4,56.3,44z M59.6,41.8c0,0.3-0.2,0.8-0.4,0.8c-0.2,0-0.4-0.5-0.4-0.8c0-0.3,0.2-0.3,0.4-0.3
	C59.4,41.5,59.6,41.5,59.6,41.8z M60.2,44c0,0.6-0.5,1-1,1c-0.6,0-1-0.5-1-1c0-0.6,0.5-1,1-1C59.7,43,60.2,43.4,60.2,44z M57.5,42.4
	c-0.2-0.2,0-0.4,0.2-0.5c0.2-0.1,0.3-0.2,0.5,0c0.2,0.2,0.3,0.7,0.1,0.9C58.1,43,57.7,42.7,57.5,42.4z M57.8,43.5
	c-0.1,0.2-0.6,0.3-0.9,0.2c-0.3-0.1-0.2-0.3-0.2-0.5c0.1-0.2,0.1-0.4,0.4-0.3C57.5,43,57.9,43.3,57.8,43.5z M56.9,44.3
	c0.3-0.1,0.8-0.1,0.9,0.2c0.1,0.2-0.3,0.6-0.6,0.6c-0.3,0.1-0.3-0.1-0.4-0.3C56.7,44.5,56.7,44.4,56.9,44.3z M58.3,45.1
	c0.2,0.1,0.1,0.6-0.1,0.9c-0.2,0.2-0.3,0.1-0.5,0c-0.2-0.1-0.3-0.2-0.2-0.5C57.7,45.3,58.1,45,58.3,45.1z M59.2,45.4
	c0.2,0,0.4,0.5,0.4,0.8c0,0.3-0.2,0.3-0.4,0.3c-0.2,0-0.4,0-0.4-0.3C58.8,45.9,58.9,45.4,59.2,45.4z M60.8,45.5
	c0.2,0.2,0,0.4-0.2,0.5c-0.2,0.1-0.3,0.2-0.5,0s-0.3-0.7-0.1-0.9C60.2,45,60.7,45.3,60.8,45.5z M60.5,44.4c0.1-0.2,0.6-0.3,0.9-0.2
	c0.3,0.1,0.2,0.3,0.2,0.5c-0.1,0.2-0.1,0.4-0.4,0.3C60.9,45,60.5,44.6,60.5,44.4z M61.4,43.7c-0.3,0.1-0.8,0.1-0.9-0.2
	c-0.1-0.2,0.3-0.6,0.6-0.6c0.3-0.1,0.3,0.1,0.4,0.3C61.6,43.4,61.7,43.6,61.4,43.7z M60,42.8c-0.2-0.1-0.1-0.6,0.1-0.9
	c0.2-0.2,0.3-0.1,0.5,0c0.2,0.1,0.3,0.2,0.2,0.5C60.7,42.7,60.2,43,60,42.8z M23.9,48.4c-2.4,0-4.4-2-4.4-4.4c0-2.4,2-4.4,4.4-4.4
	c2.4,0,4.4,2,4.4,4.4C28.3,46.4,26.3,48.4,23.9,48.4z M23.9,41.1c-1.6,0-2.8,1.3-2.8,2.8c0,1.6,1.3,2.8,2.8,2.8
	c1.6,0,2.8-1.3,2.8-2.8C26.7,42.4,25.4,41.1,23.9,41.1z M24.8,46c-0.2-0.2-0.3-0.7-0.1-0.9c0.2-0.1,0.6,0.1,0.8,0.4
	c0.2,0.2,0,0.4-0.2,0.5C25.1,46.2,25,46.3,24.8,46z M25.2,44.4c0.1-0.2,0.6-0.3,0.9-0.2c0.3,0.1,0.2,0.3,0.2,0.5
	c-0.1,0.2-0.1,0.4-0.4,0.3C25.6,45,25.2,44.6,25.2,44.4z M26.1,43.7c-0.3,0.1-0.8,0.1-0.9-0.2c-0.1-0.2,0.3-0.6,0.6-0.6
	c0.3-0.1,0.3,0.1,0.4,0.3C26.3,43.4,26.4,43.6,26.1,43.7z M24.7,42.8c-0.2-0.1-0.1-0.6,0.1-0.9c0.2-0.2,0.3-0.1,0.5,0
	c0.2,0.1,0.3,0.2,0.2,0.5C25.3,42.7,24.9,43,24.7,42.8z M23.9,45c-0.6,0-1-0.5-1-1c0-0.6,0.5-1,1-1c0.6,0,1,0.5,1,1
	C24.9,44.5,24.4,45,23.9,45z M23.9,42.5c-0.2,0-0.4-0.5-0.4-0.8c0-0.3,0.2-0.3,0.4-0.3c0.2,0,0.4,0,0.4,0.3
	C24.3,42.1,24.1,42.5,23.9,42.5z M22.2,42.4c-0.2-0.2,0-0.4,0.2-0.5c0.2-0.1,0.3-0.2,0.5,0c0.2,0.2,0.3,0.7,0.1,0.9
	C22.8,43,22.4,42.7,22.2,42.4z M22.5,43.5c-0.1,0.2-0.6,0.3-0.9,0.2c-0.3-0.1-0.2-0.3-0.2-0.5c0.1-0.2,0.1-0.4,0.4-0.3
	C22.2,43,22.6,43.3,22.5,43.5z M21.6,44.3c0.3-0.1,0.8-0.1,0.9,0.2c0.1,0.2-0.3,0.6-0.6,0.6c-0.3,0.1-0.3-0.1-0.4-0.3
	C21.4,44.5,21.3,44.4,21.6,44.3z M23,45.1c0.2,0.1,0.1,0.6-0.1,0.9c-0.2,0.2-0.3,0.1-0.5,0c-0.2-0.1-0.3-0.2-0.2-0.5
	C22.4,45.3,22.8,45,23,45.1z M23.9,45.4c0.2,0,0.4,0.5,0.4,0.8c0,0.3-0.2,0.3-0.4,0.3c-0.2,0-0.4,0-0.4-0.3
	C23.4,45.9,23.6,45.4,23.9,45.4z"/>
<g>
	<g>
		<path class="st1" d="M45.1,21.4c0.5,0,0.8-0.4,0.8-0.8c0-0.5-0.8-1.6-0.8-1.6s-0.8,1.1-0.8,1.6C44.2,21.1,44.6,21.4,45.1,21.4z
			 M44.4,20.7c0-0.2,0.1-0.3,0.2-0.3c0.1,0,0.2,0.1,0.2,0.3c0,0.2-0.1,0.3-0.2,0.3C44.5,21,44.4,20.9,44.4,20.7z M41,20.6
			c0,0.5,0.4,0.8,0.8,0.8c0.5,0,0.8-0.4,0.8-0.8c0-0.5-0.8-1.6-0.8-1.6S41,20.1,41,20.6z M41.4,21c-0.1,0-0.2-0.1-0.2-0.3
			c0-0.2,0.1-0.3,0.2-0.3c0.1,0,0.2,0.1,0.2,0.3C41.6,20.9,41.5,21,41.4,21z M41.1,17.5h14.1c2.2,0,3.9-1.6,3.9-3.6
			c0-1.3-0.7-2.4-1.9-3c0-0.2,0.1-0.4,0.1-0.7c0-2.3-2.1-4.2-4.6-4.2c0,0,0,0-0.1,0c-1.2-2-3.5-3.4-6.2-3.4c-3.9,0-7,2.8-7,6.4
			c0,0.1,0,0.3,0,0.4c-1.8,0.6-3,2.1-3,3.9C36.5,15.7,38.6,17.5,41.1,17.5z M43.5,24.7c0.5,0,0.8-0.4,0.8-0.8c0-0.5-0.8-1.6-0.8-1.6
			s-0.8,1.1-0.8,1.6C42.6,24.3,43,24.7,43.5,24.7z M42.8,23.9c0-0.2,0.1-0.3,0.2-0.3c0.1,0,0.2,0.1,0.2,0.3c0,0.2-0.1,0.3-0.2,0.3
			C42.9,24.3,42.8,24.1,42.8,23.9z M68.3,39.6h-0.7c0-0.2,0-0.4,0-0.5c0,0,0-0.1,0-0.2l0,0c0-0.3,0.1-0.6,0.1-1.1c0,0,0-0.1,0-0.1
			c0,0,0,0,0-0.1c0-0.3,0-0.6,0-0.9h0c0,0,0,0,0-0.1c0-0.1,0-0.3,0-0.4c0,0,0-0.1,0-0.1c0-0.2,0-0.3,0-0.5c0-0.1,0-0.2,0-0.2
			c0-0.1,0-0.1,0-0.2c0-0.1,0-0.2,0-0.3c0,0,0-0.1,0-0.1c0-0.1,0-0.2,0-0.3c0-0.4-0.1-0.9-0.1-1.2c0-0.3-0.1-0.5-0.1-0.6
			c-0.4-1-10.3-5.1-12.3-5.7c-2.6-0.7-14.5-0.4-15.6,0.1c-0.3,0.1-1.9,0.7-3.8,1.8c0,0,0,0,0,0c-0.2,0.1-0.3,0.2-0.5,0.3
			c0,0,0,0,0,0c-0.2,0.1-0.3,0.2-0.5,0.3c0,0,0,0,0,0c-0.2,0.1-0.3,0.2-0.5,0.3c0,0,0,0,0,0c-0.2,0.1-0.3,0.2-0.5,0.4
			c-2.8,2-4.8,3.5-4.8,3.5s-6.5,0.7-10,1.7c-0.6,0.1-1.1,0.3-1.4,0.5c-0.1,0-0.2,0.1-0.3,0.1c0,0-0.1,0-0.1,0
			c-0.1,0-0.1,0.1-0.2,0.1c0,0-0.1,0-0.1,0.1c0,0-0.1,0.1-0.1,0.1c0,0-0.1,0-0.1,0.1c0,0-0.1,0.1-0.1,0.1c0,0-0.1,0-0.1,0.1
			c-0.1,0-0.1,0.1-0.2,0.1c0,0,0,0-0.1,0c-0.1,0.1-0.1,0.1-0.2,0.2c0,0,0,0,0,0c-0.1,0-0.1,0.1-0.1,0.1c0,0,0,0-0.1,0
			c0,0-0.1,0.1-0.1,0.1c0,0,0,0,0,0c0,0-0.1,0.1-0.1,0.1c0,0,0,0,0,0c-1,1.1-1.3,2.1-1.3,2.1h-0.3c-0.2,0-0.4,0.1-0.6,0.3
			s-0.2,0.4-0.2,0.6c0,0.5,0.2,1.2,0.5,2c0.6,1.7,2.6,2.9,4.4,2.9h0.8c0,0,0-0.9,0-1.4c0-0.1,0-0.2,0-0.3c0,0,0-0.1,0-0.1
			c0-0.1,0-0.2,0-0.2c0,0,0-0.1,0-0.1c0-0.1,0-0.2,0-0.3c0,0,0,0,0,0c0-0.1,0-0.2,0.1-0.3c0,0,0,0,0,0c0-0.1,0.1-0.2,0.1-0.3
			c0,0,0,0,0,0c0.4-1.1,1.2-2.1,2.2-2.7h0c0.8-0.5,1.7-0.8,2.7-0.8c2.8,0,5.1,2.3,5.1,5.1c0,0.5,0,1.4,0,1.4l25.1,0c0,0,0,0,0,0
			c0,0,0,0,0,0c0,0,0,0,0,0c0,0,0,0,0,0c0,0,0,0,0,0c0,0,0,0,0,0c0,0,0,0,0,0c0,0,0,0,0,0c0,0,0,0,0,0c0,0,0,0,0,0c0,0,0,0,0-0.1
			c0,0,0,0,0,0c0,0,0,0,0-0.1c0,0,0,0,0,0c0,0,0,0,0,0c0-0.1,0-0.2,0-0.2c0,0,0,0,0,0c0,0,0-0.1,0-0.1c0,0,0,0,0,0c0,0,0-0.1,0-0.1
			c0,0,0,0,0,0c0,0,0-0.1,0-0.1c0,0,0,0,0,0c0-0.1,0-0.1,0-0.2c0-0.1,0-0.1,0-0.2c0-2.8,2.3-5.1,5.1-5.1c1,0,1.9,0.3,2.7,0.8h0
			c1,0.6,1.8,1.6,2.2,2.7l0,0c0,0.1,0.1,0.2,0.1,0.3c0,0,0,0,0,0c0,0.1,0.1,0.2,0.1,0.3c0,0,0,0,0,0c0,0.1,0,0.2,0,0.3
			c0,0,0,0.1,0,0.1c0,0.1,0,0.2,0,0.2c0,0,0,0.1,0,0.1c0,0.1,0,0.2,0,0.3c0,0.5,0,1.4,0,1.4h0.5c1.7,0,2.7-1.2,3-2.1
			C68.1,42.5,68.8,39.6,68.3,39.6z M58,36.9c-0.1,0.8-0.6,1.5-1.3,1.9c-1.6,0.8-2.8,2.4-3.1,4.1c-0.1,0.6-0.7,1.1-1.3,1.1H31
			c-0.7,0-1.4-0.6-1.4-1.4v-6c0-0.7,1.4-2,2.2-2.8l0,0c0.7-0.7,2-2,3.4-3.1c2.1-1.7,3.8-2.6,4.7-2.8c0.9-0.2,5.4-0.5,5.6-0.5h1.1
			c4.2,0,10,0.6,11.5,6l0,0L58,36.9z M45.6,27.7c0,0-4.7,0.2-5.6,0.5c-0.9,0.3-2.7,1.2-4.7,2.8c-1.4,1.1-2.7,2.4-3.4,3.1l0,0
			c-1.3,1.2-2.1,2.2-2.1,2.7v6c0,0.6,0.5,1.2,1.2,1.2h14.2v-9.3l0.9-6.9H45.6z M43.8,36.3c0,0.2-0.1,0.3-0.3,0.3h-2.4
			c-0.2,0-0.3-0.1-0.3-0.3v-0.7h2.9V36.3z M44.5,34.2c0,0.1-0.1,0.2-0.2,0.2l-12.1,0.5c-0.1,0-0.2-0.1-0.2-0.2c0-0.1,0-0.2,0.1-0.3
			c0.7-0.7,2-2,3.4-3.1c1.9-1.6,3.7-2.6,4.7-2.8c0.8-0.2,4.8-0.4,5.5-0.5L44.5,34.2z M54.7,21.4c0.5,0,0.8-0.4,0.8-0.8
			c0-0.5-0.8-1.6-0.8-1.6s-0.8,1.1-0.8,1.6C53.8,21.1,54.2,21.4,54.7,21.4z M54,20.7c0-0.2,0.1-0.3,0.2-0.3s0.2,0.1,0.2,0.3
			c0,0.2-0.1,0.3-0.2,0.3S54,20.9,54,20.7z M46.8,27.7h-0.5l-0.9,6.9l0,9.3h6.8c0.6,0,1.1-0.4,1.2-1c0.3-1.8,1.5-3.4,3.2-4.3
			c0.7-0.3,1.1-1,1.2-1.7l0.3-3.4C56.6,28.3,50.9,27.7,46.8,27.7z M56.6,36.3c0,0.2-0.1,0.3-0.3,0.3H54c-0.2,0-0.3-0.1-0.3-0.3v-0.7
			h2.9V36.3z M57.5,33.4c-0.2,0.3-0.4,0.4-0.7,0.4l-10.3,0.4c-0.1,0-0.1,0-0.1-0.1c0,0-0.1-0.1-0.1-0.2l0.4-6c3.8,0,9,0.5,10.9,4.9
			C57.7,33,57.6,33.2,57.5,33.4z M53.1,24.7c0.5,0,0.8-0.4,0.8-0.8c0-0.5-0.8-1.6-0.8-1.6s-0.8,1.1-0.8,1.6
			C52.2,24.3,52.6,24.7,53.1,24.7z M52.4,23.9c0-0.2,0.1-0.3,0.2-0.3s0.2,0.1,0.2,0.3c0,0.2-0.1,0.3-0.2,0.3S52.4,24.1,52.4,23.9z
			 M51.5,21.4c0.5,0,0.8-0.4,0.8-0.8c0-0.5-0.8-1.6-0.8-1.6s-0.8,1.1-0.8,1.6C50.6,21.1,51,21.4,51.5,21.4z M50.8,20.7
			c0-0.2,0.1-0.3,0.2-0.3c0.1,0,0.2,0.1,0.2,0.3c0,0.2-0.1,0.3-0.2,0.3C50.9,21,50.8,20.9,50.8,20.7z M49.9,24.7
			c0.5,0,0.8-0.4,0.8-0.8c0-0.5-0.8-1.6-0.8-1.6S49,23.4,49,23.9C49,24.3,49.4,24.7,49.9,24.7z M49.2,23.9c0-0.2,0.1-0.3,0.2-0.3
			s0.2,0.1,0.2,0.3c0,0.2-0.1,0.3-0.2,0.3S49.2,24.1,49.2,23.9z M46.7,24.7c0.5,0,0.8-0.4,0.8-0.8c0-0.5-0.8-1.6-0.8-1.6
			s-0.8,1.1-0.8,1.6C45.8,24.3,46.2,24.7,46.7,24.7z M46,23.9c0-0.2,0.1-0.3,0.2-0.3s0.2,0.1,0.2,0.3c0,0.2-0.1,0.3-0.2,0.3
			S46,24.1,46,23.9z M48.3,21.4c0.5,0,0.8-0.4,0.8-0.8c0-0.5-0.8-1.6-0.8-1.6s-0.8,1.1-0.8,1.6C47.4,21.1,47.8,21.4,48.3,21.4z
			 M47.6,20.7c0-0.2,0.1-0.3,0.2-0.3c0.1,0,0.2,0.1,0.2,0.3c0,0.2-0.1,0.3-0.2,0.3C47.7,21,47.6,20.9,47.6,20.7z"/>
	</g>
</g>
</svg>
