<?xml version="1.0" encoding="utf-8"?>
<!-- Generator: Adobe Illustrator 23.0.3, SVG Export Plug-In . SVG Version: 6.00 Build 0)  -->
<svg version="1.1" id="Layer_1" xmlns="http://www.w3.org/2000/svg" xmlns:xlink="http://www.w3.org/1999/xlink" x="0px" y="0px"
	 viewBox="0 0 96 80" style="enable-background:new 0 0 96 80;" xml:space="preserve">
<style type="text/css">
	.st0{fill-rule:evenodd;clip-rule:evenodd;fill:#0B0B0B;}
	.st1{fill-rule:evenodd;clip-rule:evenodd;fill:#DE070D;}
</style>
<g>
	<g>
		<path class="st0" d="M91.1,15.2C85.2,13,49.5-4.5,3.9,15.4c0,0-5,1.7-2.9,9.3c2.2,7.6,10.2,37.1,10.2,37.1s1.6,4.8,7.7,3.7
			L7.7,24.2c0,0-1.1-2.2,2.1-3.3c3.2-1.2,37.1-16.4,76.8,0c0,0,2.5-0.2,1.3,4.1c-1.2,4.3-11.6,42.4-11.6,42.4s4.7,1.1,6.5-4.1
			c1.8-5.2,12.3-40.5,12.3-40.5S97.5,18.4,91.1,15.2z"/>
	</g>
</g>
<path class="st1" d="M71.2,47.9c-2.4,0-3.9,0.1-3.9,0.1s3.4,5.5-1.6,11.1c-2.3,3-5.6,5.5-1.3,12.3c2,2.8,1.1,4.1,0.1,5.2
	c-0.7,0.5-2.9,0.9-4.2-0.8c-1.3-1.7-6.3-9.7-0.4-17.3c1.4-2,4.7-3.9,2.2-10.4h-4c0,0-2.4-0.4-0.8-2.8c1.6-2.4,5.7-8.9,5.7-8.9
	s1.6-2,3.1,0.7c1.8,2.7,6,8.4,6,8.4S73.6,47.9,71.2,47.9z M54.4,47.9c-2.4,0-3.9,0.1-3.9,0.1s3.4,5.5-1.6,11.1
	c-2.3,3-5.6,5.5-1.3,12.3c2,2.8,1.1,4.1,0.1,5.2c-0.7,0.5-2.9,0.9-4.2-0.8c-1.3-1.7-6.3-9.7-0.4-17.3c1.4-2,4.7-3.9,2.2-10.4h-4
	c0,0-2.4-0.4-0.8-2.8c1.6-2.4,5.7-8.9,5.7-8.9s1.6-2,3.1,0.7c1.8,2.7,6,8.4,6,8.4S56.8,47.9,54.4,47.9z M37.9,47.9
	c-2.4,0-3.9,0.1-3.9,0.1s3.4,5.5-1.6,11.1c-2.3,3-5.6,5.5-1.3,12.3c2,2.8,1.1,4.1,0.1,5.2c-0.7,0.5-2.9,0.9-4.2-0.8
	c-1.3-1.7-6.3-9.7-0.4-17.3c1.4-2,4.7-3.9,2.2-10.4h-4c0,0-2.4-0.4-0.8-2.8c1.6-2.4,5.7-8.9,5.7-8.9s1.6-2,3.1,0.7
	c1.8,2.7,6,8.4,6,8.4S40.3,47.9,37.9,47.9z"/>
</svg>
