<?xml version="1.0" encoding="utf-8"?>
<!-- Generator: Adobe Illustrator 23.0.3, SVG Export Plug-In . SVG Version: 6.00 Build 0)  -->
<svg version="1.1" id="Layer_1" xmlns="http://www.w3.org/2000/svg" xmlns:xlink="http://www.w3.org/1999/xlink" x="0px" y="0px"
	 viewBox="0 0 96 80" style="enable-background:new 0 0 96 80;" xml:space="preserve">
<style type="text/css">
	.st0{fill-rule:evenodd;clip-rule:evenodd;fill:#0B0B0B;}
	.st1{fill-rule:evenodd;clip-rule:evenodd;fill:#DE070D;}
</style>
<g>
	<g>
		<path class="st0" d="M77.3,34.1c3.8,0,6.9-3.1,6.9-6.9c0-3.8-3.1-6.9-6.9-6.9c-3.8,0-6.9,3.1-6.9,6.9C70.3,31,73.5,34.1,77.3,34.1
			z M77.3,24.1c1.7,0,3.1,1.4,3.1,3.1s-1.4,3.1-3.1,3.1c-1.7,0-3.1-1.4-3.1-3.1S75.6,24.1,77.3,24.1z M88.3,40.8
			c-1-1.2-4-2.3-6.1-0.5c-2.1,1.8-14.4,11.1-14.4,11.1s-0.7,1.1-3.7,1.1s-19,0-19,0s-1.9-0.1-1.9-2.4s1.6-2.4,2.8-2.4
			c1.2,0,13.1,0,13.1,0s5.2,0.6,5.2-4.9c0,0,1.3-4.6-4.9-4.6s-27.3,0-27.3,0s-4.3,0.3-7.3,3.1c-3,2.8-10.2,9.3-10.2,9.3L31,66.9
			l1.6-1.7c0,0,0.8-1.6,5.1-1.6c4.3,0,25.6,0,25.6,0s2.3,0.3,5-1.7c2.7-2,19.5-15.2,19.5-15.2S91,44.4,88.3,40.8z M35.2,34.1
			c3.8,0,6.9-3.1,6.9-6.9c0-3.8-3.1-6.9-6.9-6.9c-3.8,0-6.9,3.1-6.9,6.9C28.2,31,31.3,34.1,35.2,34.1z M35.2,24.1
			c1.7,0,3.1,1.4,3.1,3.1s-1.4,3.1-3.1,3.1s-3.1-1.4-3.1-3.1S33.5,24.1,35.2,24.1z"/>
	</g>
</g>
<path class="st1" d="M92.5,27.6L88,28h-1.9c-0.1-5-4.1-8.9-9.1-8.9s-9,4-9.1,8.9H44.2c-0.1-5-4.1-8.9-9.1-8.9c-5,0-9,4-9.1,8.9h-1.8
	c-7-0.5-6.8-1.9-6.9-3.7c-0.2-4.3,0.7-4.2,2-4.6c1.7-0.3,1.1-0.5,1.3-2.4c0.2-2.4-0.8-2.5-2.3-2.6c0.1-4.2,2.9-4.7,5.4-5
	s3.9-1.6,3.9-1.6s4.5-4,6.2-5.7c1.7-1.7,6-1.8,6-1.8s17.1,0,20,0c2.9,0,4.7,1.3,4.7,1.3s7.8,5.9,10.6,8.2c3.3,0.1,10.7,2.7,14.2,4.6
	c3.5,1.9,3.2,5.3,3.5,8.5C95.5,25.4,92.5,27.6,92.5,27.6z M47.7,2.4h-8c0,0-1.7-0.7-7.5,5.3c-0.6,0.7-2.1,3.2,1.1,3.2s13.9,0,13.9,0
	s1.6,0.4,1.6-1.5s0-5.6,0-5.6S48.9,2.4,47.7,2.4z M69.6,7.4C65.6,4.2,64,3.3,64,3.3s-0.8-0.7-2.4-0.7c-1.6,0-8.7,0-8.7,0
	s-1.5-0.4-1.5,1.1v6.1c0,0-0.4,1,1,1c1.4,0,16.5,0,16.5,0S73.7,10.7,69.6,7.4z M92,19.3c-0.6-4.1-6.2-5.3-6.2-5.3
	c-1.3-0.6-1.3,1.2-0.7,2.9c0.6,1.7,1.6,2.9,4.4,3.4C92.5,20.9,92.1,20.2,92,19.3z M18.4,79.3L1,61.5l9.5-8.8l17.8,17.7L18.4,79.3z"
	/>
</svg>
