<?xml version="1.0" encoding="utf-8"?>
<!-- Generator: Adobe Illustrator 23.0.3, SVG Export Plug-In . SVG Version: 6.00 Build 0)  -->
<svg version="1.1" id="Слой_1" xmlns="http://www.w3.org/2000/svg" xmlns:xlink="http://www.w3.org/1999/xlink" x="0px" y="0px"
	 viewBox="0 0 953.4 588.2" style="enable-background:new 0 0 953.4 588.2;" xml:space="preserve">
<style type="text/css">
	.st0{fill:#D6E0FF;}
	.st1{fill:#C9D7FF;}
	.st2{fill:#BFD0FF;}
	.st3{fill:#95A6DB;}
	.st4{fill:#E3EAFF;}
	.st5{fill:#E62552;}
	.st6{fill:#C4204A;}
	.st7{fill:#062440;}
	.st8{fill:#B8C6F2;}
	.st9{fill:#98B0F2;}
	.st10{fill:#F37A50;}
	.st11{fill:#2C2858;}
	.st12{fill:#80BC48;}
	.st13{fill:#FFFFFF;}
	.st14{fill:#DE623C;}
	.st15{fill:#201D40;}
	.st16{fill:#2E2A5C;}
	.st17{fill:#373178;}
	.st18{fill:#5E8ADB;}
	.st19{fill:#17962E;}
</style>
<g>
	<rect x="496" y="249.8" class="st0" width="80.6" height="328.4"/>
	<g>
		<rect x="448.3" y="204.8" class="st1" width="89.2" height="373.4"/>
		<rect x="459.2" y="183.8" class="st1" width="67.5" height="22.3"/>
		<rect x="472.8" y="161.6" class="st1" width="40.3" height="22.3"/>
	</g>
	<rect x="312.8" y="197" class="st0" width="138.3" height="381.2"/>
	<g>
		<rect x="677.8" y="168.5" class="st0" width="106.8" height="390.3"/>
		<rect x="822.6" y="280.7" class="st0" width="106.8" height="301.5"/>
		<rect x="643.6" y="225.3" class="st1" width="96" height="357"/>
		<rect x="736.7" y="141.9" class="st1" width="134.3" height="440.4"/>
		<g>
			<g>
				<rect x="656.9" y="252" class="st2" width="20" height="30"/>
				<rect x="687.5" y="252" class="st2" width="20" height="30"/>
				<rect x="718.1" y="252" class="st2" width="20" height="30"/>
			</g>
			<g>
				<rect x="656.9" y="297" class="st2" width="20" height="30"/>
				<rect x="687.5" y="297" class="st2" width="20" height="30"/>
				<rect x="718.1" y="297" class="st2" width="20" height="30"/>
			</g>
			<g>
				<rect x="656.9" y="342" class="st2" width="20" height="30"/>
				<rect x="687.5" y="342" class="st2" width="20" height="30"/>
				<rect x="718.1" y="342" class="st2" width="20" height="30"/>
			</g>
			<g>
				<rect x="656.9" y="387.1" class="st2" width="20" height="30"/>
				<rect x="687.5" y="387.1" class="st2" width="20" height="30"/>
				<rect x="718.1" y="387.1" class="st2" width="20" height="30"/>
			</g>
			<g>
				<rect x="656.9" y="432.1" class="st2" width="20" height="30"/>
				<rect x="687.5" y="432.1" class="st2" width="20" height="30"/>
				<rect x="718.1" y="432.1" class="st2" width="20" height="30"/>
			</g>
		</g>
		<g>
			<g>
				<rect x="758.3" y="252" class="st2" width="20" height="30"/>
				<rect x="793.8" y="252" class="st2" width="20" height="30"/>
				<rect x="828.7" y="252" class="st2" width="20" height="30"/>
			</g>
			<g>
				<rect x="758.3" y="203.6" class="st2" width="20" height="30"/>
				<rect x="793.8" y="203.6" class="st2" width="20" height="30"/>
				<rect x="828.7" y="203.6" class="st2" width="20" height="30"/>
			</g>
			<g>
				<rect x="758.3" y="157.7" class="st2" width="20" height="30"/>
				<rect x="793.8" y="157.7" class="st2" width="20" height="30"/>
				<rect x="828.7" y="157.7" class="st2" width="20" height="30"/>
			</g>
			<g>
				<rect x="758.3" y="297" class="st2" width="20" height="30"/>
				<rect x="793.8" y="297" class="st2" width="20" height="30"/>
				<rect x="828.7" y="297" class="st2" width="20" height="30"/>
			</g>
			<g>
				<rect x="758.3" y="342" class="st2" width="20" height="30"/>
				<rect x="793.8" y="342" class="st2" width="20" height="30"/>
				<rect x="828.7" y="342" class="st2" width="20" height="30"/>
			</g>
			<g>
				<rect x="758.3" y="387.1" class="st2" width="20" height="30"/>
				<rect x="793.8" y="387.1" class="st2" width="20" height="30"/>
				<rect x="828.7" y="387.1" class="st2" width="20" height="30"/>
			</g>
			<g>
				<rect x="758.3" y="432.1" class="st2" width="20" height="30"/>
				<rect x="793.8" y="432.1" class="st2" width="20" height="30"/>
				<rect x="828.7" y="432.1" class="st2" width="20" height="30"/>
			</g>
		</g>
		<rect x="905.8" y="258.4" class="st0" width="23.6" height="22.3"/>
		<rect x="758.3" y="117.7" class="st1" width="91" height="24.2"/>
	</g>
	<path class="st3" d="M928.1,588.2H5c-2.8,0-5-2.2-5-5v0c0-2.8,2.2-5,5-5h923.1c2.8,0,5,2.2,5,5v0
		C933.2,586,930.9,588.2,928.1,588.2z"/>
	<path class="st4" d="M536.3,134.1c0.9-21.2,18.4-38.1,39.8-38.1c7.2,0,14,1.9,19.9,5.3l0,0c0.7-10.4,9.4-18.7,20-18.7
		c9.5,0,17.5,6.6,19.5,15.5l0,0c2.5-0.6,5.2-0.9,7.9-0.9c14.3,0,26.6,9,31.5,21.6c2.9-1.1,6-1.8,9.2-1.8c7.8,0,14.8,3.6,19.5,9.2
		c2.6,3.1,0.3,7.8-3.8,7.8H536.3z"/>
	<path class="st4" d="M448.9,88.5c0,0.2,0,0.4,0,0.7h-75.2c2.1-7.3,8.9-12.7,16.9-12.7c1.8,0,3.6,0.3,5.3,0.8
		c4.3-9.7,14-16.5,25.3-16.5C436.4,60.8,448.9,73.2,448.9,88.5z"/>
	<path class="st4" d="M326,43.4c0,0.3,0,0.6,0,0.9H196.2c0-0.3,0-0.6,0-0.9c0-12.7,10.3-23,23-23c2.4,0,4.7,0.4,6.9,1
		C231.6,8.8,244.3,0,259,0c15.3,0,28.3,9.5,33.6,22.9c3.1-1.6,6.7-2.5,10.4-2.5C315.7,20.4,326,30.7,326,43.4z"/>
	<path class="st4" d="M806.8,65.5c0,0.3,0,0.6,0,0.9H677c0-0.3,0-0.6,0-0.9c0-12.7,10.3-23,23-23c2.4,0,4.7,0.4,6.9,1
		c5.6-12.6,18.3-21.4,33-21.4c15.3,0,28.3,9.5,33.6,22.9c3.1-1.6,6.7-2.5,10.4-2.5C796.5,42.5,806.8,52.8,806.8,65.5z"/>
	<g>
		<path class="st5" d="M953.1,474.1c0.4-5.4,0-10.9-1.1-16.1c-2-9-6.3-19.9-18.2-30c-25.3-21.4-107.5-49-177.4-48.1
			c-10.2-5.9-104.9-78.7-146.7-102.2c-39.6-22-261.1-8.7-281.5-6c-55.9,7-158.7,99-160.6,126.4c-0.1,1.3-0.2,98.8,1.4,105.2
			c1.6,6.4,86.8,20.8,86.8,20.8s662.5,18.1,671.9,16.6c8.9-0.5,17.1-4.7,22.7-11.6C955,521.1,953.1,474.1,953.1,474.1z M339.9,385.6
			c0,0-39.9-9.1-40-24.8c-0.1-15.7,75.1-76.7,118.2-74.2c0,0,8,63.4,27.4,99.3C421.5,386.3,339.9,385.6,339.9,385.6z M462,385.6
			c-21-31.2-31.7-100.7-31.7-100.7s115.5,0.8,137.8,2.6c22.3,1.8,163,105.3,163,105.3S485.2,386.3,462,385.6z"/>
		<path class="st6" d="M953,485.8c0,0,1.9,35-2.8,42.9c-5.6,6.9-13.8,11.1-22.7,11.6c-9.4,1.5-728.2,1.4-741,0
			c-12.7-1.4-17.7-18.8-18-32.7c0-3-1.1,4.6-1.3-21.9H953z"/>
		<path class="st6" d="M714.2,508.3c0.1-45.9,37.4-83,83.3-82.9c45.9,0.1,83,37.4,82.9,83.3c0,9-1.5,17.9-4.4,26.5l-140.5,6.6
			l-19.3-14.8C715.1,520.8,714.4,514.6,714.2,508.3z"/>
		<g>
			
				<ellipse transform="matrix(0.1764 -0.9843 0.9843 0.1764 156.341 1203.4662)" class="st7" cx="797.3" cy="508.3" rx="70.2" ry="70.2"/>
			
				<ellipse transform="matrix(2.774544e-02 -0.9996 0.9996 2.774544e-02 267.1111 1291.2399)" class="st8" cx="797.3" cy="508.3" rx="50.3" ry="50.3"/>
			
				<ellipse transform="matrix(0.9991 -4.155855e-02 4.155855e-02 0.9991 -20.4356 33.5756)" class="st9" cx="797.3" cy="508.3" rx="28.8" ry="28.8"/>
		</g>
		<path class="st6" d="M244.9,508.3c0-45.9,37.2-83.2,83.2-83.2c45.9,0,83.2,37.2,83.2,83.2c0.1,8.7-1.3,17.4-4.1,25.7l-160.4-8.6
			C245.5,519.8,244.9,514.1,244.9,508.3z"/>
		<g>
			<path class="st7" d="M328.1,438.1c-38.8,0-70.2,31.4-70.2,70.1c0,38.8,31.4,70.2,70.1,70.2c38.8,0,70.2-31.4,70.2-70.1
				C398.3,469.6,366.9,438.1,328.1,438.1z"/>
			
				<ellipse transform="matrix(0.9486 -0.3166 0.3166 0.9486 -144.0408 129.9953)" class="st8" cx="328.1" cy="508.3" rx="50.3" ry="50.3"/>
			<path class="st9" d="M328.1,479.5c-15.9,0-28.8,12.9-28.8,28.8c0,15.9,12.9,28.8,28.8,28.8c15.9,0,28.8-12.9,28.8-28.8
				C356.9,492.4,344,479.5,328.1,479.5z"/>
		</g>
		<path class="st10" d="M879.1,424.6c0,0,54.6,3.5,62.5,28.5c4.3,8.8-44.2,3.3-44.2,3.3L879.1,424.6z"/>
		<path class="st6" d="M731.1,392.8l-34-26.6c0,0-38.2-7-39.9,21.1C658.1,414.5,720.9,399.8,731.1,392.8z"/>
		<path class="st6" d="M531.5,413h-51c-3.1,0-5.5-2.5-5.5-5.5l0,0c0-3.1,2.5-5.5,5.5-5.5h51c3.1,0,5.5,2.5,5.5,5.5l0,0
			C537.1,410.6,534.6,413,531.5,413z"/>
	</g>
	<g>
		<path class="st11" d="M297.4,579.9L69.2,580c-24.8,0-44.9-20.1-44.9-44.9L24,108.8C24,84,44.1,63.9,68.9,63.8l228.2-0.1
			c24.8,0,44.9,20.1,44.9,44.9l0.2,426.4C342.3,559.8,322.2,579.9,297.4,579.9z"/>
		<path class="st8" d="M287.2,566.8l-207.6,0.1c-22.6,0-40.9-18.6-40.9-41.5l-0.2-406.3c0-22.9,18.3-41.5,40.8-41.5l207.6-0.1
			c22.6,0,40.9,18.6,40.9,41.5l0.2,406.3C328,548.2,309.7,566.8,287.2,566.8z"/>
		<g>
			<path class="st4" d="M241.4,419.4l44.1-27.7l9.2,25.1l-41.1,25.8l4.5,7.6l69.9-43.7l0-10.4L302.5,412l-9.2-25.1l34.6-21.7l0-50.6
				l-4.4-7.2l4.4-6.2l0-15.4l-9.8,13.8l-37.6-18.7l32.2-45.1l15.3,8.5l0-10.2l-10.1-5.6l10-14.1l0-18.5l-16.8-9.3l16.8-1.8l0-8.9
				l-30.4,3.1l-63.6-35.3l83.9-41.8l10,18.3v-1.2c0-15.3-8.2-28.7-20.3-35.9l1.7,3l-32.9,16.4l-25.2-25l-12.8,0l29.3,29.3L218.8,131
				l-55.2-41l7.1-12.5l-20,0l-17,24.4l-21.5-11.2l8.9-13.2l-10.8,0l-12.1,18l-15.7-18h-3.3c-9.3,0-17.1,3.8-17.1,3.8l16.1,18.5
				l-39.6,14.8c-0.1,1.4-0.2,9.6-0.2,9.6l46-17.2l0-0.1l3.2,3.6l-31.8,55.9l-17.3-39.4l0,44.1l6.4,14.4l-6.4,11.2l0,29.7l24.7,37.6
				l-4.5,5.7l-20.2,7l0,9.5l25.6-9l44-55.8l17.5,7.6L51,394.2L38.6,333l0,45.9l3.8,19l-3.8,1.1l0,18.4l17.3-4.9L180,456l39.2-23.5
				l-2.3,8.5h18.9L241.4,419.4z M306.5,313.4l19.2,32L287,369.5l-14.9-40.8l26.8-19L306.5,313.4z M289.9,305.2l-23.6,16.8L245,311.2
				l23.6-16.5L289.9,305.2z M189.4,339.5L171,314.8l-10.6-36.7l67.3,34.2L189.4,339.5z M192.7,374.2l-30.9,22l14.5-44L192.7,374.2z
				 M259.2,289.9l-23.3,16.6l-78.9-40.1l-8.4-31.3L259.2,289.9z M148.7,184.2l0.7,1.4l38.4-19.1l39.8,22.1l-34.8,48.8l-29.9-14.8
				L148.7,184.2z M145.5,291.8l8.8,30.9l0.9,1.3l10.4,13.9l-45.4-13L145.5,291.8z M236.8,317l21.2,10.8l-50.6,35.9l-12.8-17.2
				L236.8,317z M272.3,276.8l-71.4-35.4l34.6-48.5l69.2,38.4L272.3,276.8z M297.8,189.4l26.4,14.6l-14.3,20l-25.8-14.3L297.8,189.4z
				 M224.1,148.4l65.7,36.5l-13.4,20.5l-78.8-43.8L224.1,148.4z M158.6,97.3l21,15.6l-9.9,13.4l-21.2-14.4L158.6,97.3z M143.4,119.3
				l28,19.1l15.3-20.1l23.1,17.2L143,168.7l-11.8-31.9L143.4,119.3z M108.9,95.8l19.8,13.5l-8.2,11.8l-16.2-18.5L108.9,95.8z
				 M93.8,117.7l16.2,18.6l-35.5,51.2l-11.6-5l-2.5-5.8L93.8,117.7z M69.1,256.7L40,212.4l9.4-16.5l50.3,22L69.1,256.7z M91.2,194.8
				l27.6-39.9l23,61.9L91.2,194.8z M134.4,252.8l8.1,28.3l-51.1,67.1L134.4,252.8z M68.9,398.2l6.2-13.8l39.5-51.8l53.6,15.5
				L143,424.2L68.9,398.2z M177.7,436.4l-26.2-9.2l5.5-16.7l41-29.1l22.3,29.8L177.7,436.4z M235.5,401.5l-22.8-30.6l51.8-36.8
				l14.7,40.3L235.5,401.5z"/>
		</g>
		<polygon class="st12" points="74.4,187.5 109.9,136.3 93.8,117.7 60.3,176.7 62.8,182.5 		"/>
		<polygon class="st12" points="327.8,120.1 317.7,101.8 233.8,143.6 297.4,178.9 327.8,175.8 		"/>
		<polygon class="st12" points="161.7,396.1 176.2,352.1 192.7,374.2 		"/>
		<path class="st5" d="M170.6,146.5c-15.2,0-27.6,12.4-27.6,27.6c0,15.2,27.6,62.5,27.6,62.5s27.6-47.2,27.6-62.5
			C198.2,158.9,185.8,146.5,170.6,146.5z M170.6,188.2c-7.4,0-13.3-6-13.3-13.3c0-7.4,6-13.3,13.3-13.3c7.4,0,13.3,6,13.3,13.3
			C183.9,182.3,177.9,188.2,170.6,188.2z"/>
		<g>
			<g>
				<path class="st5" d="M165.7,235.2c-0.3,0-0.5-0.1-0.8-0.2l-5.9-2.6c-1-0.4-1.4-1.6-1-2.5c0.4-1,1.6-1.4,2.5-1l5.9,2.6
					c1,0.4,1.4,1.6,1,2.5C167.1,234.8,166.4,235.2,165.7,235.2z"/>
			</g>
			<g>
				<path class="st5" d="M152.6,229.5c-0.3,0-0.5-0.1-0.8-0.2l-7.2-3.2c-1-0.4-1.4-1.6-1-2.5c0.4-1,1.6-1.4,2.5-1l7.2,3.2
					c1,0.4,1.4,1.6,1,2.5C154.1,229,153.4,229.5,152.6,229.5z"/>
			</g>
			<g>
				<path class="st5" d="M134.3,226.6c-0.8,0-1.6-0.5-1.8-1.4l-1.9-6.1c-0.2-0.7,0-1.5,0.6-2c0.6-0.5,1.4-0.6,2.1-0.3l5.9,2.6
					c1,0.4,1.4,1.6,1,2.5c-0.4,1-1.6,1.4-2.5,1l-2-0.9l0.6,2.1c0.3,1-0.3,2.1-1.3,2.4C134.7,226.6,134.5,226.6,134.3,226.6z"/>
			</g>
			<g>
				<path class="st5" d="M219.5,397.8c-0.6,0-1.2-0.3-1.6-0.8l-7-9.9c-0.6-0.9-0.4-2.1,0.4-2.7c0.9-0.6,2.1-0.4,2.7,0.4l7,9.9
					c0.6,0.9,0.4,2.1-0.4,2.7C220.3,397.7,219.9,397.8,219.5,397.8z M205.4,378.1c-0.6,0-1.2-0.3-1.6-0.8l-7-9.9
					c-0.6-0.9-0.4-2.1,0.4-2.7c0.9-0.6,2.1-0.4,2.7,0.4l7,9.9c0.6,0.9,0.4,2.1-0.4,2.7C206.2,378,205.8,378.1,205.4,378.1z
					 M191.4,358.4c-0.6,0-1.2-0.3-1.6-0.8l-7-9.9c-0.6-0.9-0.4-2.1,0.4-2.7c0.9-0.6,2.1-0.4,2.7,0.4l7,9.9c0.6,0.9,0.4,2.1-0.4,2.7
					C192.2,358.3,191.8,358.4,191.4,358.4z M177.3,338.7c-0.6,0-1.2-0.3-1.6-0.8l-7-9.9c-0.6-0.9-0.4-2.1,0.4-2.7
					c0.9-0.6,2.1-0.4,2.7,0.4l7,9.9c0.6,0.9,0.4,2.1-0.4,2.7C178.1,338.6,177.7,338.7,177.3,338.7z M163.2,319
					c-0.6,0-1.2-0.3-1.6-0.8l-1.5-2.1c-0.1-0.2-0.2-0.4-0.3-0.6l-2.8-9.1c-0.3-1,0.3-2.1,1.3-2.4c1-0.3,2.1,0.3,2.4,1.3l2.7,8.8
					l1.3,1.9c0.6,0.9,0.4,2.1-0.4,2.7C164,318.8,163.6,319,163.2,319z M155.4,296.2c-0.8,0-1.6-0.5-1.8-1.4l-3.5-11.6
					c-0.3-1,0.3-2.1,1.3-2.4c1-0.3,2.1,0.3,2.4,1.3l3.5,11.6c0.3,1-0.3,2.1-1.3,2.4C155.8,296.1,155.6,296.2,155.4,296.2z
					 M148.4,273c-0.8,0-1.6-0.5-1.8-1.4L143,260c-0.3-1,0.3-2.1,1.3-2.4c1-0.3,2.1,0.3,2.4,1.3l3.5,11.6c0.3,1-0.3,2.1-1.3,2.4
					C148.8,273,148.6,273,148.4,273z M141.4,249.8c-0.8,0-1.6-0.5-1.8-1.4l-3.5-11.6c-0.3-1,0.3-2.1,1.3-2.4c1-0.3,2.1,0.3,2.4,1.3
					l3.5,11.6c0.3,1-0.3,2.1-1.3,2.4C141.7,249.8,141.5,249.8,141.4,249.8z"/>
			</g>
			<g>
				<path class="st5" d="M225,416.6c-0.6,0-1.2-0.3-1.6-0.8c-0.6-0.9-0.4-2.1,0.4-2.7l3.7-2.6l-2.6-3.7c-0.6-0.9-0.4-2.1,0.4-2.7
					c0.9-0.6,2.1-0.4,2.7,0.4l3.7,5.2c0.3,0.4,0.4,0.9,0.3,1.4c-0.1,0.5-0.4,1-0.8,1.2l-5.2,3.7C225.8,416.5,225.4,416.6,225,416.6z
					"/>
			</g>
			<g>
				<path class="st5" d="M203.9,431.7c-0.6,0-1.2-0.3-1.6-0.8c-0.6-0.9-0.4-2.1,0.4-2.7l10.6-7.5c0.9-0.6,2.1-0.4,2.7,0.4
					c0.6,0.9,0.4,2.1-0.4,2.7l-10.6,7.5C204.7,431.5,204.3,431.7,203.9,431.7z"/>
			</g>
			<g>
				<path class="st5" d="M188.2,442.9c-0.6,0-1.2-0.3-1.6-0.8c-0.6-0.9-0.4-2.1,0.4-2.7l5.2-3.7c0.9-0.6,2.1-0.4,2.7,0.4
					c0.6,0.9,0.4,2.1-0.4,2.7l-5.2,3.7C189,442.8,188.6,442.9,188.2,442.9z"/>
			</g>
		</g>
		<g>
			<path class="st13" d="M327.9,438.3V536c0,17-13.8,30.8-30.8,30.8l-227.6,0.1c-17,0-30.8-13.8-30.8-30.8l-0.1-97.8H327.9z"/>
			<path class="st4" d="M290.6,484.4H169.9c-3.4,0-6.1-2.7-6.1-6.1v-7.5c0-3.4,2.7-6.1,6.1-6.1h120.7c3.4,0,6.1,2.7,6.1,6.1v7.5
				C296.7,481.6,294,484.4,290.6,484.4z"/>
			<g>
				<path class="st8" d="M138,483.3c-0.2-3.2-1.4-5.7-3.9-7.6c-1.8-1.3-3.8-1.9-6-1.9c-4.1,0-9.2,3.3-9.5,9.6c-9,0-17.9,0-27,0
					c-0.1-3.2-1.4-5.8-4-7.7c-1.7-1.3-3.7-1.9-5.8-1.9c-2.6,0.1-4.9,1-6.7,2.8c-1.8,1.8-2.8,4-2.8,6.7c-1.6-0.5-3.2-0.9-4.7-1.3
					c-0.2-0.1-0.4-0.4-0.4-0.6c0-4.5,0-8.9,0-13.4c0-0.7,0.4-1.4,0.8-1.9c2.3-3,5.3-5.1,8.5-6.9c3.6-2.1,7.4-3.6,11.6-4.1
					c1.2-0.1,2.4-0.2,3.5-0.2c3.8,0,7.5,0.1,11.3,0c3.4-0.2,6.4,0.8,9.1,2.6c3.1,2.1,6.1,4.4,9,6.7c0.7,0.6,1.5,0.8,2.3,1
					c5,0.7,10,1.7,14.7,3.9c1.3,0.6,2.5,1.5,3.7,2.4c0.8,0.6,1.1,1.5,1.1,2.5c0,2.5,0,5,0,7.5c0,0.4-0.1,0.7-0.5,0.8
					C141,482.4,139.6,482.9,138,483.3z M76.5,465c6.2,0.2,12.3,0.4,18.6,0.6c0-2.1,0-4.1,0-6C88.2,458.8,82.1,461,76.5,465z
					 M99.8,459.5c0,2.2,0,4.2,0,6.3c5.6,0.2,11.1,0.4,16.7,0.6c0-0.1,0-0.2,0-0.2c-1-0.7-1.9-1.5-2.9-2.2c-1.7-1.1-3.5-2.2-5.2-3.3
					C105.8,458.9,102.8,459.6,99.8,459.5z"/>
				<path class="st8" d="M82,476.9c3.6,0,6.6,3,6.6,6.6c0,3.6-3,6.6-6.6,6.6c-3.6,0-6.6-3-6.6-6.6C75.4,479.8,78.4,476.8,82,476.9z"
					/>
				<path class="st8" d="M128.4,476.9c3.6,0,6.5,3,6.5,6.6c0,3.6-3.1,6.6-6.6,6.5c-3.6-0.1-6.6-3-6.5-6.6
					C121.8,479.7,124.8,476.8,128.4,476.9z"/>
			</g>
			<path class="st4" d="M280.4,527H93.3c-4.1,0-7.5-3.4-7.5-7.5v-6.8c0-4.1,3.4-7.5,7.5-7.5h187.1c4.1,0,7.5,3.4,7.5,7.5v6.8
				C287.9,523.6,284.6,527,280.4,527z"/>
			<path class="st4" d="M280.4,556.1H93.3c-4.1,0-7.5-3.4-7.5-7.5v-6.8c0-4.1,3.4-7.5,7.5-7.5h187.1c4.1,0,7.5,3.4,7.5,7.5v6.8
				C287.9,552.8,284.6,556.1,280.4,556.1z"/>
		</g>
		<polygon class="st12" points="160.4,278.1 171,314.8 189.4,339.5 227.6,312.3 		"/>
	</g>
	<g id="c_40_">
		<g>
			<polygon id="v-2_7_" class="st10" points="404,217 404,217 393,217 390.6,242.9 403.4,249.7 417,243 414.8,217 			"/>
			<g>
				<g>
					
						<ellipse transform="matrix(0.1317 -0.9913 0.9913 0.1317 153.32 564.9058)" class="st10" cx="399.1" cy="194.9" rx="34.3" ry="26.9"/>
					<path class="st14" d="M389.8,198.9c-2.7,3.5-6.1,7.8-6.1,7.8s1,4.1,6.2,4.7c-2.1-1.1-4.2-2.8-3-5.7
						C388.1,202.8,389.8,198.9,389.8,198.9z"/>
					<path class="st15" d="M431.9,183.4c1.6-17.9-14.9-23.8-14.9-23.8s3.7-1.3,2.8-6.7c-2.6,1.6-5.8,2.3-8.8,2
						c-20.5-2-33.3,1.3-31.3,9.4c0.7,2.9-12.5,4.3-6.6,23.2c1.3-2.2,2.4-10.6,6.4-12.5c4-1.9,1.6,4.7,10.7,3.7
						c9.1-1,15.1-4.8,21.7-1.2c5.3,3.3,12,25,11.6,26.5C424.2,200.7,431.2,191.3,431.9,183.4z"/>
					<path class="st15" d="M372.3,201.6c0,0,1.7,10.2,4,12.9c0.5-4.4,10.1-1.6,14.3-1.3c7.6,0.7,15.3-6.1,17.8,3.9
						c9.7,0.6,13.2-20.7,13.2-20.7c5.9,21.2-4.7,36.7-28.1,38.9C378,236.8,369.5,217.1,372.3,201.6z"/>
					<path d="M400.8,197.8c1.4,0.1,2.7-1,2.8-2.4c0.1-1.4-1-2.7-2.4-2.8c-1.4-0.1-2.7,1-2.8,2.4
						C398.2,196.4,399.3,197.7,400.8,197.8z"/>
					<path d="M379.2,197c1.4,0.1,2.7-1,2.8-2.4c0.1-1.4-1-2.7-2.4-2.8c-1.4-0.1-2.7,1-2.8,2.4C376.7,195.6,377.8,196.9,379.2,197z"
						/>
					<g>
						<path class="st15" d="M374.9,191.5c0.4,0,0.9-0.2,1.2-0.6c0.7-1.1,1.6-1.7,2.5-1.8c1.6-0.2,3.1,0.9,3.1,0.9
							c0.6,0.4,1.4,0.3,1.8-0.2c0.4-0.6,0.4-1.4-0.2-1.8c-0.1-0.1-2.4-1.9-5.1-1.5c-1.7,0.2-3.1,1.2-4.3,2.9
							c-0.4,0.6-0.3,1.4,0.3,1.8C374.5,191.5,374.7,191.5,374.9,191.5z"/>
					</g>
					<g>
						<path class="st15" d="M406.6,193.6c0.3,0,0.6-0.1,0.8-0.2c0.6-0.4,0.7-1.2,0.3-1.8c-1.6-2.2-3.4-3.5-5.3-3.8
							c-2.6-0.4-4.5,1.1-4.5,1.2c-0.6,0.4-0.6,1.3-0.2,1.8c0.4,0.6,1.3,0.6,1.8,0.2c0,0,1.2-0.9,2.6-0.6c1.2,0.2,2.4,1.1,3.6,2.7
							C405.9,193.4,406.3,193.6,406.6,193.6z"/>
					</g>
					<g>
						<path class="st10" d="M421.8,196.6c-3.2,3.1-3.8,7.7-1.3,10.3c2.5,2.6,7.2,2.3,10.4-0.8c3.2-3.1,3.8-7.7,1.3-10.3
							C429.7,193.2,425,193.5,421.8,196.6z"/>
						<g>
							<path class="st14" d="M424.7,205.7c-0.1-0.1-0.3-0.1-0.4-0.3c-1.5-1.7-1.8-3.6-0.9-5.3c1-1.7,3.1-2.7,4.9-2.3
								c0.5,0.1,0.9,0.6,0.7,1.2c-0.1,0.5-0.6,0.9-1.2,0.7c-1-0.2-2.3,0.4-2.8,1.3c-0.5,0.9-0.3,2,0.6,3c0.4,0.4,0.3,1-0.1,1.4
								C425.4,205.7,425,205.8,424.7,205.7z"/>
						</g>
					</g>
					<path class="st13" d="M399,216.2c0.1-0.7,0-1.3-0.7-1.2c-1.7,0.2-4.6,0.5-7.3,0.5c-2.7,0-5.5-0.2-7.3-0.4
						c-0.7-0.1-0.8,0.6-0.7,1.2c0.6,2.8,3.7,5.8,7.8,5.8C395,222.1,398.6,218.7,399,216.2z"/>
				</g>
			</g>
		</g>
		<path d="M384,555.8c-9.7,13.4-33.5,5.2-32.7,23.3c36.2-0.2,51.3,0,51.3,0c0-4.2-0.8-14-1.6-17.9L384,555.8z"/>
		<path d="M438.2,556.1c-9.7,13.4-33.5,5.2-32.7,23.3c36.2-0.2,51.3,0,51.3,0c0-4.2-0.8-14-1.6-17.9L438.2,556.1z"/>
		<path class="st16" d="M367.3,351.5c0,0-5.9,85.7-3.5,104.8c2.4,19.1,10.8,43.5,9.9,106.5c11.8,3,28.9,0,28.9,0s2.5-71.3-9.9-103.1
			C397.7,428.8,414,358,414,358L367.3,351.5z"/>
		<path class="st17" d="M389.6,353.9c0,0,11.9,96.3,17.7,114.5c5.8,18.3,10.9,31.6,21.4,93.7c12.1,0.6,29.6,0.2,29.6,0.2
			s-1.6-76.9-20.5-94.9c-0.6-31.4,3.1-113,3.1-113L389.6,353.9z"/>
		<g id="v_7_">
			<path id="h-5_4_" class="st9" d="M444.3,244.7c0,0-20.6-7.2-27.5-3.9c-21.4,10.3-26.3,0-26.3,0c-6.8,0.6-27.4,3.9-27.4,3.9
				c0,23-1.5,46.1-1.1,63.5c0.3,15.2-2.6,56.4-2.6,56.4s22.7,6,44.2,6.1c21.5-0.1,43.4-5.9,43.4-5.9s-1.1-41.8-2.1-57.3
				C445.2,290.1,444.3,267.6,444.3,244.7z"/>
		</g>
		<g id="c_48_">
			<path id="c_49_" class="st18" d="M326.5,278.9c8.5-20.3,33.8-33.2,36.6-34.2l5.9,26.1c-12.1,7.2-20.9,14.9-20.9,14.9
				c1.5,7.3,1.2,14.4,5.4,23.6c0,0-3.6-5-8.1-2.1c-4.4,2.9-12.4-3-12.4-3S320,294.4,326.5,278.9z"/>
		</g>
		<g id="c_41_">
			<g id="c_44_">
				<g id="c_45_">
					<path id="c_47_" class="st12" d="M331.2,330.2c-0.1,0-0.3,0.1-0.4,0.1h-0.5c-0.9-0.1-1.7-0.7-2-1.6l-22.7-73.1
						c0-0.1-0.1-0.3-0.1-0.4c0-0.1,0-0.2,0-0.3c0-0.1,0-0.1,0-0.2c0-0.1,0-0.1,0-0.2c0.1-0.8,0.7-1.6,1.6-1.8c0.1,0,0.3-0.1,0.4-0.1
						c0.2,0,0.3,0,0.5,0h57.1l22.9,77.7L331.2,330.2L331.2,330.2z"/>
					<path id="c_46_" class="st19" d="M364.7,252.6c1.2-0.4,2.5,0.3,2.9,1.5l22.5,73l0.1,0.2c0.4,1.2-0.3,2.5-1.5,2.9l0,0
						c-1.2,0.4-2.5-0.3-2.9-1.5l-22.6-73.1C362.8,254.3,363.5,253,364.7,252.6z"/>
				</g>
			</g>
			<path id="c_43_" class="st10" d="M321.5,299c-0.2-0.1-0.4-0.2-0.7-0.3c0,0,0.1-0.1,0.1-0.1c1.4-2.1,1.3-4.7-0.2-5.7
				c-0.3-0.2-0.5-0.3-0.8-0.3c0.4-1.6,0-3.1-1.1-3.8c-0.4-0.3-0.9-0.4-1.5-0.4c0.5-1.6,0.1-3.2-1.1-4c-1.5-1-3.8-0.4-5,1.5
				c-1.2,1.8-0.9,4.1,0.6,5.2c0.4,0.3,0.8,0.4,1.3,0.5c-1,2-0.8,4.2,0.6,5.1c0.3,0.2,0.5,0.3,0.8,0.3c-0.4,1.6,0,3.1,1.1,3.8
				c0.4,0.3,0.9,0.4,1.4,0.4c-0.5,1.4-0.2,2.8,0.9,3.5c1.3,0.9,3.2,0.3,4.2-1.2C323.1,301.8,322.8,299.9,321.5,299z"/>
			<path class="st10" d="M391.7,294.4l-5.2-3c0,0-1.4-7.4-9.8-7.6c1,3.1,2.3,7.6,2.3,7.6s-4.1,3.2-13.9-2.3
				c-9.5-2.1-5.5,4.8-8.6,5.3c-4.7,0.7,3.4,9.9,12.9,11.3c12.3,1.8,13.8-0.7,13.8-0.7l7,2.4L391.7,294.4z"/>
			<path id="c_42_" class="st18" d="M445,303c-17.4-1.2-52.1-10.5-52.1-10.5c-4.7,7.3-3.4,17-3.4,17c27,23.7,67.7,31.3,80.2,25.6
				c11.4-5.2,3.3-74.6-25.3-90.5L445,303z"/>
		</g>
		<path class="st19" d="M353,263.7c1,2.5,3.5,3.8,5.7,2.9c2.1-0.9,3.1-3.5,2.1-6c-1-2.5-3.5-3.8-5.7-2.9
			C353,258.6,352.1,261.3,353,263.7z"/>
		<path class="st19" d="M345.8,262.9c0.6,1.5,2.1,2.3,3.4,1.7c1.3-0.5,1.8-2.1,1.2-3.6c-0.6-1.5-2.1-2.3-3.4-1.7
			C345.7,259.8,345.2,261.4,345.8,262.9z"/>
	</g>
</g>
</svg>
