<?xml version="1.0" encoding="utf-8"?>
<!-- Generator: Adobe Illustrator 23.0.3, SVG Export Plug-In . SVG Version: 6.00 Build 0)  -->
<svg version="1.1" xmlns="http://www.w3.org/2000/svg" xmlns:xlink="http://www.w3.org/1999/xlink" x="0px" y="0px"
	 viewBox="0 0 424.2 310.5" style="enable-background:new 0 0 424.2 310.5;" xml:space="preserve">
<style type="text/css">
	.st0{display:none;}
	.st1{display:inline;fill:#FFC400;}
	.st2{opacity:0.17;fill:#0BA9B9;}
	.st3{opacity:0.25;fill:#117BD3;}
	.st4{fill:#0BA9B9;}
	.st5{opacity:0.41;fill:#0BA9B9;}
	.st6{fill:#97FFFF;}
	.st7{opacity:0.6;fill:#0BA9B9;}
	.st8{fill:none;stroke:#1E1724;stroke-width:2.8937;stroke-miterlimit:10;}
	.st9{fill:#F99900;}
	.st10{fill:#F77B00;}
	.st11{opacity:0.4;}
	.st12{opacity:0.37;fill:#F77B00;}
	.st13{fill:#FFC400;}
	.st14{opacity:0.75;fill:#FFC400;}
	.st15{fill:#FFD1B0;}
	.st16{fill:#FFFFFF;}
	.st17{opacity:0.43;fill:#FFC400;}
</style>
<g id="BACKGROUND" class="st0">
	<rect x="-274" y="-116.5" class="st1" width="750" height="500"/>
</g>
<g id="OBJECTS">
	<g>
		
			<image style="overflow:visible;opacity:0.5;" width="1907" height="1469" xlink:href="5942307.png"  transform="matrix(0.24 0 0 0.24 -16.087 -16.0105)">
		</image>
		<g>
			<g>
				<path class="st2" d="M208.2,240.6c-42.6,4.5-86.5,2.9-127.6-10.2c-33-10.5-65.9-31.1-77.1-63.8c-7.4-21.7-2.7-46.5,10.2-65.2
					c16.7-24.4,40.7-26,65.8-37c29-12.7,48.4-40.2,77.9-52c23.9-9.6,50.4-13.6,76-12c50.6,3.2,101,30.3,115.9,81.5
					c1.2,4.2,2.2,8.6,2.9,12.9c6.6,39.7-9.7,80.7-39,107.7c-28.7,26.5-66.9,34.1-104.5,38.1C208.6,240.6,208.4,240.6,208.2,240.6z"
					/>
				<path class="st3" d="M331.2,272.8c0-12.4-54.3-22.5-121.3-22.5c-13.2,0-25.9,0.4-37.9,1.1c-11.9-0.7-24.6-1.1-37.9-1.1
					c-67,0-121.3,10.1-121.3,22.5c0,6.5,15.1,12.4,39.2,16.5c3.7,11.8,56.5,21.1,121.1,21.1c65.4,0,118.7-9.6,121.2-21.6
					C317.1,284.8,331.2,279.1,331.2,272.8z"/>
				<g>
					<g>
						<g>
							<g>
								<path class="st4" d="M241.5,212.6c0,0,38.8-13.8,52.4-40.4c16.2-31.5,27.8-88.8,83.4-85.9c0,0-14.1,26-17.3,54.4
									C356.3,174.2,340.7,236.1,241.5,212.6z"/>
								<path class="st5" d="M377.2,86.5c-7.9,2.5-16.2,7.2-23.1,16c-20.1,25.2-13.4,48-36.4,77.4c-18.1,23.2-54.7,31-75.5,32.9
									c98.5,23.1,114.1-38.6,117.8-72.1C363,114,375.6,89.5,377.2,86.5z"/>
							</g>
							<g>
								<path class="st6" d="M377.2,86.5c-7.8,2.9-14.8,7.7-20,13.9c-5.2,6.3-9.4,13.4-12.4,20.9c-3,7.6-5,15.6-7.4,23.6
									c-2.4,8-5.4,16-9.6,23.4c-1,1.9-2.2,3.6-3.3,5.4c-1.1,1.8-2.4,3.5-3.6,5.2c-0.6,0.8-1.2,1.7-1.9,2.5l-2.1,2.4
									c-1.4,1.7-3,3.1-4.5,4.5c-6.4,5.7-13.7,10.1-21.4,13.5c-7.7,3.4-15.8,5.8-23.9,7.6c-8.2,1.8-16.5,2.8-24.8,3.2
									c8.2-1.3,16.3-2.8,24.3-5.1c7.9-2.2,15.7-5,23.1-8.6c0.9-0.4,1.8-0.9,2.7-1.4l2.7-1.4c1.8-1,3.5-2.1,5.2-3.1
									c1.6-1.2,3.3-2.3,4.9-3.5l2.3-1.9c0.8-0.6,1.6-1.3,2.3-2c1.4-1.4,3-2.7,4.2-4.3l2-2.3c0.6-0.8,1.2-1.6,1.8-2.4
									c1.2-1.7,2.4-3.3,3.5-5c1.1-1.7,2.2-3.4,3.1-5.2c4-7.1,6.9-14.7,9.4-22.5c2.5-7.8,4.7-16,8.1-23.7l1.4-2.9l0.7-1.4l0.8-1.4
									l1.5-2.8c0.5-0.9,1.1-1.8,1.7-2.7c0.6-0.9,1.2-1.8,1.8-2.6l1.9-2.5c1.3-1.7,2.6-3.3,4.1-4.8C361.6,93,369.2,88.6,377.2,86.5
									z"/>
							</g>
							<g>
								<polygon class="st6" points="357,122.5 339.1,135.2 338,133.4 								"/>
							</g>
							<g>
								<polygon class="st6" points="363.9,106 346,118.7 344.9,117 								"/>
							</g>
							<g>
								<polygon class="st6" points="355.9,139.3 333.6,154.7 332.5,153 								"/>
							</g>
							<g>
								<polygon class="st6" points="321.8,128 322.7,174.8 319.2,174.8 								"/>
							</g>
							<g>
								<polygon class="st6" points="333.3,113.7 336.5,144.3 334.2,144.5 								"/>
							</g>
							<g>
								<polygon class="st6" points="349.2,162.2 317.8,181.1 316.8,179.3 								"/>
							</g>
							<g>
								<polygon class="st6" points="330,188.2 295,199.2 294.4,197.3 								"/>
							</g>
						</g>
						<g>
							<g>
								<polygon class="st6" points="307.3,159.3 307.9,190.1 305.6,190.1 								"/>
							</g>
						</g>
						<g>
							<polygon class="st6" points="342.8,101.8 344.7,119.6 343.3,119.7 							"/>
						</g>
					</g>
					<g>
						<g>
							<g>
								<path class="st4" d="M198.2,250.9c0,0,44.8-37,50.1-79c6.2-49.6-6-131.4,69.2-154.5c0,0-6.2,41.3,3.3,80.7
									C332.1,144.4,341.3,234.2,198.2,250.9z"/>
								<path class="st7" d="M317.5,17.9c-9.2,7.1-18,17.4-23,32.4c-14.5,43.2,5.5,70.2-10.9,120.3c-12.9,39.6-57.6,67.6-84.4,80.2
									c142-17,132.8-106.4,121.6-152.7C312,61.2,316.8,22.6,317.5,17.9z"/>
							</g>
							<g>
								<path class="st6" d="M317.5,17.9c-8.9,7.6-15.9,17.3-19.9,28.1c-3.9,10.8-6,22.3-6.4,33.8c-0.3,11.5,0.9,23.1,1.6,34.9
									c0.7,11.8,0.5,23.8-1.4,35.7c-0.4,3-1.1,5.9-1.8,8.8c-0.6,2.9-1.5,5.8-2.3,8.7c-0.4,1.4-0.8,2.9-1.3,4.3
									c-0.5,1.4-1,2.9-1.6,4.3c-0.6,1.4-1.1,2.8-1.8,4.2l-1,2.1l-1.1,2c-5.7,10.6-13.3,20.1-22,28.3c-8.6,8.3-18.1,15.4-28.1,21.7
									c-10,6.3-20.5,11.8-31.3,16.2c10.3-5.6,20.3-11.7,29.8-18.5c9.5-6.8,18.4-14.3,26.5-22.6c4-4.2,7.8-8.5,11.2-13.1
									c3.4-4.6,6.5-9.4,9.1-14.5l1-1.9l0.9-1.9c0.6-1.3,1.1-2.6,1.7-3.9c0.6-1.3,1-2.7,1.4-4c0.5-1.3,0.8-2.8,1.2-4.1
									c0.8-2.8,1.7-5.5,2.2-8.3c0.6-2.8,1.3-5.6,1.6-8.4l0.7-4.2c0.3-1.4,0.3-2.9,0.5-4.3l0.4-4.3l0.2-4.3
									c0.3-5.7,0.1-11.5-0.1-17.3c-0.2-5.8-0.6-11.7-0.8-17.6c-0.1-2.9-0.2-5.9-0.2-8.9c0-1.5,0.1-3,0.1-4.5
									c0.1-1.5,0.1-3,0.2-4.5l0.4-4.5l0.2-2.2l0.4-2.2l0.7-4.4c0.1-0.7,0.3-1.5,0.5-2.2l0.5-2.2c0.4-1.4,0.7-2.9,1.1-4.3l1.4-4.3
									c0.9-2.8,1.9-5.7,3.1-8.4C299.9,34,307.8,24.5,317.5,17.9z"/>
							</g>
							<g>
								<polygon class="st6" points="308.1,75.5 290.4,100.9 288.1,99.2 								"/>
							</g>
							<g>
								<polygon class="st6" points="309.3,50.2 291.6,75.7 289.3,73.9 								"/>
							</g>
							<g>
								<polygon class="st6" points="314.7,98.2 292.5,129.5 290.3,127.7 								"/>
							</g>
							<g>
								<polygon class="st6" points="264,99.8 287.8,161.5 283.1,163.1 								"/>
							</g>
							<g>
								<polygon class="st6" points="272.4,75.2 291.4,114.3 288.4,115.6 								"/>
							</g>
							<g>
								<polygon class="st6" points="316.9,131.9 284.4,172.2 282.2,170.3 								"/>
							</g>
							<g>
								<polygon class="st6" points="303.9,175.8 262.9,207.3 261.2,205 								"/>
							</g>
						</g>
						<g>
							<g>
								<polygon class="st6" points="259.9,148.4 275.6,189 272.5,190 								"/>
							</g>
						</g>
						<g>
							<polygon class="st6" points="279.2,54.8 290.3,77.6 288.5,78.3 							"/>
						</g>
					</g>
					<g>
						<g>
							<g>
								<path class="st4" d="M215,243.2c0,0,49.6-2.7,74.5-28.8c29.5-30.9,62.6-93.3,126-70.9c0,0-25.2,25.2-38.7,57.1
									C361,238.1,321.7,304.4,215,243.2z"/>
								<path class="st5" d="M415.2,143.8c-10,0.2-21.2,2.8-32.3,10.5c-31.9,22.3-31.9,51-68.6,77.1c-28.9,20.6-73.9,17.2-98.7,12.2
									c106.1,60.4,145.3-5.7,161.1-43.1C389.4,170.7,412.4,146.7,415.2,143.8z"/>
							</g>
							<g>
								<path class="st6" d="M415.2,143.8c-10,0.7-19.7,3.8-27.9,9.2c-8.2,5.5-15.4,12.3-21.5,20c-6.1,7.8-11.1,16.3-16.6,24.8
									c-5.5,8.4-11.7,16.6-19.1,23.8c-1.8,1.9-3.8,3.5-5.7,5.1c-1.9,1.7-4,3.2-6,4.8c-1,0.8-2,1.6-3.1,2.3
									c-1.1,0.7-2.1,1.5-3.3,2.1c-1.1,0.7-2.2,1.3-3.4,1.9l-1.7,0.9l-1.7,0.8c-9.3,4.4-19.4,7-29.4,8.3
									c-10.1,1.3-20.2,1.4-30.3,0.7c-10-0.8-20-2.3-29.7-4.8c9.9,1.4,19.9,2.3,29.8,2.4c9.9,0.2,19.9-0.4,29.6-2.1
									c4.9-0.8,9.7-1.9,14.4-3.3c4.7-1.4,9.3-3.2,13.6-5.4c4.4-2.2,8.5-4.6,12.3-7.7c1.9-1.5,3.9-2.9,5.7-4.6
									c1.8-1.6,3.7-3.2,5.4-5c7.1-6.8,13.1-14.6,18.6-22.8c5.6-8.2,10.9-16.9,17.5-24.6l2.6-2.9l1.3-1.4l1.4-1.3l2.7-2.7
									c0.9-0.9,1.9-1.7,2.9-2.5c1-0.8,1.9-1.6,2.9-2.4l3.1-2.2c2-1.5,4.2-2.9,6.4-4.2C394.9,145.9,405.2,143.4,415.2,143.8z"/>
							</g>
							<g>
								<polygon class="st6" points="379.5,178.5 354.4,187 353.7,184.6 								"/>
							</g>
							<g>
								<polygon class="st6" points="393.1,161.8 368.1,170.3 367.4,167.9 								"/>
							</g>
							<g>
								<polygon class="st6" points="372.5,197.5 341.4,207.8 340.7,205.4 								"/>
							</g>
							<g>
								<polygon class="st6" points="336.9,172.8 321.9,227.3 317.8,226.1 								"/>
							</g>
							<g>
								<polygon class="st6" points="355.1,160.2 348.3,196.7 345.6,196.1 								"/>
							</g>
							<g>
								<polygon class="st6" points="356.9,221.8 314.1,232.9 313.5,230.5 								"/>
							</g>
							<g>
								<polygon class="st6" points="325.7,245.3 281.5,246.1 281.5,243.6 								"/>
							</g>
						</g>
						<g>
							<g>
								<polygon class="st6" points="309.4,204.1 299.5,240 296.8,239.1 								"/>
							</g>
						</g>
						<g>
							<polygon class="st6" points="370.1,149.7 366.2,170.9 364.6,170.6 							"/>
						</g>
					</g>
					<g>
						<path class="st8" d="M91.3,148.2c0,0,5.9,16.6-7,13.3c-18.9-4.8-22.5,12.4-12.1,23.8c8.4,9.2,13.7-1.6,10.9-7.3
							c-4.8-9.8-19.7-20.1-29.9-6.6C43.1,184.8,53.8,211,67,207.9c13.2-3.1-19.8-27.5-28.1-12.6c-7.3,13.1,6.2,17.5,14.4,25
							c11.8,10.7-12.1,34.3-21.1,24.8c-14.4-15.2,28.6-25.4,28.9-3.9c0.3,19.2-26.7,12.1-28.1,27.6c-1.4,15.5,34.9,10.7,47.3,3.4"/>
						<g>
							<g>
								<path class="st9" d="M230.2,105.1c-4.6,0-8.3,3.7-8.3,8.3v10.2c0,5.6-4.5,10.1-10.1,10.1h-29.9H152
									c-5.6,0-10.1-4.5-10.1-10.1v-10.2c0-4.6-3.7-8.3-8.3-8.3c-4.6,0-8.3,3.7-8.3,8.3v19.3c0,5.6,4.5,10.1,10.1,10.1
									c3.5,0,6.4,2.8,6.4,6.4v5.7V178H222v-23.2l0.1,0v-5.7c0-3.5,2.8-6.4,6.4-6.4c5.6,0,10.1-4.5,10.1-10.1v-19.3
									C238.5,108.8,234.8,105.1,230.2,105.1z"/>
								<g>
									<g>
										<path class="st10" d="M290.9,126.6c-1.9-6.7-7.5-13-12.2-17.9C248.2,77.1,199.2,72.4,157.9,77
											c-19.3,2.1-38.3,6.3-55.4,16.1c-12,6.9-28.4,19.2-32.4,33.5c-1.9,6.8-3.9,22.3,8.2,24.9c12.1,2.6,30.4,2.2,40.1-5.2
											c7.9-6.1-3.4-20.2,18.1-25.9c14-3.8,29-6.7,43.8-6.8c15-0.1,29.8,3,44.3,6.8c21.5,5.8,10.1,19.8,18.1,25.9
											c9.7,7.5,28,7.9,40.1,5.2C294.8,148.8,292.8,133.4,290.9,126.6z"/>
										<g class="st11">
											<path class="st10" d="M290.9,126.6c-1.9-6.7-7.5-13-12.2-17.9c-26.5-27.4-66.9-34.6-104.2-33c31.6,1.3,63.5,10.1,85.6,33
												c4.7,4.9,10.4,11.2,12.2,17.9c1.9,6.8,3.9,22.3-8.2,24.9c-1.5,0.3-3.1,0.6-4.7,0.8c8,1.1,16.6,0.6,23.3-0.8
												C294.8,148.8,292.8,133.4,290.9,126.6z"/>
											<path class="st10" d="M161.7,113.4c-14.8,0.1-29.7,3.1-43.8,6.8c-21.5,5.8-10.1,19.8-18.1,25.9
												c-4.3,3.3-10.4,5.2-16.8,6.1c11.7,1.6,26.9,0.5,35.4-6.1c7.9-6.1-3.4-20.2,18.1-25.9c11.4-3.1,23.4-5.5,35.5-6.4
												C168.6,113.6,165.1,113.4,161.7,113.4z"/>
										</g>
									</g>
									<path class="st12" d="M128.1,88.6c0,0-46.1,7.2-52,43.1c-0.9,5.8,7.9,10.6,11.8,0.7C96.2,111,104.6,99.3,128.1,88.6z"/>
								</g>
								<path class="st13" d="M227.8,105.1c-4.6,0-8.3,3.7-8.3,8.3v10.2c0,5.6-4.5,10.1-10.1,10.1h-29.9h-29.9
									c-5.6,0-10.1-4.5-10.1-10.1v-10.2c0-4.6-3.7-8.3-8.3-8.3c-4.6,0-8.3,3.7-8.3,8.3v19.3c0,5.6,4.5,10.1,10.1,10.1
									c3.5,0,6.4,2.8,6.4,6.4v5.7V178h80.3v-23.2l0.1,0v-5.7c0-3.5,2.8-6.4,6.4-6.4c5.6,0,10.1-4.5,10.1-10.1v-19.3
									C236.2,108.8,232.4,105.1,227.8,105.1z"/>
								<path class="st13" d="M294.2,262.4c-5.1-36.3-16.6-69.9-42-81c-24.4-10.7-34.9-28.3-34.9-28.3h-73.3
									c0,0-10.5,17.5-34.9,28.3c-25.4,11.2-36.8,44.8-42,81c-0.9,6.2,2.1,12.3,7.6,15.3c14.9,8,49.2,21.7,105.9,19.4
									c56.8,2.3,91-11.4,105.9-19.4C292.1,274.7,295.1,268.6,294.2,262.4z"/>
								<path class="st14" d="M294.2,262.4c-5.1-36.3-16.6-69.9-42-81c-24.4-10.7-34.9-28.3-34.9-28.3h-6
									c22.6,20.7,39.1,41.1,40.4,57.5c3.1,40.2-22,82.4-129.5,82.8c15.9,2.9,35.3,4.7,58.5,3.8c56.8,2.3,91-11.4,105.9-19.4
									C292.1,274.7,295.1,268.6,294.2,262.4z"/>
								<ellipse class="st13" cx="178.8" cy="177" rx="49.5" ry="35.8"/>
								<g>
									<path class="st15" d="M179,140.9c-28,0-50.7,14.9-50.7,33.4s22.7,33.4,50.7,33.4c28,0,50.7-14.9,50.7-33.4
										S207,140.9,179,140.9z M204.2,151.1c4.8,0,8.6,3,8.6,6.6c0,3.7-3.9,6.6-8.6,6.6c-4.8,0-8.6-3-8.6-6.6
										C195.6,154.1,199.5,151.1,204.2,151.1z M135.2,174.2c0-3.7,3.9-6.6,8.6-6.6c4.8,0,8.6,3,8.6,6.6c0,3.7-3.9,6.6-8.6,6.6
										C139.1,180.9,135.2,177.9,135.2,174.2z M155,198.3c-4.8,0-8.6-3-8.6-6.6c0-3.7,3.9-6.6,8.6-6.6c4.8,0,8.6,3,8.6,6.6
										C163.7,195.3,159.8,198.3,155,198.3z M155,164.4c-4.8,0-8.6-3-8.6-6.6c0-3.7,3.9-6.6,8.6-6.6c4.8,0,8.6,3,8.6,6.6
										C163.7,161.4,159.8,164.4,155,164.4z M180.7,204c-4.8,0-8.6-3-8.6-6.6c0-3.7,3.9-6.6,8.6-6.6c4.8,0,8.6,3,8.6,6.6
										C189.3,201,185.5,204,180.7,204z M180.7,157.7c-4.8,0-8.6-3-8.6-6.6c0-3.7,3.9-6.6,8.6-6.6c4.8,0,8.6,3,8.6,6.6
										C189.3,154.8,185.5,157.7,180.7,157.7z M204.2,198.3c-4.8,0-8.6-3-8.6-6.6c0-3.7,3.9-6.6,8.6-6.6c4.8,0,8.6,3,8.6,6.6
										C212.8,195.3,209,198.3,204.2,198.3z M215.3,180.9c-4.8,0-8.6-3-8.6-6.6c0-3.7,3.9-6.6,8.6-6.6c4.8,0,8.6,3,8.6,6.6
										C223.9,177.9,220,180.9,215.3,180.9z"/>
									<path class="st16" d="M179,138c-28,0-50.7,14.9-50.7,33.4c0,18.4,22.7,33.4,50.7,33.4c28,0,50.7-14.9,50.7-33.4
										C229.7,152.9,207,138,179,138z M204.2,148.2c4.8,0,8.6,3,8.6,6.6c0,3.7-3.9,6.6-8.6,6.6c-4.8,0-8.6-3-8.6-6.6
										C195.6,151.2,199.5,148.2,204.2,148.2z M135.2,171.3c0-3.7,3.9-6.6,8.6-6.6c4.8,0,8.6,3,8.6,6.6c0,3.7-3.9,6.6-8.6,6.6
										C139.1,178,135.2,175,135.2,171.3z M155,195.4c-4.8,0-8.6-3-8.6-6.6c0-3.7,3.9-6.6,8.6-6.6c4.8,0,8.6,3,8.6,6.6
										C163.7,192.4,159.8,195.4,155,195.4z M155,161.5c-4.8,0-8.6-3-8.6-6.6c0-3.7,3.9-6.6,8.6-6.6c4.8,0,8.6,3,8.6,6.6
										C163.7,158.5,159.8,161.5,155,161.5z M180.7,201.1c-4.8,0-8.6-3-8.6-6.6c0-3.7,3.9-6.6,8.6-6.6c4.8,0,8.6,3,8.6,6.6
										C189.3,198.1,185.5,201.1,180.7,201.1z M180.7,154.8c-4.8,0-8.6-3-8.6-6.6c0-3.7,3.9-6.6,8.6-6.6c4.8,0,8.6,3,8.6,6.6
										C189.3,151.9,185.5,154.8,180.7,154.8z M204.2,195.4c-4.8,0-8.6-3-8.6-6.6c0-3.7,3.9-6.6,8.6-6.6c4.8,0,8.6,3,8.6,6.6
										C212.8,192.4,209,195.4,204.2,195.4z M215.3,178c-4.8,0-8.6-3-8.6-6.6c0-3.7,3.9-6.6,8.6-6.6c4.8,0,8.6,3,8.6,6.6
										C223.9,175,220,178,215.3,178z"/>
									<ellipse class="st10" cx="179.5" cy="171.3" rx="19.3" ry="11.3"/>
								</g>
								<path class="st10" d="M293.8,259.8c-1,3.9-3.5,9-7.2,11c-14.9,8-50.5,23.3-105.9,22.3c-55.9,0.1-91-16.1-105.9-24.1
									c-3.7-2-6.2-5.4-7.2-9.2c-0.1,0.9-0.3,1.7-0.4,2.6c-0.9,6.2,2.1,12.3,7.6,15.3c14.9,8,52.7,21.4,105.9,21.2
									c55.4,0.2,91-13.2,105.9-21.2c5.5-3,8.5-9.1,7.6-15.3C294.1,261.5,294,260.7,293.8,259.8z"/>
							</g>
							<path class="st17" d="M107.3,199.3c8.3,6.7,28.6,19.5,66.7,23.4c0,0-42.7,7.6-76.6-6.6c-3.5-1.5-5.8-5.1-5.6-8.9
								c0.1-1.1,0.2-2.3,0.5-3.4C94.1,197.3,102.2,195.1,107.3,199.3z"/>
						</g>
					</g>
				</g>
			</g>
		</g>
	</g>
</g>
<g id="DESIGNED_BY_FREEPIK">
</g>
</svg>
