<?xml version="1.0" encoding="utf-8"?>
<!-- Generator: Adobe Illustrator 23.0.3, SVG Export Plug-In . SVG Version: 6.00 Build 0)  -->
<svg version="1.1" id="Layer_1" xmlns="http://www.w3.org/2000/svg" xmlns:xlink="http://www.w3.org/1999/xlink" x="0px" y="0px"
	 viewBox="0 0 275 162" style="enable-background:new 0 0 275 162;" xml:space="preserve">
<style type="text/css">
	.st0{fill:#FFFFFF;}
</style>
<g>
	<g>
		<path d="M206.5,156.3c0.5,0.4,1,0.6,1.5,0.8c0.5,0.1,0.9,0.2,1.3,0.2c0.5,0,0.8-0.1,0.8-0.3c0-0.4,0.2-1.2,0.6-2.2
			c0.4-1.1,1-2.3,1.7-3.6s1.5-2.7,2.4-4.2s1.7-2.8,2.5-4s1.6-2.2,2.3-3s1.3-1.2,1.6-1.2c0.2,0,0.3,0.1,0.3,0.4c0,0.2,0,0.4-0.1,0.6
			c-0.1,0.2-0.1,0.4-0.1,0.5c-0.3,0.9-0.5,1.8-0.8,2.6c-0.2,0.9-0.5,1.8-0.8,2.7c-0.4,1.1-0.8,2.2-1.1,3.3s-0.5,2.3-0.5,3.5
			c0,1.4,0.4,2.4,1.2,3.1c0.8,0.7,2,1.2,3.6,1.5c0.1,0,0.1,0.1,0.3,0.1c0.1,0,0.1-0.1,0.3-0.3c0.3-1.1,0.8-2.4,1.4-3.9
			c0.7-1.5,1.4-3,2.3-4.6c0.9-1.5,1.7-3,2.6-4.3c0.9-1.4,1.7-2.5,2.4-3.4c0.2-0.2,0.5-0.6,1-1.1s0.9-0.8,1.2-0.8
			c0.2,0,0.3,0.1,0.3,0.3s0,0.4-0.1,0.6c-0.1,0.2-0.1,0.4-0.2,0.5c-0.2,0.7-0.4,1.5-0.7,2.5s-0.6,1.9-0.8,2.9
			c-0.3,0.9-0.5,1.8-0.8,2.5c-0.3,0.8-0.4,1.3-0.4,1.5c-0.1,0.5-0.2,0.9-0.3,1.2s-0.1,0.7-0.1,1.1c0,1,0.2,2,0.7,3.1
			c0.5,1,1.3,1.7,2.6,2.1l1.3,0.2c1.2,0,2.4-0.5,3.7-1.2c1.2-0.8,2.4-1.7,3.5-2.7c0.5-0.5,0.9-0.9,1.4-1.4c0.3,1.2,1,2.2,1.8,3.2
			c1.4,1.5,3.5,2.3,6.3,2.3c1.2,0,2.5-0.2,3.9-0.7c1.4-0.5,2.7-1.1,4-1.8s2.4-1.5,3.5-2.4s1.9-1.8,2.5-2.7c0.1-0.1,0.3-0.3,0.4-0.6
			c0.2-0.3,0.4-0.6,0.6-0.9c0.2-0.3,0.4-0.6,0.5-0.8c0.1-0.3,0.2-0.4,0.2-0.5c0-0.6-0.4-0.8-1.3-0.8c-0.7,0-1.3,0.3-1.8,0.8
			c-0.1,0.2-0.3,0.5-0.6,0.9c-0.3,0.4-0.7,0.8-1,1.2c-1.1,0.9-2.3,1.7-3.8,2.4s-2.9,1.1-4.3,1.1c-1.4,0-2.5-0.4-3.2-1.3
			c-0.7-0.8-1-1.9-1-3.1v-0.5c0-0.2,0-0.4,0.1-0.6c0.9,0.4,1.9,0.6,2.9,0.6c1.3,0,2.5-0.3,3.8-0.9c1.2-0.6,2.3-1.3,3.3-2.2
			c0.9-0.9,1.7-1.9,2.3-3c0.6-1.1,0.8-2.2,0.8-3.2c0-1.4-0.5-2.5-1.5-3.3c-1-0.7-2.4-1.1-4-1.1c-2.1,0-4,0.5-5.8,1.6
			c-1.8,1-3.3,2.3-4.5,3.9c-1.3,1.6-2.3,3.2-3,5c-0.4,1.1-0.7,2.1-0.9,3.1c-0.2,0.2-0.3,0.4-0.6,0.6c-0.5,0.6-1.1,1.2-1.8,1.8
			s-1.3,1.2-2,1.6c-0.7,0.5-1.2,0.7-1.7,0.7c-0.3,0-0.4-0.1-0.5-0.2c-0.1-0.2-0.1-0.3-0.1-0.5c0-0.5,0.1-1.2,0.4-2.1
			c0.3-0.9,0.5-1.8,0.9-2.9c0.3-1,0.7-2.1,1.1-3.3c0.4-1.1,0.7-2.2,1-3.2c0.2-0.5,0.3-1.1,0.5-1.7c0.2-0.6,0.3-1.3,0.3-1.9
			c0-1.1-0.3-1.8-0.9-2.2c-0.6-0.4-1.5-0.6-2.7-0.6s-2.3,0.3-3.3,0.8c-1,0.6-2,1.3-3,2.2s-1.9,2-2.8,3.2c-0.9,1.2-1.7,2.4-2.5,3.7
			l1.2-3.3c0.1-0.5,0.3-1.1,0.5-1.7c0.2-0.6,0.3-1.3,0.3-1.9c0-1.8-1.1-2.7-3.3-2.7c-1.2,0-2.4,0.3-3.4,0.8c-1.1,0.6-2,1.2-2.9,2.1
			c-0.9,0.8-1.7,1.7-2.4,2.7s-1.4,1.9-2,2.7l0.6-1.7c0.3-0.8,0.7-1.6,1-2.5s0.5-1.5,0.6-2.1c0.1-0.9-0.2-1.5-0.8-1.9
			s-1.3-0.6-2.2-0.6c-0.8,0-1.7,0.1-2.5,0.4c-0.8,0.3-1.6,0.7-2.2,1.1v0.1c0.2,0.4,0.3,0.7,0.3,0.9c0,1.5-0.4,3.1-1.1,4.8
			c-0.7,1.7-1.4,3.4-1.9,4.8c-0.4,1.1-0.7,2.1-1,3s-0.5,1.7-0.6,2.3c-0.1,0.2-0.1,0.5-0.1,0.7s0,0.4,0,0.7c0,0.9,0.2,1.7,0.5,2.3
			C205.6,155.5,206,156,206.5,156.3z M252.9,142.7c0.5-0.9,1-1.7,1.7-2.5s1.4-1.6,2.2-2.2c0.8-0.6,1.5-0.9,2.3-0.9
			c0.5,0,0.8,0.3,0.8,1s-0.2,1.5-0.6,2.3s-1,1.5-1.6,2.2c-0.7,0.6-1.4,1.2-2.3,1.6c-0.9,0.4-1.7,0.7-2.6,0.7c-0.3,0-0.6,0-0.8-0.1
			C252.1,144.3,252.4,143.6,252.9,142.7z M20.4,157.5c7.1,0,14.1-3.7,13.9-13.7h-10v3.4h4.9c-0.6,3.9-4.3,6.6-8.8,6.6
			c-5.8,0-10-4.4-10-10.5s3.9-10.4,9.6-10.4c4,0,7.6,2.3,9.2,5.8h3.5v-9h-3.5v3c-2.9-2.4-5.7-3.5-9.6-3.5c-10,0-13.8,7.6-13.8,14
			C5.9,148.6,8.8,157.5,20.4,157.5z M50.7,153.6h-3.3l2.1-6.2h9.8l2,6.2h-3.4v3.4h10.7v-3.4h-3.1l-7.3-20.8h3.2v-3.1H47.5v3.1h3.2
			l-7.5,20.8h-3.3v3.4h10.8V153.6z M54.3,132.8h0.4l3.6,11.4h-7.8L54.3,132.8z M84.2,153.6h-3.5v-9.4h3.9l6.2,12.8h5.9v-3.4h-3.3
			l-4.8-9.9c3.7-0.9,5.6-3.3,5.6-6.8c0-4.1-2.5-7.1-8.7-7.1H72.8v3.4h3.7v20.4h-3.7v3.4h11.4C84.2,157,84.2,153.6,84.2,153.6z
			 M80.7,133.2h5c2.6,0,4.3,1.3,4.3,3.7c0,1.8-0.8,4-4.7,4h-4.6C80.7,140.9,80.7,133.2,80.7,133.2z M111,153.6h-3.3l2.1-6.2h9.8
			l2,6.2h-3.4v3.4h10.7v-3.4h-3.1l-7.3-20.8h3.2v-3.1h-13.9v3.1h3.2l-7.5,20.8h-3.3v3.4H111V153.6z M114.6,132.8h0.4l3.6,11.4h-7.8
			L114.6,132.8z M147.8,157.5c7.1,0,14.1-3.7,13.9-13.7h-10v3.4h4.9c-0.6,3.9-4.3,6.6-8.8,6.6c-5.8,0-10-4.4-10-10.5
			s3.9-10.4,9.6-10.4c4,0,7.6,2.3,9.2,5.8h3.5v-9h-3.5v3c-2.9-2.4-5.7-3.5-9.6-3.5c-10,0-13.8,7.6-13.8,14
			C133.3,148.6,136.2,157.5,147.8,157.5z M191.4,148.6H188v5h-11.6v-8.9h10.1v-3.4h-10.1v-8.1H188v4.8h3.4v-8.2h-22.6v3.4h3.5v20.4
			h-3.5v3.4h22.6V148.6z"/>
	</g>
</g>
<g>
	<path class="st0" d="M90.3,110.6c-0.9,0-2.4-0.2-3.8-1.4c-2.1-1.8-3.2-4.9-3.2-9.3V67.6c0-0.2-0.2-6,2.7-11.1
		c-4.3-2.3-8.9-7-7.2-14.4c0-0.1,1.1-5.3,5.9-7.6c3-1.4,6.7-1.3,10.9,0.5l5.9-12.3c0.6-1.4,6.8-14.6,26.9-14.6h11.1l-3.1,5.4h-8
		c-17,0-21.7,10.9-21.9,11.3l-0.1,0.1L98,42.1L95.7,41c-3.6-1.9-6.6-2.5-8.6-1.5c-2.2,1.1-2.9,3.8-2.9,3.8c-1.7,7,6.4,9.3,6.8,9.4
		l4.3,1.2l-3.1,3.3c-3.6,3.8-3.4,10.3-3.4,10.3v32.4c0,3.8,0.9,5.2,1.5,5.3l0.4-0.1v0.1h9.1c1.5,0,2.6-0.4,3.3-1.1
		c1.2-1.2,1.2-3.2,1.2-3.2v-7.5h44v5.4h-38.6v2c0,0.3,0.1,4.2-2.7,7.1c-1.2,1.3-3.4,2.8-7.2,2.8h-9
		C90.7,110.6,90.5,110.6,90.3,110.6z M90.2,105.2L90.2,105.2L90.2,105.2z"/>
	<path class="st0" d="M118.6,76.3h-12.7c-0.3,0-3-0.3-5-2.6c-1.6-1.9-2.3-4.6-1.9-7.9c0-0.1,0-0.3,0-0.5c0.1-1.6,0.3-4.9,3.1-6.7
		c2.3-1.5,5.6-1.4,9.9,0.2l0.3,0.1c9.9,3.6,12.8,4.7,13.3,9.1v0.3v0.3c0,0.3,0,0.5,0,0.8C125.6,71.4,125.5,76.3,118.6,76.3z
		 M106.3,70.9h12.4c1.2,0,1.5-0.2,1.5-0.2c0.1-0.2,0.1-0.9,0.1-1.4c0-0.3,0-0.5,0-0.8c-0.3-1-2.8-1.9-9.8-4.5l-0.3-0.1
		c-3.9-1.4-5-0.8-5.1-0.7c-0.5,0.3-0.6,1.7-0.6,2.5c0,0.3,0,0.5-0.1,0.7c-0.2,1.7,0.1,3.1,0.7,3.8C105.5,70.8,106.1,70.9,106.3,70.9
		z"/>
	<path class="st0" d="M171,110.9c-1.1,0-2.3,0-3.4-0.1c-1.1,0-2.1-0.1-3.1-0.1c-6.3,0-8.6-5.1-8.6-8.6V55.9c0-2-0.7-2.7-2.4-4.4
		c-0.8-0.8-1.6-1.7-2.6-2.9c-12.7-12.8-12.4-27.7,0.9-41c1.9-1.9,3.7-2.6,5.4-1.9c2.5,1,2.7,4.6,2.7,5.7v12.5c0,1.2,0.2,2.8,1.1,3.7
		c0.9,0.8,2.1,0.6,2.1,0.6h0.3h9.4c2.4,0,4.1-0.6,5-1.6c1-1.1,0.8-2.5,0.8-2.5v-0.2V11.4c0-1.2,0-5,2.6-6.1c1.8-0.7,3.9,0.1,6.2,2.4
		c6.4,6.4,9.4,13.5,9.1,21.2c-0.5,10.6-7.4,18.6-10,20.8l-0.1,0.1c-4.5,3.2-4.7,6.1-4.7,6.3v46.1c0,2.7-0.8,4.9-2.3,6.4
		C177.3,110.5,174.2,110.9,171,110.9z M155.6,9.5c-0.2,0.1-0.6,0.4-1.1,0.9c-8.3,8.3-15.2,21.2-0.8,35.6l0.1,0.2
		c0.9,1.1,1.7,1.9,2.4,2.7c1.9,1.9,3.5,3.6,3.5,7.2v46.1c0,0.8,0.3,4.7,4.7,4.7c1.1,0,2.2,0,3.3,0.1c3.6,0.2,7.3,0.3,8.9-1.2
		c0.8-0.7,1.1-1.9,1.1-3.5V55.9c0-0.5,0.2-5,6.2-9.4c2.1-1.8,8.1-8.8,8.6-17.9c0.3-6.5-2.4-12.7-8-18.2c-0.8-0.8-1.5-1.2-1.9-1.4
		c-0.1,0.3-0.3,1-0.3,2.4v12.4c0.1,0.7,0.1,3.2-1.8,5.4c-1.7,1.9-4.4,2.9-8,2.9h-9.3c-0.7,0.1-3.1,0.1-5-1.6
		c-1.7-1.4-2.5-3.7-2.5-6.6V11.4C155.9,10.7,155.8,10,155.6,9.5z"/>
	<path class="st0" d="M170.8,99h-3.9V58.3h3.9V99z"/>
</g>
</svg>
