<?xml version="1.0" encoding="utf-8"?>
<!-- Generator: Adobe Illustrator 23.0.3, SVG Export Plug-In . SVG Version: 6.00 Build 0)  -->
<svg version="1.1" id="Layer_1" xmlns="http://www.w3.org/2000/svg" xmlns:xlink="http://www.w3.org/1999/xlink" x="0px" y="0px"
	 viewBox="0 0 96 80" style="enable-background:new 0 0 96 80;" xml:space="preserve">
<style type="text/css">
	.st0{fill-rule:evenodd;clip-rule:evenodd;fill:#231F20;}
	.st1{fill-rule:evenodd;clip-rule:evenodd;fill:#DE070D;}
</style>
<g>
	<g>
		<path class="st0" d="M85.6,61V44H80V56H58V33.8h13.8c0,0,0-18.3,0-23s-4.4-4.4-4.4-4.4S50,6.4,46,6.4C46,2.3,43,1.1,40.9,1
			c-5.7,0-5,5.3-5,5.3s-14.3,0-20.2,0s-5.6,5.3-5.6,5.3s0,55.9,0,62.1c0,6.2,5,5.2,5,5.2s48.9,0,53.1,0s3.6-3.6,3.6-3.6V61H85.6z
			 M64,71.9H17.4V13.2h11.2v6.1h24.7v-5.8h10.5L64,28.9H53.2v32.4H64V71.9z"/>
	</g>
</g>
<path class="st1" d="M71.5,52l-10.3-8.4l3.9-4.8l5.1,3.7l10.7-15.9l5.1,3.2L71.5,52z M36.3,57.9H53v3.3H36.3V57.9z M36.3,43.3H53
	v3.3H36.3V43.3z M36.3,28.7H53V32H36.3V28.7z M27.5,63c-2,0-3.5-1.6-3.5-3.5s1.6-3.5,3.5-3.5c2,0,3.5,1.6,3.5,3.5S29.5,63,27.5,63z
	 M27.5,48.4c-2,0-3.5-1.6-3.5-3.5s1.6-3.5,3.5-3.5c2,0,3.5,1.6,3.5,3.5S29.5,48.4,27.5,48.4z M27.5,33.8c-2,0-3.5-1.6-3.5-3.5
	s1.6-3.5,3.5-3.5c2,0,3.5,1.6,3.5,3.5S29.5,33.8,27.5,33.8z"/>
</svg>
