<?xml version="1.0" encoding="utf-8"?>
<!-- Generator: Adobe Illustrator 23.0.3, SVG Export Plug-In . SVG Version: 6.00 Build 0)  -->
<svg version="1.1" id="Layer_1" xmlns="http://www.w3.org/2000/svg" xmlns:xlink="http://www.w3.org/1999/xlink" x="0px" y="0px"
	 viewBox="0 0 96 80" style="enable-background:new 0 0 96 80;" xml:space="preserve">
<style type="text/css">
	.st0{fill-rule:evenodd;clip-rule:evenodd;fill:#231F20;}
	.st1{fill-rule:evenodd;clip-rule:evenodd;fill:#DE070D;}
</style>
<g>
	<g>
		<path class="st0" d="M15.8,9.4H8.9L8.8,70.5H2.5v8.4h19.1v-8.5h-5.9V53.7h23.4v-3.8H15.8V9.4z M87.2,70.5L87.1,9.4h-6.9v40.5H56.9
			v3.8h23.4v16.6h-5.9v8.5h19.1v-8.4H87.2z"/>
	</g>
</g>
<path class="st1" d="M74.4,21.3v17.4h-3.1c0,0,0,5.3,0,6.5c0,1.2-0.2,4.3-4.5,4.3c-4.3,0-4.3-4.1-4.3-4.1v-6.8H34.1h-0.9
	c0,0,0,4.4,0,6.4c0,2,0.2,4.2-4.2,4.2s-4.3-2.6-4.3-2.6v-7.9h-3.2V21.5c0,0-1.5-0.9-2.6-1.6c-2.9-4.1,1.3-3.8,1.3-3.8l4.1,0.3
	c0,0,1.5-7.6,2.3-12c1.3-4.3,5.1-3.3,5.1-3.3s33.3,0,35.2,0c2,0,2.3,2.3,2.3,2.3l2.3,13.3c0,0,0.8,0,4.1-0.1
	C82.4,16.7,74.4,21.3,74.4,21.3z M38.3,32.9h19.1c1.3,0,2.4-1.1,2.4-2.4c0-1.3-1.1-2.4-2.4-2.4H38.3c-1.3,0-2.4,1.1-2.4,2.4
	C35.9,31.8,37,32.9,38.3,32.9z M23.7,30.4c0,2.3,1.9,4.2,4.2,4.2s4.2-1.9,4.2-4.2c0-2.3-1.9-4.2-4.2-4.2S23.7,28.1,23.7,30.4z
	 M65.3,3.8H30.8L27,18.6l0.6,1h41.1L65.3,3.8z M67.7,26.2c-2.3,0-4.2,1.9-4.2,4.2c0,2.3,1.9,4.2,4.2,4.2c2.3,0,4.2-1.9,4.2-4.2
	C71.9,28.1,70,26.2,67.7,26.2z"/>
</svg>
