<?xml version="1.0" encoding="utf-8"?>
<!-- Generator: Adobe Illustrator 23.0.3, SVG Export Plug-In . SVG Version: 6.00 Build 0)  -->
<svg version="1.1" id="Layer_1" xmlns="http://www.w3.org/2000/svg" xmlns:xlink="http://www.w3.org/1999/xlink" x="0px" y="0px"
	 viewBox="0 0 267 272" style="enable-background:new 0 0 267 272;" xml:space="preserve">
<style type="text/css">
	.st0{fill:#10303E;}
	.st1{fill:#FFB137;}
	.st2{fill:#5BB9FF;}
	.st3{fill:#525B66;}
	.st4{fill:#FFFFFF;}
	.st5{fill:#0891FF;}
	.st6{fill:#FA7500;}
	.st7{fill:#E70000;}
	.st8{fill:#B9BCBA;}
</style>
<g>
	<g>
		<path class="st0" d="M62,178.8c0,0-1.5-7-3.2-8.7c-1.7-1.7-14.1-0.2-17.4,3.1c-3.3,3.3-2.7,7,0,8.1c2.7,1.1,18.2,4,18.2,4
			L62,178.8z"/>
		<path class="st0" d="M198.3,272.1h11.4c2.5,0,4.4-2,4.4-4.4v-36.2h-20.3v36.2C193.9,270.1,195.8,272.1,198.3,272.1z"/>
		<path class="st0" d="M69,272.1H57.5c-2.5,0-4.4-2-4.4-4.4v-36.2h20.3v36.2C73.4,270.1,71.4,272.1,69,272.1z"/>
		<path class="st1" d="M214.1,212.6c-0.8-16.8-4.8-22.8-6.9-28.3c-2.2-5.8-11.9-37.9-20.6-44.6c-5.8-4.5-32.4-5.6-52.9-5.6
			c-20.5,0-47.1,1.1-52.9,5.6c-8.7,6.7-18.4,38.9-20.6,44.6c-2.2,5.5-6.1,11.5-6.9,28.3c-1,21.7,5.1,36.5,11.2,36.5
			c6.2,0,69.2,0,69.2,0s63,0,69.2,0C209,249,215.1,234.3,214.1,212.6z"/>
		<path class="st0" d="M205.2,178.8c0,0,1.5-7,3.2-8.7c1.7-1.7,14.1-0.2,17.4,3.1c3.3,3.3,2.7,7,0,8.1c-2.7,1.1-18.2,4-18.2,4
			L205.2,178.8z"/>
		<path class="st2" d="M200.6,180.2c-0.7-3.6-13.3-32.2-16.6-35.5c-3.3-3.3-35.2-4.2-50.4-4.2c-15.2,0-47.1,0.9-50.4,4.2
			c-3.3,3.3-15.9,31.9-16.6,35.5c-0.5,2.4,1.8,3.6,4.7,3.3c4-0.4,28.1-4.2,62.3-4.2c34.2,0,58.3,3.8,62.3,4.2
			C198.8,183.8,201.1,182.6,200.6,180.2z"/>
		<path class="st0" d="M168.4,171.8c-6.2,0-11.7,3.2-15,8c1.6,0.1,3.1,0.1,4.6,0.2c2.6-2.7,6.3-4.4,10.4-4.4c4.9,0,9.1,2.4,11.7,6.1
			c1.7,0.2,3.2,0.3,4.6,0.5C181.8,176,175.6,171.8,168.4,171.8z"/>
		<path class="st3" d="M215.5,221h-81.9H51.7c-7,0-2.8,28.2,6,28.2h75.9h75.9C218.3,249.1,222.6,221,215.5,221z"/>
		<path class="st3" d="M79.5,212.6c-4.8,0-9.5-0.3-11.8-0.8c-2.1-0.4-3.5-2.3-4-5.1c-0.6-3.8,0.6-9.6,3.1-11
			c0.6-0.4,1.8-0.6,3.3-0.6c7.5,0,22,4.1,23.6,14c0.1,0.5-0.1,1-0.4,1.4C91.8,212.2,85,212.6,79.5,212.6z"/>
		<path class="st4" d="M92.8,209.2c0.5,3.2-19.6,2.9-25,1.7c-5.3-1.1-3.6-12.8-0.7-14.5C70.1,194.7,91,197.6,92.8,209.2z"/>
		<path class="st3" d="M187.7,212.6c-5.4,0-12.3-0.4-13.8-2.2c-0.3-0.4-0.5-0.9-0.4-1.4c1.6-9.9,16.2-14,23.6-14
			c1.6,0,2.7,0.2,3.3,0.6c2.4,1.4,3.7,7.2,3.1,11c-0.5,2.9-1.9,4.7-4,5.1C197.3,212.3,192.5,212.6,187.7,212.6L187.7,212.6z"/>
		<path class="st4" d="M174.4,209.2c-0.5,3.2,19.6,2.9,25,1.7c5.3-1.1,3.6-12.8,0.7-14.5C197.1,194.7,176.3,197.6,174.4,209.2z"/>
		<path class="st0" d="M204,231.4c-0.3-0.4-0.8-0.7-1.3-0.7l-138.2,0c-0.5,0-1,0.2-1.3,0.7c-0.3,0.4-0.4,0.9-0.2,1.4l1.3,3.9
			c1.3,3.8,4.8,6.4,8.8,6.4l121,0c4,0,7.5-2.6,8.8-6.4l1.3-3.9C204.4,232.4,204.3,231.9,204,231.4z"/>
		<rect x="131.6" y="230.8" class="st3" width="4.1" height="12.3"/>
		<rect x="88.7" y="235.8" class="st3" width="89.9" height="2.3"/>
		<rect x="147.7" y="230.8" class="st3" width="4.1" height="12.3"/>
		<path class="st5" d="M153.4,179.7c0,0-8.1-22.1-18.7-34.7c-1.3-1.6-2.7-3.1-4.1-4.5c-16,0.1-44.3,1.1-47.4,4.2
			c-3.3,3.3-15.9,31.9-16.6,35.5c-0.5,2.4,1.8,3.6,4.7,3.3c4-0.4,28.1-4.2,62.3-4.2C140.7,179.3,147.3,179.5,153.4,179.7z"/>
		
			<rect x="115.4" y="230.8" transform="matrix(-1 -1.224647e-16 1.224647e-16 -1 234.8888 473.9381)" class="st3" width="4.1" height="12.3"/>
		<path class="st4" d="M88.3,237c0,3.4-2.8,6.2-6.2,6.2S76,240.4,76,237c0-3.4,2.8-6.2,6.2-6.2S88.3,233.6,88.3,237z"/>
		<path class="st4" d="M178.9,237c0,3.4,2.8,6.2,6.2,6.2c3.4,0,6.2-2.8,6.2-6.2c0-3.4-2.8-6.2-6.2-6.2
			C181.7,230.8,178.9,233.6,178.9,237z"/>
		<path class="st3" d="M132.9,221.7c-12.5,0-28.1-0.7-31.2-3.8c-2.5-2.5-7.6-11.8-7.1-15.5c0.2-1.6,1.2-2.4,1.8-2.7
			c3.8-2.2,26.8-3,36.5-3.2c9.8,0.2,32.8,1,36.6,3.2c0.6,0.3,1.5,1.1,1.8,2.7c0.5,3.7-4.6,12.9-7.1,15.5
			C160.9,221,145.4,221.7,132.9,221.7z"/>
		<path class="st4" d="M132.9,220.8c-10.1,0-27.5-0.5-30.6-3.6c-2.6-2.6-7.3-11.5-6.8-14.7c0.2-1.2,0.9-1.8,1.3-2.1
			c3.8-2.2,28.5-2.9,36-3.1c7.6,0.2,32.4,0.9,36.2,3.1c0.4,0.2,1.2,0.8,1.3,2.1c0.4,3.2-4.2,12.1-6.8,14.7
			C160.4,220.3,143,220.8,132.9,220.8z"/>
		<path class="st0" d="M167.9,202.4c-3.6-2.1-35-2.8-35-2.8s-31.4,0.8-35,2.8c-1.3,0.7,3.1,10.4,6,13.3s29,2.9,29,2.9s26.1,0,29-2.9
			S169.1,203.1,167.9,202.4z"/>
		<path class="st4" d="M168,203.5H97.7c0.1,0.6,0.3,1.4,0.6,2.3h69.1C167.7,204.9,168,204.1,168,203.5z"/>
		<path class="st4" d="M100.5,210.6h64.7c0.4-0.7,0.8-1.5,1.1-2.3h-67C99.7,209.1,100.1,209.9,100.5,210.6z"/>
		<path class="st4" d="M131.1,220.4h3.6c0-7.2,0-14.6,0.1-21.8H131C131,205.8,131,213.2,131.1,220.4z"/>
		<path class="st4" d="M103.7,215.5H162c0.5-0.6,1.1-1.4,1.7-2.3H102C102.6,214.1,103.2,214.9,103.7,215.5z"/>
		<path class="st0" d="M141.2,145H126c-0.7,0-1.3,1.3-1.3,2.8s0.6,2.8,1.3,2.8h15.2c0.7,0,1.3-1.3,1.3-2.8S142,145,141.2,145z"/>
		<path class="st6" d="M200.7,217.4c0,0.9-0.8,1.7-1.7,1.7h-18.3c-0.9,0-1.7-0.8-1.7-1.7v-1.5c0-0.9,0.8-1.7,1.7-1.7H199
			c0.9,0,1.7,0.8,1.7,1.7V217.4z"/>
		<path class="st6" d="M68.3,219.1h18.3c0.9,0,1.7-0.8,1.7-1.7v-1.5c0-0.9-0.8-1.7-1.7-1.7H68.3c-0.9,0-1.7,0.8-1.7,1.7v1.5
			C66.6,218.3,67.3,219.1,68.3,219.1z"/>
	</g>
	<path class="st7" d="M7.6,33c-4,0-7.2,3.2-7.2,7.2v40.4v191.5h23.8V80.6H243v191.5h23.8V80.6V40.2c0-4-3.2-7.2-7.2-7.2H7.6z"/>
	<rect x="24.2" y="80.6" class="st3" width="218.8" height="47.6"/>
	<rect x="24.2" y="123.3" class="st8" width="218.8" height="4.9"/>
	<rect x="24.2" y="111.2" class="st8" width="218.8" height="4.9"/>
	<rect x="24.2" y="99" class="st8" width="218.8" height="4.9"/>
	<rect x="24.2" y="86.9" class="st8" width="218.8" height="4.9"/>
</g>
<circle class="st4" cx="133.5" cy="35.5" r="39.5"/>
<circle class="st7" cx="133.5" cy="35.5" r="33.5"/>
<g>
	<g>
		<path class="st4" d="M121.6,51.2c0,0,0,0.8-0.4,1.2c-0.3,0.3-0.7,0.4-1.3,0.4h-3.5l0,0l-0.1,0c-0.2-0.1-0.6-0.6-0.6-2l0-12.4
			c0,0-0.1-2.5,1.3-4l1.2-1.3l-1.7-0.5c-0.1,0-3.2-0.9-2.6-3.6c0,0,0.3-1.1,1.1-1.5c0.8-0.4,1.9-0.2,3.3,0.6l1,0.5l3.2-6.6l0-0.1
			c0.1-0.2,1.9-4.4,8.4-4.4h3.1l1.2-2.1h-4.3c-7.7,0-10.1,5.1-10.3,5.6l-2.3,4.7c-1.6-0.7-3-0.7-4.2-0.2c-1.8,0.9-2.2,2.9-2.3,2.9
			c-0.7,2.9,1.1,4.7,2.7,5.5c-1.1,2-1,4.2-1,4.3v12.4c0,1.7,0.4,2.9,1.2,3.6c0.5,0.4,1.1,0.5,1.4,0.5c0.1,0,0.1,0,0.2,0h3.5
			c1.4,0,2.3-0.6,2.8-1.1c1.1-1.1,1-2.6,1-2.7v-0.8h14.8v-2.1h-16.9L121.6,51.2z M124.7,35.1l-0.1,0c-1.7-0.6-2.9-0.7-3.8-0.1
			c-1.1,0.7-1.1,2-1.2,2.6c0,0.1,0,0.1,0,0.2c-0.1,1.3,0.1,2.3,0.7,3c0.8,0.9,1.8,1,1.9,1l4.9,0c2.6,0,2.7-1.9,2.7-2.6
			c0-0.1,0-0.2,0-0.3l0-0.1l0-0.1C129.6,36.9,128.5,36.5,124.7,35.1z M127.7,39.1c0,0.2,0,0.5,0,0.5c0,0-0.1,0.1-0.6,0.1h-4.8
			c-0.1,0-0.3-0.1-0.4-0.3c-0.2-0.3-0.3-0.8-0.3-1.5c0-0.1,0-0.2,0-0.3c0-0.3,0.1-0.8,0.2-0.9c0,0,0.5-0.3,2,0.3l0.1,0
			c2.7,1,3.6,1.3,3.8,1.7C127.7,38.9,127.7,39,127.7,39.1z M153.5,15.4c-0.9-0.9-1.7-1.2-2.4-0.9c-1,0.4-1,1.9-1,2.3v4.8l0,0.1
			c0,0,0,0.5-0.3,0.9c-0.4,0.4-1,0.6-1.9,0.6h-3.6l-0.1,0c0,0-0.5,0.1-0.8-0.2c-0.4-0.3-0.4-0.9-0.4-1.4v-4.8c0-0.4-0.1-1.8-1-2.2
			c-0.6-0.3-1.3,0-2.1,0.7c-5.1,5.1-5.2,10.8-0.3,15.8c0.4,0.5,0.7,0.8,1,1.1c0.7,0.7,0.9,0.9,0.9,1.7v17.7c0,1.3,0.9,3.3,3.3,3.3
			c0.4,0,0.8,0,1.2,0c0.4,0,0.9,0,1.3,0c1.2,0,2.4-0.2,3.2-0.9c0.6-0.6,0.9-1.4,0.9-2.4l0-17.7c0,0,0.1-1.2,1.8-2.4l0,0
			c1-0.8,3.7-3.9,3.8-8C157.1,20.6,155.9,17.8,153.5,15.4z M152.2,30.3c-2.3,1.7-2.4,3.4-2.4,3.6v17.7c0,0.6-0.1,1.1-0.4,1.4
			c-0.6,0.6-2,0.5-3.4,0.5c-0.4,0-0.8,0-1.3,0c-1.7,0-1.8-1.5-1.8-1.8V33.9c0-1.4-0.6-2-1.3-2.7c-0.3-0.3-0.6-0.6-0.9-1l-0.1-0.1
			c-5.5-5.5-2.9-10.5,0.3-13.7c0.2-0.2,0.3-0.3,0.4-0.3c0.1,0.2,0.1,0.5,0.1,0.7v4.8c0,1.1,0.3,2,1,2.6c0.8,0.7,1.7,0.6,1.9,0.6h3.6
			c1.4,0,2.4-0.4,3.1-1.1c0.7-0.8,0.7-1.8,0.7-2.1v-4.8c0-0.5,0.1-0.8,0.1-0.9c0.1,0.1,0.4,0.2,0.7,0.5c2.1,2.1,3.2,4.5,3.1,7
			C155.3,26.9,153,29.6,152.2,30.3z M145.6,50.5h1.5V34.8h-1.5V50.5z"/>
	</g>
</g>
</svg>
