<?xml version="1.0" encoding="utf-8"?>
<!-- Generator: Adobe Illustrator 23.0.3, SVG Export Plug-In . SVG Version: 6.00 Build 0)  -->
<svg version="1.1" id="Layer_1" xmlns="http://www.w3.org/2000/svg" xmlns:xlink="http://www.w3.org/1999/xlink" x="0px" y="0px"
	 viewBox="0 0 96 80" style="enable-background:new 0 0 96 80;" xml:space="preserve">
<style type="text/css">
	.st0{fill-rule:evenodd;clip-rule:evenodd;fill:#DE070D;}
	.st1{fill-rule:evenodd;clip-rule:evenodd;fill:#231F20;}
</style>
<g>
	<g>
		<path class="st0" d="M81.5,42.1L69,39.9l4.8-14.2l-2.6-4.8l-7,17.7c0,0-13.4-9.9-22.7-10c-9.4,0-10.5,0-10.5,0s-9.6,0.5-20.3,8.8
			c-2.1,0.7-7.3,2.2-7.3,2.2S2.1,39.5,2,42.2S1.9,47,1.9,47s-1.7,1-0.4,6.6c1.2,5.6,1.8,8.5,1.8,8.5h6.1c0-5.3,4.3-9.5,9.5-9.5
			c5.3,0,9.5,4.3,9.5,9.5h27.9c0-5.3,4.3-9.5,9.5-9.5s9.5,4.3,9.5,9.5h9l2.8-2.4C87.1,59.7,88.1,47.4,81.5,42.1z M34.3,39.4H17
			c0,0,0.1-0.7,0.1-2.8c7-4.5,12.3-5.2,12.3-5.2h4.8V39.4z M40.4,39.6v-8.2c8.6-1.3,19.7,8.2,19.7,8.2H40.4z"/>
	</g>
</g>
<path class="st1" d="M94.6,19.1L80.2,30.3l-2.1-2.2c2.5-1.6,2.1-4.2,1.6-5.4c-2.1-3.8,1.2-6.8,1.2-6.8s5-4,6.3-5.3s2.3-0.2,2.3-0.2
	s3.6,4.8,4.9,6.4C95.6,18.5,94.6,19.1,94.6,19.1z M77.7,35.2c-3.4-0.7,0.3-4.8,0.3-4.8C80.3,34.2,78.4,35.2,77.7,35.2z M66.4,70
	c-4.4,0-7.9-3.5-7.9-7.9c0-4.4,3.5-7.9,7.9-7.9s7.9,3.5,7.9,7.9C74.3,66.5,70.8,70,66.4,70z M66.4,58.3c-2.1,0-3.9,1.7-3.9,3.9
	c0,2.1,1.7,3.9,3.9,3.9s3.9-1.7,3.9-3.9C70.3,60,68.6,58.3,66.4,58.3z M18.8,70c-4.4,0-7.9-3.5-7.9-7.9c0-4.4,3.5-7.9,7.9-7.9
	s7.9,3.5,7.9,7.9C26.7,66.5,23.2,70,18.8,70z M18.8,58.3c-2.1,0-3.9,1.7-3.9,3.9c0,2.1,1.7,3.9,3.9,3.9s3.9-1.7,3.9-3.9
	C22.7,60,21,58.3,18.8,58.3z"/>
</svg>
