<?xml version="1.0" encoding="utf-8"?>
<!-- Generator: Adobe Illustrator 23.0.3, SVG Export Plug-In . SVG Version: 6.00 Build 0)  -->
<svg version="1.1" id="Layer_1" xmlns="http://www.w3.org/2000/svg" xmlns:xlink="http://www.w3.org/1999/xlink" x="0px" y="0px"
	 viewBox="0 0 96 80" style="enable-background:new 0 0 96 80;" xml:space="preserve">
<style type="text/css">
	.st0{fill-rule:evenodd;clip-rule:evenodd;fill:#DE070D;}
	.st1{fill-rule:evenodd;clip-rule:evenodd;fill:#231F20;}
</style>
<g>
	<g>
		<path class="st0" d="M20.1,55.6c0-1.3-1.1-1.1-1.1-1.1s-4.5,0-5.7,0c-1.3,0-1.1,1-1.1,1s0.1,4.4,0.1,5.7c0,1.4,1.2,1.2,1.2,1.2
			s4.1,0,5.5,0c1.4,0,1.1-1.1,1.1-1.1S20.1,56.9,20.1,55.6z M18.2,60.6h-4l0-4.1h4V60.6z M20.1,40.5c0-1.3-1.1-1.1-1.1-1.1
			s-4.5,0-5.7,0c-1.3,0-1.1,1-1.1,1s0.1,4.4,0.1,5.7c0,1.4,1.2,1.2,1.2,1.2s4.1,0,5.5,0c1.4,0,1.1-1.1,1.1-1.1S20.1,41.8,20.1,40.5z
			 M18.2,45.5h-4l0-4.1h4V45.5z M15.1,31.4c0.7-0.8,4.7-5.3,4.7-5.3s0.6-1.9-1.5-1.2c-1.3,1.5-4,4.3-4,4.3l-1-0.8
			c0,0-1.9-0.5-1.2,1.6l1.6,1.6C13.7,31.6,14.4,32.2,15.1,31.4z M31.9,60.1h-7c-0.5,0-0.9,0.4-0.9,0.9c0,0.5,0.4,0.9,0.9,0.9h7
			c0.5,0,0.9-0.4,0.9-0.9C32.9,60.5,32.5,60.1,31.9,60.1z M39.1,25.2H25c-0.5,0-0.9,0.4-0.9,0.9s0.4,0.9,0.9,0.9h14.1
			c0.5,0,0.9-0.4,0.9-0.9S39.6,25.2,39.1,25.2z M39.1,54.7H25c-0.5,0-0.9,0.4-0.9,0.9s0.4,0.9,0.9,0.9h14.1c0.5,0,0.9-0.4,0.9-0.9
			S39.6,54.7,39.1,54.7z M90.4,38.9c-1.7-2-4.4-4.6-4.8-7c1.9,0,6.2,0,6.2,0s2.9-0.1,2.9-3.7c0-1.2-0.5-2.5-3.6-2.5
			c-3,0-3.2,0.7-4.1,2.4c-0.5,0.6-2.2,1.8-3.2,0.3c-1-1.7-5.4-12.1-20.9-12.4c-8.4,0-8.5,0-8.5,0v3.4h9.2c0,0,11.8-0.2,15.9,11.9
			c0,0-13.9,1.4-25.1,1.1c0,3.1,0,20.5,0,20.5h9.3c0,0,11.5,0.3,11.5,3.1c-0.1,0.8-0.8,1.9-9.1,2.3c-8.3,0-11.8,0-11.8,0v9.6H80
			c0,0,12.8-1.7,14.2-13.6C94.2,48.5,95.2,42.8,90.4,38.9z M86.7,51.3c-4.2,1.2-6.1,2.7-7.8,0c0,0-1.8-1.4-0.3-2.9
			c1.4-1.3,8.6-6.4,8.6-6.4s2.5-1.3,3.5,1.3C91.5,45.4,91.9,49.4,86.7,51.3z M25,32.3h7c0.5,0,0.9-0.4,0.9-0.9s-0.4-0.9-0.9-0.9h-7
			c-0.5,0-0.9,0.4-0.9,0.9S24.5,32.3,25,32.3z M39.1,39.8H25c-0.5,0-0.9,0.4-0.9,0.9s0.4,0.9,0.9,0.9h14.1c0.5,0,0.9-0.4,0.9-0.9
			S39.6,39.8,39.1,39.8z M25,46.8h7c0.5,0,0.9-0.4,0.9-0.9s-0.4-0.9-0.9-0.9h-7c-0.5,0-0.9,0.4-0.9,0.9S24.5,46.8,25,46.8z"/>
	</g>
</g>
<path class="st1" d="M87.5,76c-4.3,0-8.6,0-8.6,0s-3.7,0-3.7-3.7l0.1-2.1h5.2c0,0,4.7,0,10.7-4.8v6.9C91.2,72.2,91.7,76,87.5,76z
	 M47.1,75.7H4.3c-1.6,0-2.9-1.3-2.9-2.9V14.1c0-1.6,1.3-2.9,2.9-2.9h9V15c0,0,0.1,2.1,1.3,3.6H9.9c-1.2,0-2.1,1-2.1,2.1v47
	c0,1.2,1,2.1,2.1,2.1h31.5c1.2,0,2.1-1,2.1-2.1v-47c0-1.2-1-2.1-2.1-2.1h-4.3c0.6-0.6,1.2-1.7,1.4-3.5c0-2,0-3.2,0-3.9h8.6
	c1.6,0,2.9,1.3,2.9,2.9v58.7C50,74.4,48.7,75.7,47.1,75.7z M33.3,18.4c0,0-9.5,0-13.9,0s-3.9-2.5-3.9-2.5v-4.7
	c2.2,0.2,2.2-0.7,2.5-1.4C19.4,5,23.7,4,25.7,4c5.3,0.3,6.6,3.4,7.6,5.5c0.8,2.2,2.1,1.6,2.1,1.6l1,0.2c0,0,0,0.2,0,3.6
	C36.4,18.5,33.3,18.4,33.3,18.4z M25.8,7.4c-1.5,0-2.7,1.2-2.7,2.7s1.2,2.7,2.7,2.7c1.5,0,2.7-1.2,2.7-2.7S27.3,7.4,25.8,7.4z"/>
</svg>
