<?xml version="1.0" encoding="utf-8"?>
<!-- Generator: Adobe Illustrator 23.0.3, SVG Export Plug-In . SVG Version: 6.00 Build 0)  -->
<svg version="1.1" id="Layer_1" xmlns="http://www.w3.org/2000/svg" xmlns:xlink="http://www.w3.org/1999/xlink" x="0px" y="0px"
	 viewBox="0 0 96 80" style="enable-background:new 0 0 96 80;" xml:space="preserve">
<style type="text/css">
	.st0{fill-rule:evenodd;clip-rule:evenodd;fill:#231F20;}
	.st1{fill-rule:evenodd;clip-rule:evenodd;fill:#DE070D;}
</style>
<g>
	<g>
		<path class="st0" d="M68.9,27.4c7.4,0,13.5-6,13.5-13.5c0-7.4-6-13.5-13.5-13.5c-7.4,0-13.5,6-13.5,13.5
			C55.5,21.4,61.5,27.4,68.9,27.4z M68.9,5.6c4.6,0,8.4,3.7,8.4,8.4s-3.7,8.4-8.4,8.4s-8.4-3.7-8.4-8.4S64.3,5.6,68.9,5.6z M48,36.4
			c-2.6,0-4.7,2.1-4.7,4.7s2.1,4.7,4.7,4.7s4.7-2.1,4.7-4.7S50.6,36.4,48,36.4z M82.1,23.5c-2.2,3.1-5.4,5.3-9.2,6.3
			c1.6,3.5,2.5,7.3,2.5,11.3c0,15.1-12.3,27.4-27.4,27.4S20.6,56.2,20.6,41.1S32.9,13.8,48,13.8c1.5,0,2.9,0.1,4.3,0.3
			c0-0.1,0-0.1,0-0.2c0-3.9,1.4-7.5,3.6-10.3c-2.6-0.5-5.2-0.8-8-0.8C26.8,2.8,9.6,19.9,9.6,41.1S26.8,79.5,48,79.5
			s38.4-17.2,38.4-38.4C86.4,34.8,84.8,28.8,82.1,23.5z"/>
	</g>
</g>
<path class="st1" d="M53.9,21c-1.9-0.5-3.9-0.8-5.9-0.8c-3.4,0-6.6,0.8-9.4,2.2c1.4,5.7,5.4,7.2,9.2,7.5c6.2,0.5,8.7-4.8,8.7-4.8
	s0.4,0.4,1.1,0.9c0.9,0.8,1.9,1.6,3,2.2c0.1,0.1,0.2,0.1,0.4,0.2c-3.2,4.7-2.1,9-0.8,11.5c2.7,4.5,6.6,5,8.6,4.9
	c0.2-1.2,0.3-2.3,0.3-3.6c0-4.1-1.2-7.8-3.1-11.1c0.9,0.2,1.9,0.3,2.9,0.3c0.2,0,0.5,0,0.7,0c1.6,3.3,2.6,6.9,2.6,10.8
	c0,13.3-10.8,24-24,24s-24-10.8-24-24s10.8-24,24-24c1.6,0,3.2,0.2,4.7,0.5C53,18.7,53.4,19.9,53.9,21z M51.3,61.9
	c6.7-1,12.3-5.2,15.3-11c-5.3-3-9.3-1.3-11.6,0.1C50.2,54.3,50.9,60.1,51.3,61.9z M54.7,41.1c0-3.7-3-6.7-6.7-6.7s-6.7,3-6.7,6.7
	c0,3.7,3,6.7,6.7,6.7S54.7,44.8,54.7,41.1z M45,61.9c0.8-6.3-1.3-8.6-3.4-10.7C36,46.9,31.3,50,29.6,51.3C32.8,56.9,38.4,61,45,61.9
	z M32.8,26.7c-3.6,3.8-5.8,8.9-5.8,14.5c0,1.2,0.1,2.3,0.3,3.5c8.2-0.3,9.4-5,10-8.2C38.3,30.2,34.3,27.5,32.8,26.7z"/>
<path class="st1" d="M73.2,9.1l-2.9,4.4c0,0.1,0,0.2,0,0.3c0,0.9-0.7,1.6-1.6,1.6c-0.9,0-1.6-0.7-1.6-1.6c0-0.9,0.7-1.6,1.6-1.6
	c0,0,0.1,0,0.1,0L73.2,9.1z"/>
</svg>
